<?xml version="1.0" standalone="no"?>
<!DOCTYPE svg PUBLIC "-//W3C//DTD SVG 20010904//EN"
 "http://www.w3.org/TR/2001/REC-SVG-20010904/DTD/svg10.dtd">
<svg version="1.0" xmlns="http://www.w3.org/2000/svg"
 width="1024.000000pt" height="1024.000000pt" viewBox="0 0 1024.000000 1024.000000"
 preserveAspectRatio="xMidYMid meet">

<g transform="translate(0.000000,1024.000000) scale(0.100000,-0.100000)"
fill="#000000" stroke="none">
<path d="M2 8055 c3 -1911 5 -2187 18 -2195 8 -5 11 -12 7 -16 -4 -4 -2 -13 4
-20 8 -10 7 -17 -4 -29 -12 -11 -17 -12 -21 -2 -2 6 -4 -239 -3 -545 1 -306 5
-560 9 -564 14 -13 21 5 9 20 -9 11 -8 15 4 20 8 3 15 1 15 -4 0 -6 4 -10 9
-10 4 0 4 19 -1 43 -5 23 -11 65 -12 94 -3 40 0 50 10 46 8 -3 14 0 14 6 0 6
-6 11 -12 11 -10 0 -10 2 0 9 7 4 12 12 11 17 -5 15 12 54 22 54 5 0 9 7 9 15
0 8 7 15 15 15 8 0 12 6 10 13 -5 14 53 80 75 86 98 25 120 36 120 60 0 5 10
8 23 5 12 -3 46 -7 75 -9 52 -4 57 -1 52 35 -1 12 1 12 10 3 14 -13 40 -7 40
9 0 6 -7 8 -15 4 -9 -3 -15 0 -15 9 0 9 6 12 17 8 12 -5 15 -2 10 9 -3 10 0
19 9 22 8 3 14 1 14 -5 0 -6 4 -7 10 -4 5 3 10 2 10 -4 0 -5 3 -16 6 -25 4
-11 -2 -19 -17 -25 -20 -7 -16 -8 20 -8 31 0 48 -6 58 -18 7 -10 16 -16 19
-12 4 4 1 14 -7 23 -13 16 -12 16 8 5 13 -6 23 -16 23 -21 0 -5 9 -7 20 -5 11
2 18 0 15 -5 -7 -11 31 -24 45 -15 5 3 10 2 10 -4 0 -6 7 -8 15 -5 9 4 15 0
15 -10 0 -9 7 -16 15 -16 8 0 13 6 11 13 -1 6 -1 9 2 4 10 -18 42 -27 61 -17
13 7 28 7 46 0 23 -9 31 -6 60 22 19 18 35 39 37 47 6 27 70 83 90 78 12 -4
18 0 18 11 0 15 2 15 11 2 8 -12 9 -10 5 10 -3 14 -6 30 -6 36 0 7 -9 14 -20
17 -11 3 -20 13 -20 23 0 24 -68 84 -95 84 -13 0 -26 6 -28 13 -3 7 -6 8 -6 1
-1 -7 -12 -9 -27 -6 -20 4 -25 2 -19 -7 5 -9 1 -12 -11 -10 -11 2 -25 0 -31
-4 -9 -5 -13 -3 -13 7 0 9 -8 16 -19 16 -11 0 -23 5 -26 10 -4 6 -11 8 -16 5
-5 -4 -12 1 -15 10 -4 10 -13 13 -25 10 -15 -5 -17 -3 -12 12 6 15 4 16 -9 5
-11 -9 -17 -9 -20 -2 -2 6 -12 12 -23 14 -10 1 -26 17 -35 34 -8 17 -22 32
-30 33 -9 0 -11 2 -3 5 7 3 9 12 6 20 -3 7 -9 11 -14 8 -5 -3 -9 0 -9 6 0 15
-41 49 -58 50 -8 0 -10 5 -6 12 5 7 2 9 -9 5 -23 -8 -36 13 -33 53 2 19 0 40
-3 45 -9 15 -7 65 2 65 5 0 6 9 2 19 -3 11 -1 22 4 25 6 4 8 13 4 21 -3 8 0
15 7 15 6 0 10 6 8 12 -3 7 2 19 9 27 12 11 12 15 2 22 -8 4 -10 11 -6 15 4 4
-5 14 -20 21 -16 7 -20 11 -10 8 21 -6 22 2 1 23 -12 12 -37 17 -83 18 -57 2
-74 6 -115 35 -27 18 -51 40 -53 51 -3 10 -9 15 -14 13 -4 -3 -16 7 -26 22
-15 23 -18 46 -15 156 2 112 5 135 24 168 12 22 26 40 32 41 22 3 31 5 48 12
9 4 22 5 28 1 5 -3 10 -1 10 4 0 6 -6 11 -12 12 -7 0 -3 4 10 9 12 5 22 17 22
26 0 11 5 14 18 10 14 -5 14 -4 -2 9 -19 14 -19 15 6 15 27 0 79 42 91 73 4
10 11 15 17 12 6 -4 7 1 3 11 -4 12 -3 15 5 10 7 -4 12 -1 12 9 0 9 5 13 10
10 6 -3 10 -2 10 3 0 20 76 92 97 92 13 0 25 10 33 30 7 17 17 30 23 30 14 0
36 32 37 53 0 17 9 21 43 18 9 -1 17 3 17 8 0 6 6 11 13 11 7 0 22 8 33 18 11
10 25 17 32 14 6 -2 12 1 12 8 0 6 4 8 10 5 5 -3 20 1 34 10 25 17 28 49 12
119 -4 15 -3 33 2 40 5 6 15 36 22 66 7 30 21 61 31 68 10 7 16 19 13 27 -4 9
0 15 9 15 8 0 17 9 20 21 3 12 10 18 16 14 6 -3 11 -1 11 4 0 6 9 20 21 32 13
13 18 27 14 40 -4 10 -2 19 3 19 16 0 21 37 10 77 -12 48 -12 74 1 82 6 4 6
12 2 20 -5 7 -14 10 -20 7 -6 -4 -11 -2 -11 3 0 6 5 11 10 11 6 0 10 4 10 8 0
4 -9 8 -20 8 -11 0 -20 -4 -20 -8 0 -4 -16 -8 -35 -8 -19 0 -35 5 -35 10 0 6
-7 10 -16 10 -8 0 -12 -4 -9 -10 11 -17 -29 3 -53 27 -13 13 -20 28 -16 35 4
6 3 8 -4 5 -12 -8 -44 2 -38 12 3 4 -6 15 -20 25 -23 18 -35 44 -14 31 6 -3
10 1 10 9 0 9 5 16 10 16 6 0 10 7 10 15 0 8 4 15 9 15 5 0 11 10 13 23 2 12
9 21 15 20 6 -1 14 11 18 27 4 17 11 28 15 25 5 -3 14 3 19 14 10 18 62 37 89
32 6 -1 12 3 12 9 0 7 7 5 16 -4 8 -9 20 -16 25 -16 6 0 8 -4 5 -9 -3 -4 6 -6
19 -3 16 3 25 0 25 -8 0 -7 6 -10 13 -7 8 3 20 -3 27 -14 11 -14 16 -15 22 -6
6 9 8 9 8 0 0 -7 6 -13 14 -13 9 0 12 -7 9 -22 -3 -16 -2 -19 5 -10 7 11 11
11 19 0 14 -18 24 -78 13 -78 -5 0 -8 -20 -7 -45 2 -33 6 -44 17 -42 8 1 14
-3 13 -8 -1 -6 7 -11 18 -11 10 0 19 3 19 6 0 3 19 6 43 6 61 2 97 8 97 17 0
4 28 5 61 1 38 -4 59 -2 55 4 -3 5 5 7 19 4 15 -2 25 0 25 7 0 6 10 11 21 11
18 0 21 5 17 30 -3 17 0 30 6 31 6 1 0 5 -14 9 -17 5 -19 8 -7 9 21 1 23 17 2
19 -8 1 -22 3 -30 4 -8 1 -12 5 -9 10 3 4 0 8 -5 8 -6 0 -11 9 -11 20 0 11 -5
20 -11 20 -5 0 -7 5 -4 10 3 6 1 10 -4 10 -6 0 -11 8 -11 18 0 14 2 15 10 2
18 -27 10 -1 -8 29 -21 34 -21 127 0 164 7 12 11 27 10 33 -6 31 121 52 171
27 15 -7 27 -18 27 -23 0 -6 3 -9 8 -8 22 6 52 -15 52 -38 0 -13 5 -24 10 -24
14 0 12 -33 -2 -49 -10 -11 -10 -13 0 -7 7 4 13 2 13 -6 9 -79 7 -90 -14 -114
-12 -15 -32 -30 -45 -35 -14 -5 -20 -14 -16 -21 4 -7 3 -8 -4 -4 -7 4 -12 3
-12 -2 0 -6 -8 -8 -19 -5 -15 4 -19 -2 -23 -26 -5 -33 13 -58 32 -46 6 4 20
-3 31 -16 10 -12 19 -18 19 -13 0 5 5 2 10 -6 9 -13 10 -13 11 0 0 8 4 4 8 -9
4 -14 13 -27 20 -29 9 -3 11 0 7 9 -4 8 -1 5 8 -6 8 -11 19 -25 24 -30 5 -6 7
-16 4 -23 -2 -7 2 -10 11 -6 9 3 16 -2 20 -15 3 -11 0 -22 -7 -24 -7 -3 -5
-11 7 -25 13 -14 15 -21 6 -24 -7 -2 -13 -14 -14 -26 -1 -11 2 -19 6 -17 3 3
9 -8 12 -23 3 -15 0 -30 -6 -34 -9 -6 -8 -8 1 -8 7 0 10 -4 7 -10 -3 -5 3 -10
14 -10 10 0 27 -3 37 -7 12 -4 15 -3 10 5 -4 7 3 16 18 23 14 7 23 16 20 21
-6 10 17 68 28 68 3 0 9 14 13 30 5 22 13 30 28 31 12 0 17 3 10 5 -8 4 -2 16
17 34 18 18 30 40 30 55 0 15 5 36 11 47 8 15 8 19 0 14 -15 -10 -14 7 2 23 6
8 7 11 1 8 -7 -4 -11 8 -12 34 -1 23 -4 45 -8 50 -3 5 -1 9 5 9 6 0 8 7 5 15
-4 8 -10 13 -14 10 -13 -8 12 88 26 103 8 7 19 10 25 6 7 -4 9 -3 6 3 -4 6 0
13 8 17 8 3 15 13 15 21 0 9 5 13 10 10 6 -3 10 -1 10 4 0 6 9 11 19 11 11 0
29 12 40 26 13 17 26 24 37 20 12 -4 15 -2 10 9 -3 8 -1 15 3 15 5 0 11 -6 13
-12 4 -10 9 -8 21 3 9 9 13 20 9 24 -4 5 1 5 11 2 27 -10 40 2 25 21 -7 9 -8
13 -2 9 6 -4 19 2 29 13 10 11 22 17 26 14 5 -3 9 3 9 13 0 13 3 14 8 5 5 -7
24 -11 43 -10 19 1 41 -2 50 -6 12 -5 34 9 80 53 35 34 66 61 70 61 13 0 39
43 32 53 -3 5 1 13 8 18 9 5 14 28 14 68 0 32 -4 57 -9 54 -4 -3 -5 4 -2 15 4
11 0 37 -8 56 -8 20 -12 36 -9 36 3 0 -1 8 -10 18 -12 14 -15 33 -12 85 3 37
9 76 13 85 5 9 8 34 7 55 -1 21 2 40 7 43 4 3 8 15 8 27 0 12 7 31 15 41 8 11
15 28 15 39 0 13 5 17 15 13 10 -3 18 1 22 11 9 24 40 52 49 45 4 -4 4 3 1 16
-3 12 -1 22 5 22 5 0 6 5 3 10 -4 6 -1 17 5 25 10 12 9 15 -3 15 -10 0 -18 13
-23 35 -3 19 -10 38 -15 41 -15 9 -10 34 6 28 9 -4 19 3 26 19 6 14 24 31 40
37 16 7 26 17 22 23 -4 6 0 8 10 4 10 -3 17 -2 17 2 0 17 34 22 46 7 14 -20
24 -20 24 -1 0 9 10 15 26 15 14 0 34 5 44 10 13 7 21 7 25 0 3 -5 -1 -10 -9
-10 -8 0 -17 -4 -20 -9 -3 -4 6 -6 19 -3 13 2 27 13 30 23 4 10 11 19 16 19 5
0 8 3 8 8 -3 19 2 33 11 27 5 -3 10 3 10 13 0 11 7 36 15 55 17 42 19 50 6 43
-5 -4 -12 0 -14 6 -4 10 -8 10 -15 -1 -8 -11 -11 -10 -16 6 -4 11 -4 29 0 39
5 16 4 17 -6 4 -9 -12 -11 -10 -7 13 2 15 0 30 -5 33 -5 3 -6 14 -3 25 4 11 2
19 -4 19 -6 0 -11 -5 -11 -10 0 -6 -7 -6 -18 1 -13 8 -24 9 -38 1 -14 -8 -22
-6 -36 10 -23 27 -23 39 2 45 22 6 26 18 10 28 -16 10 -12 25 5 19 8 -3 17 0
20 8 3 7 17 15 31 16 20 1 25 -2 20 -13 -3 -8 -2 -15 3 -15 5 0 12 12 16 27 4
19 9 23 14 14 6 -9 9 -4 9 13 0 14 -5 26 -10 26 -5 0 -6 5 -3 10 4 7 -2 9 -19
4 -52 -13 -61 -10 -64 19 -3 23 -8 27 -36 27 -43 0 -49 -8 -30 -39 15 -26 15
-26 -3 -6 -23 25 -32 27 -74 15 -30 -9 -35 -7 -71 31 -33 34 -37 45 -32 72 3
18 7 37 8 42 1 6 5 16 9 23 7 9 -282 12 -1432 12 l-1441 0 2 -2185z m3178
1965 c0 -5 -4 -10 -10 -10 -5 0 -10 5 -10 10 0 6 5 10 10 10 6 0 10 -4 10 -10z
m-10 -250 c0 -5 -2 -10 -4 -10 -3 0 -8 5 -11 10 -3 6 -1 10 4 10 6 0 11 -4 11
-10z m-695 -62 c0 -5 17 -20 74 -68 13 -11 29 -20 35 -20 19 0 16 -40 -5 -61
-10 -10 -19 -16 -19 -13 0 4 -6 1 -13 -5 -8 -6 -17 -7 -22 -3 -4 4 -5 -3 -2
-16 4 -17 2 -22 -8 -18 -7 2 -16 -2 -19 -10 -3 -8 -9 -13 -13 -13 -4 1 -17 -2
-27 -6 -13 -6 -21 -4 -24 4 -3 8 -8 9 -17 1 -10 -8 -14 -4 -19 16 -4 14 -9 24
-12 21 -3 -3 -17 6 -30 18 -23 21 -25 29 -18 72 3 26 11 54 16 61 6 6 7 12 2
12 -5 0 4 9 20 19 26 17 101 24 101 9z m-2271 -3969 c-3 -6 8 -7 25 -4 17 3
31 1 31 -4 0 -5 9 -11 20 -14 11 -3 18 -2 15 3 -3 4 3 14 12 21 15 12 16 12
10 -3 -3 -10 -2 -20 2 -23 28 -16 -28 -79 -66 -74 -25 3 -54 -11 -47 -23 4 -6
0 -15 -7 -20 -10 -7 -8 -8 9 -5 14 3 22 0 22 -8 0 -7 12 -21 28 -31 26 -17 27
-17 12 1 -13 16 -13 18 0 13 22 -7 24 -34 6 -73 -9 -18 -16 -46 -16 -62 0 -21
-3 -24 -9 -14 -8 12 -11 9 -17 -12 -6 -24 -10 -27 -38 -23 -17 3 -32 10 -34
16 -2 6 -9 16 -16 23 -26 26 -39 59 -26 67 7 4 10 14 8 21 -3 8 -1 25 4 38 4
13 5 29 0 35 -12 17 -15 66 -4 66 12 0 23 38 12 42 -14 5 1 58 16 58 8 0 14 5
14 11 0 5 -5 7 -12 3 -7 -4 -8 -3 -4 4 5 9 14 7 31 -4 14 -9 22 -20 19 -25z
m256 -543 c0 -3 -4 -8 -10 -11 -5 -3 -10 -1 -10 4 0 6 5 11 10 11 6 0 10 -2
10 -4z"/>
<path d="M290 5680 c0 -5 5 -10 10 -10 6 0 10 5 10 10 0 6 -4 10 -10 10 -5 0
-10 -4 -10 -10z"/>
<path d="M3223 10205 c1 -19 5 -35 8 -35 3 0 6 -6 6 -14 0 -8 -6 -12 -14 -9
-7 3 -13 0 -13 -6 0 -6 -8 -11 -17 -11 -15 0 -16 2 -3 10 13 8 12 10 -2 10
-10 0 -18 -4 -18 -10 0 -5 -7 -10 -15 -10 -8 0 -15 -7 -15 -15 0 -17 39 -60
47 -51 3 2 16 -7 30 -20 15 -16 33 -24 44 -21 10 3 20 0 22 -7 3 -8 10 -8 26
2 29 17 44 15 37 -4 -4 -12 -2 -15 9 -10 8 3 15 1 15 -4 0 -6 5 -10 11 -10 6
0 8 9 4 21 -5 13 -3 19 3 15 5 -3 22 10 36 29 15 19 34 35 43 35 11 0 14 6 8
27 -6 24 -5 25 11 12 16 -13 17 -12 7 6 -9 15 -8 26 3 47 13 25 13 29 -1 35
-13 5 -14 7 -3 14 7 5 -48 9 -129 9 l-142 0 2 -35z"/>
<path d="M4890 10230 c0 -5 -3 -9 -7 -8 -5 1 -19 -4 -32 -11 -19 -10 -21 -15
-10 -22 12 -8 12 -10 1 -18 -10 -6 -6 -10 15 -14 15 -3 31 0 35 6 4 6 9 0 13
-16 4 -15 11 -25 15 -22 5 3 2 17 -5 32 -8 15 -12 30 -9 35 3 4 1 8 -4 8 -6 0
-8 9 -5 20 3 11 3 20 -1 20 -3 0 -6 -4 -6 -10z"/>
<path d="M4920 10181 c0 -6 4 -13 10 -16 6 -3 7 1 4 9 -7 18 -14 21 -14 7z"/>
<path d="M3135 10060 c-3 -5 1 -10 9 -10 9 0 16 5 16 10 0 6 -4 10 -9 10 -6 0
-13 -4 -16 -10z"/>
<path d="M3337 9960 c3 -11 9 -20 13 -20 5 0 6 9 3 20 -3 11 -9 20 -13 20 -5
0 -6 -9 -3 -20z"/>
<path d="M3180 9960 c0 -5 5 -10 11 -10 5 0 7 5 4 10 -3 6 -8 10 -11 10 -2 0
-4 -4 -4 -10z"/>
<path d="M3336 9917 c3 -10 9 -15 12 -12 3 3 0 11 -7 18 -10 9 -11 8 -5 -6z"/>
<path d="M3151 9418 c0 -10 -7 -19 -13 -20 -7 0 -18 -2 -24 -2 -7 -1 -22 -12
-34 -26 -12 -14 -19 -19 -15 -12 4 7 0 12 -10 12 -9 0 -13 -5 -10 -11 4 -6 1
-10 -6 -8 -27 3 -74 -3 -56 -8 9 -2 17 -12 17 -21 1 -15 2 -15 15 2 7 10 20
16 27 13 10 -4 10 -6 1 -6 -7 -1 -13 -8 -13 -17 0 -8 4 -12 10 -9 5 3 19 1 30
-5 17 -9 28 -7 54 10 31 19 35 19 50 5 17 -18 19 -16 10 9 -3 9 -14 16 -23 16
-14 0 -14 2 -1 10 14 9 7 15 -14 11 -5 -1 -4 5 3 13 7 8 11 25 8 38 -3 15 -5
17 -6 6z"/>
<path d="M3115 9410 c3 -5 8 -10 11 -10 2 0 4 5 4 10 0 6 -5 10 -11 10 -5 0
-7 -4 -4 -10z"/>
<path d="M2990 9378 c0 -4 -7 -8 -17 -8 -9 0 -14 -2 -11 -5 7 -7 68 6 68 14 0
4 -9 7 -20 7 -11 0 -20 -4 -20 -8z"/>
<path d="M6028 9363 c7 -3 16 -2 19 1 4 3 -2 6 -13 5 -11 0 -14 -3 -6 -6z"/>
<path d="M6155 9350 c4 -6 -31 -10 -97 -10 -69 0 -134 -7 -194 -21 -49 -11
-98 -22 -109 -24 -18 -3 -53 -16 -159 -57 -15 -6 -47 -21 -70 -33 -22 -12 -57
-31 -76 -41 -19 -11 -39 -25 -43 -31 -4 -7 -16 -13 -26 -13 -18 0 -36 -25 -32
-43 1 -5 -3 -6 -9 -2 -5 3 -20 -4 -32 -16 -13 -12 -17 -18 -9 -14 9 5 12 4 7
-3 -4 -7 -16 -12 -27 -12 -11 0 -18 -4 -15 -8 3 -5 -7 -15 -22 -23 -15 -8 -33
-20 -40 -26 -7 -7 -20 -13 -27 -13 -9 0 -12 -6 -9 -15 4 -10 0 -15 -16 -15
-14 0 -19 4 -15 13 4 6 -12 -8 -35 -32 -30 -33 -37 -47 -28 -53 10 -5 8 -8 -5
-8 -22 0 -63 -84 -77 -161 -6 -30 -15 -68 -20 -85 -6 -17 -15 -65 -20 -105 -5
-41 -21 -123 -35 -184 -29 -126 -42 -235 -54 -490 -9 -179 -9 -181 -51 -285
-40 -101 -70 -168 -165 -365 -91 -190 -145 -307 -145 -315 0 -5 -6 -15 -14
-23 -18 -18 -95 -178 -201 -419 -63 -143 -80 -190 -70 -198 6 -5 15 -7 19 -3
4 4 4 -1 0 -11 -6 -16 -8 -17 -16 -2 -5 9 -13 16 -17 16 -14 0 -20 -39 -7 -44
6 -2 3 -5 -8 -5 -13 -1 -17 -6 -13 -21 3 -11 1 -18 -4 -14 -5 3 -9 -4 -9 -15
0 -12 -4 -21 -10 -21 -5 0 -10 -7 -10 -15 0 -9 -10 -32 -23 -53 -33 -54 -50
-99 -41 -113 4 -7 3 -10 -4 -5 -12 7 -26 -29 -17 -44 3 -5 2 -10 -4 -10 -15 0
-44 -59 -37 -76 3 -8 1 -14 -5 -14 -5 0 -14 -12 -21 -27 -6 -16 -20 -48 -31
-73 -11 -25 -20 -57 -21 -72 -1 -14 -3 -24 -5 -22 -6 5 -30 -43 -34 -69 -7
-33 -30 -87 -39 -87 -4 0 -8 -7 -8 -16 0 -9 -8 -28 -19 -42 -17 -25 -29 -58
-38 -107 -2 -10 -8 -22 -15 -26 -6 -4 -7 -12 -3 -19 4 -7 2 -16 -5 -20 -6 -4
-13 -19 -13 -33 -1 -14 -5 -23 -9 -20 -5 2 -13 -7 -19 -21 -10 -20 -9 -29 2
-43 12 -15 12 -16 -3 -10 -13 4 -18 1 -20 -11 -2 -29 -4 -35 -37 -104 -17 -37
-31 -73 -31 -81 0 -7 -6 -21 -14 -32 -15 -23 -30 -74 -27 -92 1 -7 -3 -13 -10
-13 -7 0 -9 -10 -7 -25 3 -13 2 -22 -2 -20 -5 3 -13 -9 -19 -26 -8 -24 -7 -35
5 -55 12 -17 13 -24 4 -24 -7 0 -10 -8 -7 -19 3 -14 1 -18 -9 -14 -8 3 -14 9
-14 15 0 5 -5 6 -11 2 -8 -5 -6 -10 5 -16 9 -5 14 -14 10 -19 -4 -6 -11 -6
-20 2 -9 7 -14 8 -14 1 0 -6 5 -14 10 -17 17 -11 11 -23 -9 -18 -14 3 -20 -2
-25 -22 -4 -14 -4 -31 0 -37 4 -5 1 -14 -6 -18 -18 -11 -25 -54 -8 -45 7 4 5
0 -4 -8 -21 -17 -23 -33 -5 -40 7 -4 6 -6 -4 -6 -20 -1 -31 -25 -22 -46 3 -10
1 -15 -8 -13 -7 2 -14 -4 -16 -13 -3 -13 4 -16 42 -14 25 1 45 -2 45 -7 0 -5
-6 -6 -12 -2 -7 4 -4 -3 7 -16 l20 -23 -24 8 c-16 5 -21 4 -17 -4 4 -6 3 -11
-2 -11 -16 0 -22 13 -11 27 8 9 8 13 1 13 -6 0 -17 -12 -24 -27 -7 -15 -23
-30 -36 -33 l-22 -5 23 -18 c18 -13 23 -24 19 -43 -3 -16 -10 -23 -18 -20 -10
4 -11 0 -2 -19 13 -28 19 -30 36 -13 16 16 15 45 0 51 -8 3 -7 6 4 6 15 1 27
-20 34 -55 1 -7 -6 -9 -19 -6 -16 4 -14 -1 11 -25 18 -17 32 -34 32 -39 0 -4
-5 -3 -12 4 -16 16 -28 15 -28 -3 0 -8 -4 -15 -10 -15 -13 0 -13 13 1 27 11
11 5 33 -10 33 -8 0 -17 -20 -26 -57 -2 -6 4 -14 12 -17 8 -3 11 -10 8 -16 -4
-6 -11 -8 -16 -5 -5 3 -6 -1 -3 -9 4 -11 0 -16 -11 -16 -14 0 -15 -3 -5 -15
15 -18 7 -31 -33 -50 -18 -9 -40 -27 -50 -40 -16 -22 -16 -25 -2 -25 12 0 15
-6 10 -20 -8 -26 -2 -25 30 4 19 17 25 31 20 45 -8 27 12 36 25 11 9 -16 8
-24 -5 -36 -19 -19 -19 -29 1 -48 8 -9 11 -16 5 -16 -5 0 -16 6 -23 14 -8 8
-20 11 -29 6 -8 -4 -26 -10 -41 -14 -22 -5 -28 -3 -28 9 0 9 5 13 10 10 6 -3
10 0 10 9 0 8 -5 16 -10 18 -17 5 8 66 27 64 9 0 18 4 20 11 3 8 -4 9 -23 4
-25 -6 -31 -17 -56 -102 -31 -107 -31 -109 -19 -109 11 0 32 56 24 64 -4 3 -4
6 0 6 3 0 13 -7 21 -16 15 -14 14 -17 -6 -35 -16 -14 -19 -22 -10 -25 17 -8
15 -17 -7 -31 -14 -9 -18 -9 -17 0 0 7 -3 14 -8 17 -7 4 -18 -22 -45 -115 -5
-16 -19 -64 -31 -105 -12 -41 -27 -94 -35 -116 -10 -31 -10 -45 -2 -53 8 -8 8
-11 -2 -11 -7 0 -9 -4 -6 -10 3 -5 -2 -21 -11 -35 -15 -23 -15 -25 0 -19 12 5
15 2 10 -10 -3 -9 -11 -13 -17 -9 -7 4 -8 0 -4 -11 4 -10 7 -20 7 -22 0 -2 7
-4 15 -4 8 0 15 5 15 11 0 5 5 7 12 3 6 -4 28 -6 49 -6 21 1 41 -3 44 -8 3 -6
-3 -10 -14 -10 -11 0 -22 -4 -25 -9 -4 -5 3 -7 14 -4 15 4 19 2 14 -10 -7 -20
-39 -31 -56 -20 -7 4 -20 8 -28 8 -9 0 -14 7 -12 18 4 24 -15 21 -30 -5 -7
-13 -19 -23 -27 -23 -16 0 -35 -49 -46 -115 -6 -42 -6 -44 9 -25 8 11 16 30
16 41 0 12 7 27 15 34 12 10 13 16 4 27 -7 7 -10 14 -8 16 49 28 49 28 39 3
-8 -22 -6 -26 18 -34 l27 -9 -25 -6 c-27 -7 -56 -53 -37 -60 6 -2 12 -15 12
-28 1 -14 4 -30 8 -36 4 -6 0 -16 -8 -23 -8 -7 -15 -21 -15 -30 0 -21 -54 -52
-75 -44 -16 7 -23 -14 -29 -81 -4 -49 -4 -49 9 -20 11 25 15 27 20 13 4 -10
12 -15 17 -12 6 4 8 1 6 -7 -3 -8 -13 -13 -22 -12 -14 1 -16 -4 -11 -25 8 -34
7 -32 33 -25 22 5 31 23 12 23 -19 0 -10 18 11 23 12 3 18 10 15 16 -8 13 10
23 51 28 29 3 32 1 24 -14 -10 -20 -18 -43 -19 -57 0 -5 -6 -12 -13 -16 -11
-7 -15 -38 -18 -132 -1 -36 -2 -37 -27 -28 -32 13 -37 13 -28 -1 3 -6 0 -15
-7 -20 -7 -4 -10 -12 -5 -16 4 -4 13 0 20 10 7 9 16 17 20 17 7 0 0 -99 -8
-107 -12 -13 -17 6 -6 26 6 12 7 21 2 21 -6 0 -12 -8 -15 -19 -2 -10 -18 -25
-34 -33 -28 -14 -31 -14 -52 8 -13 13 -27 21 -33 18 -6 -4 -6 -10 0 -16 6 -6
8 -18 5 -27 -4 -14 -3 -14 6 -1 12 18 24 9 15 -13 -3 -9 -12 -13 -19 -11 -15
6 -25 -19 -30 -79 -2 -23 -9 -73 -15 -111 -9 -60 -9 -71 5 -78 8 -5 15 -14 15
-20 0 -7 -5 -6 -15 2 -17 14 -15 19 -49 -170 -13 -74 -27 -171 -31 -215 -4
-44 -9 -89 -11 -100 -3 -11 -7 -83 -10 -160 -6 -154 -17 -265 -39 -398 -22
-129 -21 -232 6 -347 22 -99 22 -100 5 -247 -9 -82 -23 -190 -30 -240 l-13
-93 2547 0 c1967 0 2549 3 2558 12 9 9 12 9 12 0 0 -9 46 -12 178 -12 154 1
175 2 159 15 -14 10 -16 18 -9 31 9 15 12 14 26 -14 16 -32 17 -32 91 -32 41
0 75 4 75 8 0 5 -6 57 -14 118 -8 60 -18 141 -21 179 -9 106 -35 318 -41 337
-3 11 24 44 86 105 51 48 96 90 101 92 20 6 213 229 300 343 94 125 112 166
107 237 -3 43 -22 66 -31 39 -2 -7 -3 -4 -1 8 2 12 -5 29 -16 39 -21 19 -18
37 5 28 20 -7 20 21 0 41 -21 20 -19 29 5 21 27 -9 25 -2 -10 33 -30 31 -32
69 -3 58 8 -3 11 -1 8 4 -3 6 -2 10 3 10 10 0 1 58 -12 79 -4 6 -3 11 3 11 9
0 8 29 -4 90 -2 14 -9 54 -16 90 -6 36 -15 76 -20 90 -4 14 -13 52 -19 85 -7
33 -14 71 -17 85 -3 14 -7 34 -8 45 -8 87 -21 156 -46 258 -16 66 -32 150 -35
188 -6 68 -6 69 25 98 31 29 31 30 9 37 -13 4 -27 7 -32 5 -5 -1 -16 1 -25 5
-13 5 -12 7 6 15 20 7 21 12 13 34 -6 16 -6 25 0 25 18 0 10 32 -9 37 -12 3
-17 11 -14 23 3 10 -1 29 -8 41 -7 13 -12 28 -10 34 1 5 -2 26 -8 45 -28 93
-82 301 -80 313 3 27 -3 111 -8 99 -11 -28 -23 -9 -23 39 0 45 -10 99 -28 149
-2 8 -6 40 -8 70 -6 91 -33 200 -81 330 -9 23 -7 162 2 184 6 13 5 17 -3 12
-12 -7 -27 11 -27 34 -1 42 -20 108 -39 140 -36 57 -38 61 -29 59 20 -3 25 2
14 15 -7 8 -15 39 -17 68 -6 60 -53 209 -89 282 -14 28 -25 56 -25 63 0 7 -4
13 -10 13 -5 0 -10 7 -10 15 0 15 -12 31 -77 102 -18 19 -33 42 -33 51 0 43
-93 157 -162 199 -16 10 -28 21 -28 25 0 4 -8 8 -17 8 -9 0 -30 12 -45 27 -18
17 -41 28 -60 29 -18 1 -36 9 -42 20 -6 10 -20 34 -31 53 -12 20 -33 55 -48
78 -15 24 -27 47 -27 52 0 6 -15 21 -32 34 -24 17 -45 23 -76 22 -34 -1 -41 1
-37 14 3 10 -9 27 -33 46 -29 23 -46 30 -79 29 -27 -1 -43 4 -43 11 0 12 -25
27 -73 45 -25 9 -27 8 -18 -9 6 -10 17 -21 26 -25 18 -7 20 -26 3 -26 -12 1
-79 78 -86 100 -2 6 3 10 11 10 9 0 18 6 20 13 4 8 6 7 6 -3 1 -8 5 -21 10
-28 11 -17 318 -121 341 -115 10 3 21 0 24 -6 4 -6 15 -11 25 -11 22 0 61 -44
61 -69 0 -11 5 -23 10 -26 6 -3 10 1 10 10 0 9 5 13 10 10 6 -4 8 -10 5 -15
-5 -8 217 -170 235 -170 5 0 10 -8 11 -17 0 -10 6 -2 13 17 8 19 12 38 9 42
-7 13 -34 -4 -29 -18 6 -16 -10 -19 -19 -3 -4 5 0 18 9 28 20 22 21 35 2 28
-10 -4 -13 -1 -9 9 3 7 0 14 -6 14 -6 0 -11 5 -11 10 0 6 9 10 20 10 17 0 19
5 13 33 -3 17 -11 35 -17 39 -14 9 -28 -14 -16 -26 14 -14 12 -23 -4 -29 -20
-8 -26 27 -10 58 12 24 11 27 -11 37 -26 12 -31 23 -15 33 5 3 7 19 3 36 -4
23 -3 28 9 24 18 -7 30 35 17 57 -8 12 -23 5 -25 -13 -1 -5 -2 -13 -3 -19 -1
-12 -31 -13 -31 -1 0 5 7 14 15 21 8 7 15 18 15 25 0 7 7 15 15 19 8 3 15 12
15 21 0 8 -7 15 -15 15 -8 0 -15 -9 -15 -19 0 -46 -46 -35 -53 12 -6 39 -1 46
16 23 12 -16 14 -16 26 -2 11 14 11 16 -3 16 -9 0 -16 7 -16 16 0 10 -6 14
-14 11 -10 -4 -12 0 -9 14 3 10 8 17 12 15 4 -3 12 4 18 14 10 14 9 18 -2 16
-7 -1 -19 -7 -27 -14 -16 -13 -28 -7 -28 14 0 8 6 11 16 7 12 -4 15 -2 12 8
-3 8 -15 13 -27 12 -13 -2 -21 3 -21 12 0 8 5 15 10 15 6 0 10 7 10 15 0 8 -6
14 -12 13 -7 -2 -12 2 -11 8 1 7 -6 10 -17 7 -11 -3 -20 -9 -20 -14 0 -15 -18
-10 -24 7 -4 9 -1 23 5 30 7 9 8 19 2 27 -5 6 -8 29 -7 50 1 32 -1 37 -16 32
-13 -4 -21 2 -29 26 -15 42 -14 47 3 24 8 -11 12 -23 10 -27 -3 -5 2 -8 10 -8
23 0 20 26 -5 51 -16 16 -18 23 -9 29 9 5 9 9 1 14 -6 4 -9 12 -5 17 3 6 -3
13 -15 16 -11 3 -18 9 -15 14 3 5 0 17 -5 26 -6 10 -11 12 -11 6 0 -15 -26
-17 -35 -3 -3 5 0 7 7 5 9 -4 14 2 14 14 0 15 -4 17 -18 10 -16 -9 -17 -7 -8
17 12 30 5 45 -15 37 -10 -3 -15 2 -15 16 0 13 7 21 18 22 11 0 7 4 -10 11
-24 8 -27 14 -23 38 3 19 0 30 -10 34 -8 3 -15 13 -15 23 0 10 -9 33 -20 51
-11 18 -20 38 -20 45 -1 6 -9 30 -20 52 -11 22 -19 46 -20 53 0 8 -7 26 -15
40 -37 68 -53 117 -58 184 -1 20 -5 40 -8 43 -11 10 19 180 44 252 14 39 23
74 19 77 -3 3 0 6 6 6 6 0 12 10 14 21 5 32 -56 93 -85 85 -12 -3 -29 -1 -37
4 -13 9 -13 11 0 21 13 9 12 10 -3 5 -10 -3 -25 -6 -33 -6 -8 0 -11 -7 -8 -17
5 -17 5 -17 -8 -1 -9 10 -19 13 -28 8 -10 -5 -22 -1 -34 11 -19 19 -19 19 10
20 28 0 28 1 6 10 -13 5 -21 13 -17 18 3 5 0 13 -6 16 -5 4 -8 13 -5 21 3 7 1
16 -4 19 -14 9 -8 54 9 60 11 4 11 9 -3 24 -17 18 -16 20 4 26 14 4 28 1 41
-11 10 -9 19 -12 19 -6 0 6 -10 19 -23 29 -13 10 -24 23 -24 28 0 6 -10 15
-21 21 l-21 10 21 13 c19 12 19 13 2 32 -13 14 -14 18 -3 14 10 -4 14 3 15 20
2 24 1 25 -12 8 -12 -17 -13 -16 -7 5 8 33 30 27 49 -14 14 -29 19 -33 26 -20
5 9 6 21 3 26 -3 6 -1 10 6 10 7 0 10 -11 7 -30 -2 -16 0 -31 6 -33 6 -2 3
-19 -7 -44 -14 -36 -14 -43 -2 -53 18 -15 19 -37 3 -43 -7 -3 -4 -6 7 -6 13
-1 27 -15 39 -41 11 -22 20 -40 22 -40 18 0 54 23 54 35 0 8 4 15 10 15 5 0 6
7 3 17 -4 11 -3 14 5 9 7 -4 12 -1 12 8 0 25 -11 46 -25 46 -15 0 -27 89 -39
305 -5 90 -38 227 -55 233 -6 2 -7 10 -4 18 3 8 1 14 -3 14 -10 0 -34 70 -34
100 0 11 -4 20 -8 20 -9 0 -52 81 -52 99 0 6 -4 11 -10 11 -5 0 -10 12 -10 28
-1 22 -2 24 -10 11 -9 -15 8 -145 25 -200 4 -11 2 -19 -4 -19 -6 0 -11 3 -12
8 -2 21 -9 51 -18 73 -7 19 -9 10 -8 -41 1 -36 7 -69 12 -73 6 -5 4 -7 -5 -4
-14 3 -21 26 -35 111 -10 66 -21 40 -19 -46 2 -87 1 -91 -13 -64 -8 15 -12 34
-9 42 3 8 -1 14 -8 14 -11 0 -12 6 -4 28 12 30 -10 115 -56 217 -13 28 -26 62
-30 78 -3 15 -10 27 -15 27 -5 0 -7 9 -4 19 3 13 -2 24 -16 33 -12 7 -21 21
-21 30 0 10 -4 18 -10 18 -5 0 -10 5 -10 11 0 6 -13 29 -28 52 -16 23 -32 50
-35 60 -4 9 -18 22 -33 27 -14 6 -38 19 -52 30 -20 16 -21 20 -7 20 14 0 15 3
5 15 -13 16 -35 21 -26 6 4 -5 -3 -7 -14 -4 -30 8 -35 23 -8 24 17 1 18 3 6 6
-10 2 -18 9 -18 14 0 5 -13 9 -30 9 -16 0 -30 4 -30 10 0 5 8 7 18 4 14 -5 14
-3 -2 10 -11 9 -27 16 -35 16 -9 0 -24 7 -34 14 -17 13 -17 14 0 21 16 6 16 8
-5 16 -12 4 -30 5 -39 2 -15 -6 -15 -7 3 -15 11 -4 -4 -5 -36 -2 -30 4 -59 10
-65 14 -10 7 -63 19 -113 26 -28 3 -42 13 -21 15 8 1 1 5 -16 8 -16 4 -39 3
-50 -2 -13 -7 -20 -6 -23 2 -2 6 -8 11 -13 11 -6 0 -7 -4 -4 -10z m82 -16 c-3
-3 -12 -4 -19 -1 -8 3 -5 6 6 6 11 1 17 -2 13 -5z m3 -72 c0 -14 -73 -33 -84
-22 -5 5 0 11 15 14 13 3 33 7 44 9 11 3 21 5 23 6 1 0 2 -3 2 -7z m93 -14
c27 -14 18 -17 -27 -9 -22 3 -41 12 -44 19 -4 14 36 8 71 -10z m50 5 c-7 -2
-19 -2 -25 0 -7 3 -2 5 12 5 14 0 19 -2 13 -5z m-503 -59 c0 -2 -15 -4 -32 -3
-27 0 -29 2 -13 8 18 8 45 4 45 -5z m587 -34 c76 -21 113 -36 113 -46 0 -4 -7
-4 -15 0 -8 3 -15 2 -15 -3 0 -5 13 -11 30 -14 16 -4 39 -16 50 -27 11 -11 20
-18 20 -15 0 7 26 -20 105 -106 36 -39 65 -74 65 -79 0 -22 -31 -15 -62 13
-20 18 -52 47 -73 65 -30 25 -34 32 -19 32 20 1 12 8 -78 81 -41 33 -101 59
-142 60 l-31 2 35 7 35 6 -30 9 c-16 4 -34 11 -40 15 -5 4 -19 10 -30 13 -11
2 -14 5 -7 6 7 0 47 -8 89 -19z m-7 -250 c0 -5 -6 -10 -14 -10 -8 0 -18 5 -21
10 -3 6 3 10 14 10 12 0 21 -4 21 -10z m98 -31 c41 -18 167 -127 157 -137 -2
-3 -25 16 -51 41 -43 44 -151 107 -181 107 -7 0 -13 5 -13 11 0 12 24 6 88
-22z m126 -19 c8 0 31 -18 54 -42 20 -22 42 -23 42 -3 0 9 21 -8 46 -37 26
-29 60 -65 76 -80 16 -16 24 -28 18 -28 -7 0 -9 -7 -6 -16 3 -9 -15 3 -40 25
-26 22 -50 38 -55 36 -8 -6 -32 16 -90 83 -20 23 -42 42 -48 42 -6 0 -14 7
-17 15 -4 8 -9 13 -13 11 -4 -3 -13 5 -20 16 -13 20 -13 20 17 -1 17 -11 33
-21 36 -21z m76 -20 c6 -11 9 -20 8 -20 -2 0 -11 9 -21 20 -9 11 -13 20 -7 20
5 0 14 -9 20 -20z m94 -52 c21 -30 11 -36 -14 -8 -23 26 -24 30 -11 30 6 0 17
-10 25 -22z m-1822 -30 c-7 -7 -12 -8 -12 -2 0 14 12 26 19 19 2 -3 -1 -11 -7
-17z m28 -29 c0 -5 -7 -9 -15 -9 -9 0 -12 6 -9 15 6 15 24 11 24 -6z m1691
-16 c13 -16 12 -17 -3 -4 -10 7 -18 15 -18 17 0 8 8 3 21 -13z m-1711 -34 c0
-5 -4 -9 -10 -9 -5 0 -10 7 -10 16 0 9 -5 12 -12 8 -7 -4 -8 -3 -4 5 6 9 11 9
22 0 8 -6 14 -15 14 -20z m1801 4 c13 -16 12 -17 -3 -4 -10 7 -18 15 -18 17 0
8 8 3 21 -13z m35 -78 c30 -25 58 -45 62 -45 22 0 58 -105 40 -116 -5 -3 -7
-12 -4 -20 10 -25 -24 -28 -47 -5 -18 18 -19 21 -5 21 14 0 13 5 -8 27 -13 14
-22 28 -20 31 3 2 -4 19 -14 37 -11 20 -15 35 -9 37 6 2 -7 20 -27 41 -51 50
-36 47 32 -8z m-183 -1 c23 -15 56 -38 72 -52 26 -22 27 -25 7 -20 -12 4 -20
2 -16 -3 3 -5 11 -9 17 -9 7 0 30 -16 52 -36 28 -24 31 -30 12 -18 -24 15 -30
15 -38 3 -6 -10 -9 -10 -9 -1 0 6 -9 12 -19 12 -22 0 -40 20 -19 21 7 0 2 5
-11 10 -14 5 -21 15 -18 23 6 15 -24 56 -40 56 -6 0 -18 9 -28 20 -25 27 -13
25 38 -6z m-1683 -8 c0 -2 -7 -9 -15 -16 -13 -11 -14 -10 -9 4 5 14 24 23 24
12z m2144 -212 c3 -38 7 -77 9 -84 2 -8 2 -12 0 -7 -10 17 -18 4 -17 -28 1
-22 -3 -35 -10 -35 -8 0 -13 18 -14 52 -1 35 2 48 8 38 16 -26 19 -6 10 60 -8
55 -6 89 5 78 2 -2 6 -35 9 -74z m-296 -19 c-3 -3 -9 2 -12 12 -6 14 -5 15 5
6 7 -7 10 -15 7 -18z m214 -7 c-9 -9 -12 -7 -12 12 0 19 3 21 12 12 9 -9 9
-15 0 -24z m-72 -83 c0 -22 -20 -29 -36 -13 -21 21 -8 51 17 37 10 -5 19 -16
19 -24z m57 -55 c21 -41 33 -52 51 -45 6 2 12 -1 12 -7 0 -7 5 -6 15 2 12 10
16 8 25 -14 5 -14 14 -26 20 -26 16 0 12 -27 -5 -34 -8 -3 -15 0 -15 7 0 8 -3
8 -9 -2 -6 -9 -11 -10 -15 -2 -4 6 -16 16 -28 22 -12 6 -18 7 -14 1 6 -9 -14
-22 -35 -22 -14 0 -11 28 4 34 6 3 0 3 -15 0 -27 -6 -28 -5 -28 39 0 27 -6 49
-15 57 -18 15 -11 29 15 27 11 -1 27 -16 37 -37z m-1167 -5 c0 -13 3 -16 8 -8
5 7 26 10 60 7 28 -2 52 -1 51 3 -4 22 3 25 16 7 15 -19 15 -19 9 1 -4 17 -3
16 8 -3 13 -21 15 -21 33 -6 20 16 20 16 0 9 -11 -3 -16 -3 -12 2 10 10 67 13
67 4 0 -4 -5 -12 -12 -19 -9 -9 -9 -15 -1 -23 8 -8 18 -6 37 6 26 17 26 17 32
-13 4 -20 11 -29 19 -25 8 2 19 -4 26 -15 8 -13 19 -17 32 -14 16 4 19 1 14
-11 -3 -9 0 -18 9 -21 8 -3 14 -12 14 -20 0 -10 6 -13 17 -9 10 4 14 2 10 -4
-7 -11 28 -45 58 -57 16 -6 17 -9 5 -16 -12 -7 -11 -9 5 -8 35 2 49 -6 66 -37
l17 -30 -37 -7 c-20 -4 -54 -9 -76 -13 -59 -9 -130 -34 -153 -53 -11 -9 -29
-23 -40 -31 -11 -8 -18 -20 -15 -28 6 -16 -24 -53 -44 -53 -7 0 -17 -8 -20
-17 -9 -23 -36 -48 -50 -47 -7 1 -17 2 -23 3 -5 0 -10 17 -10 36 0 28 -5 38
-26 47 -24 11 -26 16 -20 54 4 32 1 46 -15 63 -11 11 -25 21 -32 22 -7 0 -21
3 -32 6 -11 2 -42 8 -70 13 -75 12 -105 21 -105 32 0 5 -4 7 -10 3 -14 -9 -50
18 -50 38 0 10 5 15 10 12 6 -3 10 -1 10 5 0 6 5 8 12 4 7 -4 8 -3 4 5 -10 15
13 43 30 37 7 -3 16 -1 19 4 4 6 1 10 -4 10 -6 0 -11 8 -11 18 0 13 2 14 9 3
5 -7 14 -10 20 -7 6 4 9 12 6 17 -4 5 1 19 9 31 9 12 16 17 16 11 0 -6 11 -10
24 -9 14 0 21 5 16 10 -11 11 -1 38 11 30 5 -3 9 0 9 5 0 6 14 11 32 11 27 0
29 2 17 13 -8 6 -20 19 -26 27 -10 13 -8 16 8 16 12 0 19 -7 19 -21z m1265 -6
c11 -17 -1 -21 -15 -4 -8 9 -8 15 -2 15 6 0 14 -5 17 -11z m-1300 -9 c-3 -5
-10 -10 -16 -10 -5 0 -9 5 -9 10 0 6 7 10 16 10 8 0 12 -4 9 -10z m-912 -15
c-3 -9 -8 -14 -10 -11 -3 3 -2 9 2 15 9 16 15 13 8 -4z m1293 -9 c8 -8 14 -20
14 -27 0 -7 -9 -4 -20 9 -29 31 -24 48 6 18z m-1298 -101 c-3 -3 -9 2 -12 12
-6 14 -5 15 5 6 7 -7 10 -15 7 -18z m2147 -4 c3 -5 1 -12 -4 -15 -5 -3 -11 1
-15 9 -6 16 9 21 19 6z m100 -21 c0 -19 -34 -15 -55 6 -13 14 -11 15 20 12 23
-2 35 -8 35 -18z m16 -31 c-9 -9 -18 -15 -20 -13 -3 3 1 10 7 16 7 7 12 21 13
33 0 20 0 20 8 0 6 -14 3 -25 -8 -36z m-2284 -41 c-3 -8 -6 -5 -6 6 -1 11 2
17 5 13 3 -3 4 -12 1 -19z m2193 18 c0 -3 -4 -8 -10 -11 -5 -3 -10 -1 -10 4 0
6 5 11 10 11 6 0 10 -2 10 -4z m-1524 -271 c6 -19 9 -35 6 -35 -2 0 -22 10
-43 22 -38 21 -38 22 -16 34 35 19 41 16 53 -21z m199 -15 l29 -30 -54 0 c-51
0 -52 1 -37 18 10 10 17 24 17 30 0 20 15 14 45 -18z m623 -27 c6 -20 10 -38
9 -38 -1 -1 -17 2 -34 7 -35 9 -44 33 -21 56 21 21 34 13 46 -25z m190 -10
c-2 -8 -18 -21 -36 -29 -33 -13 -33 -13 -17 9 8 12 15 30 15 40 0 15 3 16 21
7 11 -6 19 -18 17 -27z m-973 -53 c15 -7 10 -9 -23 -9 -26 -1 -41 3 -37 9 7
12 32 12 60 0z m65 -10 c0 -5 -5 -10 -11 -10 -5 0 -7 5 -4 10 3 6 8 10 11 10
2 0 4 -4 4 -10z m1475 -18 c-3 -3 -11 0 -18 7 -9 10 -8 11 6 5 10 -3 15 -9 12
-12z m-1939 -49 c-6 -16 -6 -16 12 0 20 18 37 23 28 8 -13 -20 5 -38 31 -33
20 4 24 2 18 -9 -6 -11 -5 -12 6 -1 16 15 49 16 49 1 0 -5 5 -7 10 -4 6 3 16
3 22 -2 7 -4 20 -8 28 -8 8 -1 25 -2 38 -3 13 -1 20 -6 17 -12 -3 -5 0 -7 8
-4 8 3 18 1 21 -5 4 -6 13 -8 21 -4 8 3 15 1 15 -5 0 -5 9 -12 20 -15 11 -3
18 -1 14 4 -3 5 -1 9 5 9 5 0 11 -5 13 -11 2 -6 24 -13 48 -15 24 -3 55 -7 69
-10 37 -9 63 -8 85 1 11 5 17 5 14 -1 -4 -5 5 -9 18 -9 14 0 24 6 24 14 0 11
3 11 15 1 8 -7 15 -21 15 -30 0 -10 3 -20 8 -23 4 -2 1 -2 -5 -1 -7 2 -13 0
-13 -4 0 -4 -12 -9 -27 -10 -15 -1 -34 -10 -43 -20 -19 -21 -32 -62 -19 -62 5
0 8 -3 8 -7 -1 -5 0 -17 1 -28 1 -16 5 -13 16 13 16 36 38 41 66 15 17 -15 20
-15 34 -2 14 15 10 49 -6 49 -5 0 -6 9 -3 20 3 11 10 20 15 20 5 0 6 5 2 12
-4 6 -3 8 3 5 6 -4 25 12 42 34 26 32 35 38 47 28 11 -9 14 -8 14 2 0 9 11 14
29 14 16 0 27 -4 24 -8 -7 -11 17 -67 28 -67 5 0 9 -9 9 -21 0 -11 5 -17 10
-14 6 3 10 -3 10 -14 0 -12 11 -26 29 -35 16 -9 31 -24 34 -36 6 -24 48 -27
70 -5 13 13 16 13 21 -1 23 -59 -10 -93 -82 -87 -38 4 -52 1 -74 -17 -16 -12
-28 -26 -28 -32 0 -16 -43 -47 -66 -48 -12 0 -39 17 -60 39 -22 22 -59 46 -84
54 -25 9 -54 19 -65 23 -18 7 -18 5 4 -22 l23 -29 -24 -6 c-12 -4 -20 -7 -16
-8 4 -1 -4 -12 -18 -26 -23 -23 -74 -35 -74 -17 0 4 -10 12 -22 17 -28 13 -32
44 -10 75 10 14 21 33 25 43 6 16 5 16 -18 1 -14 -9 -25 -19 -25 -23 0 -4 -15
-15 -32 -26 -50 -29 -65 -46 -78 -92 -11 -36 -10 -48 8 -95 12 -29 24 -70 27
-90 3 -21 10 -38 16 -38 6 0 7 -4 4 -10 -3 -5 1 -10 10 -10 11 0 15 5 11 15
-3 8 -1 15 5 15 6 0 8 4 5 9 -3 5 6 16 20 26 28 18 24 20 91 -39 39 -35 73
-42 65 -14 -4 17 -2 17 24 7 115 -45 247 -54 379 -24 21 4 26 4 16 -3 -7 -5
-11 -14 -7 -20 3 -6 -6 -20 -21 -31 -20 -14 -23 -20 -12 -21 19 0 53 25 123
89 30 27 51 40 54 33 2 -7 8 -10 13 -6 17 10 9 -67 -11 -106 -24 -48 -24 -48
-2 -45 46 6 62 17 52 35 -13 23 -13 40 -1 21 8 -12 12 -12 25 -2 9 7 14 17 11
21 -3 4 9 46 25 94 48 138 38 181 -53 240 -27 18 -27 18 -27 -4 0 -20 -2 -21
-17 -9 -10 7 -7 1 6 -13 17 -20 22 -34 17 -53 -4 -14 -11 -23 -16 -20 -6 4
-22 -3 -36 -14 -26 -21 -81 -30 -69 -12 3 6 -58 9 -157 9 -151 -1 -429 10
-436 17 -11 10 51 28 107 31 36 2 71 6 78 8 7 3 15 1 18 -4 3 -4 19 -6 36 -3
17 2 38 2 47 -2 10 -4 62 -7 117 -7 106 0 185 16 185 39 0 7 -5 13 -10 13 -6
0 -5 8 2 20 7 11 21 20 31 20 20 0 37 32 19 38 -8 2 -7 11 5 28 15 23 14 28
-2 65 -10 22 -32 51 -48 64 -41 32 -31 60 18 52 19 -3 37 -2 39 2 3 4 73 8
157 9 137 1 155 3 180 21 16 12 35 21 44 21 8 0 15 4 15 9 0 5 11 12 25 15 14
4 23 11 20 16 -3 5 -1 11 5 15 5 3 10 17 10 29 0 19 5 23 24 21 14 -2 30 -6
35 -10 6 -3 11 -1 11 4 0 6 5 11 10 11 17 0 11 -125 -10 -191 -10 -35 -37
-136 -60 -223 -50 -196 -90 -277 -178 -364 -38 -38 -69 -61 -78 -58 -8 3 -14
-1 -14 -9 0 -9 -6 -12 -15 -9 -16 6 -16 25 0 36 6 5 5 8 -2 8 -17 0 -53 -32
-47 -42 3 -4 -2 -5 -11 -1 -13 4 -16 1 -13 -18 2 -18 -7 -32 -37 -57 -22 -18
-52 -44 -68 -57 -15 -14 -29 -25 -30 -25 -2 0 -24 -20 -50 -45 -33 -32 -63
-49 -104 -61 -76 -23 -180 -25 -193 -4 -7 10 -10 11 -10 3 0 -9 -16 -13 -46
-13 -84 0 -201 87 -243 181 -10 21 -21 36 -24 32 -4 -3 -7 6 -7 21 0 15 -5 37
-11 48 -7 13 -7 18 -1 14 6 -3 13 -2 17 4 6 10 -34 31 -46 24 -3 -1 -3 11 -1
27 4 24 0 31 -16 36 -14 3 -19 10 -14 21 5 15 3 15 -11 4 -8 -8 -13 -20 -11
-27 5 -11 1 -12 -19 -2 -14 6 -25 15 -24 18 3 10 -22 46 -53 78 -14 15 -24 35
-22 45 2 11 -4 19 -17 23 -11 3 -23 14 -26 24 -4 10 -10 19 -15 19 -7 0 -14
17 -18 43 -1 4 -8 15 -17 24 -9 8 -14 22 -11 30 3 7 -1 16 -9 19 -8 4 -15 11
-15 17 0 6 -9 41 -19 77 -28 93 -44 153 -47 170 -2 8 -10 46 -18 85 -13 64
-13 85 1 85 3 0 2 -8 -1 -17z m-66 -219 c0 -8 -5 -12 -10 -9 -6 4 -8 11 -5 16
9 14 15 11 15 -7z m-36 -39 c-6 -16 -24 -21 -24 -7 0 11 11 22 21 22 5 0 6 -7
3 -15z m56 5 c0 -5 -4 -10 -10 -10 -5 0 -10 5 -10 10 0 6 5 10 10 10 6 0 10
-4 10 -10z m1920 -40 c0 -5 -4 -10 -10 -10 -5 0 -10 5 -10 10 0 6 5 10 10 10
6 0 10 -4 10 -10z m-1920 -15 c0 -8 -7 -15 -16 -15 -14 0 -14 3 -4 15 7 8 14
15 16 15 2 0 4 -7 4 -15z m1860 10 c0 -2 -5 -16 -12 -30 -16 -35 5 -59 27 -29
8 10 15 14 15 7 0 -6 -5 -15 -10 -18 -6 -4 -10 -14 -9 -23 3 -20 -25 -87 -43
-106 -22 -21 -83 -18 -104 6 -19 20 -19 21 3 35 18 12 20 18 10 33 -9 15 -7
23 7 39 25 27 33 26 39 -5 3 -16 0 -28 -9 -31 -8 -3 -14 -11 -14 -19 0 -16 16
-19 25 -4 4 6 11 7 17 4 7 -5 9 2 5 18 -5 19 -2 28 10 32 12 5 14 9 5 18 -17
17 -15 38 6 59 16 17 32 24 32 14z m-1930 -45 c0 -5 -4 -10 -10 -10 -5 0 -10
5 -10 10 0 6 5 10 10 10 6 0 10 -4 10 -10z m88 -6 c24 -7 30 -24 8 -24 -8 0
-18 -5 -22 -12 -5 -7 -3 -8 6 -3 9 5 11 4 6 -3 -10 -17 -23 -15 -30 6 -3 9 -9
23 -12 30 -6 13 8 15 44 6z m-55 -24 c6 -22 0 -25 -22 -11 -7 5 -10 14 -7 20
11 17 23 13 29 -9z m-296 -62 c-3 -8 -6 -5 -6 6 -1 11 2 17 5 13 3 -3 4 -12 1
-19z m3 -27 c0 -6 -4 -13 -10 -16 -5 -3 -10 1 -10 9 0 9 5 16 10 16 6 0 10 -4
10 -9z m0 -40 c0 -5 -7 -11 -15 -15 -15 -5 -20 5 -8 17 9 10 23 9 23 -2z m-2
-35 c-20 -14 -25 -56 -7 -56 6 0 8 -9 4 -20 -5 -15 -3 -18 9 -14 15 6 12 27
-6 51 -8 10 8 31 16 22 11 -13 14 -89 5 -95 -8 -5 -8 -8 0 -13 12 -8 24 -93
25 -173 1 -27 4 -48 9 -48 4 0 7 -9 7 -21 0 -16 -4 -19 -21 -14 -18 6 -20 4
-14 -17 10 -32 15 -35 25 -18 8 13 10 12 10 -2 0 -10 -4 -18 -10 -18 -5 0 -7
-6 -4 -14 3 -7 -2 -16 -10 -19 -9 -4 -16 -2 -16 4 0 6 -5 7 -11 3 -8 -5 -8 -9
1 -14 9 -6 7 -11 -6 -19 -17 -9 -17 -10 -2 -11 9 0 20 5 23 10 3 6 13 10 21
10 11 0 12 -5 6 -17 -5 -10 -8 -42 -8 -71 1 -41 -3 -53 -16 -58 -10 -3 -22 -2
-28 1 -5 3 -10 1 -10 -4 0 -6 9 -11 20 -11 30 0 25 -13 -21 -53 -41 -37 -59
-45 -59 -27 0 5 -7 7 -15 4 -8 -4 -15 -10 -15 -15 0 -4 7 -6 15 -3 8 4 15 1
15 -5 0 -6 -11 -13 -25 -17 -14 -3 -23 -9 -20 -14 2 -4 -6 -16 -18 -27 -34
-31 -57 -62 -57 -76 0 -8 -3 -17 -7 -21 -4 -4 -8 -17 -8 -28 0 -12 -6 -23 -14
-26 -10 -3 -12 0 -7 13 4 11 0 25 -10 36 -11 12 -13 19 -5 19 7 0 9 5 6 10 -8
13 -25 3 -25 -15 0 -7 7 -21 16 -29 15 -16 9 -21 -21 -17 -5 1 -1 -7 10 -16
23 -21 32 -61 9 -42 -9 8 -14 8 -14 1 0 -6 6 -15 14 -19 7 -4 17 -18 20 -30 6
-19 3 -23 -12 -23 -11 0 -23 6 -25 13 -4 9 -8 9 -14 0 -11 -15 -103 -26 -103
-12 0 6 -5 7 -10 4 -6 -4 -8 -11 -5 -16 4 -5 -3 -9 -14 -9 -27 0 -27 12 -1 28
12 7 18 17 15 22 -3 6 -1 10 4 10 6 0 11 6 11 14 0 7 27 41 60 75 33 34 60 67
60 73 0 6 8 8 18 6 12 -3 17 1 19 16 0 12 4 41 7 66 16 129 20 145 36 135 4
-3 10 2 13 10 4 9 1 12 -9 8 -18 -7 -18 11 0 27 8 6 12 18 9 26 -8 21 5 17 35
-11 26 -24 49 -34 38 -16 -4 5 -2 11 4 13 5 1 7 13 4 25 -4 13 -10 20 -15 18
-4 -3 -6 -12 -2 -20 3 -10 -1 -15 -12 -15 -14 0 -16 6 -11 33 4 17 11 34 16
35 14 5 13 42 -1 42 -6 0 -8 -7 -5 -16 4 -10 1 -14 -6 -12 -7 3 -15 13 -17 24
-2 10 0 16 4 12 9 -8 35 9 35 23 0 5 -7 6 -15 3 -20 -8 -19 10 1 30 8 9 12 16
7 16 -5 0 -8 17 -7 38 1 20 2 37 4 37 1 0 4 11 6 25 15 87 64 190 64 135 0 -9
5 -13 10 -10 16 10 12 23 -8 29 -14 5 -17 14 -14 36 2 17 9 30 14 30 5 0 7 9
3 20 -8 25 11 60 33 60 16 -1 16 -2 0 -14z m375 -6 c-3 -12 -8 -19 -11 -16 -5
6 5 36 12 36 2 0 2 -9 -1 -20z m1747 -19 c0 -10 11 -26 24 -34 17 -12 22 -22
19 -41 -4 -17 1 -27 16 -35 39 -21 17 -70 -24 -55 -22 9 -18 -6 6 -27 11 -10
18 -23 14 -29 -4 -6 2 -21 13 -33 22 -25 28 -97 9 -109 -9 -6 -8 -11 4 -21 23
-18 30 -45 14 -60 -8 -8 -12 -23 -9 -34 3 -11 -1 -25 -10 -32 -24 -20 -76 3
-69 30 3 10 0 19 -6 19 -14 0 -15 -37 -1 -45 11 -7 13 -54 4 -79 -8 -20 -43
-21 -50 -1 -8 19 -19 19 -38 -1 -19 -19 -21 -38 -3 -31 8 3 13 -3 13 -14 0
-11 -6 -19 -13 -19 -7 0 -13 6 -13 14 0 8 -7 17 -16 20 -8 3 -12 10 -9 16 3 6
0 7 -9 4 -21 -8 -49 22 -43 46 3 10 -1 21 -9 24 -11 4 -10 10 2 35 8 16 22 32
30 35 10 4 14 14 11 26 -3 11 -1 20 4 20 5 0 9 -4 9 -10 0 -5 4 -10 9 -10 5 0
1 16 -7 35 -18 40 -35 47 -26 11 7 -28 -11 -43 -31 -26 -18 15 -20 47 -2 53 9
4 9 8 -2 15 -12 9 -13 13 -1 27 7 9 20 13 29 10 13 -4 12 -2 -1 9 -18 13 -26
32 -10 22 5 -3 15 6 22 19 7 14 22 25 32 25 10 0 18 5 18 10 0 6 5 10 11 10
11 0 39 25 39 34 0 4 -11 4 -25 0 -21 -5 -25 -3 -26 17 0 21 -1 21 -8 6 -6
-17 -8 -17 -20 -3 -11 13 -9 17 14 26 23 9 25 13 14 26 -11 14 -10 18 5 30 16
11 21 11 33 -2 13 -12 17 -11 32 8 22 26 17 59 -7 51 -10 -3 -22 -12 -29 -20
-7 -9 -13 -11 -18 -4 -3 6 -1 11 4 11 6 0 11 7 11 15 0 15 50 46 62 38 5 -2 8
-12 8 -22z m-687 12 c-7 -2 -21 -2 -30 0 -10 3 -4 5 12 5 17 0 24 -2 18 -5z
m-1283 -13 c0 -5 -5 -10 -11 -10 -5 0 -7 5 -4 10 3 6 8 10 11 10 2 0 4 -4 4
-10z m958 -23 c16 -8 43 -12 61 -9 17 2 37 -1 45 -7 10 -9 16 -9 21 -1 4 7 36
11 83 10 43 -1 85 1 96 5 11 5 21 3 25 -4 4 -6 15 -9 24 -5 12 4 17 1 17 -10
0 -9 -8 -19 -17 -23 -10 -3 -25 -12 -35 -20 -11 -10 -18 -11 -23 -4 -4 8 -12
6 -22 -5 -9 -9 -25 -13 -36 -10 -11 3 -29 0 -39 -5 -27 -15 -134 -20 -164 -9
-17 7 -23 7 -19 0 3 -6 -1 -10 -9 -10 -9 0 -16 5 -16 10 0 6 -6 10 -12 10 -7
0 -33 11 -58 25 -25 13 -53 27 -62 31 -10 3 -18 9 -19 13 0 3 -2 14 -4 23 -3
14 6 16 66 13 38 -2 82 -10 97 -18z m-961 -19 c-3 -8 -6 -5 -6 6 -1 11 2 17 5
13 3 -3 4 -12 1 -19z m251 -28 l27 0 -25 -13 c-21 -11 -26 -11 -32 2 -4 9 -7
21 -7 26 1 6 3 4 6 -2 2 -7 17 -13 31 -13z m-240 -31 c-3 -20 -5 -19 -9 9 -3
20 -2 29 4 23 5 -5 7 -19 5 -32z m212 -34 c0 -6 -6 -17 -12 -24 -7 -7 5 -1 26
13 48 32 61 29 60 -12 -1 -28 1 -30 15 -19 9 6 18 15 21 19 7 9 50 -2 50 -13
0 -5 -7 -6 -15 -3 -8 4 -15 1 -15 -5 0 -6 5 -11 11 -11 5 0 7 -4 4 -10 -9 -15
-25 -12 -25 5 0 22 -11 18 -37 -12 -18 -20 -26 -24 -35 -15 -9 9 -8 18 2 37
10 20 11 28 2 37 -9 9 -12 7 -12 -10 0 -13 -6 -22 -16 -22 -14 0 -14 -2 0 -22
9 -12 16 -33 16 -45 0 -25 10 -29 27 -12 14 14 43 5 43 -15 0 -15 -43 -31 -48
-18 -3 11 -62 2 -62 -9 0 -5 13 -12 29 -15 24 -5 28 -10 21 -23 -4 -9 -13 -28
-19 -43 -6 -17 -18 -28 -30 -28 -20 0 -35 25 -25 42 4 6 -2 8 -16 3 -21 -7
-22 -5 -15 16 4 13 8 38 8 54 2 27 5 30 33 29 27 -1 30 1 26 22 -2 13 -9 22
-15 21 -6 -1 -16 9 -24 23 l-13 25 0 -24 c0 -20 -3 -22 -12 -13 -10 10 -10 19
3 41 10 17 13 34 8 42 -4 7 -6 17 -3 21 6 10 44 -14 44 -27z m135 5 c3 -5 1
-10 -4 -10 -6 0 -11 5 -11 10 0 6 2 10 4 10 3 0 8 -4 11 -10z m-338 -42 c-3
-8 -6 -5 -6 6 -1 11 2 17 5 13 3 -3 4 -12 1 -19z m-497 -18 c8 -5 11 -10 5
-10 -5 0 -17 5 -25 10 -8 5 -10 10 -5 10 6 0 17 -5 25 -10z m1080 0 c0 -5 -8
-10 -17 -10 -15 0 -16 2 -3 10 19 12 20 12 20 0z m-1102 -35 c-3 -3 -9 2 -12
12 -6 14 -5 15 5 6 7 -7 10 -15 7 -18z m62 5 c0 -5 -2 -10 -4 -10 -3 0 -8 5
-11 10 -3 6 -1 10 4 10 6 0 11 -4 11 -10z m-73 -55 c-4 -8 -2 -17 3 -20 6 -4
10 -12 10 -18 -1 -14 -40 30 -40 44 0 5 7 9 16 9 10 0 14 -6 11 -15z m-30 -43
c-9 -2 -15 -8 -12 -13 4 -5 1 -9 -4 -9 -15 0 -14 27 2 33 6 2 17 2 22 -2 6 -3
2 -7 -8 -9z m893 4 c0 -8 7 -17 16 -20 11 -4 13 -10 6 -19 -5 -6 -6 -21 -2
-32 8 -23 2 -47 -11 -40 -4 3 -6 12 -2 20 7 21 -3 19 -37 -7 -23 -17 -32 -19
-44 -9 -18 15 -4 52 34 92 29 31 40 35 40 15z m-914 -73 c-10 -10 -19 5 -10
18 6 11 8 11 12 0 2 -7 1 -15 -2 -18z m109 -3 c3 -5 1 -10 -4 -10 -6 0 -11 5
-11 10 0 6 2 10 4 10 3 0 8 -4 11 -10z m-155 -20 c0 -5 -4 -10 -10 -10 -5 0
-10 5 -10 10 0 6 5 10 10 10 6 0 10 -4 10 -10z m130 -36 c0 -2 -7 -4 -15 -4
-8 0 -15 4 -15 10 0 5 7 7 15 4 8 -4 15 -8 15 -10z m-25 -25 c11 -16 1 -19
-13 -3 -7 8 -8 14 -3 14 5 0 13 -5 16 -11z m-125 -34 c0 -8 -4 -15 -9 -15 -13
0 -22 16 -14 24 11 11 23 6 23 -9z m-50 -65 c0 -5 -2 -10 -4 -10 -3 0 -8 5
-11 10 -3 6 -1 10 4 10 6 0 11 -4 11 -10z m94 -25 c-4 -8 -8 -15 -10 -15 -2 0
-4 7 -4 15 0 8 4 15 10 15 5 0 7 -7 4 -15z m-103 -50 c5 4 6 -1 3 -9 -7 -19
-34 -21 -34 -3 0 18 14 31 18 18 2 -6 8 -9 13 -6z m71 8 c-6 -2 -10 -9 -6 -14
3 -5 -2 -9 -12 -9 -13 0 -14 3 -4 15 7 8 18 15 24 14 7 0 6 -2 -2 -6z m-88
-62 c3 -4 -3 -16 -13 -25 -22 -20 -40 -4 -21 19 14 17 26 19 34 6z m2377 -43
c15 -25 18 -43 14 -71 -4 -29 1 -52 20 -93 14 -30 32 -54 40 -54 8 0 30 -17
50 -37 33 -34 35 -41 29 -78 -7 -44 -21 -68 -35 -59 -5 3 -6 -1 -4 -9 3 -7 -3
-22 -15 -32 -18 -16 -20 -16 -20 -2 0 10 -7 17 -15 17 -8 0 -15 9 -15 19 0 14
5 18 20 14 21 -6 29 20 10 32 -7 4 -7 12 0 25 14 25 13 30 -5 24 -10 -4 -15 0
-15 15 0 19 -2 20 -22 9 -13 -7 -27 -19 -31 -25 -4 -7 -14 -13 -22 -13 -7 0
-21 -7 -29 -16 -12 -11 -16 -12 -16 -2 0 7 16 24 34 38 19 14 32 29 29 34 -3
5 -10 1 -15 -8 -5 -9 -14 -16 -19 -16 -6 0 -21 -8 -34 -19 -19 -14 -21 -21
-12 -30 9 -10 8 -16 -7 -27 -11 -8 -28 -14 -38 -14 -10 0 -18 -4 -18 -9 0 -14
-43 -9 -58 6 -10 10 -11 17 -3 27 6 7 7 16 3 21 -4 4 3 4 16 1 14 -5 22 -3 22
4 0 7 8 9 20 5 13 -4 20 -2 18 6 -2 6 6 12 18 14 11 1 35 12 53 24 17 13 39
24 49 26 9 2 19 4 22 5 3 1 -5 5 -18 11 -14 5 -20 14 -16 20 4 7 1 10 -7 7 -8
-3 -14 -12 -14 -21 0 -8 -4 -19 -9 -24 -5 -5 -6 -2 -1 7 6 11 3 10 -12 -2 -23
-21 -37 -24 -27 -5 4 6 -4 2 -17 -10 -30 -27 -104 -57 -123 -50 -8 3 -16 1
-18 -5 -2 -6 -15 -12 -29 -14 -13 -1 -27 -3 -30 -3 -4 -1 -9 -9 -12 -20 -3
-14 1 -18 19 -18 13 0 24 4 24 9 0 6 6 8 14 5 7 -3 19 0 26 6 10 9 12 8 7 -5
-4 -10 -2 -18 4 -18 6 0 7 -5 4 -10 -4 -6 -16 -8 -28 -5 -17 5 -19 4 -7 -4 13
-10 13 -11 0 -11 -13 0 -13 -2 0 -11 12 -9 12 -10 -3 -5 -10 3 -23 6 -28 6 -6
0 -7 5 -3 11 3 6 -5 3 -20 -6 -38 -25 -75 -13 -73 23 2 20 -2 27 -15 26 -10
-1 -15 2 -12 7 3 5 1 9 -5 9 -5 0 -11 -5 -13 -11 -6 -17 -148 -23 -148 -7 -1
7 -8 1 -16 -14 -15 -28 -38 -40 -28 -14 3 7 -2 16 -10 19 -9 4 -16 2 -16 -3 0
-6 -9 -6 -25 0 -14 5 -25 6 -25 1 0 -5 -12 -7 -27 -4 -16 3 -42 6 -60 7 -17 0
-35 4 -38 8 -4 4 -13 4 -21 1 -9 -3 -14 2 -14 16 0 14 -8 23 -25 27 -28 7 -34
24 -9 24 13 0 14 3 5 14 -7 9 -25 13 -44 10 -18 -2 -26 -1 -19 2 6 3 12 14 12
25 0 12 7 19 20 19 11 0 20 -5 20 -10 0 -6 11 -8 25 -4 14 3 25 2 25 -3 0 -5
19 -9 42 -10 23 -1 45 -8 49 -14 6 -10 11 -10 22 -1 16 14 47 6 47 -12 0 -6 5
-4 10 5 8 13 18 15 52 9 26 -5 48 -4 55 2 8 6 19 6 32 -2 15 -8 21 -8 21 0 0
7 8 9 19 5 11 -3 22 -1 26 5 4 7 12 7 25 0 23 -12 43 -13 36 -1 -3 5 2 12 11
16 10 3 19 1 21 -4 2 -7 10 -5 19 4 11 11 19 13 28 5 9 -8 14 -6 19 6 4 9 13
14 21 10 8 -3 15 0 15 5 0 7 9 9 21 6 13 -3 28 0 36 9 9 8 23 12 34 9 10 -4
19 -2 19 4 0 6 18 16 40 22 23 7 42 20 45 31 4 10 10 18 15 18 5 0 17 14 25
31 13 24 14 37 6 61 -23 64 -4 80 30 26z m962 -3 c-10 -7 -20 -12 -21 -10 -7
7 23 33 31 28 5 -3 0 -11 -10 -18z m-3339 -21 c3 -8 2 -12 -4 -9 -6 3 -10 10
-10 16 0 14 7 11 14 -7z m26 -50 c0 -13 -37 -1 -47 15 -11 18 -10 18 18 4 16
-8 29 -16 29 -19z m-63 0 c-3 -3 -12 -4 -19 -1 -8 3 -5 6 6 6 11 1 17 -2 13
-5z m3278 -14 c3 -5 1 -10 -4 -10 -6 0 -11 5 -11 10 0 6 2 10 4 10 3 0 8 -4
11 -10z m-2079 -30 c17 0 22 -4 18 -15 -4 -8 -10 -15 -16 -15 -14 0 -38 27
-37 42 0 10 2 10 6 1 2 -7 15 -13 29 -13z m-1192 -5 c-4 -8 -10 -15 -15 -15
-4 0 -6 7 -3 15 4 8 10 15 15 15 4 0 6 -7 3 -15z m91 5 c3 -5 -1 -10 -10 -10
-9 0 -13 5 -10 10 3 6 8 10 10 10 2 0 7 -4 10 -10z m100 -10 c3 -5 1 -10 -4
-10 -6 0 -11 5 -11 10 0 6 2 10 4 10 3 0 8 -4 11 -10z m3095 0 c0 -5 -2 -10
-4 -10 -3 0 -8 5 -11 10 -3 6 -1 10 4 10 6 0 11 -4 11 -10z m-3331 -21 c-16
-10 -23 -4 -14 10 3 6 11 8 17 5 6 -4 5 -9 -3 -15z m74 1 c-6 -23 -22 -37 -19
-18 2 14 15 38 21 38 2 0 1 -9 -2 -20z m857 4 c0 -8 -5 -12 -10 -9 -6 4 -8 11
-5 16 9 14 15 11 15 -7z m373 -23 c-4 -14 -3 -14 5 -1 9 12 15 12 46 -3 20 -9
36 -22 36 -29 0 -9 3 -8 10 2 9 13 12 13 23 0 6 -8 23 -16 37 -18 38 -4 50
-10 50 -26 0 -20 -30 -24 -62 -8 -15 7 -32 11 -38 7 -5 -3 -10 -1 -10 4 0 6
-12 11 -26 11 -21 0 -25 4 -21 20 3 11 1 20 -4 20 -5 0 -9 -4 -9 -10 0 -5 -7
-10 -15 -10 -8 0 -15 3 -15 8 0 4 -13 13 -30 20 -25 12 -28 17 -20 33 9 15 14
17 29 7 11 -6 17 -19 14 -27z m2162 29 c3 -5 1 -10 -4 -10 -6 0 -11 5 -11 10
0 6 2 10 4 10 3 0 8 -4 11 -10z m-127 -35 c-3 -3 -9 2 -12 12 -6 14 -5 15 5 6
7 -7 10 -15 7 -18z m-3160 -9 c-10 -7 -15 -16 -11 -19 3 -4 1 -7 -5 -7 -7 0
-12 7 -12 15 0 8 7 15 15 15 8 0 15 5 15 12 0 6 3 8 7 4 5 -4 0 -13 -9 -20z
m-148 -8 c0 -13 -7 -31 -14 -41 -11 -15 -15 -15 -25 -3 -13 16 2 32 19 21 7
-4 9 2 4 19 -4 16 -2 26 5 26 6 0 11 -10 11 -22z m3313 -1 c9 -3 17 -11 17
-17 0 -7 -5 -8 -12 -3 -13 8 -18 9 -38 12 -5 0 -7 8 -3 17 3 9 9 12 12 7 3 -5
14 -12 24 -16z m-2413 3 c0 -5 -2 -10 -4 -10 -3 0 -8 5 -11 10 -3 6 -1 10 4
10 6 0 11 -4 11 -10z m-497 -24 c3 -8 0 -19 -6 -24 -9 -8 -12 -4 -12 14 0 27
10 32 18 10z m-229 -11 c-4 -8 -10 -12 -15 -9 -11 6 -2 24 11 24 5 0 7 -7 4
-15z m31 -6 c-10 -15 -25 -10 -19 6 4 8 10 12 15 9 5 -3 7 -10 4 -15z m2530
11 c3 -6 17 -7 29 -4 28 7 50 -13 67 -61 7 -19 19 -35 26 -35 15 0 18 -17 3
-22 -6 -2 -7 -14 -1 -35 7 -24 6 -35 -4 -43 -8 -7 -15 -7 -19 -1 -3 5 -1 11 5
13 8 3 6 10 -6 21 -9 10 -21 33 -26 52 -11 38 -56 98 -69 90 -4 -2 -15 4 -25
15 -16 18 -16 20 -2 20 9 0 19 -5 22 -10z m-2835 -10 c0 -5 -5 -10 -11 -10 -5
0 -7 5 -4 10 3 6 8 10 11 10 2 0 4 -4 4 -10z m30 -23 c0 -5 -4 -5 -10 -2 -5 3
-10 14 -10 23 0 15 2 15 10 2 5 -8 10 -19 10 -23z m973 18 c-3 -9 -8 -14 -10
-11 -3 3 -2 9 2 15 9 16 15 13 8 -4z m2567 -7 c0 -19 -2 -20 -10 -8 -13 19
-13 30 0 30 6 0 10 -10 10 -22z m-3330 -2 c0 -2 -7 -7 -16 -10 -8 -3 -12 -2
-9 4 6 10 25 14 25 6z m1135 -6 c-3 -5 -10 -10 -16 -10 -5 0 -9 5 -9 10 0 6 7
10 16 10 8 0 12 -4 9 -10z m45 -11 c0 -5 -7 -9 -15 -9 -15 0 -20 12 -9 23 8 8
24 -1 24 -14z m-1360 -4 c7 -9 8 -15 2 -15 -5 0 -12 7 -16 15 -3 8 -4 15 -2
15 2 0 9 -7 16 -15z m475 6 c3 -5 1 -12 -5 -16 -5 -3 -10 0 -10 7 0 9 -3 9
-10 -2 -5 -8 -10 -10 -10 -4 0 22 24 32 35 15z m2908 -5 c4 -10 1 -13 -9 -9
-15 6 -19 23 -5 23 5 0 11 -7 14 -14z m-3447 -12 c-9 -8 -16 -24 -16 -35 0
-11 -4 -18 -10 -14 -5 3 -8 19 -7 35 2 24 7 30 25 30 21 0 22 -1 8 -16z m1467
1 c8 -18 -11 -31 -25 -17 -11 11 -3 32 12 32 4 0 10 -7 13 -15z m1297 -4 c5
-11 7 -27 4 -36 -6 -14 -10 -12 -29 12 -13 15 -21 31 -18 35 8 15 32 8 43 -11z
m-1753 -28 c-3 -10 -5 -4 -5 12 0 17 2 24 5 18 2 -7 2 -21 0 -30z m575 13 c13
4 16 1 12 -9 -6 -18 21 -41 41 -34 18 8 31 -11 16 -26 -7 -7 -16 -6 -29 6 -10
9 -21 14 -24 11 -8 -8 -48 14 -45 25 2 10 -8 10 -35 3 -10 -2 -18 -8 -18 -13
0 -5 -11 -9 -25 -9 -14 0 -25 5 -25 10 0 6 -7 10 -16 10 -8 0 -13 4 -9 10 3 6
15 6 30 0 19 -7 26 -5 39 15 15 22 18 23 43 10 16 -8 36 -12 45 -9z m-1436 -9
c4 -4 -2 -7 -14 -7 -12 0 -22 4 -22 9 0 10 26 9 36 -2z m364 3 c0 -5 -2 -10
-4 -10 -3 0 -8 5 -11 10 -3 6 -1 10 4 10 6 0 11 -4 11 -10z m3080 -6 c0 -8 -4
-12 -10 -9 -5 3 -10 10 -10 16 0 5 5 9 10 9 6 0 10 -7 10 -16z m-3540 2 c0
-11 -19 -15 -25 -6 -3 5 1 10 9 10 9 0 16 -2 16 -4z m-90 -36 c8 -15 8 -18 -3
-14 -8 3 -14 11 -14 19 0 20 4 19 17 -5z m125 10 c-3 -5 -12 -10 -18 -10 -7 0
-6 4 3 10 19 12 23 12 15 0z m2486 -7 c8 -9 10 -18 4 -20 -32 -11 -36 -20 -24
-49 18 -42 21 -74 9 -74 -6 0 -8 -5 -5 -11 4 -6 0 -16 -8 -22 -8 -7 -17 -21
-19 -32 -2 -11 -10 -20 -18 -21 -8 0 -24 -5 -34 -9 -14 -6 -24 -2 -38 18 -11
15 -27 27 -36 28 -11 0 -12 2 -4 6 31 12 3 58 -35 58 -12 0 -25 -4 -29 -8 -4
-4 0 -7 10 -7 10 0 14 -5 11 -11 -4 -5 5 -28 19 -49 29 -44 31 -57 12 -82 -14
-19 -51 -24 -60 -9 -3 4 -19 11 -35 14 -23 5 -31 13 -36 39 -4 18 -12 36 -18
40 -6 4 -8 10 -4 15 4 4 17 2 27 -5 17 -10 20 -10 20 3 0 21 -44 38 -48 19 -4
-17 -12 -17 -36 1 -22 17 -13 35 18 35 12 0 28 6 35 13 11 10 13 9 8 -4 -3 -9
3 -20 14 -27 10 -7 19 -19 19 -27 0 -20 26 -19 34 0 3 9 0 15 -8 15 -22 0 -27
39 -6 50 9 5 20 6 24 3 3 -3 6 -1 6 5 0 7 8 12 18 12 10 0 23 5 29 11 7 7 14
6 24 -4 8 -7 20 -12 27 -9 7 2 19 -1 27 -8 10 -8 19 -8 34 0 29 15 26 35 -4
36 -14 1 -25 -2 -25 -7 0 -5 -12 -9 -26 -9 -16 0 -24 5 -21 13 2 6 14 11 26
10 12 -2 21 3 21 10 0 17 45 42 59 33 7 -4 11 1 11 13 0 25 13 27 31 4z
m-2416 -21 c-3 -3 -11 0 -18 7 -9 10 -8 11 6 5 10 -3 15 -9 12 -12z m869 9 c3
-5 -1 -11 -9 -14 -9 -4 -12 -1 -8 9 6 16 10 17 17 5z m523 -4 c-4 -12 -37 -19
-37 -8 0 12 9 18 25 18 9 0 14 -5 12 -10z m-1518 -20 c0 -9 -2 -8 -6 1 -2 6
-10 9 -15 6 -7 -4 -8 -2 -4 5 9 13 26 5 25 -12z m1396 17 c13 -5 14 -8 3 -15
-19 -12 -25 -11 -25 6 0 17 0 17 22 9z m-1481 -19 c3 -8 1 -15 -4 -15 -6 0
-10 7 -10 15 0 8 2 15 4 15 2 0 6 -7 10 -15z m3696 5 c0 -5 -2 -10 -4 -10 -3
0 -8 5 -11 10 -3 6 -1 10 4 10 6 0 11 -4 11 -10z m-2146 -16 c3 -8 13 -14 21
-14 9 0 13 -4 10 -10 -9 -14 -35 -12 -32 2 1 7 -8 14 -20 16 -28 4 -30 17 -4
19 11 1 22 -5 25 -13z m-1374 2 c0 -11 -19 -15 -25 -6 -3 5 1 10 9 10 9 0 16
-2 16 -4z m1124 -2 c21 -8 20 -20 -1 -28 -9 -4 -20 -1 -25 6 -16 26 -7 35 26
22z m346 -9 c13 -16 3 -20 -24 -9 -9 3 -13 10 -10 15 8 13 20 11 34 -6z m56
-22 c-3 -7 0 -13 6 -13 7 0 6 -5 -2 -15 -10 -12 -16 -13 -26 -4 -18 15 -18 29
1 29 18 0 19 11 3 30 -11 12 -10 12 5 0 10 -7 16 -19 13 -27z m70 16 c3 -5 14
-4 25 1 11 6 19 7 19 1 0 -5 9 -7 20 -4 11 3 20 0 20 -6 0 -6 -4 -11 -10 -11
-5 0 -10 -7 -10 -16 0 -15 -2 -15 -25 0 -14 9 -30 14 -35 11 -6 -3 -10 -1 -10
5 0 7 -8 9 -19 5 -20 -6 -36 8 -27 24 7 10 44 3 52 -10z m348 5 c20 -8 20 -21
0 -41 -14 -14 -17 -14 -32 1 -16 16 -15 17 6 23 18 4 20 8 10 14 -15 10 -6 12
16 3z m66 -14 c-12 -22 -25 -26 -35 -10 -9 15 4 30 26 30 17 0 18 -3 9 -20z
m-710 -6 c0 -2 -15 -4 -32 -4 -23 0 -29 3 -19 9 12 8 51 4 51 -5z m513 1 c26
-1 47 2 47 7 0 4 9 8 20 8 21 0 21 1 -7 -49 -1 -2 -13 3 -27 12 -22 15 -25 15
-30 1 -6 -15 -9 -15 -29 -1 -15 9 -29 12 -37 7 -9 -5 -20 -4 -27 2 -19 15 -5
30 20 22 12 -4 43 -8 70 -9z m-620 -10 c0 -6 -7 -11 -16 -13 -12 -3 -15 1 -11
13 7 17 25 17 27 0z m-1423 -5 c0 -5 -5 -10 -11 -10 -5 0 -7 5 -4 10 3 6 8 10
11 10 2 0 4 -4 4 -10z m1320 0 c0 -5 -7 -7 -15 -4 -8 4 -15 1 -15 -7 0 -7 -3
-10 -6 -6 -9 9 5 27 22 27 8 0 14 -4 14 -10z m-1180 -4 c0 -3 -4 -8 -10 -11
-5 -3 -10 -1 -10 4 0 6 5 11 10 11 6 0 10 -2 10 -4z m1794 -5 c4 -5 -3 -7 -14
-4 -23 6 -26 13 -6 13 8 0 17 -4 20 -9z m341 -2 c4 -6 14 -8 24 -5 9 3 4 -3
-11 -14 -26 -20 -30 -64 -4 -54 19 7 48 -31 44 -58 -2 -13 -10 -23 -18 -23 -8
0 -19 -4 -23 -10 -6 -7 -10 -6 -13 2 -3 7 -11 10 -19 7 -7 -3 -20 5 -29 17 -8
13 -17 21 -19 18 -10 -11 -16 -59 -8 -59 18 0 4 -63 -18 -81 -28 -23 -49 -24
-72 -3 -14 12 -15 22 -8 47 5 17 14 34 20 38 9 5 8 12 -5 24 -20 21 -19 22
-35 -35 -14 -48 -34 -69 -67 -70 -26 0 -60 37 -66 71 -6 32 29 79 60 82 12 0
19 3 17 6 -3 2 0 10 6 18 9 9 8 13 0 13 -6 0 -11 -5 -11 -11 0 -5 -4 -7 -10
-4 -5 3 -10 15 -10 26 0 10 -4 19 -10 19 -5 0 -7 7 -4 15 8 20 20 19 44 -5 24
-24 30 -25 30 -5 0 12 4 13 18 4 10 -7 19 -18 19 -26 0 -8 -7 -11 -19 -7 -11
3 -18 0 -18 -7 0 -7 3 -10 6 -6 10 9 32 -16 27 -30 -5 -12 11 -17 47 -15 8 0
18 -5 22 -11 5 -8 8 -6 8 6 0 9 6 17 13 17 14 0 39 49 31 61 -3 5 0 9 5 9 6 0
11 6 11 13 0 14 19 37 31 37 4 0 11 -5 14 -11z m1475 7 c0 -3 -4 -8 -10 -11
-5 -3 -10 -1 -10 4 0 6 5 11 10 11 6 0 10 -2 10 -4z m-2393 -28 c-3 -8 -6 -5
-6 6 -1 11 2 17 5 13 3 -3 4 -12 1 -19z m223 6 c0 -13 3 -14 14 -5 7 6 21 9
30 5 9 -3 16 -1 16 5 0 6 9 11 20 11 12 0 20 -7 20 -16 0 -11 -5 -14 -17 -10
-10 4 -25 -2 -39 -15 -19 -18 -26 -20 -39 -9 -13 10 -15 9 -15 -7 0 -11 -10
-33 -22 -48 -15 -20 -18 -30 -10 -33 7 -2 12 -15 12 -28 0 -27 -31 -45 -62
-36 -24 6 -35 49 -17 65 8 7 12 11 10 10 -2 -1 -13 3 -24 9 -18 9 -19 11 -3
20 9 5 13 14 10 20 -4 6 -3 13 2 17 5 3 14 15 20 26 7 11 19 19 28 17 9 -2 16
2 16 8 0 5 11 10 25 10 16 0 25 -6 25 -16z m254 -10 c3 -8 1 -14 -5 -14 -6 0
-8 -4 -4 -10 8 -13 35 -1 35 16 0 17 16 18 26 3 3 -6 0 -15 -7 -20 -7 -4 -10
-11 -6 -15 4 -4 -2 -13 -13 -21 -23 -16 -27 -38 -5 -29 8 3 21 -4 30 -17 14
-20 14 -23 -5 -39 -12 -9 -27 -15 -35 -12 -8 4 -15 -3 -17 -18 -2 -17 -9 -23
-28 -23 -14 0 -30 -3 -37 -8 -19 -12 -44 4 -50 35 -7 38 -32 50 -70 36 -34
-13 -61 -6 -69 17 -9 23 5 65 21 65 8 0 15 5 15 10 0 16 46 12 60 -5 10 -12 9
-16 -4 -21 -16 -6 -23 -34 -8 -34 4 0 17 -3 30 -6 17 -5 22 -2 22 14 0 13 10
24 28 30 24 9 25 10 5 11 l-23 1 20 20 c11 11 29 20 41 20 14 0 19 5 16 14 -3
8 -3 16 0 19 8 9 31 -3 37 -19z m-394 1 c0 -8 -4 -15 -10 -15 -5 0 -10 7 -10
15 0 8 5 15 10 15 6 0 10 -7 10 -15z m-280 -26 c0 -10 -4 -19 -9 -19 -5 0 -8
11 -8 25 0 13 3 22 8 19 5 -3 9 -14 9 -25z m563 24 c4 -3 -2 -13 -14 -21 -23
-16 -34 -10 -26 13 7 15 28 20 40 8z m242 -3 c3 -5 0 -10 -7 -11 -7 0 -3 -5
10 -11 25 -13 28 -31 7 -50 -32 -29 -46 -40 -49 -37 -18 28 -22 56 -10 67 19
18 17 32 -3 26 -15 -5 -15 -3 1 10 23 18 42 21 51 6z m233 -12 c-2 -7 -11 -16
-20 -20 -10 -4 -18 -14 -18 -23 0 -18 -5 -18 -30 -5 -24 13 -15 47 14 53 42 8
56 7 54 -5z m-894 -4 c9 -3 16 -15 16 -26 0 -14 -5 -18 -16 -14 -9 3 -18 6
-20 6 -2 0 -4 9 -4 20 0 22 1 23 24 14z m121 -25 c8 -25 -1 -39 -26 -39 -24 0
-44 43 -23 48 8 2 14 7 14 12 0 16 29 -1 35 -21z m2200 1 c-3 -5 -11 -10 -16
-10 -6 0 -7 5 -4 10 3 6 11 10 16 10 6 0 7 -4 4 -10z m-2468 -32 c-3 -8 -6 -5
-6 6 -1 11 2 17 5 13 3 -3 4 -12 1 -19z m17 -74 c3 -8 2 -12 -4 -9 -6 3 -10
10 -10 16 0 14 7 11 14 -7z m3 -46 c2 -17 0 -19 -7 -8 -5 8 -6 18 -4 22 8 12
10 10 11 -14z m-1210 -21 c-3 -8 -2 -19 3 -26 4 -8 -11 -44 -36 -89 -24 -42
-44 -82 -44 -88 0 -6 -7 -17 -15 -24 -8 -7 -13 -16 -10 -20 3 -5 1 -11 -4 -14
-14 -9 -34 55 -21 68 8 8 9 6 5 -5 -4 -10 0 -19 9 -22 10 -4 13 -1 9 9 -3 8 0
21 7 29 7 8 10 15 7 15 -15 0 17 59 38 70 13 7 26 21 28 31 3 13 1 17 -6 12
-7 -3 -4 3 6 14 12 14 15 23 8 28 -16 10 -13 25 5 25 9 0 14 -6 11 -13z m1223
-27 c0 -5 -5 -10 -11 -10 -5 0 -7 5 -4 10 3 6 8 10 11 10 2 0 4 -4 4 -10z
m-1265 -50 c-3 -5 -10 -10 -16 -10 -5 0 -9 5 -9 10 0 6 7 10 16 10 8 0 12 -4
9 -10z m1282 -122 c-3 -8 -6 -5 -6 6 -1 11 2 17 5 13 3 -3 4 -12 1 -19z
m-1370 -90 c-3 -7 -5 -2 -5 12 0 14 2 19 5 13 2 -7 2 -19 0 -25z m4123 -79 c0
-14 -17 -10 -23 5 -4 10 -1 13 9 9 7 -3 14 -9 14 -14z m-4350 -423 c0 -11 -19
-15 -25 -6 -3 5 1 10 9 10 9 0 16 -2 16 -4z m1707 -128 c-3 -8 -6 -5 -6 6 -1
11 2 17 5 13 3 -3 4 -12 1 -19z m10 -80 c-3 -8 -6 -5 -6 6 -1 11 2 17 5 13 3
-3 4 -12 1 -19z m-1847 -104 c0 -16 -16 -19 -25 -4 -8 13 4 32 16 25 5 -4 9
-13 9 -21z m-40 -304 c0 -15 -32 -20 -47 -9 -10 9 -11 14 -2 19 13 9 49 1 49
-10z m3000 -140 c570 -27 723 -42 749 -74 16 -19 2 -73 -20 -79 -29 -8 -44
-51 -52 -152 -2 -29 -1 -30 34 -27 38 3 62 -14 39 -28 -16 -10 -3 -33 15 -26
14 5 45 -24 45 -42 0 -15 35 -16 60 -2 15 8 19 5 23 -18 6 -32 2 -39 -16 -24
-21 18 -29 1 -11 -19 10 -11 18 -40 20 -69 7 -124 35 -307 59 -390 17 -57 29
-171 16 -150 -18 28 -23 -15 -8 -62 8 -23 14 -45 12 -47 -8 -8 -25 12 -25 30
0 11 -5 29 -10 39 -6 10 -12 40 -15 66 -6 56 -6 57 -30 40 -18 -13 -18 -15 0
-77 21 -71 57 -139 63 -120 3 8 8 9 15 2 7 -5 37 -22 67 -38 118 -62 241 -160
305 -243 140 -182 197 -413 165 -675 -23 -199 -32 -221 -172 -431 -70 -104
-144 -208 -165 -230 -41 -45 -111 -74 -125 -52 -5 9 -8 9 -13 -2 -4 -11 -18
-14 -55 -12 -34 3 -50 0 -50 -8 0 -7 -7 -10 -15 -7 -8 4 -17 2 -20 -3 -10 -16
-25 -11 -19 5 4 8 1 15 -5 15 -6 0 -11 -4 -11 -9 0 -12 -69 -36 -93 -32 -10 1
-28 -6 -39 -16 -11 -10 -30 -18 -42 -19 -11 -1 -29 -5 -39 -9 -10 -4 -30 -5
-45 -2 -27 5 -68 -14 -55 -26 3 -4 -1 -7 -11 -7 -9 0 -14 4 -11 10 10 16 -31
11 -45 -5 -7 -8 -19 -15 -26 -15 -8 0 -14 -4 -14 -8 0 -11 -58 -3 -66 9 -7 12
-54 11 -54 -1 0 -5 -9 -10 -20 -10 -13 0 -20 7 -20 19 0 24 -19 38 -29 22 -4
-6 -14 -9 -23 -6 -8 3 -21 -1 -28 -10 -10 -12 -16 -13 -27 -3 -11 9 -16 9 -24
-3 -6 -10 -9 -10 -9 -1 0 6 -7 12 -15 12 -8 0 -15 5 -15 10 0 6 -9 10 -21 10
-11 0 -18 3 -15 8 2 4 -2 16 -10 26 -13 18 -15 18 -32 3 -20 -18 -33 -22 -31
-9 3 20 -2 32 -16 32 -8 0 -15 -8 -15 -17 0 -15 -4 -14 -19 6 -10 13 -24 22
-32 19 -8 -3 -20 1 -27 9 -7 7 -22 13 -33 13 -10 0 -19 4 -19 9 0 11 -79 43
-90 36 -4 -3 -11 2 -14 11 -4 10 -13 13 -25 9 -11 -3 -26 1 -35 10 -22 23 -60
15 -64 -12 -4 -30 -31 -51 -42 -34 -4 8 -12 11 -18 7 -6 -3 -12 -1 -14 5 -3 9
-9 9 -26 0 -17 -9 -22 -9 -22 1 0 8 -3 9 -8 3 -8 -12 -58 -12 -84 -1 -14 6
-18 4 -18 -10 0 -16 -2 -16 -9 -5 -8 12 -14 13 -35 3 -22 -10 -35 -8 -81 13
-30 13 -56 30 -56 37 -1 7 -2 20 -3 28 -1 18 -43 40 -77 40 -29 0 -69 33 -70
58 0 9 -3 12 -5 5 -3 -7 -12 -9 -20 -6 -11 4 -12 9 -3 19 9 11 8 14 -5 14 -9
0 -16 -5 -16 -12 0 -9 -3 -9 -12 0 -9 9 -16 8 -30 -5 -13 -12 -18 -13 -18 -3
0 7 -2 11 -5 8 -9 -8 6 -38 16 -32 5 3 9 -2 9 -10 0 -18 -11 -21 -26 -6 -15
15 -62 22 -69 10 -3 -5 -11 -10 -16 -10 -6 0 -7 5 -4 11 4 5 -13 28 -37 51
-23 22 -42 44 -40 49 1 5 -3 9 -9 9 -6 0 -9 -9 -6 -20 3 -11 2 -20 -3 -20 -4
0 -11 12 -15 27 -3 15 -17 36 -29 47 -13 12 -32 36 -42 54 -10 18 -24 30 -31
28 -7 -3 -14 8 -18 25 -4 17 -13 33 -20 35 -7 3 -16 12 -19 20 -4 10 -1 13 7
9 6 -4 1 2 -12 13 -17 13 -22 26 -18 41 4 15 0 21 -11 22 -11 0 -12 2 -4 6 6
2 12 16 12 29 0 17 -4 23 -12 18 -7 -4 -8 -3 -4 4 13 21 -5 34 -20 15 -12 -16
-13 -14 -14 21 0 32 -6 45 -32 68 -23 19 -27 26 -13 21 11 -4 23 -11 28 -17
11 -17 27 14 27 56 0 20 -4 39 -9 42 -4 3 -6 28 -3 56 5 54 -8 66 -34 33 -13
-17 -13 -17 -14 2 0 11 -7 29 -15 39 -17 23 -20 82 -4 91 6 4 8 13 6 19 -7 18
19 124 35 144 7 9 19 23 26 30 6 7 12 20 12 27 0 8 9 19 20 25 10 6 17 16 14
23 -2 7 9 34 26 60 16 26 30 54 30 62 0 22 31 35 47 19 8 -7 20 -11 28 -8 23
9 18 40 -7 51 -22 10 -22 10 12 28 20 10 30 12 23 4 -7 -7 -13 -18 -13 -24 1
-5 10 1 21 14 18 22 18 26 4 33 -8 5 -20 6 -25 3 -23 -14 -8 15 18 34 15 12
32 25 39 31 7 5 15 10 19 10 4 0 15 6 23 14 9 8 30 18 46 22 l30 7 -19 -22
-20 -22 29 15 c27 14 45 13 45 -2 0 -4 -21 -20 -45 -37 -25 -16 -45 -34 -45
-39 0 -5 8 -2 18 7 21 19 52 23 52 6 0 -7 12 -9 30 -7 23 3 29 1 26 -8 -8 -20
10 -26 38 -13 20 10 29 9 42 -2 9 -8 25 -13 36 -11 10 2 18 -2 18 -7 0 -6 -6
-11 -12 -12 -10 0 -9 -2 0 -6 10 -4 7 -9 -10 -17 -29 -15 -35 -44 -11 -54 25
-10 27 -29 3 -42 -11 -6 -20 -20 -20 -30 0 -22 10 -26 27 -9 9 9 12 7 12 -7 1
-61 4 -75 17 -70 19 7 67 -11 60 -23 -7 -11 20 -35 31 -28 5 3 24 -2 43 -11
25 -12 35 -13 38 -4 2 8 15 6 42 -8 24 -12 41 -16 45 -10 3 6 18 10 32 10 20
0 24 -4 20 -20 -3 -13 -1 -18 6 -13 20 12 51 10 66 -4 12 -13 12 -16 0 -24
-12 -7 -11 -9 1 -9 9 0 21 5 28 12 7 7 12 8 12 4 0 -5 11 -1 25 8 14 9 30 14
36 10 12 -7 84 -16 118 -15 24 1 24 1 5 -13 -27 -20 -16 -26 52 -28 36 -1 66
-7 77 -16 10 -9 17 -11 17 -4 0 7 12 6 35 -4 20 -8 40 -12 45 -9 5 3 11 1 15
-5 3 -5 15 -10 26 -10 11 0 18 4 15 8 -3 5 16 8 42 7 27 -1 57 5 70 13 13 9
34 12 52 9 16 -4 32 -2 36 4 3 6 10 6 17 1 15 -12 89 -3 81 9 -3 5 1 15 8 22
20 17 77 47 92 47 8 0 27 12 44 28 26 23 29 30 19 43 -7 9 -21 18 -32 20 -11
3 -20 12 -20 22 0 19 -39 50 -49 39 -4 -3 -4 1 0 11 4 10 1 17 -6 17 -13 0
-95 80 -95 92 0 3 -3 9 -7 13 -4 4 0 14 8 23 14 14 14 16 0 24 -9 5 -14 14
-10 19 3 5 1 15 -5 22 -12 15 -3 31 22 40 10 4 15 11 12 17 -3 5 0 10 8 10 8
0 20 14 26 30 5 17 15 30 20 30 6 0 8 6 5 14 -3 8 3 19 16 26 11 6 18 15 15
21 -4 5 1 9 9 9 9 0 16 4 16 9 0 11 -89 18 -395 31 -126 6 -248 12 -270 16
-104 14 -147 25 -163 40 -15 16 -13 17 28 11 217 -31 854 -67 884 -50 11 6
-92 14 -291 21 -292 12 -540 34 -587 52 -21 8 -21 8 -1 16 17 7 12 10 -25 20
l-45 12 73 1 c40 1 71 5 68 9 -3 5 -31 14 -63 21 -32 7 -64 18 -72 25 -8 6
-24 11 -35 11 -14 0 -22 7 -24 23 -2 12 -10 22 -18 22 -10 0 -14 13 -14 46 0
40 -2 45 -19 39 -16 -5 -21 1 -26 27 -5 22 -4 33 4 36 8 3 5 10 -8 19 -34 23
-24 33 27 28 44 -4 40 -1 -17 11 -18 4 -21 8 -13 16 9 9 6 18 -10 36 l-23 23
30 -11 c37 -14 105 -21 105 -11 0 9 -51 34 -57 27 -12 -11 -53 44 -53 71 0 65
11 93 37 93 13 0 22 4 19 9 -7 10 -65 5 -80 -9 -12 -9 -55 -17 -122 -24 -71
-6 -102 -63 -119 -216 -19 -177 -40 -253 -78 -281 -19 -14 -25 -69 -11 -99 38
-74 -40 -182 -102 -142 -21 13 -20 56 1 80 24 28 38 62 25 62 -5 0 -16 -10
-26 -22 -14 -20 -16 -21 -10 -3 41 117 83 265 125 438 49 203 75 267 106 267
8 0 12 8 10 20 -3 15 2 20 17 20 12 0 22 8 25 21 4 14 12 19 24 16 13 -4 18 0
16 13 -4 34 18 23 41 -21 15 -27 19 -45 13 -47 -6 -2 -11 -10 -11 -17 0 -8 -9
-13 -20 -12 -11 1 -20 5 -20 9 0 4 -4 8 -10 8 -5 0 -10 -9 -10 -20 0 -11 -7
-20 -15 -20 -8 0 -15 -8 -15 -17 0 -15 2 -15 9 -4 8 12 14 12 38 -4 25 -17 27
-17 14 -1 -13 15 -13 19 0 27 18 11 31 11 49 -2 12 -8 10 -9 -9 -4 -17 5 -22
4 -19 -6 5 -16 31 -18 71 -6 24 8 27 14 27 55 0 65 11 80 41 58 13 -9 39 -16
59 -15 39 1 33 4 -22 14 -30 5 -38 10 -38 27 0 18 4 20 33 14 17 -4 59 -9 92
-11 59 -4 59 -4 15 5 -25 6 -71 15 -103 22 -38 7 -61 17 -68 29 -5 11 -16 19
-24 19 -8 0 -15 8 -14 18 0 9 3 12 5 5 3 -7 11 -10 19 -7 7 3 48 1 91 -5 44
-6 117 -13 164 -16 l85 -5 -105 20 c-58 10 -120 22 -139 25 -24 5 -30 9 -21
15 12 8 1 12 -70 25 -64 12 -120 30 -120 38 0 5 10 23 22 39 l21 31 276 -7
c152 -4 364 -11 471 -16z m-3008 -98 c-7 -2 -10 -8 -6 -13 3 -5 2 -15 -3 -21
-8 -13 -9 -18 -11 -52 -2 -15 -5 -17 -13 -9 -8 8 -7 20 5 43 8 18 13 36 10 41
-8 14 6 30 19 22 8 -5 8 -8 -1 -11z m2383 -20 c-3 -3 -11 0 -18 7 -9 10 -8 11
6 5 10 -3 15 -9 12 -12z m-2427 -122 c-7 -10 -14 -18 -15 -16 -6 6 9 36 18 36
5 0 4 -9 -3 -20z m-97 -83 c-10 -9 -11 -8 -5 6 3 10 9 15 12 12 3 -3 0 -11 -7
-18z m2434 -7 c3 -6 -1 -7 -9 -4 -18 7 -21 14 -7 14 6 0 13 -4 16 -10z m-2377
-35 c-3 -3 -9 2 -12 12 -6 14 -5 15 5 6 7 -7 10 -15 7 -18z m-50 -39 c-7 -8
-15 -12 -17 -11 -5 6 10 25 20 25 5 0 4 -6 -3 -14z m-34 -42 c4 -10 1 -14 -6
-12 -15 5 -23 28 -10 28 5 0 13 -7 16 -16z m-64 -38 c-14 -14 -22 -2 -14 18 5
14 9 15 15 4 4 -7 4 -17 -1 -22z m60 -6 c0 -5 -7 -6 -17 -3 -11 4 -14 3 -9 -5
4 -7 1 -12 -8 -12 -19 0 -21 16 -3 23 21 9 37 8 37 -3z m2343 -35 c4 -8 2 -17
-3 -20 -6 -4 -10 -4 -10 -1 0 2 -3 11 -6 20 -3 9 -2 16 4 16 5 0 12 -7 15 -15z
m-2393 1 c0 -2 -3 -11 -6 -20 -9 -23 -23 -20 -21 4 1 11 7 20 14 20 7 0 13 -2
13 -4z m32 -13 c-6 -2 -10 -8 -7 -13 3 -4 -2 -13 -10 -20 -18 -15 -19 -7 -5
21 6 10 16 19 23 18 9 0 9 -2 -1 -6z m-55 -63 c-2 -23 -17 -27 -17 -4 0 9 -5
12 -12 8 -7 -4 -8 -3 -4 4 12 19 35 14 33 -8z m-37 -214 c0 -2 -12 -12 -27
-21 l-28 -18 19 21 c17 20 36 29 36 18z m-10 -40 c0 -3 -4 -8 -10 -11 -5 -3
-10 -1 -10 4 0 6 5 11 10 11 6 0 10 -2 10 -4z m50 -12 c0 -7 -5 -16 -12 -20
-7 -4 -8 -3 -4 4 4 7 2 12 -3 12 -6 0 -11 4 -11 8 0 5 7 9 15 9 8 0 15 -6 15
-13z m50 -4 c8 -5 13 -10 10 -11 -3 0 -12 -2 -21 -4 -9 -1 -16 4 -16 11 0 16
6 17 27 4z m2587 -36 c-3 -3 -12 -4 -19 -1 -8 3 -5 6 6 6 11 1 17 -2 13 -5z
m53 -35 c18 -5 20 -8 6 -8 -11 -1 -16 -6 -13 -15 4 -11 -3 -13 -36 -8 -23 3
-43 9 -45 13 -2 5 -12 9 -23 9 -12 0 -16 5 -12 15 4 13 15 14 52 9 25 -4 57
-10 71 -15z m-2775 -48 c7 -12 -12 -24 -25 -16 -11 7 -4 25 10 25 5 0 11 -4
15 -9z m75 -42 c0 -16 -27 -22 -47 -10 -10 6 -12 11 -5 11 6 0 11 3 11 8 -3
19 3 22 21 12 11 -6 20 -15 20 -21z m2524 0 c5 -5 4 -14 -4 -24 -12 -15 -35
-22 -27 -7 5 7 -99 5 -120 -3 -30 -11 -9 7 35 29 46 25 93 27 116 5z m-2530
-32 c3 3 6 2 6 -4 0 -9 -29 -10 -70 -3 -3 0 2 4 9 9 9 6 22 6 32 1 9 -5 19 -6
23 -3z m2541 -38 c-4 -5 -13 -9 -22 -9 -13 0 -13 3 -3 15 13 15 35 11 25 -6z
m-2570 1 c3 -5 2 -10 -4 -10 -5 0 -13 5 -16 10 -3 6 -2 10 4 10 5 0 13 -4 16
-10z m25 -30 c0 -21 -13 -38 -26 -33 -7 3 -16 -2 -20 -10 -3 -9 -13 -13 -25
-10 -10 3 -16 9 -14 14 3 4 13 5 23 2 14 -5 15 -3 5 8 -22 22 -14 34 22 35 19
1 35 -2 35 -6z m2130 -40 c-19 -12 -29 -4 -23 20 5 17 7 18 21 4 13 -13 13
-17 2 -24z m2120 36 c0 -3 -4 -8 -10 -11 -5 -3 -10 -1 -10 4 0 6 5 11 10 11 6
0 10 -2 10 -4z m-4276 -61 c-4 -8 -11 -15 -16 -15 -6 0 -19 -10 -29 -21 -13
-15 -24 -19 -36 -14 -17 8 -17 8 0 12 9 3 17 13 17 23 0 13 5 17 19 13 10 -3
22 0 25 6 11 17 26 13 20 -4z m-6 -47 c-2 -6 -10 -14 -16 -16 -7 -2 -10 2 -6
12 7 18 28 22 22 4z m-118 -48 c9 -16 8 -18 -5 -14 -10 4 -15 0 -15 -15 0 -12
-4 -21 -10 -21 -11 0 -12 15 -4 48 8 27 20 28 34 2z m95 10 c-3 -5 -13 -10
-21 -10 -8 0 -12 5 -9 10 3 6 13 10 21 10 8 0 12 -4 9 -10z m-145 -20 c0 -5
-5 -10 -11 -10 -5 0 -7 5 -4 10 3 6 8 10 11 10 2 0 4 -4 4 -10z m150 -4 c0 -3
-4 -8 -10 -11 -5 -3 -10 -1 -10 4 0 6 5 11 10 11 6 0 10 -2 10 -4z m-114 -428
c5 -8 0 -9 -15 -5 -17 4 -21 2 -17 -9 4 -10 -7 -19 -35 -30 -31 -13 -38 -20
-34 -35 5 -14 1 -19 -14 -19 -23 0 -28 15 -8 24 9 5 9 7 -1 12 -9 4 -5 12 12
25 13 10 29 19 36 19 6 0 18 7 26 15 18 18 40 19 50 3z m4 -28 c0 -5 -5 -10
-11 -10 -5 0 -7 5 -4 10 3 6 8 10 11 10 2 0 4 -4 4 -10z m-46 -26 c26 -10 18
-34 -15 -48 -19 -8 -27 -16 -20 -20 15 -10 14 -37 -1 -33 -7 1 -13 -7 -14 -18
-1 -11 -2 -24 -4 -30 -1 -5 -2 -13 -1 -17 0 -5 -3 -8 -8 -8 -5 0 -11 -9 -14
-20 -3 -11 -12 -20 -19 -20 -21 0 -18 32 3 37 17 5 17 7 1 31 -16 25 -16 25
10 20 20 -4 25 -1 21 10 -3 8 0 18 7 22 11 7 11 12 2 23 -11 12 -7 17 20 26
24 9 29 14 20 23 -22 22 -16 33 12 22z m-79 -81 c-2 -10 -4 -22 -4 -27 -1 -6
-5 -6 -11 0 -11 11 -3 44 10 44 5 0 7 -8 5 -17z m5838 -433 c7 -26 5 -26 -22
11 -21 28 -21 30 -3 20 11 -6 22 -20 25 -31z m-23 -19 c6 -2 -22 -21 -31 -21
-4 0 -9 6 -12 14 -5 11 16 15 43 7z m-12 -49 c2 -7 -1 -12 -8 -12 -6 0 -9 4
-6 9 4 5 1 12 -4 14 -6 3 -5 4 2 3 6 -1 14 -8 16 -14z m68 -185 c8 3 14 -1 14
-11 0 -9 4 -16 9 -16 5 0 11 -9 14 -21 5 -19 4 -20 -12 -5 -10 9 -21 13 -26 9
-4 -5 -6 2 -3 14 4 15 2 20 -7 17 -7 -3 -16 3 -19 13 -6 14 -4 15 5 6 6 -6 18
-9 25 -6z m-3141 -246 c3 -5 1 -12 -4 -15 -5 -3 -11 1 -15 9 -6 16 9 21 19 6z
m-685 -113 c0 -6 -2 -9 -5 -6 -3 3 -17 -4 -30 -16 -16 -14 -21 -24 -14 -31 7
-7 14 -5 22 5 15 20 58 50 71 50 6 0 -1 -7 -14 -17 -73 -48 -140 -132 -161
-201 -6 -23 -16 -42 -21 -42 -5 0 -6 -5 -3 -11 4 -5 4 -22 0 -37 -5 -20 -8
-23 -16 -11 -5 9 -9 9 -9 2 0 -6 5 -15 10 -18 15 -9 12 -22 -5 -22 -8 0 -15 9
-15 19 0 11 -4 17 -9 14 -9 -6 -5 -121 6 -140 4 -7 1 -6 -7 1 -17 16 -25 163
-10 208 6 19 18 35 26 35 12 0 12 -5 -1 -36 -8 -20 -15 -41 -15 -47 0 -20 13
3 30 53 13 38 14 50 5 46 -23 -8 -24 5 -4 42 21 41 112 142 127 142 6 0 12 7
16 15 6 18 26 20 26 3z m1550 -68 c0 -5 -2 -10 -4 -10 -3 0 -8 5 -11 10 -3 6
-1 10 4 10 6 0 11 -4 11 -10z m-1486 -33 c-16 -18 -36 -44 -45 -57 -9 -14 -20
-22 -23 -19 -3 3 5 23 19 43 14 21 23 42 20 47 -3 5 0 6 8 3 8 -3 18 -1 22 5
3 6 11 11 17 11 5 0 -3 -15 -18 -33z m-1033 -11 c13 -27 4 -96 -12 -96 -13 0
-29 44 -29 79 0 47 24 56 41 17z m947 -52 c-17 -32 -35 -61 -40 -62 -4 -2 -6
-8 -3 -13 3 -4 -1 -33 -10 -64 -9 -30 -14 -59 -10 -65 3 -5 8 -19 10 -29 3
-15 -1 -18 -12 -14 -12 5 -14 18 -10 67 6 65 10 80 35 136 9 19 15 39 14 43
-1 5 1 6 6 3 4 -2 16 11 27 30 10 19 20 33 22 31 1 -2 -11 -30 -29 -63z m372
28 c0 -4 -17 -16 -37 -27 -20 -11 -44 -28 -53 -38 -15 -16 -18 -16 -30 -2 -10
13 -9 15 8 15 11 0 22 3 24 8 4 9 70 52 81 52 4 0 7 -3 7 -8z m1002 -22 c-4
-28 -2 -30 26 -30 25 0 29 -3 25 -20 -4 -15 -2 -19 10 -14 13 5 13 1 -1 -30
-34 -75 -132 -50 -132 34 0 40 33 90 60 90 13 0 15 -7 12 -30z m515 5 c-4 -8
-2 -17 3 -20 19 -12 10 -24 -15 -21 -24 3 -58 24 -42 27 4 1 12 3 17 4 6 1 15
3 21 4 5 0 7 6 4 11 -3 6 -1 10 5 10 7 0 10 -7 7 -15z m-1477 1 c0 -2 -21 -16
-47 -31 -60 -35 -152 -128 -178 -180 -16 -32 -20 -60 -20 -140 0 -89 3 -106
27 -155 31 -62 31 -78 0 -27 -56 90 -63 233 -16 337 15 33 31 60 35 60 5 0 9
7 9 16 0 8 4 13 9 10 4 -3 23 11 41 30 30 34 140 96 140 80z m1400 -10 c0 -3
-4 -8 -10 -11 -5 -3 -10 -1 -10 4 0 6 5 11 10 11 6 0 10 -2 10 -4z m130 -26
c-21 -14 -30 -12 -30 4 0 18 22 27 35 14 6 -6 5 -12 -5 -18z m-687 -42 c37
-44 32 -63 -18 -63 -33 0 -47 7 -77 37 -44 43 -47 55 -16 67 34 12 80 -5 111
-41z m-1238 32 c-3 -5 -11 -10 -16 -10 -6 0 -7 5 -4 10 3 6 11 10 16 10 6 0 7
-4 4 -10z m228 -16 c4 -4 -7 -21 -24 -38 -17 -17 -44 -58 -60 -92 -25 -51 -31
-74 -33 -148 -1 -48 1 -89 5 -92 5 -3 6 -10 3 -18 -3 -7 0 -25 6 -40 5 -15 6
-25 1 -22 -34 21 -46 247 -16 296 5 8 8 22 7 32 -2 9 2 20 9 24 8 5 9 3 4 -6
-5 -9 -4 -11 4 -6 7 5 9 16 5 28 -4 13 -2 18 4 14 6 -4 16 3 22 15 14 26 42
59 51 59 3 0 9 -3 12 -6z m-251 -26 c-7 -7 -12 -8 -12 -2 0 14 12 26 19 19 2
-3 -1 -11 -7 -17z m668 16 c0 -8 -19 -13 -24 -6 -3 5 1 9 9 9 8 0 15 -2 15 -3z
m-30 -22 c0 -14 -11 -21 -26 -15 -21 8 -17 23 6 23 11 0 20 -4 20 -8z m-20
-28 c0 -3 -10 -21 -23 -42 -23 -38 -68 -149 -86 -212 -9 -33 -9 -34 -10 -7 -1
33 18 117 31 133 4 6 5 20 1 29 -5 14 -3 16 7 10 10 -6 12 -4 7 9 -4 9 -3 14
2 11 5 -3 12 -1 16 5 3 5 1 10 -4 10 -6 0 -11 5 -11 10 0 6 8 10 17 10 9 0 13
3 10 6 -11 12 13 43 28 38 8 -4 15 -8 15 -10z m2084 -15 c-6 -11 -24 -2 -24
11 0 5 7 7 15 4 8 -4 12 -10 9 -15z m-2714 -3 c0 -3 -4 -8 -10 -11 -5 -3 -10
-1 -10 4 0 6 5 11 10 11 6 0 10 -2 10 -4z m2815 -72 c20 -24 34 -44 31 -44
-13 0 -21 5 -19 12 2 4 -5 9 -15 12 -10 3 -23 19 -29 36 -9 23 -16 28 -29 23
-12 -4 -15 -3 -10 5 4 7 2 12 -3 12 -6 0 -11 5 -11 10 0 17 47 -19 85 -66z
m38 -11 c88 -109 111 -163 111 -258 0 -47 -5 -88 -12 -100 -10 -17 -11 -8 -6
52 7 78 -1 147 -17 138 -5 -4 -12 2 -16 12 -4 10 -20 40 -35 66 -16 27 -26 52
-23 57 3 5 -5 21 -18 37 -42 52 -49 63 -44 63 4 0 31 -30 60 -67z m-2988 -6
c-5 -12 6 -77 21 -126 5 -16 4 -22 -3 -18 -19 12 -42 157 -24 157 6 0 8 -6 6
-13z m644 -70 c-9 -33 -29 -52 -29 -27 0 6 5 10 11 10 5 0 7 4 4 10 -6 10 13
55 21 48 2 -2 -1 -21 -7 -41z m-549 -14 c0 -45 -8 -39 -16 11 -4 26 -2 36 5
31 6 -3 11 -22 11 -42z m247 25 c-3 -8 -6 -5 -6 6 -1 11 2 17 5 13 3 -3 4 -12
1 -19z m2153 -2 c0 -3 -4 -8 -10 -11 -5 -3 -10 -1 -10 4 0 6 5 11 10 11 6 0
10 -2 10 -4z m92 -102 c37 -57 53 -89 58 -109 1 -5 7 -19 13 -30 6 -11 12 -27
13 -35 1 -8 5 -28 9 -45 11 -43 -8 -19 -24 30 -29 91 -77 186 -121 238 -29 35
-31 39 -10 26 14 -9 42 -43 62 -75z m-1897 8 c-5 -41 -11 -59 -21 -59 -8 0
-14 4 -14 9 0 4 4 8 8 8 4 0 9 10 10 23 1 12 4 31 6 42 3 11 5 26 5 34 1 8 4
12 7 8 3 -3 3 -32 -1 -65z m-68 24 c-3 -7 0 -19 6 -25 8 -8 7 -11 -6 -11 -11
0 -17 8 -17 25 0 14 5 25 11 25 6 0 9 -6 6 -14z m-520 -18 c-3 -8 -6 -5 -6 6
-1 11 2 17 5 13 3 -3 4 -12 1 -19z m-1410 -10 c-3 -8 -6 -5 -6 6 -1 11 2 17 5
13 3 -3 4 -12 1 -19z m1361 -41 l11 -32 -24 30 c-28 33 -32 47 -12 39 7 -2 18
-19 25 -37z m557 -17 c-3 -57 -15 -63 -15 -7 0 26 4 47 9 47 4 0 7 -18 6 -40z
m2711 3 c-11 -11 -17 4 -9 23 7 18 8 18 11 1 2 -10 1 -21 -2 -24z m-2689 -25
c-2 -13 -4 -5 -4 17 -1 22 1 32 4 23 2 -10 2 -28 0 -40z m120 -20 c-3 -7 -5
-2 -5 12 0 14 2 19 5 13 2 -7 2 -19 0 -25z m-59 -9 c-3 -8 -7 -3 -11 10 -4 17
-3 21 5 13 5 -5 8 -16 6 -23z m2162 15 c0 -2 -7 -4 -15 -4 -8 0 -15 4 -15 10
0 5 7 7 15 4 8 -4 15 -8 15 -10z m405 -4 c-3 -5 -11 -10 -16 -10 -6 0 -7 5 -4
10 3 6 11 10 16 10 6 0 7 -4 4 -10z m-2647 -26 c-9 -8 22 -94 44 -126 11 -16
15 -28 9 -28 -11 0 -56 91 -65 133 -4 17 -2 27 5 27 7 0 10 -3 7 -6z m32 -14
c0 -5 -5 -10 -11 -10 -5 0 -7 5 -4 10 3 6 8 10 11 10 2 0 4 -4 4 -10z m2219
-33 c-1 -31 -1 -31 -9 -7 -11 36 -11 52 0 45 6 -3 10 -21 9 -38z m355 -52 c26
-53 44 -100 41 -106 -4 -5 -1 -8 6 -7 15 4 79 -100 73 -117 -3 -7 5 -15 18
-19 22 -7 22 -7 3 -15 -26 -11 -45 5 -45 38 0 20 -2 23 -10 11 -9 -13 -10 -13
-11 0 -1 8 -1 21 0 28 1 7 -4 11 -10 10 -7 -2 -20 22 -31 57 -10 33 -34 92
-53 130 -33 67 -40 85 -31 85 2 0 24 -43 50 -95z m-2447 23 c-3 -8 -6 -5 -6 6
-1 11 2 17 5 13 3 -3 4 -12 1 -19z m2103 -17 c0 -6 -4 -12 -8 -15 -5 -3 -9 1
-9 9 0 8 4 15 9 15 4 0 8 -4 8 -9z m191 -39 c-13 -24 -41 -47 -41 -34 0 5 7
15 15 22 8 7 12 16 9 21 -3 5 2 9 11 9 12 0 13 -4 6 -18z m-2089 -129 c10 -9
18 -23 18 -31 0 -13 -3 -13 -18 1 -10 10 -24 17 -30 17 -7 0 -12 7 -12 15 0
20 19 19 42 -2z m1642 -107 c-3 -9 -10 -16 -15 -16 -5 0 -4 9 3 20 14 22 21
20 12 -4z"/>
<path d="M5841 8156 c-9 -11 -8 -15 4 -20 9 -3 13 -2 10 4 -3 6 1 10 9 10 9 0
16 5 16 10 0 15 -26 12 -39 -4z"/>
<path d="M6125 8160 c3 -5 8 -10 11 -10 2 0 4 5 4 10 0 6 -5 10 -11 10 -5 0
-7 -4 -4 -10z"/>
<path d="M6270 8069 c0 -5 5 -7 10 -4 6 3 10 8 10 11 0 2 -4 4 -10 4 -5 0 -10
-5 -10 -11z"/>
<path d="M6041 7967 c-6 -8 -8 -17 -4 -20 3 -4 2 -7 -4 -7 -6 0 -13 -12 -16
-27 -4 -24 -3 -25 7 -11 11 15 13 15 24 -3 7 -11 18 -17 24 -13 7 5 8 3 3 -5
-4 -8 -17 -10 -31 -7 -26 7 -31 -3 -13 -21 6 -6 17 -22 23 -35 12 -22 21 -24
66 -14 17 3 27 36 11 36 -6 0 -19 -10 -31 -22 -17 -18 -20 -19 -20 -5 0 9 5
17 11 17 6 0 8 8 4 19 -3 11 -1 22 5 26 16 10 12 36 -12 72 -26 37 -31 39 -47
20z"/>
<path d="M6040 7436 c0 -2 7 -6 15 -10 8 -3 15 -1 15 4 0 6 -7 10 -15 10 -8 0
-15 -2 -15 -4z"/>
<path d="M5620 6759 c0 -5 5 -7 10 -4 6 3 10 8 10 11 0 2 -4 4 -10 4 -5 0 -10
-5 -10 -11z"/>
<path d="M6560 6759 c0 -5 -5 -7 -12 -3 -7 4 -8 3 -4 -5 6 -9 11 -9 22 0 17
14 18 19 4 19 -5 0 -10 -5 -10 -11z"/>
<path d="M6115 6720 c-3 -5 -2 -10 4 -10 5 0 13 5 16 10 3 6 2 10 -4 10 -5 0
-13 -4 -16 -10z"/>
<path d="M6430 6649 c0 -5 5 -7 10 -4 6 3 10 8 10 11 0 2 -4 4 -10 4 -5 0 -10
-5 -10 -11z"/>
<path d="M5170 7179 c0 -5 5 -7 10 -4 6 3 10 8 10 11 0 2 -4 4 -10 4 -5 0 -10
-5 -10 -11z"/>
<path d="M4820 6700 c0 -5 5 -10 10 -10 6 0 10 5 10 10 0 6 -4 10 -10 10 -5 0
-10 -4 -10 -10z"/>
<path d="M4837 6650 c3 -11 9 -20 13 -20 5 0 6 9 3 20 -3 11 -9 20 -13 20 -5
0 -6 -9 -3 -20z"/>
<path d="M4796 6594 c-4 -10 -1 -14 6 -12 15 5 23 28 10 28 -5 0 -13 -7 -16
-16z"/>
<path d="M4817 6565 c-23 -21 -25 -25 -10 -25 10 0 26 9 36 20 32 38 15 41
-26 5z"/>
<path d="M4767 6566 c-4 -10 -1 -13 8 -9 8 3 12 9 9 14 -7 12 -11 11 -17 -5z"/>
<path d="M4805 6430 c3 -5 15 -10 26 -10 10 0 19 -5 19 -11 0 -6 7 -4 15 5 21
20 20 21 -26 24 -26 2 -38 -1 -34 -8z"/>
<path d="M4565 6090 c-3 -5 -1 -10 4 -10 6 0 11 5 11 10 0 6 -2 10 -4 10 -3 0
-8 -4 -11 -10z"/>
<path d="M4485 6000 c3 -5 14 -10 23 -10 15 0 15 2 2 10 -20 13 -33 13 -25 0z"/>
<path d="M6951 6888 c-9 -14 -9 -24 -2 -31 7 -7 12 -1 17 17 8 34 2 41 -15 14z"/>
<path d="M6955 6780 c3 -5 8 -10 11 -10 2 0 4 5 4 10 0 6 -5 10 -11 10 -5 0
-7 -4 -4 -10z"/>
<path d="M6990 6605 c-11 -13 -10 -14 4 -9 9 3 16 10 16 15 0 13 -6 11 -20 -6z"/>
<path d="M6885 6564 c-16 -26 -16 -26 7 -19 25 8 39 25 32 37 -9 14 -21 9 -39
-18z"/>
<path d="M6924 6544 c-4 -14 -2 -30 5 -37 8 -8 11 -6 11 10 0 12 3 28 6 37 3
9 1 16 -5 16 -6 0 -14 -12 -17 -26z"/>
<path d="M6860 6524 c0 -7 27 -34 34 -34 13 0 5 16 -14 28 -11 7 -20 10 -20 6z"/>
<path d="M6661 6204 c0 -11 3 -14 6 -6 3 7 2 16 -1 19 -3 4 -6 -2 -5 -13z"/>
<path d="M6652 6093 c-9 -13 -14 -15 -18 -5 -3 6 -10 12 -15 12 -6 0 -7 -5 -4
-11 8 -12 -24 -51 -36 -43 -5 3 -9 0 -9 -6 0 -7 -7 -9 -16 -6 -8 3 -12 2 -9
-4 3 -6 -4 -10 -17 -10 -13 0 -34 -9 -48 -20 -14 -11 -37 -20 -52 -20 -16 0
-28 -5 -28 -11 0 -6 -8 -8 -17 -5 -23 7 -48 -8 -39 -23 9 -14 36 -14 36 -1 0
7 6 7 20 0 16 -9 19 -8 13 7 -5 13 -3 15 12 10 9 -4 24 -2 33 5 12 10 16 10
19 1 3 -7 9 -13 14 -13 4 0 6 6 3 14 -6 15 40 31 58 20 6 -4 8 -3 5 3 -6 10
28 45 36 37 8 -8 80 63 76 75 -3 7 -9 4 -17 -6z"/>
<path d="M6420 6000 c0 -5 5 -10 11 -10 5 0 7 5 4 10 -3 6 -8 10 -11 10 -2 0
-4 -4 -4 -10z"/>
<path d="M5810 5945 c0 -8 9 -15 19 -15 14 0 18 -5 14 -20 -4 -14 0 -20 11
-20 9 0 16 8 16 20 0 11 5 20 11 20 5 0 7 -4 4 -10 -3 -5 7 -12 22 -16 15 -3
34 -14 42 -23 13 -15 13 -15 8 0 -4 13 2 18 24 21 17 3 32 2 33 -1 4 -5 161
-6 161 0 0 1 14 3 30 4 17 1 41 5 54 9 16 6 26 4 32 -5 7 -11 9 -10 9 5 0 12
5 16 15 13 21 -9 27 9 8 24 -13 11 -17 11 -20 2 -3 -7 -20 -13 -39 -13 -19 0
-34 -5 -34 -11 0 -5 -5 -7 -10 -4 -6 4 -8 11 -4 16 3 6 -3 5 -14 -2 -16 -10
-23 -10 -35 0 -12 9 -16 9 -19 -1 -5 -15 -198 -19 -198 -4 0 5 -13 6 -30 3
-17 -4 -30 -2 -30 3 0 6 -11 8 -24 4 -13 -3 -27 -1 -30 5 -10 16 -26 13 -26
-4z"/>
<path d="M6555 5900 c-4 -6 -16 -8 -27 -4 -15 4 -18 3 -13 -7 6 -9 3 -11 -8
-6 -10 3 -17 2 -17 -2 0 -16 28 -20 54 -8 14 7 26 18 26 25 0 15 -7 16 -15 2z"/>
<path d="M6300 5881 c0 -6 5 -11 11 -11 5 0 7 -5 3 -11 -4 -7 -1 -10 7 -7 20
7 17 32 -3 36 -10 2 -18 -1 -18 -7z"/>
<path d="M6335 5840 c-3 -5 -1 -10 4 -10 6 0 11 5 11 10 0 6 -2 10 -4 10 -3 0
-8 -4 -11 -10z"/>
<path d="M6525 5800 c-3 -5 -1 -10 4 -10 6 0 11 5 11 10 0 6 -2 10 -4 10 -3 0
-8 -4 -11 -10z"/>
<path d="M6567 5791 c-17 -6 -17 -8 2 -25 11 -10 18 -23 15 -27 -3 -5 2 -6 9
-3 20 7 29 46 14 56 -14 9 -16 9 -40 -1z"/>
<path d="M6270 5750 c0 -5 5 -10 10 -10 6 0 10 5 10 10 0 6 -4 10 -10 10 -5 0
-10 -4 -10 -10z"/>
<path d="M6081 5695 c-1 -13 19 -35 31 -35 4 0 8 5 8 10 0 6 -6 10 -14 10 -8
0 -17 6 -19 13 -3 6 -6 7 -6 2z"/>
<path d="M5578 5762 c-10 -2 -18 -7 -18 -12 0 -5 -3 -16 -6 -25 -6 -15 -4 -15
14 -4 19 12 37 39 30 44 -2 1 -11 0 -20 -3z"/>
<path d="M5800 5672 c0 -5 7 -16 16 -23 14 -12 16 -11 13 5 -4 20 -29 35 -29
18z"/>
<path d="M3935 5420 c-3 -5 -1 -10 4 -10 6 0 11 5 11 10 0 6 -2 10 -4 10 -3 0
-8 -4 -11 -10z"/>
<path d="M6330 3975 c30 -7 116 -18 190 -24 310 -25 570 -23 400 3 -90 14
-428 36 -535 35 l-110 -1 55 -13z"/>
<path d="M5600 3621 c0 -6 5 -13 10 -16 6 -3 10 1 10 9 0 9 -4 16 -10 16 -5 0
-10 -4 -10 -9z"/>
<path d="M7235 3580 c3 -5 8 -10 11 -10 2 0 4 5 4 10 0 6 -5 10 -11 10 -5 0
-7 -4 -4 -10z"/>
<path d="M6970 3550 c-19 -7 -13 -8 28 -8 29 1 55 5 58 10 7 10 -53 9 -86 -2z"/>
<path d="M7170 3541 c0 -12 5 -21 10 -21 6 0 10 6 10 14 0 8 -4 18 -10 21 -5
3 -10 -3 -10 -14z"/>
<path d="M7205 3530 c-3 -5 3 -10 15 -10 12 0 18 5 15 10 -3 6 -10 10 -15 10
-5 0 -12 -4 -15 -10z"/>
<path d="M7126 3481 c-6 -11 -11 -164 -10 -299 2 -121 4 -136 23 -156 12 -12
21 -33 21 -47 0 -28 47 -78 97 -103 19 -9 30 -22 27 -29 -3 -8 9 -20 28 -30
l33 -16 -60 6 c-53 6 -58 5 -45 -8 15 -15 130 -41 130 -29 0 3 -6 12 -12 19
-11 10 -10 11 5 6 23 -9 23 21 -1 60 -11 17 -25 55 -32 85 -7 30 -21 67 -31
82 -25 34 -27 53 -33 232 -4 115 -9 153 -21 166 -9 9 -14 23 -12 31 2 8 2 11
0 7 -7 -11 -41 -10 -48 2 -3 6 3 10 14 10 11 0 22 3 24 8 3 4 -17 7 -44 8 -27
1 -51 -2 -53 -5z"/>
<path d="M5918 3353 c6 -2 18 -2 25 0 6 3 1 5 -13 5 -14 0 -19 -2 -12 -5z"/>
<path d="M6778 3003 c17 -2 47 -2 65 0 17 2 3 4 -33 4 -36 0 -50 -2 -32 -4z"/>
<path d="M5408 2873 c7 -3 16 -2 19 1 4 3 -2 6 -13 5 -11 0 -14 -3 -6 -6z"/>
<path d="M5200 2686 c0 -2 7 -7 16 -10 8 -3 12 -2 9 4 -6 10 -25 14 -25 6z"/>
<path d="M5506 2445 c-3 -8 -1 -15 4 -15 6 0 10 7 10 15 0 8 -2 15 -4 15 -2 0
-6 -7 -10 -15z"/>
<path d="M5035 1720 c-3 -5 -1 -10 4 -10 6 0 11 5 11 10 0 6 -2 10 -4 10 -3 0
-8 -4 -11 -10z"/>
<path d="M5917 1169 c7 -7 15 -10 18 -7 3 3 -2 9 -12 12 -14 6 -15 5 -6 -5z"/>
<path d="M5955 1170 c-3 -5 1 -10 9 -10 9 0 16 5 16 10 0 6 -4 10 -9 10 -6 0
-13 -4 -16 -10z"/>
<path d="M6245 1170 c3 -5 8 -10 11 -10 2 0 4 5 4 10 0 6 -5 10 -11 10 -5 0
-7 -4 -4 -10z"/>
<path d="M6465 1100 c3 -5 8 -10 11 -10 2 0 4 5 4 10 0 6 -5 10 -11 10 -5 0
-7 -4 -4 -10z"/>
<path d="M6521 1107 c2 -1 11 -8 21 -15 12 -10 18 -10 24 -1 4 7 3 9 -4 5 -6
-3 -13 -2 -17 4 -3 5 -11 10 -17 10 -6 0 -9 -1 -7 -3z"/>
<path d="M6670 1041 c0 -6 5 -13 10 -16 6 -3 10 1 10 9 0 9 -4 16 -10 16 -5 0
-10 -4 -10 -9z"/>
<path d="M3165 2870 c-3 -5 -1 -10 4 -10 6 0 11 5 11 10 0 6 -2 10 -4 10 -3 0
-8 -4 -11 -10z"/>
<path d="M4882 1020 c-6 -11 -12 -22 -12 -25 0 -11 20 6 30 26 14 25 -2 25
-18 -1z"/>
<path d="M4848 973 c7 -3 16 -2 19 1 4 3 -2 6 -13 5 -11 0 -14 -3 -6 -6z"/>
<path d="M4827 943 c-4 -3 -7 -13 -7 -22 1 -13 3 -13 11 2 11 19 8 33 -4 20z"/>
<path d="M7790 681 c0 -6 4 -13 10 -16 6 -3 7 1 4 9 -7 18 -14 21 -14 7z"/>
<path d="M7818 634 c6 -11 18 -28 27 -39 15 -19 15 -18 1 12 -9 17 -21 35 -27
39 -8 4 -8 1 -1 -12z"/>
<path d="M6478 9323 c7 -3 16 -2 19 1 4 3 -2 6 -13 5 -11 0 -14 -3 -6 -6z"/>
<path d="M3150 9310 c0 -5 -6 -10 -13 -10 -19 0 -17 -26 2 -27 10 -1 17 7 17
23 1 13 0 24 -2 24 -2 0 -4 -4 -4 -10z"/>
<path d="M6400 9310 c0 -6 12 -10 27 -10 29 0 24 12 -7 17 -11 2 -20 -2 -20
-7z"/>
<path d="M5653 9293 c-21 -8 -15 -22 7 -16 11 3 20 9 20 14 0 10 -8 10 -27 2z"/>
<path d="M3201 9123 c1 -5 1 -25 0 -45 -1 -27 -5 -38 -17 -38 -8 0 -12 -4 -9
-10 3 -5 1 -10 -5 -10 -6 0 -9 -4 -6 -9 4 -5 0 -12 -6 -15 -7 -3 -2 -3 11 0
16 4 21 3 17 -5 -4 -6 -14 -11 -22 -11 -8 0 -14 -7 -14 -16 0 -14 1 -14 16 0
8 9 25 16 36 16 15 0 19 5 15 19 -3 14 0 17 16 13 14 -4 18 -1 15 9 -3 8 2 23
11 33 15 18 15 19 -1 13 -10 -4 -18 -2 -18 2 0 5 5 11 10 13 6 2 2 13 -10 26
-20 21 -41 29 -39 15z"/>
<path d="M10084 8737 c-24 -7 -34 -19 -52 -65 -12 -32 -23 -76 -24 -100 -1
-24 -4 -44 -7 -46 -3 -2 -6 -27 -6 -55 0 -28 -3 -51 -6 -51 -4 0 -6 -11 -6
-25 0 -15 4 -22 10 -18 6 4 8 0 4 -10 -4 -10 -10 -24 -13 -33 -4 -10 -2 -15 7
-14 26 4 37 0 43 -16 3 -8 2 -12 -4 -9 -6 3 -10 2 -10 -4 0 -14 35 -32 45 -23
5 4 5 -1 2 -10 -3 -10 -2 -20 2 -23 5 -3 7 -13 4 -24 -3 -13 2 -20 17 -24 17
-4 20 -10 15 -34 -4 -16 -3 -23 2 -16 4 6 21 15 36 18 16 4 31 13 33 20 7 17
43 13 54 -5 6 -10 10 85 10 265 l0 281 -27 -2 c-16 0 -30 2 -33 5 -13 16 -67
26 -96 18z"/>
<path d="M7200 7919 c0 -5 5 -7 10 -4 6 3 10 8 10 11 0 2 -4 4 -10 4 -5 0 -10
-5 -10 -11z"/>
<path d="M2197 7814 c-7 -7 2 -34 12 -34 4 0 7 9 7 20 0 20 -7 25 -19 14z"/>
<path d="M2333 7813 c-16 -6 -17 -33 -3 -33 11 0 26 28 19 34 -2 2 -10 1 -16
-1z"/>
<path d="M2266 7796 c3 -9 2 -16 -4 -16 -6 0 -12 6 -15 13 -2 6 -7 10 -10 7
-3 -3 1 -13 8 -24 13 -16 16 -17 29 -3 14 13 14 16 0 27 -12 11 -13 10 -8 -4z"/>
<path d="M7401 7748 c-1 -16 4 -28 9 -28 12 0 12 8 0 35 -8 18 -9 17 -9 -7z"/>
<path d="M7347 7728 c-29 -21 -35 -38 -14 -38 18 0 61 46 50 53 -4 3 -21 -4
-36 -15z"/>
<path d="M7367 7688 c-22 -16 -25 -23 -16 -34 14 -17 49 -19 49 -3 0 6 -7 8
-17 5 -13 -5 -12 -1 5 17 30 32 15 42 -21 15z"/>
<path d="M7420 7670 c0 -5 5 -10 11 -10 5 0 7 5 4 10 -3 6 -8 10 -11 10 -2 0
-4 -4 -4 -10z"/>
<path d="M1938 7553 c7 -3 16 -2 19 1 4 3 -2 6 -13 5 -11 0 -14 -3 -6 -6z"/>
<path d="M10190 7479 c0 -6 -6 -9 -14 -6 -7 3 -19 0 -25 -6 -14 -14 -15 -30
-1 -22 6 3 7 -1 4 -9 -3 -9 -10 -16 -15 -16 -5 0 -9 -11 -9 -24 0 -13 -7 -27
-15 -30 -30 -11 -9 -116 22 -116 7 0 13 -4 13 -8 0 -5 14 -7 30 -4 23 3 30 0
30 -12 0 -9 4 -16 9 -16 5 0 12 -8 14 -17 3 -10 5 50 6 133 1 130 -1 153 -15
158 -23 9 -34 7 -34 -5z"/>
<path d="M9933 6988 c1 -7 -4 -12 -10 -10 -7 1 -13 -1 -13 -6 0 -4 -17 -7 -37
-7 -62 1 -109 -15 -146 -48 -59 -53 -65 -57 -84 -57 -5 0 -25 -16 -47 -36 -21
-19 -47 -36 -57 -37 -11 -1 -19 -5 -19 -9 0 -4 -5 -8 -11 -8 -7 0 -22 -11 -35
-25 -14 -15 -29 -22 -39 -19 -11 5 -14 2 -8 -12 4 -12 3 -15 -5 -10 -7 4 -22
-2 -34 -13 -12 -12 -27 -22 -32 -22 -20 -2 -31 -5 -46 -12 -8 -3 -55 -13 -105
-21 -98 -16 -257 -68 -263 -86 -3 -7 -9 -7 -20 2 -13 11 -14 11 -7 -1 6 -11 4
-13 -8 -8 -10 3 -17 3 -17 -1 0 -4 -31 -6 -70 -4 -42 1 -70 -2 -70 -8 0 -14
-26 -12 -39 3 -13 17 -50 15 -61 -2 -4 -8 -10 -9 -13 -4 -8 13 -53 8 -50 -5 2
-9 -4 -9 -21 0 -15 6 -36 7 -53 3 -15 -5 -32 -7 -37 -6 -5 1 -6 -5 -2 -14 4
-12 1 -15 -13 -10 -10 3 -35 6 -55 7 -20 1 -39 5 -42 10 -7 12 -52 10 -59 -3
-4 -6 -13 -8 -20 -5 -7 2 -21 -1 -31 -7 -11 -7 -31 -12 -46 -11 -15 0 -25 -3
-23 -7 3 -4 1 -10 -5 -14 -6 -4 -8 -11 -4 -16 3 -5 0 -16 -6 -24 -10 -12 -10
-15 0 -15 7 0 10 -6 7 -14 -3 -8 1 -17 9 -20 9 -3 14 -14 13 -23 -4 -27 11
-64 23 -57 5 4 4 -4 -3 -17 -15 -28 -15 -29 3 -40 10 -7 10 -9 1 -9 -7 0 -13
-9 -13 -20 0 -11 -4 -20 -9 -20 -5 0 -26 -16 -47 -35 -22 -19 -45 -35 -51 -35
-7 0 -13 -6 -13 -12 0 -7 -11 -14 -25 -14 -29 -2 -52 -23 -60 -56 -5 -20 -1
-25 27 -35 18 -6 82 -11 142 -12 70 0 112 -4 116 -11 4 -7 10 -11 14 -10 4 1
28 -8 54 -21 71 -34 93 -44 106 -44 25 -2 66 -18 66 -26 0 -5 13 -15 29 -24
17 -8 50 -34 75 -58 27 -25 57 -44 73 -45 15 -1 32 -7 37 -12 6 -6 18 -10 28
-10 28 0 88 -32 88 -47 0 -9 5 -11 13 -6 6 4 21 6 31 4 14 -2 17 2 13 14 -11
27 60 84 85 69 6 -4 8 -3 5 3 -9 14 47 25 81 16 25 -6 62 -33 46 -33 -5 0 -3
-5 4 -12 7 -7 12 -20 12 -31 0 -10 7 -25 15 -34 10 -9 15 -30 14 -52 -2 -29
-7 -37 -23 -39 -11 0 -24 4 -28 11 -5 8 -8 8 -8 1 0 -6 -13 -17 -30 -24 -16
-7 -30 -18 -31 -24 -2 -35 -6 -57 -11 -61 -3 -3 -33 -6 -66 -6 -34 -1 -59 -5
-56 -10 3 -5 0 -10 -5 -10 -6 -1 -15 -3 -21 -4 -5 -1 -19 -3 -30 -4 -14 -1
-20 -7 -18 -18 2 -10 -2 -17 -9 -16 -6 2 -14 -6 -18 -16 -3 -10 -17 -23 -31
-30 -19 -8 -24 -8 -18 0 5 8 3 9 -7 3 -8 -5 -21 -9 -29 -9 -8 0 -21 -4 -29 -9
-10 -7 -12 -6 -6 4 6 10 4 12 -7 7 -9 -3 -20 -1 -25 4 -6 6 -19 6 -37 0 -14
-6 -40 -12 -56 -13 -16 -1 -26 -6 -23 -11 3 -4 11 -6 19 -3 8 3 11 0 7 -10 -3
-8 -12 -13 -19 -10 -8 3 -14 -1 -14 -9 0 -8 7 -15 15 -15 9 0 18 -7 21 -15 4
-8 10 -12 16 -9 5 3 8 0 6 -7 -7 -31 79 -139 110 -139 7 0 10 -5 6 -11 -4 -8
-1 -8 12 -1 26 13 96 5 154 -18 68 -27 213 -45 248 -31 15 5 47 12 72 15 91
10 118 19 260 83 48 22 125 28 158 13 75 -34 117 -56 122 -61 12 -13 40 -18
40 -6 0 8 3 8 9 -2 6 -9 10 -10 12 -2 2 6 15 14 29 17 39 9 31 10 159 -17 30
-6 67 -12 81 -13 14 -1 43 -17 64 -36 37 -34 74 -59 89 -60 4 0 7 449 7 998 0
548 -4 991 -8 985 -5 -7 -35 -16 -68 -19 -49 -5 -66 -3 -87 11 -17 11 -27 13
-27 6 0 -8 -8 -7 -27 2 -28 14 -57 12 -48 -3 3 -5 1 -11 -4 -14 -5 -4 -12 3
-16 14 -7 22 -27 28 -22 8z m-1248 -468 c3 -5 1 -10 -4 -10 -6 0 -11 5 -11 10
0 6 2 10 4 10 3 0 8 -4 11 -10z m105 -2 c0 -4 -4 -8 -9 -8 -6 0 -12 4 -15 8
-3 5 1 9 9 9 8 0 15 -4 15 -9z m324 -180 c-2 -13 -2 -17 2 -10 3 6 18 11 32
11 24 -2 24 -2 5 -6 -26 -5 -31 -23 -7 -23 9 0 23 -8 30 -17 7 -10 16 -15 20
-11 4 4 1 14 -6 23 -8 10 -9 15 -1 15 6 0 11 -5 11 -11 0 -5 5 -7 11 -3 8 4 8
0 0 -15 -10 -17 -9 -20 4 -15 8 4 15 1 15 -5 0 -6 -4 -11 -10 -11 -5 0 -10 -5
-10 -11 0 -7 10 -9 26 -5 16 4 23 3 20 -3 -4 -5 -2 -13 4 -16 12 -8 -5 -35
-22 -35 -6 0 -6 6 1 14 9 11 7 15 -13 20 -14 3 -28 15 -31 26 -7 21 -20 26
-30 11 -9 -15 -63 8 -70 30 -4 10 -11 19 -16 19 -16 0 -10 29 9 39 26 15 31
13 26 -11z m206 -94 c0 -2 -7 -4 -15 -4 -8 0 -15 4 -15 10 0 5 7 7 15 4 8 -4
15 -8 15 -10z m-141 -20 c-10 -29 -3 -47 11 -25 6 11 11 9 21 -8 18 -28 35
-27 55 5 15 22 19 23 26 9 7 -11 3 -21 -14 -35 -29 -24 -57 -25 -74 -2 -13 16
-13 16 -14 -3 -1 -18 -2 -17 -14 5 -7 14 -12 36 -11 50 4 32 3 30 15 30 6 0 6
-9 -1 -26z"/>
<path d="M9125 6290 c-3 -5 3 -10 15 -10 12 0 18 5 15 10 -3 6 -10 10 -15 10
-5 0 -12 -4 -15 -10z"/>
<path d="M7817 6024 c-8 -8 1 -24 14 -24 5 0 9 7 9 15 0 15 -12 20 -23 9z"/>
<path d="M7830 5970 c0 -5 5 -10 10 -10 6 0 10 5 10 10 0 6 -4 10 -10 10 -5 0
-10 -4 -10 -10z"/>
<path d="M7852 5798 c-14 -14 -16 -42 -3 -34 7 5 23 46 17 46 -1 0 -7 -5 -14
-12z"/>
<path d="M2506 5755 c7 -18 -12 -20 -20 -2 -3 6 -3 2 -1 -9 4 -14 1 -22 -7
-21 -45 1 -58 -4 -58 -25 0 -12 -3 -19 -6 -15 -8 8 -54 -34 -48 -45 3 -4 -2
-11 -10 -14 -10 -4 -15 -16 -14 -33 2 -23 6 -27 32 -26 53 2 154 37 149 52 -3
7 2 13 12 13 9 0 13 5 10 11 -4 5 1 19 10 29 12 14 15 24 8 32 -5 7 -8 25 -7
41 2 24 -1 27 -26 27 -22 0 -28 -4 -24 -15z"/>
<path d="M7875 5760 c3 -5 8 -10 11 -10 2 0 4 5 4 10 0 6 -5 10 -11 10 -5 0
-7 -4 -4 -10z"/>
<path d="M3497 5656 c-6 -14 -47 -29 -47 -18 0 4 -32 8 -70 9 -41 1 -68 -3
-64 -8 9 -15 -24 -10 -40 7 -15 14 -17 14 -22 -1 -5 -13 -9 -14 -15 -4 -4 7
-26 13 -50 13 -31 0 -47 -6 -60 -23 -12 -14 -19 -18 -19 -10 0 11 -2 11 -9 -1
-6 -8 -7 -18 -5 -22 3 -4 0 -8 -5 -8 -6 0 -11 3 -11 8 0 4 -11 7 -24 7 -13 0
-22 -5 -19 -11 2 -6 -4 -14 -14 -17 -10 -2 -27 -8 -38 -12 -16 -5 -17 -5 -5 4
12 8 12 11 1 11 -11 0 -11 3 0 18 13 15 12 16 -3 3 -10 -7 -18 -20 -18 -28 0
-8 -4 -11 -10 -8 -5 3 -10 -1 -10 -9 0 -9 -8 -16 -17 -17 -13 0 -14 -2 -4 -6
8 -3 0 -13 -25 -27 -27 -15 -40 -31 -47 -56 -5 -19 -13 -40 -19 -47 -5 -7 -11
-30 -11 -53 -1 -22 -8 -42 -14 -45 -7 -2 -13 -14 -13 -25 0 -12 5 -18 10 -15
6 3 10 -5 10 -18 0 -18 6 -26 24 -29 19 -4 23 -1 18 11 -5 14 -4 14 10 1 9 -8
14 -18 11 -22 -5 -10 3 -10 50 1 34 8 61 -1 37 -12 -7 -4 -6 -5 0 -4 7 2 10 6
8 10 -3 7 43 43 52 40 3 -1 8 7 12 18 4 10 14 19 23 19 8 0 15 5 15 10 0 13
37 13 46 -1 3 -6 17 -8 33 -4 14 4 22 3 18 -1 -4 -4 3 -14 15 -21 13 -7 17
-12 11 -13 -21 0 -15 -21 13 -46 26 -25 40 -31 29 -14 -3 6 0 10 9 10 8 0 17
-6 19 -12 4 -10 6 -10 6 0 1 6 6 12 12 12 5 0 8 -4 5 -9 -3 -5 1 -14 8 -20 10
-8 16 -9 21 -1 4 7 13 7 27 -1 15 -8 19 -8 14 0 -5 7 4 11 25 11 26 0 30 3 26
19 -3 12 3 27 14 37 10 9 19 24 19 32 0 9 3 13 6 10 7 -8 42 25 37 34 -2 4 3
5 11 2 9 -3 16 -2 16 3 0 10 7 11 55 14 14 1 25 8 25 15 0 12 26 19 53 15 4
-1 10 7 14 16 4 10 17 35 30 55 21 34 21 39 8 70 -18 40 -49 78 -65 78 -6 0
-8 4 -5 10 3 5 -6 12 -20 16 -15 4 -28 15 -31 30 -3 13 -10 22 -14 19 -5 -3
-20 -1 -33 4 -19 7 -27 6 -30 -3z m-332 -346 c3 -5 1 -10 -4 -10 -6 0 -11 5
-11 10 0 6 2 10 4 10 3 0 8 -4 11 -10z m-105 -10 c0 -5 -4 -10 -10 -10 -5 0
-10 5 -10 10 0 6 5 10 10 10 6 0 10 -4 10 -10z"/>
<path d="M7911 5603 c-1 -12 4 -25 9 -28 12 -7 12 2 0 30 -8 19 -9 19 -9 -2z"/>
<path d="M9080 5589 c0 -5 5 -7 10 -4 6 3 10 8 10 11 0 2 -4 4 -10 4 -5 0 -10
-5 -10 -11z"/>
<path d="M1797 5517 c-4 -10 -13 -13 -26 -10 -12 3 -26 -3 -37 -16 -10 -11
-21 -18 -26 -15 -4 3 -8 -3 -8 -13 0 -11 -6 -25 -12 -32 -11 -10 -9 -15 6 -27
11 -8 14 -14 7 -14 -20 0 -8 -22 18 -31 15 -6 20 -5 15 2 -4 7 -1 10 7 7 8 -3
13 -10 12 -15 -1 -6 13 -7 37 -3 22 4 40 5 40 3 0 -2 14 5 30 17 26 18 28 23
16 36 -8 7 -12 23 -9 34 3 11 0 20 -6 20 -6 0 -11 5 -11 11 0 5 4 8 9 5 5 -4
7 3 4 14 -7 25 -43 48 -43 28 0 -10 -2 -10 -9 0 -7 11 -9 11 -14 -1z"/>
<path d="M7700 5482 c0 -5 7 -15 15 -22 8 -7 15 -8 15 -2 0 5 -7 15 -15 22 -8
7 -15 8 -15 2z"/>
<path d="M1670 5389 c0 -5 5 -7 10 -4 6 3 10 8 10 11 0 2 -4 4 -10 4 -5 0 -10
-5 -10 -11z"/>
<path d="M2175 5280 c-3 -6 -1 -9 6 -8 6 2 14 -3 17 -11 3 -10 0 -12 -12 -8
-9 4 -16 1 -16 -6 0 -7 -8 -3 -17 8 -13 16 -15 17 -10 3 7 -21 3 -22 -25 -7
-16 9 -19 8 -13 -2 6 -9 3 -11 -9 -6 -10 4 -15 3 -11 -4 4 -5 15 -7 26 -4 14
5 17 3 13 -9 -3 -9 -10 -13 -15 -10 -5 3 -9 -1 -9 -8 0 -10 -2 -10 -9 1 -7 10
-13 11 -30 2 -11 -7 -21 -17 -21 -24 0 -8 -4 -7 -11 3 -7 11 -8 4 -3 -25 4
-22 13 -44 22 -49 8 -4 23 -17 33 -27 25 -25 84 -35 104 -17 32 29 42 35 68
42 15 3 25 11 22 16 -3 6 2 10 12 10 14 0 15 2 4 9 -11 7 -11 9 0 14 8 3 4 6
-9 6 -16 1 -21 5 -15 14 15 24 -13 87 -32 69 -4 -4 -5 2 -3 13 2 15 -3 21 -24
23 -14 2 -29 -2 -33 -8z m-25 -60 c0 -5 -4 -10 -10 -10 -5 0 -10 5 -10 10 0 6
5 10 10 10 6 0 10 -4 10 -10z"/>
<path d="M810 5100 c0 -5 5 -10 10 -10 6 0 10 5 10 10 0 6 -4 10 -10 10 -5 0
-10 -4 -10 -10z"/>
<path d="M165 5090 c-3 -5 -1 -10 4 -10 6 0 11 5 11 10 0 6 -2 10 -4 10 -3 0
-8 -4 -11 -10z"/>
<path d="M1821 4871 c-15 -14 -19 -21 -10 -21 10 -1 9 -4 -3 -11 -10 -5 -18
-15 -18 -20 0 -6 -7 -17 -15 -26 -8 -8 -13 -19 -10 -24 6 -8 -9 -13 -28 -10
-5 1 -6 -2 -4 -6 8 -12 -49 -84 -58 -75 -5 4 -5 -1 -2 -11 5 -14 2 -16 -20
-11 -17 5 -24 3 -20 -3 8 -13 -19 -37 -32 -29 -5 4 -12 2 -16 -4 -10 -16 -54
-12 -94 9 -56 30 -101 42 -120 32 -10 -6 -23 -5 -34 0 -9 6 -21 8 -25 5 -4 -2
-18 2 -32 9 -22 12 -25 11 -35 -9 -6 -11 -20 -25 -33 -31 -12 -5 -22 -13 -22
-17 0 -5 -7 -8 -15 -8 -8 0 -15 -5 -15 -10 0 -7 -6 -8 -16 -2 -17 9 -66 4 -60
-7 2 -3 -2 -12 -10 -19 -8 -7 -14 -8 -14 -2 0 5 -6 10 -13 10 -8 0 -22 9 -32
20 -10 11 -20 18 -23 15 -3 -3 -18 21 -33 54 -15 32 -39 65 -53 75 -14 9 -26
23 -26 30 0 24 -56 77 -75 70 -17 -7 -34 -41 -41 -84 -2 -14 -6 -39 -9 -56 -3
-17 -14 -39 -25 -49 -11 -10 -17 -22 -14 -26 3 -5 0 -9 -6 -9 -6 0 -10 -8 -9
-17 7 -46 -32 -89 -89 -99 -35 -7 -42 -12 -42 -32 0 -15 -2 -15 -10 -2 -8 12
-10 12 -10 -5 0 -14 -3 -16 -9 -7 -6 10 -15 3 -36 -25 -16 -21 -32 -39 -37
-41 -4 -2 -12 -19 -18 -38 -6 -19 -18 -34 -26 -34 -8 0 -14 -7 -14 -16 0 -8
-5 -12 -10 -9 -6 3 -10 -1 -10 -10 0 -9 4 -14 9 -10 10 6 -3 -53 -15 -64 -13
-13 -30 -5 -43 22 -10 20 -19 26 -32 22 -14 -5 -19 -1 -19 11 0 14 -2 15 -17
3 -10 -8 -14 -9 -10 -2 4 6 3 14 -3 18 -6 3 -20 25 -31 47 -12 24 -24 36 -28
30 -9 -16 -51 -3 -51 15 0 11 -5 13 -17 8 -36 -15 -66 -18 -59 -6 4 6 0 11
-10 11 -12 0 -14 3 -5 13 8 10 7 17 -2 26 -9 11 -9 14 1 18 6 3 10 9 6 14 -3
5 -12 3 -20 -5 -16 -16 -19 -40 -4 -31 5 3 10 1 10 -4 0 -6 -5 -11 -11 -11 -6
0 -8 -9 -4 -22 5 -18 4 -19 -4 -8 -5 8 -14 11 -18 6 -4 -4 -9 -307 -11 -672
-2 -590 -1 -664 13 -664 18 0 20 16 3 23 -7 3 -1 6 15 6 19 1 27 6 27 19 0 13
2 14 9 4 4 -8 11 -13 15 -13 20 3 23 -4 18 -50 -3 -37 -2 -50 7 -45 6 4 11 1
11 -8 0 -9 5 -16 10 -16 6 0 10 5 10 10 0 6 4 10 10 10 5 0 7 -6 4 -14 -3 -9
3 -17 15 -21 12 -3 21 -11 21 -16 0 -5 9 -9 20 -9 18 0 96 -26 162 -53 15 -7
33 -24 39 -39 6 -16 14 -28 18 -28 3 0 7 -11 7 -25 2 -27 37 -99 59 -121 7 -7
39 -17 70 -20 34 -4 70 -16 91 -30 19 -13 39 -24 44 -24 6 0 10 -4 10 -10 0
-5 6 -10 13 -10 6 0 30 -16 51 -36 22 -19 45 -33 53 -30 7 3 13 1 13 -4 0 -6
9 -10 20 -10 11 0 37 -16 59 -35 21 -19 43 -35 49 -35 5 0 22 -7 38 -14 15 -8
32 -12 38 -8 6 3 21 5 34 3 20 -2 23 1 20 26 -4 35 -41 73 -74 74 -36 2 -36 2
-72 28 -18 12 -31 28 -29 35 2 6 -7 21 -20 33 -12 12 -23 29 -23 38 0 8 -3 15
-8 15 -14 0 -29 68 -19 86 7 12 6 15 -2 10 -18 -11 -13 10 9 36 11 12 29 34
40 47 11 13 20 21 20 16 0 -4 7 -2 15 5 8 7 15 10 15 7 0 -3 14 -2 30 3 18 5
30 5 30 -1 0 -5 14 -9 31 -9 31 0 89 -27 89 -42 0 -4 36 -5 79 -2 90 6 142
-10 198 -63 46 -43 120 -54 106 -16 -4 10 -2 14 4 10 6 -4 22 -3 36 2 13 5 39
12 57 15 18 2 37 11 41 18 5 7 9 9 9 5 0 -5 12 0 28 11 38 27 115 52 162 52
21 0 78 -13 127 -29 82 -27 141 -37 205 -33 32 2 83 51 103 99 13 30 13 41 -1
91 -9 31 -17 66 -18 77 -1 11 -6 36 -10 57 -8 39 11 94 46 132 10 11 18 24 18
29 0 12 26 37 39 37 6 0 15 9 21 20 6 12 7 20 1 20 -5 0 -7 8 -4 19 2 10 -2
24 -9 32 -8 8 -19 34 -26 59 -16 56 -45 120 -54 120 -4 0 -11 18 -14 40 -4 22
-10 40 -14 40 -4 0 -10 9 -13 20 -3 13 -1 18 6 13 7 -4 8 0 2 13 -5 10 -9 29
-9 42 -1 12 -3 22 -6 22 -3 0 -5 23 -4 50 0 28 -3 50 -8 50 -4 0 -8 7 -8 16 0
10 -6 14 -15 10 -9 -3 -15 0 -15 8 0 8 -7 17 -16 20 -8 3 -14 14 -12 23 3 21
-30 63 -50 63 -9 0 -11 -7 -7 -20 8 -26 -5 -26 -33 0 -16 15 -22 17 -22 7 0
-15 -36 -32 -55 -26 -5 1 -19 3 -31 4 -11 1 -25 5 -32 9 -8 4 -12 1 -13 -11 0
-16 -2 -15 -16 5 -19 26 -33 29 -34 5 0 -11 -3 -13 -6 -5 -2 6 -17 12 -31 12
-15 0 -40 9 -57 20 -16 11 -47 25 -67 30 -20 6 -44 17 -53 26 -8 8 -15 12 -15
8 0 -4 -8 1 -19 10 -10 9 -22 16 -27 15 -22 -4 -34 2 -34 16 0 8 -8 15 -17 15
-15 0 -16 2 -3 10 9 6 10 10 3 10 -6 0 -13 10 -15 23 -2 12 -9 21 -16 19 -10
-2 -10 2 0 20 7 13 14 39 15 58 1 19 4 60 6 91 2 30 7 60 11 67 4 7 2 12 -3
12 -6 0 -11 9 -11 20 0 11 5 20 11 20 5 0 8 4 5 9 -5 8 12 29 24 29 3 0 18 4
33 8 21 5 25 9 15 15 -10 7 -9 9 5 9 9 0 17 -5 17 -11 0 -6 7 -9 15 -5 8 3 15
2 15 -2 0 -4 10 -8 22 -9 11 -1 24 -7 28 -13 6 -10 24 -16 53 -19 4 -1 7 -9 8
-18 0 -15 2 -15 9 2 8 19 9 19 9 -4 1 -17 5 -22 17 -17 10 4 22 -1 29 -10 7
-10 22 -19 33 -21 12 -1 27 -4 34 -5 7 -2 17 7 23 20 5 12 16 20 22 17 19 -7
15 13 -4 24 -17 10 -17 10 2 11 15 0 16 3 7 12 -9 9 -8 16 6 32 16 18 16 19 0
13 -15 -5 -18 -1 -18 23 0 16 4 31 8 34 5 3 8 15 7 27 -1 12 7 31 18 42 18 18
18 21 3 29 -20 11 -21 28 -2 28 8 0 17 4 20 9 4 5 -3 7 -14 4 -16 -4 -19 -2
-13 12 4 12 3 16 -5 11 -6 -3 -13 2 -16 12 -4 10 -17 25 -30 31 -13 7 -30 24
-37 37 -7 13 -18 24 -25 24 -7 0 -14 7 -16 16 -3 13 -6 13 -27 -5z m-731
-2451 c0 -5 -5 -10 -11 -10 -5 0 -7 5 -4 10 3 6 8 10 11 10 2 0 4 -4 4 -10z"/>
<path d="M2469 4662 c11 -8 11 -10 0 -15 -12 -5 -11 -8 1 -19 18 -15 14 -48
-7 -63 -12 -9 -7 -10 21 -7 23 3 33 8 29 16 -4 7 -1 6 9 -1 8 -7 18 -10 21 -6
4 3 7 2 7 -4 0 -6 9 -9 20 -6 25 7 29 63 4 63 -8 0 -13 4 -10 9 7 11 -14 28
-34 28 -8 0 -28 4 -45 8 -20 4 -26 4 -16 -3z"/>
<path d="M9467 4624 c-12 -7 -29 -17 -37 -21 -8 -4 -21 -13 -28 -20 -7 -7 -20
-13 -28 -13 -8 0 -14 -8 -14 -17 0 -14 -2 -15 -9 -4 -5 8 -10 9 -12 3 -2 -6
-17 -13 -34 -16 -16 -3 -31 -10 -33 -16 -2 -5 -10 -10 -18 -10 -8 0 -17 -6
-20 -13 -2 -7 -14 -14 -27 -14 -12 -1 -26 -8 -32 -15 -5 -7 -17 -14 -25 -16
-8 -2 -16 -7 -18 -12 -2 -5 -10 -6 -18 -3 -8 3 -14 0 -14 -7 0 -6 -4 -8 -10
-5 -5 3 -17 2 -27 -3 -13 -8 -10 -12 20 -23 21 -7 37 -17 37 -21 0 -4 14 -8
30 -8 17 0 38 -4 48 -10 9 -5 38 -13 64 -18 49 -10 48 -10 105 38 17 14 110 2
142 -17 13 -8 40 -16 61 -17 45 -2 164 9 200 19 14 4 86 9 160 11 74 1 165 5
202 8 37 2 70 0 73 -5 4 -5 13 -9 21 -9 11 0 14 18 14 90 0 50 -3 90 -7 90 -5
0 -16 -6 -25 -13 -21 -16 -59 -14 -122 8 -33 11 -90 18 -180 20 -141 3 -146 4
-221 43 -39 20 -65 26 -123 27 -43 1 -81 -4 -95 -11z"/>
<path d="M2455 4600 c-4 -6 -11 -7 -17 -4 -7 4 -8 2 -4 -4 7 -12 36 -5 36 9 0
12 -7 11 -15 -1z"/>
<path d="M3540 4595 c-7 -9 -8 -15 -2 -15 5 0 12 7 16 15 3 8 4 15 2 15 -2 0
-9 -7 -16 -15z"/>
<path d="M40 4490 c0 -5 5 -10 11 -10 5 0 7 5 4 10 -3 6 -8 10 -11 10 -2 0 -4
-4 -4 -10z"/>
<path d="M3397 4201 c-3 -14 -1 -18 9 -14 16 6 18 19 5 27 -5 3 -11 -3 -14
-13z"/>
<path d="M3345 4030 c-3 -5 -1 -10 4 -10 6 0 11 5 11 10 0 6 -2 10 -4 10 -3 0
-8 -4 -11 -10z"/>
<path d="M3340 4005 c0 -3 9 -14 20 -25 24 -24 40 -18 40 13 0 16 -3 18 -12 9
-7 -7 -17 -8 -30 -1 -10 5 -18 7 -18 4z"/>
<path d="M3352 3925 c-1 -16 3 -25 13 -25 22 0 27 17 9 34 -20 20 -19 21 -22
-9z"/>
<path d="M2170 3930 c0 -5 5 -10 11 -10 5 0 7 5 4 10 -3 6 -8 10 -11 10 -2 0
-4 -4 -4 -10z"/>
<path d="M3306 3906 c-3 -13 -9 -31 -12 -40 -3 -9 -1 -16 6 -16 6 0 9 4 5 10
-3 5 3 18 14 29 16 16 17 22 6 31 -10 8 -14 5 -19 -14z"/>
<path d="M8620 3212 c0 -18 5 -32 10 -32 6 0 8 11 4 28 -10 39 -14 40 -14 4z"/>
<path d="M3150 3077 c0 -7 9 -18 20 -25 18 -11 19 -10 8 13 -12 26 -28 34 -28
12z"/>
<path d="M3017 2819 c7 -7 15 -10 18 -7 3 3 -2 9 -12 12 -14 6 -15 5 -6 -5z"/>
<path d="M2995 2781 c-3 -5 -1 -12 5 -16 5 -3 10 1 10 9 0 18 -6 21 -15 7z"/>
<path d="M0 2381 l0 -378 25 0 c14 0 25 3 25 7 0 13 103 5 129 -10 45 -24 96
-89 96 -122 0 -18 -52 -71 -57 -58 -2 5 -21 11 -43 14 -33 6 -37 4 -25 -6 9
-7 13 -12 11 -11 -2 2 -11 -3 -19 -10 -11 -8 -14 -8 -9 0 4 7 1 10 -10 9 -9
-2 -19 -9 -21 -17 -3 -8 -1 -11 3 -7 12 11 45 -11 45 -29 0 -9 3 -13 7 -10 3
4 12 2 18 -3 7 -6 33 -14 59 -19 40 -7 49 -6 54 8 10 24 28 24 94 1 51 -17 66
-19 95 -9 35 11 167 14 184 4 5 -3 35 -8 66 -11 47 -5 71 -1 128 21 38 14 76
32 85 40 9 8 19 12 23 9 11 -11 -2 78 -14 92 -6 7 -19 16 -30 19 -10 4 -19 14
-20 23 0 10 -3 12 -6 5 -3 -9 -11 -5 -26 10 -27 27 -47 32 -58 15 -6 -10 -9
-10 -9 -1 0 7 -7 10 -16 6 -15 -5 -15 -7 0 -15 9 -5 14 -13 11 -19 -10 -15
-43 -10 -54 9 -8 13 -13 14 -19 5 -6 -10 -15 -10 -40 -1 -18 7 -32 15 -32 19
0 11 -49 -3 -61 -17 -9 -11 -9 -14 0 -14 8 0 7 -6 -3 -16 -15 -14 -21 -14 -74
1 -82 24 -100 35 -107 62 -3 13 -10 21 -15 18 -5 -3 -11 -1 -14 4 -4 5 -2 12
3 16 6 3 8 12 4 20 -11 31 6 63 40 74 43 14 66 54 49 81 -7 11 -12 35 -12 53
0 19 -8 42 -19 53 -10 11 -21 37 -25 58 -4 23 -20 49 -40 69 -19 18 -45 50
-59 73 -16 26 -47 53 -89 78 -68 40 -124 87 -173 149 -16 20 -36 37 -42 37
-10 0 -13 -82 -13 -379z"/>
<path d="M3069 2587 c7 -7 14 -8 21 -1 6 6 2 10 -12 11 -16 2 -18 -1 -9 -10z"/>
<path d="M3030 2561 c1 -9 37 -51 45 -51 4 0 3 6 -4 13 -7 9 -7 17 0 24 7 7 3
12 -15 15 -14 3 -26 2 -26 -1z"/>
<path d="M2954 2543 c3 -7 1 -13 -4 -13 -6 0 -10 -15 -10 -32 0 -26 6 -36 26
-45 23 -11 26 -10 38 18 7 16 16 26 21 22 4 -5 5 -2 1 5 -5 8 -13 9 -26 2 -27
-14 -30 -13 -30 16 0 23 3 25 25 20 19 -5 23 -3 19 8 -3 9 -18 14 -35 14 -21
-1 -28 -5 -25 -15z"/>
<path d="M3040 2460 c0 -5 5 -10 11 -10 5 0 7 5 4 10 -3 6 -8 10 -11 10 -2 0
-4 -4 -4 -10z"/>
<path d="M2940 2410 c11 -9 12 -13 3 -17 -23 -9 -14 -41 15 -56 23 -11 30 -11
40 0 11 11 8 15 -12 23 -19 7 -25 16 -23 32 1 15 -4 23 -18 26 -17 3 -18 1 -5
-8z"/>
<path d="M3 1901 c-2 -30 21 -45 46 -30 19 13 19 14 -10 31 -36 22 -34 22 -36
-1z"/>
<path d="M0 845 l0 -42 53 -9 c107 -17 126 -13 127 29 0 9 -6 17 -14 17 -8 0
-16 4 -18 8 -1 5 -36 15 -75 24 l-73 16 0 -43z"/>
</g>
</svg>
