<?xml version="1.0" encoding="UTF-8"?>
<svg xmlns="http://www.w3.org/2000/svg" width="24" height="24" viewBox="0 0 24 24" fill="none">
  <!-- Building structure -->
  <path d="M6 22V6a2 2 0 0 1 2-2h8a2 2 0 0 1 2 2v16" fill="none" stroke="#ef4444" stroke-width="2" stroke-linecap="round" stroke-linejoin="round"/>
  <path d="M6 6L6 2a2 2 0 0 1 2-2h8a2 2 0 0 1 2 2v4" fill="none" stroke="#ef4444" stroke-width="2" stroke-linecap="round" stroke-linejoin="round"/>
  
  <!-- Windows -->
  <rect x="9" y="8" width="2" height="2" fill="none" stroke="#ef4444" stroke-width="1.5"/>
  <rect x="13" y="8" width="2" height="2" fill="none" stroke="#ef4444" stroke-width="1.5"/>
  <rect x="9" y="12" width="2" height="2" fill="none" stroke="#ef4444" stroke-width="1.5"/>
  <rect x="13" y="12" width="2" height="2" fill="none" stroke="#ef4444" stroke-width="1.5"/>
  
  <!-- Door -->
  <rect x="10" y="18" width="4" height="4" fill="none" stroke="#ef4444" stroke-width="2"/>
</svg>
