<?xml version="1.0" standalone="no"?>
<!DOCTYPE svg PUBLIC "-//W3C//DTD SVG 20010904//EN"
 "http://www.w3.org/TR/2001/REC-SVG-20010904/DTD/svg10.dtd">
<svg version="1.0" xmlns="http://www.w3.org/2000/svg"
 width="1024.000000pt" height="1024.000000pt" viewBox="0 0 1024.000000 1024.000000"
 preserveAspectRatio="xMidYMid meet">

<g transform="translate(0.000000,1024.000000) scale(0.100000,-0.100000)"
fill="#000000" stroke="none">
<path d="M0 9985 l0 -256 48 1 c26 0 56 0 67 -1 73 -4 176 4 168 12 -5 5 -18
11 -29 13 -10 2 -32 9 -49 16 -23 9 -26 13 -15 20 11 7 12 10 2 10 -7 0 -10 5
-7 10 3 6 -1 13 -9 16 -32 12 -3 25 57 24 230 0 247 1 247 23 0 7 -12 20 -27
30 l-28 17 35 -7 c19 -3 37 -9 40 -12 3 -3 22 -7 42 -8 21 -2 56 -9 78 -17 29
-10 42 -11 47 -3 11 18 13 231 2 243 -10 12 16 23 68 29 48 6 52 -82 28 -580
-8 -170 -21 -384 -29 -475 -8 -91 -22 -250 -30 -355 -9 -104 -21 -236 -26
-293 -14 -149 -54 -1308 -45 -1322 3 -4 100 -8 216 -9 115 0 310 -8 432 -16
413 -29 984 -44 972 -26 -3 5 -1 12 5 16 6 4 7 11 4 17 -4 7 -2 8 4 4 7 -4 21
16 38 51 15 32 34 66 42 75 8 10 12 27 9 39 -4 16 1 27 19 41 21 17 23 25 18
61 -4 23 -3 39 1 35 12 -12 64 51 60 72 -2 11 1 22 6 26 5 3 7 15 3 26 -4 14
-2 18 5 14 15 -10 26 23 12 37 -6 6 -11 19 -11 29 0 10 -5 18 -10 18 -25 0 -2
36 33 53 20 10 37 24 37 31 0 8 10 16 22 19 l22 6 -24 21 c-12 11 -26 20 -30
20 -4 0 -10 9 -13 20 -4 17 -2 20 14 15 13 -4 19 -2 19 8 0 21 26 28 40 11 20
-23 30 -16 30 21 0 21 8 43 18 53 20 20 52 36 65 33 4 -1 15 6 24 14 14 14 18
14 39 0 20 -13 27 -13 44 -3 11 7 20 16 20 19 0 7 79 31 94 29 5 -1 12 2 15 7
11 15 52 34 61 28 6 -4 10 -1 10 6 0 8 4 8 15 -1 9 -7 18 -10 21 -7 18 18 27
218 31 687 5 662 5 634 2 830 -1 91 3 244 8 340 9 144 9 177 -2 189 -8 8 -59
20 -122 28 -59 7 -162 23 -228 34 -66 11 -178 29 -250 40 -71 10 -183 28 -249
39 -98 17 -162 20 -365 19 -243 -1 -245 -1 -166 -15 44 -8 202 -29 350 -49
149 -19 320 -41 380 -49 61 -8 148 -17 195 -20 201 -15 336 -29 357 -37 20 -7
23 -16 23 -58 0 -56 -16 -75 -57 -67 -15 3 -107 13 -203 21 -232 21 -576 66
-650 85 -19 5 -100 16 -180 25 -178 20 -579 83 -601 95 -9 4 -47 16 -85 25
-38 10 -81 24 -96 31 -20 10 -71 14 -189 14 -155 0 -163 -1 -183 -23 -16 -17
-30 -22 -60 -19 -55 4 -59 12 -7 12 30 0 41 4 39 13 -4 9 -88 13 -366 15
l-362 2 0 -255z m630 225 c12 -8 9 -10 -13 -10 -16 0 -26 4 -22 10 8 12 16 12
35 0z m-250 -300 c0 -4 -13 -7 -30 -8 -30 -1 -41 13 -17 21 16 5 47 -3 47 -13z
m-260 -40 c12 -7 8 -10 -15 -10 -16 0 -37 5 -45 10 -12 7 -8 10 15 10 17 0 37
-5 45 -10z m1360 -34 c47 -8 132 -17 189 -21 77 -6 99 -10 86 -18 -16 -9 -104
-5 -175 7 -79 14 -100 17 -153 23 -32 3 -60 10 -63 14 -7 12 17 11 116 -5z
m825 -60 c33 -1 65 -4 72 -9 6 -4 18 -4 26 -1 8 3 33 1 54 -5 22 -6 84 -14
139 -17 54 -4 102 -12 106 -18 5 -8 8 -8 8 0 0 12 63 9 195 -10 58 -8 81 -15
83 -26 2 -14 -8 -15 -80 -8 -46 4 -135 10 -198 13 -277 13 -576 48 -564 66 3
5 -7 9 -23 10 -15 1 -39 5 -53 10 -15 5 16 5 75 2 55 -4 127 -7 160 -7z m715
-296 c36 -36 21 -60 -36 -60 -32 0 -46 47 -19 67 25 17 31 17 55 -7z m-1836
-1479 c7 -11 -14 -20 -31 -13 -7 2 -10 8 -7 13 7 12 31 12 38 0z m1010 -16
c69 -29 59 -72 -13 -56 -53 12 -54 12 -42 45 12 31 9 30 55 11z m-48 -116 c12
-20 -11 -31 -39 -18 -15 7 -27 16 -27 21 0 12 58 10 66 -3z m254 1 c0 -5 -8
-10 -17 -10 -15 0 -16 2 -3 10 19 12 20 12 20 0z m-1040 -100 c0 -5 -5 -10
-11 -10 -5 0 -7 5 -4 10 3 6 8 10 11 10 2 0 4 -4 4 -10z m960 -150 c0 -17 -29
-42 -46 -38 -22 4 -32 47 -13 58 12 8 59 -8 59 -20z m-582 -16 c28 -4 52 -11
52 -17 0 -7 -176 -6 -240 3 -3 0 2 5 10 10 17 11 101 13 178 4z m482 -114 c0
-5 -7 -10 -16 -10 -8 0 -12 5 -9 10 3 6 10 10 16 10 5 0 9 -4 9 -10z m-1362
-238 c2 -8 -8 -12 -32 -12 -24 0 -36 5 -36 14 0 17 62 16 68 -2z"/>
<path d="M2768 9713 c7 -3 16 -2 19 1 4 3 -2 6 -13 5 -11 0 -14 -3 -6 -6z"/>
<path d="M6940 10233 c8 -2 25 -18 38 -36 18 -26 22 -28 22 -12 0 16 2 17 9 5
6 -8 7 -19 5 -25 -3 -5 2 -1 11 10 17 20 17 20 11 -2 -6 -18 -3 -21 19 -19 17
2 25 -2 25 -12 0 -12 2 -12 17 -1 15 12 16 12 10 -4 -6 -15 -4 -16 14 -6 15 8
19 8 15 0 -4 -6 -2 -11 4 -11 6 0 8 -4 5 -10 -4 -6 1 -7 11 -3 12 4 15 3 10
-5 -5 -8 -2 -10 8 -6 10 4 16 1 16 -7 0 -12 2 -12 9 -1 6 11 10 10 15 -3 3 -9
12 -15 20 -12 8 3 19 -5 26 -18 7 -13 18 -21 26 -18 8 3 14 0 14 -6 0 -6 -6
-11 -12 -11 -7 0 -3 -7 9 -15 12 -8 28 -12 36 -9 8 3 18 0 23 -7 5 -8 3 -10
-6 -4 -8 5 -11 4 -7 -2 4 -6 18 -8 32 -5 21 4 24 1 19 -14 -6 -16 -5 -17 7 -6
7 6 17 12 22 12 5 0 7 -6 4 -12 -4 -14 50 -41 64 -32 5 3 6 -2 3 -10 -4 -11 0
-16 10 -16 9 0 16 -5 16 -11 0 -5 8 -9 18 -7 10 1 29 -8 42 -21 14 -13 19 -20
11 -16 -10 6 -12 4 -7 -4 4 -6 16 -9 25 -6 12 3 24 -3 36 -19 11 -14 22 -23
27 -20 4 3 13 -6 20 -20 9 -22 14 -24 26 -13 13 10 14 9 7 -2 -6 -11 -3 -13
13 -9 22 6 26 -10 7 -24 -5 -4 -1 -7 10 -7 42 -1 54 -5 48 -14 -10 -17 27 -38
47 -27 15 8 18 6 16 -15 -2 -13 0 -22 5 -20 4 3 11 0 15 -6 4 -8 9 -7 16 2 7
10 8 8 3 -6 -11 -33 -11 -37 5 -42 12 -4 12 -3 1 5 -9 7 -10 12 -2 16 6 4 15
-3 20 -16 6 -13 10 -18 10 -13 1 6 13 12 28 13 26 2 26 2 7 -13 -18 -15 -18
-15 0 -8 13 4 17 3 12 -5 -3 -6 -1 -14 5 -18 7 -4 9 -3 6 3 -4 6 2 13 12 16
14 3 18 1 14 -9 -3 -8 0 -14 6 -14 6 0 11 7 11 15 0 8 5 15 11 15 6 0 8 -9 4
-22 -4 -15 -3 -19 3 -10 7 10 15 10 38 1 16 -7 34 -13 39 -13 6 -1 9 -12 7
-25 -2 -17 2 -22 13 -17 9 3 13 2 10 -4 -3 -6 1 -10 9 -10 9 0 16 -8 16 -18 0
-15 15 -25 75 -49 6 -3 4 0 -4 5 -22 15 -4 34 19 20 10 -7 16 -16 14 -20 -3
-4 -2 -8 3 -8 14 0 40 -92 45 -157 1 -7 5 -13 9 -13 4 0 12 -26 18 -57 19 -95
15 -117 -18 -96 -30 19 -104 36 -141 34 -82 -6 -178 -78 -225 -169 -29 -56
-30 -80 -9 -249 5 -37 3 -53 -5 -53 -6 0 -11 -8 -11 -17 -1 -16 -2 -15 -12 2
-6 11 -14 22 -18 25 -14 11 -42 85 -42 109 0 14 -7 34 -15 43 -9 10 -13 24
-10 33 4 8 2 15 -4 15 -6 0 -9 7 -6 14 4 10 1 13 -8 10 -7 -3 -16 3 -19 14 -7
20 -46 38 -46 21 0 -5 -8 -9 -17 -9 -20 0 -43 -42 -43 -77 0 -13 -4 -23 -9
-23 -4 0 -7 -10 -5 -22 2 -13 5 -49 7 -80 3 -47 0 -58 -12 -58 -11 0 -10 -4 5
-16 18 -15 18 -15 -8 -9 -17 3 -28 1 -28 -5 0 -6 5 -8 10 -5 6 3 10 -1 10 -9
0 -8 8 -23 18 -32 15 -16 15 -17 0 -12 -10 4 -19 1 -22 -9 -5 -11 -2 -14 11
-9 15 6 15 5 2 -11 -8 -10 -14 -25 -14 -33 4 -70 20 -167 37 -225 11 -38 21
-74 23 -80 2 -10 14 -42 38 -100 17 -42 15 -117 -3 -135 -25 -25 -63 -45 -106
-58 -23 -7 -47 -19 -54 -27 -7 -8 -16 -15 -20 -15 -5 0 -32 -16 -61 -35 -30
-19 -59 -35 -66 -35 -7 0 -13 -5 -13 -12 0 -6 -3 -8 -6 -5 -4 3 -14 2 -24 -3
-20 -11 -77 -23 -102 -22 -10 0 -18 -4 -18 -10 0 -6 -9 -8 -20 -5 -11 3 -23 1
-26 -5 -3 -5 -12 -7 -20 -4 -8 3 -14 1 -14 -3 0 -5 6 -12 13 -14 6 -3 3 -6 -8
-6 -12 -1 -26 4 -33 11 -9 9 -12 8 -12 -5 0 -9 -4 -17 -9 -17 -5 0 -11 -8 -14
-19 -3 -15 4 -21 37 -32 22 -7 56 -21 74 -31 19 -10 31 -14 27 -8 -3 5 1 10
10 10 10 0 13 -5 9 -12 -6 -10 -4 -10 8 0 11 9 18 10 23 2 3 -6 11 -7 17 -4 7
4 8 2 4 -4 -7 -11 7 -16 44 -13 10 0 11 -1 3 -5 -21 -9 -15 -26 7 -19 13 4 20
2 20 -6 0 -10 3 -10 11 -2 6 6 18 9 27 6 8 -4 20 1 27 11 9 11 15 13 20 6 3
-5 9 -8 13 -6 4 2 8 -21 8 -52 1 -41 6 -59 20 -69 13 -10 14 -13 3 -13 -12 0
-12 -2 1 -10 8 -5 10 -10 4 -10 -18 0 -5 -124 21 -197 30 -82 31 -110 6 -118
-10 -3 -119 -7 -242 -9 -123 -3 -236 -7 -251 -11 -28 -7 -44 -39 -50 -100 -4
-55 0 -54 -271 -49 -139 2 -283 7 -322 12 -112 12 -121 5 -105 -76 5 -26 11
-93 12 -150 3 -77 7 -106 18 -112 8 -6 46 -10 83 -10 37 0 109 -4 160 -9 51
-5 175 -12 277 -15 102 -4 201 -9 220 -12 148 -22 214 -36 255 -54 41 -18 46
-23 40 -43 -4 -12 -8 -31 -9 -43 -1 -11 -5 -25 -9 -30 -8 -13 -22 -96 -19
-108 2 -5 -3 -13 -10 -17 -11 -7 -11 -9 0 -9 8 0 10 -5 5 -12 -4 -7 -8 -17
-10 -23 -1 -5 -9 -29 -18 -53 -8 -24 -17 -51 -19 -60 -5 -29 -17 -76 -23 -92
-3 -8 -5 -27 -4 -42 2 -16 -2 -28 -7 -28 -6 0 -10 -15 -9 -32 0 -18 -9 -52
-21 -76 -11 -24 -18 -51 -15 -59 4 -11 2 -14 -5 -9 -10 6 -14 0 -11 -19 0 -3
-10 -25 -23 -48 -13 -23 -23 -52 -22 -64 0 -13 -2 -23 -7 -23 -4 0 -6 -9 -4
-20 2 -11 0 -20 -4 -20 -4 0 -8 -7 -8 -15 0 -8 5 -15 10 -15 6 0 2 -9 -9 -21
-10 -12 -20 -33 -20 -48 -1 -14 -6 -37 -11 -51 -7 -16 -7 -27 -1 -31 6 -4 5
-9 -3 -12 -10 -4 -10 -6 -1 -6 6 -1 12 -6 12 -12 0 -5 -5 -7 -12 -3 -7 4 -8 3
-4 -4 4 -7 15 -12 24 -12 15 0 15 -2 2 -10 -12 -7 -12 -10 -1 -10 8 0 11 -6 7
-16 -3 -9 -2 -12 5 -9 15 10 39 -14 32 -32 -4 -11 -2 -14 5 -9 7 4 12 2 12 -4
0 -6 4 -9 9 -5 5 3 12 -3 16 -14 3 -10 18 -22 33 -26 15 -3 39 -18 54 -32 14
-14 31 -22 37 -19 5 4 14 -2 20 -11 8 -14 11 -15 11 -3 0 12 3 11 11 -2 13
-24 26 -23 34 2 4 11 11 18 16 15 10 -7 26 8 52 47 9 15 23 25 30 22 18 -7 48
-52 52 -77 2 -12 11 -53 20 -92 8 -38 18 -81 21 -95 3 -14 14 -68 25 -120 26
-126 27 -185 1 -219 -11 -14 -26 -24 -34 -22 -43 11 -95 4 -116 -17 -12 -12
-17 -22 -10 -22 6 0 0 -9 -13 -21 -16 -13 -20 -22 -12 -27 6 -4 13 -14 15 -22
5 -22 24 -40 43 -40 12 0 15 -6 10 -22 -3 -13 -3 -18 2 -13 15 19 31 14 37
-10 4 -14 13 -25 20 -25 12 0 13 -7 5 -32 -12 -43 -12 -68 0 -49 6 9 10 4 13
-18 5 -31 -5 -42 -16 -18 -3 6 -3 1 0 -13 4 -14 12 -28 18 -32 8 -6 7 -8 -1
-8 -7 0 -13 -4 -13 -10 0 -5 6 -10 14 -10 8 0 17 -4 20 -9 4 -5 -2 -7 -13 -4
-10 3 -21 -2 -24 -10 -4 -11 0 -14 16 -11 12 2 16 1 9 -2 -8 -4 -9 -10 -4 -17
5 -7 12 -22 14 -34 4 -16 2 -20 -8 -16 -12 4 -12 0 -4 -21 5 -14 7 -32 4 -40
-3 -8 0 -17 7 -22 9 -5 7 -9 -7 -15 -18 -7 -17 -8 3 -8 30 -1 40 -21 11 -21
-20 -1 -21 -2 -5 -11 13 -8 15 -14 7 -28 -7 -14 -4 -26 12 -47 19 -24 19 -26
3 -14 -17 14 -18 13 -12 -2 4 -12 2 -15 -9 -11 -7 3 -14 0 -14 -6 0 -6 4 -11
10 -11 5 0 7 -7 4 -15 -4 -8 -1 -15 5 -15 8 0 9 -6 3 -17 -5 -10 -8 -29 -6
-43 3 -14 5 -32 5 -40 1 -8 7 -21 13 -29 8 -11 8 -13 -1 -7 -9 5 -12 -1 -9
-24 3 -27 1 -30 -18 -25 -17 5 -18 4 -6 -4 8 -6 11 -11 5 -11 -5 0 -4 -4 4 -9
12 -8 12 -12 2 -25 -8 -9 -19 -16 -26 -16 -8 0 -12 -9 -9 -22 2 -13 2 -17 -2
-10 -8 17 -24 5 -24 -19 0 -12 -4 -17 -11 -14 -6 4 -8 14 -5 22 4 8 1 11 -5 7
-6 -3 -9 -14 -6 -24 3 -13 0 -16 -13 -13 -10 3 -21 -1 -26 -8 -5 -9 -2 -11 9
-6 21 8 22 0 2 -19 -8 -9 -15 -11 -15 -5 0 17 -17 13 -24 -5 -3 -8 -2 -12 4
-9 14 9 12 -4 -2 -20 -36 -39 -39 -45 -27 -45 7 0 2 -9 -10 -19 -13 -11 -20
-25 -16 -30 3 -6 0 -11 -7 -11 -9 0 -9 -3 2 -10 12 -8 11 -10 -6 -10 -19 0
-50 -43 -46 -62 1 -5 -3 -8 -9 -8 -13 0 -40 -26 -33 -33 3 -2 -13 -22 -35 -42
-22 -21 -38 -42 -35 -47 3 -4 -1 -11 -9 -14 -17 -6 -37 -48 -41 -85 -1 -14 -6
-31 -11 -38 -6 -10 -4 -12 5 -6 10 6 12 4 7 -9 -4 -10 -3 -15 3 -11 6 3 10 1
10 -6 0 -7 16 2 35 21 43 42 45 32 5 -23 -18 -26 -35 -68 -44 -110 -7 -37 -16
-70 -19 -73 -6 -6 -49 48 -139 172 -32 43 -68 90 -80 104 -48 53 -49 56 -37
84 11 24 9 30 -19 59 -37 38 -183 243 -219 307 -61 108 -100 169 -144 225 -62
80 -200 297 -245 388 -140 279 -381 585 -510 648 -60 29 -170 34 -354 17 -158
-14 -243 -7 -277 24 -10 9 -39 20 -63 24 -25 4 -49 10 -55 14 -5 3 -33 5 -60
2 l-51 -4 -17 -130 c-18 -137 -38 -194 -84 -243 -15 -16 -27 -33 -26 -37 2 -4
-6 -10 -17 -13 -11 -4 -25 -16 -31 -27 -8 -16 -8 -19 1 -13 9 5 10 1 5 -14 -3
-12 -2 -21 4 -21 6 0 9 -25 7 -60 -4 -88 -47 -129 -81 -76 -19 29 -8 87 26
130 12 15 18 30 15 34 -4 3 -11 0 -15 -7 -7 -10 -12 -8 -25 10 -9 13 -19 23
-21 21 -11 -7 -23 4 -29 26 -5 14 -3 22 4 22 7 0 10 7 6 15 -3 8 -1 15 4 15 5
0 8 6 6 13 -3 6 -7 24 -10 40 -4 15 -13 27 -21 27 -8 0 -15 6 -15 14 0 8 -6
16 -14 19 -9 4 -12 15 -9 32 3 14 8 24 10 21 3 -2 18 11 35 29 16 19 34 33 40
32 6 -1 12 6 13 17 4 24 42 59 56 51 5 -4 7 -15 4 -25 -10 -30 32 -37 54 -8
11 13 31 37 45 53 14 17 26 33 26 37 0 18 93 145 126 172 53 43 117 135 143
203 21 56 24 59 54 57 28 -1 29 -1 3 3 -27 4 -28 6 -22 51 l5 47 -18 -55 c-10
-30 -23 -66 -31 -79 -12 -23 -14 -23 -25 -7 -12 16 -14 16 -20 -3 -8 -25 -18
-27 -35 -6 -10 12 -10 18 1 31 15 19 19 33 23 94 3 36 -2 52 -22 80 -15 19
-34 41 -43 47 -10 7 -36 31 -59 53 -24 23 -45 39 -48 36 -3 -3 0 -12 7 -19 13
-16 48 -113 60 -170 9 -36 7 -39 -17 -49 -30 -11 -249 -2 -288 12 -34 13 -22
33 47 80 39 27 70 40 92 40 18 0 42 7 53 15 21 16 23 15 -68 20 -22 1 -41 13
-65 38 -33 37 -33 37 -33 141 0 58 -5 117 -10 131 -7 18 -7 33 0 45 8 15 6 21
-7 29 -14 8 -6 10 34 11 28 0 55 -4 58 -10 3 -5 -2 -10 -12 -10 -13 0 -14 -3
-6 -8 7 -4 21 -33 32 -63 24 -71 45 -112 67 -129 9 -8 5 2 -9 23 -35 51 -59
128 -55 174 2 30 10 42 37 60 42 28 63 30 29 3 -27 -21 -39 -60 -31 -100 8
-40 91 -91 157 -96 56 -4 106 8 106 26 0 5 -7 10 -15 10 -8 0 -15 5 -15 10 0
6 -21 10 -47 11 l-48 1 35 15 c19 8 39 21 45 30 9 13 15 12 43 -4 17 -10 32
-23 32 -30 0 -21 21 -25 40 -8 29 26 50 12 50 -32 1 -53 18 -22 30 54 6 43 7
22 3 -77 -3 -74 -9 -139 -13 -145 -4 -5 -10 -45 -13 -87 l-5 -78 27 0 c25 0
29 5 35 38 9 54 8 80 -3 64 -6 -10 -10 -5 -14 17 -9 42 1 62 27 59 16 -2 23 5
33 34 7 20 13 57 15 82 2 25 6 46 9 46 7 0 23 61 24 90 0 8 4 20 8 27 4 7 8
56 9 110 0 54 5 109 9 122 17 42 29 260 16 268 -5 3 -4 9 3 13 10 6 7 16 -10
39 -12 18 -23 37 -24 44 -9 40 -49 118 -86 167 -15 19 -32 47 -38 62 -10 25
-10 26 16 19 29 -9 68 -8 77 1 3 3 -20 10 -51 16 -49 10 -65 20 -127 78 -74
70 -176 126 -292 159 -31 10 -80 27 -109 40 -28 12 -74 26 -101 29 -27 4 -71
12 -97 17 -76 17 -265 -21 -358 -71 -30 -16 -62 -32 -187 -92 -12 -6 -35 -21
-50 -34 -15 -13 -64 -52 -108 -86 -43 -35 -86 -77 -93 -93 -8 -17 -23 -46 -33
-65 -41 -76 -97 -200 -103 -227 -3 -15 -8 -136 -11 -268 -5 -196 -3 -249 9
-290 14 -44 14 -51 0 -66 -68 -75 -54 -256 29 -380 97 -146 137 -169 214 -123
42 24 47 25 58 10 7 -9 15 -42 18 -74 4 -32 18 -84 32 -115 30 -69 34 -135 8
-143 -10 -2 -38 -15 -63 -28 -41 -21 -51 -22 -103 -13 -49 9 -59 8 -76 -7 -15
-13 -29 -16 -68 -10 -46 6 -52 4 -70 -20 l-21 -26 -68 27 c-56 21 -86 27 -159
27 -86 1 -95 -1 -165 -36 -186 -93 -263 -204 -289 -413 -12 -99 -71 -282 -106
-330 -33 -45 -55 -92 -75 -159 -10 -34 -34 -106 -54 -161 -19 -55 -49 -158
-67 -230 -20 -77 -35 -121 -39 -110 -8 30 -45 29 -59 -1 -6 -14 -15 -23 -20
-19 -5 3 -22 -5 -38 -18 -15 -13 -35 -22 -43 -22 -8 1 -22 -4 -30 -9 -33 -24
-62 -37 -55 -26 5 9 2 9 -14 1 -12 -6 -30 -16 -41 -21 -11 -6 -20 -7 -20 -2 0
4 -20 18 -45 30 -25 12 -45 26 -45 32 0 5 -7 10 -15 10 -8 0 -15 4 -15 8 0 5
-12 15 -27 23 -16 8 -34 20 -41 27 -8 7 -19 9 -25 5 -7 -3 -9 -3 -5 2 5 5 -1
14 -12 22 -10 7 -33 43 -50 78 -25 53 -35 64 -53 62 -12 -1 -22 3 -22 10 0 6
-3 14 -7 18 -4 4 -5 12 -4 18 2 7 1 9 -1 5 -3 -5 -11 -8 -19 -8 -10 0 -12 -5
-8 -12 6 -10 5 -10 -8 -1 -8 7 -18 10 -22 6 -4 -4 -4 0 0 10 4 11 0 19 -10 23
-9 3 -13 10 -10 15 3 5 -2 6 -10 3 -9 -3 -16 -10 -16 -16 0 -5 -5 -6 -11 -3
-6 4 -8 13 -6 19 3 7 1 19 -5 27 -8 11 -9 10 -4 -3 3 -10 1 -18 -5 -18 -6 0
-13 9 -16 19 -3 11 -11 22 -19 25 -8 3 -14 12 -14 20 0 7 -6 16 -14 19 -7 3
-17 18 -20 34 -4 15 -17 38 -28 50 -11 12 -18 28 -15 36 3 8 -3 20 -13 27 -10
7 -16 20 -12 28 3 10 1 13 -6 8 -7 -4 -13 -2 -13 3 -1 6 -2 15 -3 21 0 5 -9
18 -18 30 -10 11 -15 20 -13 20 3 0 0 10 -7 23 -7 12 -13 25 -14 30 -1 4 -3
10 -4 15 -1 4 -2 10 -1 15 0 4 -4 7 -10 7 -5 0 -8 4 -4 9 3 5 -2 16 -11 25 -9
10 -13 24 -9 36 4 12 2 20 -5 20 -7 0 -9 7 -6 17 4 9 1 20 -6 25 -10 8 -10 11
-1 15 10 3 9 12 -2 39 -8 19 -11 34 -7 34 10 0 9 96 0 106 -12 12 -9 26 4 18
7 -4 8 -3 4 5 -4 6 -12 8 -18 5 -6 -4 -21 -8 -32 -9 -12 -1 -28 -5 -36 -8 -8
-3 -28 -9 -45 -13 -33 -8 -32 -8 -60 -18 -75 -27 -159 -57 -212 -74 -58 -19
-63 -19 -63 -4 -1 9 -2 109 -3 222 -3 231 -13 278 -74 349 -72 85 -185 78
-287 -18 -28 -25 -37 -30 -32 -16 51 139 66 322 33 407 -10 26 -34 61 -53 78
-29 25 -43 30 -85 30 -71 0 -113 -23 -194 -105 -67 -69 -74 -73 -160 -99 -101
-31 -175 -70 -175 -92 0 -11 9 -9 37 9 56 35 213 96 213 82 0 -3 -45 -80 -100
-171 -55 -92 -100 -171 -100 -176 0 -6 -11 -7 -25 -4 -18 5 -25 2 -25 -8 0 -8
5 -18 10 -21 7 -4 7 -12 0 -25 -5 -10 -10 -31 -10 -47 l0 -28 16 30 c8 17 19
34 23 38 5 5 58 -7 117 -26 60 -19 128 -38 152 -42 23 -4 42 -9 42 -12 0 -3
-14 -22 -30 -43 -40 -51 -71 -123 -115 -266 -19 -65 -37 -119 -39 -121 -8 -8
-99 117 -131 181 -27 53 -35 63 -35 42 0 -40 53 -136 108 -197 l49 -54 -12
-73 c-7 -40 -15 -75 -18 -78 -11 -11 -66 27 -79 53 -7 16 -20 28 -28 28 -13 0
-15 -248 -18 -2083 l-2 -2082 5120 0 5120 0 0 595 c0 649 4 608 -57 583 -15
-6 -32 -10 -37 -9 -5 1 -12 -2 -15 -7 -3 -6 -22 -13 -41 -17 -108 -21 -127
-23 -149 -18 -14 4 -27 0 -32 -8 -7 -11 -9 -11 -9 -1 0 9 -10 11 -37 6 -20 -4
-65 -7 -100 -8 -35 0 -63 -5 -63 -10 0 -5 -8 -2 -17 5 -14 12 -15 12 -9 0 5
-8 -3 -6 -20 5 -15 11 -25 15 -22 9 3 -5 -1 -17 -10 -25 -14 -13 -15 -12 -10
2 4 10 1 19 -8 22 -23 9 -26 7 -18 -6 6 -10 4 -10 -8 0 -14 11 -19 9 -32 -10
-14 -19 -20 -18 -18 3 1 3 -18 3 -41 0 -56 -8 -99 -3 -91 11 5 7 2 8 -6 3 -7
-4 -16 -2 -21 6 -4 8 -13 14 -18 14 -6 0 -16 8 -23 17 -14 20 -45 16 -178 -17
-36 -10 -70 -18 -77 -19 -7 -1 -16 -5 -19 -9 -4 -4 -16 -7 -26 -7 -10 0 -18
-5 -18 -11 0 -5 -4 -8 -9 -4 -5 3 -12 1 -15 -4 -4 -5 -2 -13 4 -16 8 -5 8 -11
0 -20 -9 -11 -7 -12 9 -8 15 4 21 1 21 -11 0 -11 5 -14 12 -10 7 5 9 2 5 -8
-4 -12 -1 -14 13 -11 10 3 21 -1 25 -8 5 -7 4 -10 -1 -6 -6 3 -16 2 -24 -4
-13 -7 -13 -9 1 -9 12 0 15 -7 11 -26 -3 -16 -9 -23 -18 -20 -8 3 -14 0 -14
-6 0 -6 -3 -9 -6 -5 -4 3 -12 0 -20 -7 -7 -7 -24 -12 -38 -11 -14 2 -26 0 -26
-5 0 -4 -8 -6 -18 -3 -10 2 -31 -1 -47 -8 -17 -7 -33 -12 -37 -11 -4 1 -5 -4
-2 -12 3 -7 -1 -20 -8 -27 -7 -8 -22 -31 -33 -52 -11 -20 -23 -37 -27 -37 -3
0 -10 -9 -13 -20 -14 -43 -116 -87 -240 -104 -22 -3 -78 -10 -125 -16 -47 -6
-99 -16 -116 -21 -17 -5 -40 -11 -50 -13 -206 -38 -271 -32 -439 44 -54 24
-99 43 -105 44 -52 9 -380 168 -474 230 -47 31 -88 56 -91 56 -13 0 -49 41
-52 60 -3 20 36 70 54 70 4 0 21 20 37 44 37 55 67 66 196 73 138 8 180 26
214 95 14 28 23 55 20 60 -3 5 -1 15 5 22 7 9 6 23 -6 48 -17 37 -63 70 -118
82 -16 4 -43 17 -60 30 -40 29 -75 42 -105 40 -56 -6 -195 19 -273 47 l-82 31
-395 3 c-217 1 -438 -1 -490 -6 -52 -5 -126 -11 -165 -14 -38 -2 -81 -7 -95
-9 -14 -3 -52 -8 -85 -11 -159 -18 -233 -37 -252 -67 -18 -28 -68 -44 -173
-55 -145 -15 -349 -1 -445 32 -22 8 -51 16 -65 19 -35 7 -105 55 -163 111 -83
79 -173 111 -397 140 -58 8 -139 18 -180 24 -108 15 -121 14 -118 -6 2 -14 -3
-17 -22 -15 -14 1 -74 4 -135 6 -84 2 -121 8 -156 24 -94 41 -66 80 60 84 57
2 86 7 89 16 2 7 -5 12 -17 12 -19 0 -38 17 -28 26 8 8 230 23 507 34 140 6
274 12 298 14 27 2 42 -1 42 -8 0 -6 14 -17 32 -24 36 -13 34 -21 -5 -24 -15
-1 -27 -5 -27 -9 0 -3 -10 -11 -22 -16 -22 -10 -21 -11 17 -22 48 -13 228 -14
465 -1 327 17 839 12 879 -9 12 -7 22 -7 25 -2 4 5 0 12 -6 14 -7 3 3 3 23 0
24 -3 39 -1 44 7 5 9 4 11 -4 6 -6 -4 -17 -3 -24 2 -30 23 -256 54 -416 56
-49 0 -87 4 -85 8 3 5 122 6 264 4 200 -4 258 -2 254 7 -3 9 7 11 34 9 54 -5
69 15 47 62 -15 31 -23 36 -63 42 -76 11 -86 26 -12 19 36 -4 61 -3 57 2 -5 4
-12 8 -15 9 -59 4 -121 18 -117 25 8 12 98 11 150 -1 27 -6 48 -19 65 -41 14
-18 42 -51 63 -73 21 -22 43 -48 48 -58 5 -10 21 -18 35 -18 15 0 23 -4 19
-11 -4 -6 -14 -8 -22 -5 -8 3 -19 3 -25 0 -5 -4 9 -15 31 -25 74 -33 302 -9
348 37 13 13 30 24 38 24 8 0 15 7 15 16 0 8 -4 12 -10 9 -5 -3 -10 2 -10 12
0 11 -5 24 -12 31 -9 9 -7 12 10 12 15 0 20 -5 16 -15 -5 -12 2 -15 34 -15 39
0 69 -19 44 -28 -18 -6 5 -42 27 -42 11 0 21 7 25 15 3 8 15 15 26 15 13 0 19
4 14 11 -4 7 -1 10 7 7 9 -3 14 -19 13 -46 -1 -36 2 -41 25 -46 46 -10 301
-19 301 -11 0 5 -9 18 -20 30 -12 13 -16 25 -11 34 12 19 43 -41 39 -74 -2
-18 8 -30 50 -59 86 -57 145 -83 277 -121 69 -20 146 -45 172 -56 26 -11 64
-27 83 -35 68 -29 82 -39 128 -86 26 -26 52 -48 59 -48 7 0 10 -7 7 -15 -4 -8
-13 -15 -21 -15 -8 0 -13 -6 -11 -12 6 -17 404 -31 848 -32 251 0 353 4 447
17 204 28 242 24 398 -48 140 -64 168 -69 333 -55 81 7 170 13 197 15 28 1 58
3 68 4 16 1 17 37 17 616 0 338 -3 615 -7 615 -5 1 -31 2 -60 3 -58 3 -58 3
-68 36 -7 23 -5 24 25 17 18 -3 43 -6 56 -6 14 0 24 -6 24 -15 0 -9 6 -12 15
-9 8 4 15 17 15 31 0 18 -4 24 -15 19 -9 -3 -15 0 -15 10 0 8 7 17 15 20 12 5
15 28 15 120 l0 114 -97 0 c-53 0 -93 3 -90 6 4 4 47 6 97 5 l90 -2 0 385 0
386 -105 0 c-63 0 -105 4 -105 10 0 6 42 10 105 10 l105 0 0 71 0 71 -117 -6
c-190 -11 -377 -26 -395 -32 -15 -4 -17 0 -14 28 2 18 4 41 5 51 1 11 9 17 25
17 14 0 28 5 31 10 4 6 -7 10 -24 10 -17 0 -31 3 -31 8 1 18 18 32 41 31 13
-1 38 4 54 11 27 11 28 13 10 20 -16 6 -17 9 -5 13 26 8 160 26 293 39 l127
12 0 49 0 49 -97 -5 c-60 -4 -88 -3 -73 2 14 5 44 9 66 10 23 1 56 4 73 7 29
6 31 10 31 47 l0 40 -67 -7 c-38 -3 -114 -9 -170 -13 -100 -6 -103 -6 -97 -28
5 -21 1 -23 -53 -29 -32 -4 -66 -10 -76 -13 -15 -4 -18 0 -15 19 3 20 9 23 50
26 34 2 46 7 42 16 -4 10 11 15 58 19 91 7 279 27 306 33 18 4 22 11 22 44 0
47 -1 47 -124 28 -57 -9 -80 -16 -83 -28 -2 -9 -16 -17 -30 -18 -38 -3 -42
-12 -5 -12 17 0 33 -4 36 -9 8 -12 -18 -21 -33 -11 -7 4 -32 2 -55 -5 -22 -7
-62 -13 -88 -13 -27 -1 -57 -6 -67 -12 -16 -8 -21 -6 -27 12 -4 15 -1 25 10
34 13 9 14 13 4 17 -29 10 45 27 207 47 94 11 189 23 213 26 37 5 42 8 42 31
0 28 8 27 -134 8 -28 -4 -29 -4 -6 4 38 14 0 12 -95 -3 -58 -10 -82 -10 -87
-2 -4 6 -4 14 0 18 6 5 284 48 314 48 4 0 8 25 8 55 0 30 -4 55 -8 55 -4 0
-70 -9 -147 -20 -193 -27 -176 -31 -169 38 4 31 10 61 15 66 13 15 298 53 303
41 2 -5 5 65 5 156 l1 166 -26 -5 c-20 -4 -25 -1 -22 9 3 8 15 13 26 13 19 -1
22 4 22 38 0 37 -2 39 -27 36 -36 -4 -38 24 -3 32 l25 6 3 403 c2 348 0 404
-13 417 -8 9 -15 21 -15 29 0 7 -3 20 -6 29 -3 9 -2 16 3 16 5 0 14 -17 20
-37 9 -33 11 -25 12 65 1 67 -3 101 -9 97 -5 -3 -10 -1 -10 4 0 6 4 11 8 11 4
0 8 12 9 28 1 22 0 23 -6 8 -5 -13 -10 -16 -14 -9 -4 6 0 19 9 27 12 13 15 34
13 99 -1 45 -4 88 -7 94 -2 8 -28 -8 -65 -40 -34 -28 -64 -53 -66 -54 -2 -1 6
-14 16 -30 30 -43 37 -61 13 -34 -11 13 -24 30 -29 38 -9 17 -41 7 -41 -13 0
-8 -27 15 -61 50 -69 75 -157 124 -256 145 -55 12 -65 12 -87 -3 -14 -9 -38
-16 -53 -16 l-28 1 30 13 30 13 -55 6 c-30 4 -177 7 -327 7 -166 0 -273 4
-275 10 -2 6 -9 6 -18 0 -12 -7 -10 -16 10 -60 30 -64 37 -69 98 -77 53 -6
113 3 96 15 -5 4 -10 18 -10 32 0 14 -4 34 -8 45 -3 11 2 4 11 -16 10 -20 23
-34 30 -32 6 2 14 -1 18 -6 3 -6 22 -11 42 -11 35 0 35 0 31 40 -2 25 0 39 7
37 5 -2 10 -19 10 -38 l0 -33 65 -3 c99 -5 213 -37 273 -77 52 -35 167 -158
167 -179 0 -6 -39 29 -87 79 -96 99 -142 126 -244 144 -83 15 -257 4 -296 -19
-15 -9 -13 -10 13 -11 17 0 34 3 37 6 13 14 179 2 248 -17 98 -27 156 -59 209
-114 25 -26 71 -67 104 -91 32 -24 51 -44 43 -44 -17 0 -112 76 -167 135 -64
67 -179 112 -312 122 -50 3 -88 2 -88 -3 0 -9 -77 -18 -167 -19 -60 0 -61 7
24 -119 29 -44 66 -116 83 -160 41 -108 46 -116 91 -151 118 -92 236 -192 301
-257 96 -95 106 -129 100 -320 -3 -114 -19 -75 -24 60 -5 147 -11 162 -91 240
l-54 54 -8 -38 c-17 -92 -78 -158 -171 -184 -58 -16 -139 -5 -232 33 -34 13
-59 21 -56 16 3 -5 -6 -5 -20 1 -30 11 -56 4 -56 -16 0 -8 -5 -23 -12 -33 -10
-16 -9 -23 8 -38 11 -10 15 -15 10 -10 -20 15 -34 6 -49 -30 -10 -26 -15 -32
-16 -18 -1 23 11 65 33 116 l15 36 -27 0 c-15 0 -44 4 -64 8 l-38 8 0 -106 c0
-81 -3 -106 -14 -110 -21 -8 -26 14 -26 116 0 97 -8 147 -20 128 -4 -8 -22 -3
-53 15 -83 46 -216 72 -203 39 3 -9 0 -15 -8 -15 -12 0 -60 -113 -96 -223 -10
-34 -34 -57 -44 -46 -5 5 75 205 102 254 l22 40 -26 9 c-18 6 -29 5 -34 -4 -4
-7 -12 -10 -18 -6 -6 3 -12 0 -15 -6 -3 -7 -12 3 -20 23 l-16 36 -55 -8 c-54
-7 -75 -13 -242 -66 -55 -18 -90 -24 -109 -19 -34 9 -147 123 -171 174 -26 55
-30 117 -9 148 9 14 19 23 22 20 3 -3 12 2 20 12 8 9 11 11 7 3 -5 -11 -3 -13
11 -8 10 4 4 -6 -14 -22 -34 -32 -39 -62 -18 -114 19 -44 67 -99 82 -93 8 3
10 -3 8 -17 -3 -15 6 -31 26 -51 26 -25 35 -28 78 -24 26 3 69 14 95 26 47 20
47 21 37 54 -6 18 -11 41 -11 51 1 10 -8 23 -19 30 -25 16 -24 24 3 23 20 -1
24 6 33 61 11 70 19 83 33 56 14 -26 21 -78 23 -160 l2 -72 166 6 c91 3 168 7
169 9 2 1 -8 33 -23 70 -43 109 -44 251 -2 464 21 106 27 159 16 165 -12 8
-52 -19 -134 -90 -38 -33 -79 -67 -90 -75 -39 -29 69 92 136 153 55 50 69 68
69 91 0 42 -30 144 -44 149 -7 3 -34 -6 -62 -19 -85 -40 -158 -71 -199 -84
-22 -7 -45 -16 -50 -21 -18 -14 -95 -23 -95 -11 0 22 58 51 195 97 77 26 147
49 155 50 8 2 17 4 20 5 3 1 8 2 11 2 4 -1 15 8 24 18 18 20 51 28 40 11 -3
-5 4 -13 16 -16 15 -5 18 -10 10 -18 -14 -14 -14 -42 0 -109 l12 -52 17 22
c11 13 21 48 25 86 8 73 17 91 40 83 9 -4 14 -11 10 -17 -3 -5 -14 -48 -24
-95 l-19 -85 86 6 87 6 48 49 c26 27 47 45 47 41 0 -5 -10 -17 -22 -28 -11
-10 -34 -47 -50 -81 -15 -35 -33 -63 -38 -63 -14 0 -12 27 2 36 21 13 -30 21
-97 16 -33 -2 -62 -5 -63 -7 -8 -8 52 -105 64 -105 7 0 25 11 39 24 27 25 55
25 55 0 0 -8 5 -14 10 -14 6 0 10 9 10 20 0 23 9 25 32 8 11 -9 15 -23 11 -45
l-5 -33 -19 23 -18 22 -1 -27 c0 -14 -3 -33 -6 -42 -8 -20 10 -21 30 -1 20 21
23 20 36 -19 6 -19 18 -40 27 -48 14 -11 14 -9 -1 14 -24 37 -14 49 29 35 62
-19 101 -84 42 -70 -15 4 -19 2 -12 -5 6 -5 19 -12 30 -14 20 -4 20 -4 -1 -15
-11 -7 -39 -13 -62 -16 -77 -7 -105 -63 -83 -162 6 -24 8 -15 13 43 4 39 10
77 14 83 4 7 18 -1 38 -20 22 -21 66 -43 132 -67 104 -36 194 -65 194 -61 0 2
-22 19 -48 40 -57 43 -96 109 -116 197 -9 35 -14 66 -12 67 12 13 35 -15 40
-50 11 -66 41 -117 107 -182 34 -33 57 -51 51 -40 -6 11 -28 59 -50 107 -22
47 -63 118 -91 158 -27 39 -52 77 -54 83 -3 8 -10 5 -20 -8 -14 -18 -18 -19
-39 -6 -27 17 -109 16 -120 -2 -4 -7 -8 -7 -8 -2 0 18 22 35 45 35 12 0 25 4
31 9 5 5 23 11 39 13 25 3 21 6 -28 18 -48 11 -60 11 -67 1 -6 -10 -9 -10 -15
-1 -4 6 -3 16 1 20 12 12 81 15 123 5 37 -9 37 -10 -4 50 -18 27 -25 30 -63
27 -52 -4 -65 17 -32 53 12 13 19 29 15 35 -4 7 -2 16 5 20 7 4 10 13 6 19 -5
8 -12 7 -25 -1 -14 -8 -40 -2 -129 32 -100 39 -129 59 -104 74 4 2 59 -15 122
-40 63 -24 121 -44 128 -44 11 0 12 14 7 63 -3 34 -2 104 4 155 8 78 15 102
42 144 31 48 52 63 158 113 18 9 42 25 54 36 11 10 25 19 29 19 11 0 -24 -49
-35 -50 -9 0 -37 -26 -37 -33 0 -3 8 -3 18 0 19 5 48 -40 37 -58 -8 -12 -35
-12 -35 1 0 13 -21 13 -40 0 -13 -9 -13 -11 0 -21 13 -9 13 -10 0 -6 -8 2 -16
13 -18 25 -4 24 -21 28 -55 10 -12 -6 -28 -14 -36 -18 -8 -3 -17 -13 -20 -21
-3 -9 1 -8 13 4 30 29 35 19 14 -25 -13 -26 -25 -82 -31 -145 -6 -57 -15 -103
-21 -103 -9 0 -3 158 9 225 5 30 5 30 -12 -5 -18 -37 -31 -227 -19 -275 l7
-26 45 32 c92 63 213 105 360 124 50 6 50 7 63 53 22 82 111 217 111 168 0 -8
7 -16 15 -20 8 -3 15 -10 15 -17 0 -23 45 -64 67 -61 15 2 23 -3 28 -18 4 -12
35 -59 69 -104 l62 -81 52 3 c58 4 68 -9 22 -30 -16 -7 -30 -18 -30 -24 0 -7
-8 -20 -17 -31 -10 -10 -17 -17 -16 -15 1 3 -5 18 -13 34 -8 16 -13 32 -10 37
3 4 -24 38 -60 76 -35 37 -72 80 -81 96 -10 16 -21 29 -25 29 -7 0 -68 -84
-68 -93 0 -3 21 -10 46 -16 60 -15 174 -67 174 -79 0 -5 -47 8 -105 29 -78 29
-120 39 -165 39 -50 0 -60 3 -60 18 -1 15 -2 15 -10 1 -6 -11 -30 -19 -69 -23
-119 -14 -268 -67 -355 -129 l-28 -20 28 -15 c16 -8 39 -24 52 -35 22 -20 35
-21 245 -23 122 0 231 -5 242 -9 13 -6 5 8 -22 39 -46 52 -103 147 -103 171 0
27 19 16 37 -22 l17 -37 13 32 c18 43 21 40 16 -11 -5 -38 0 -48 40 -103 25
-34 57 -65 73 -71 16 -6 73 -16 127 -22 130 -13 219 -55 300 -140 54 -56 58
-59 70 -41 6 11 40 39 75 62 51 35 65 50 74 83 6 22 15 44 20 50 13 15 10 77
-4 72 -7 -2 -12 -10 -10 -17 1 -6 -3 -10 -10 -8 -18 6 -23 59 -6 69 19 13 28
11 22 -5 -3 -8 -1 -17 5 -21 8 -4 11 69 11 243 l0 248 -38 25 c-21 14 -58 33
-82 43 -24 9 -53 24 -64 32 -11 8 -31 14 -44 14 -13 0 -32 5 -44 11 -18 10
-19 8 -13 -11 7 -21 6 -21 -32 -5 -21 9 -48 21 -60 26 -13 5 -23 13 -23 18 0
5 10 12 23 14 12 3 -2 4 -31 1 -30 -2 -52 0 -50 4 39 79 39 80 78 75 31 -4 43
0 73 26 19 18 47 52 62 76 14 25 28 45 31 45 3 0 -4 -16 -15 -36 -12 -19 -19
-39 -16 -44 3 -5 -13 -24 -36 -44 -31 -26 -40 -40 -35 -53 4 -10 8 -20 8 -23
0 -3 26 -14 57 -26 72 -27 198 -90 206 -104 3 -5 15 -15 26 -20 19 -11 19 -4
19 336 0 325 -1 346 -17 340 -17 -6 -17 -5 0 8 16 12 17 46 17 461 l0 448 -37
48 c-31 40 -39 46 -46 33 -9 -16 -1 -111 13 -148 4 -12 5 -28 2 -36 -6 -18
-31 91 -31 140 0 19 6 46 13 59 l13 23 22 -35 c54 -87 51 -120 51 647 l0 706
-1657 -1 c-912 -1 -1651 -3 -1643 -6z m385 -223 c3 -5 1 -10 -4 -10 -6 0 -11
5 -11 10 0 6 2 10 4 10 3 0 8 -4 11 -10z m510 -320 c3 -6 -1 -7 -9 -4 -18 7
-21 14 -7 14 6 0 13 -4 16 -10z m379 -225 c3 -8 1 -15 -4 -15 -6 0 -10 7 -10
15 0 8 2 15 4 15 2 0 6 -7 10 -15z m27 -8 c-10 -9 -11 -8 -5 6 3 10 9 15 12
12 3 -3 0 -11 -7 -18z m1679 -257 c0 -5 -2 -10 -4 -10 -3 0 -8 5 -11 10 -3 6
-1 10 4 10 6 0 11 -4 11 -10z m46 -19 c14 -11 21 -22 16 -25 -5 -3 -20 6 -32
19 -28 30 -18 33 16 6z m194 -115 c0 -2 -7 -7 -16 -10 -8 -3 -12 -2 -9 4 6 10
25 14 25 6z m-110 -75 c0 -14 -18 -23 -30 -16 -6 4 -8 11 -5 16 8 12 35 12 35
0z m-1400 -61 c0 -5 -4 -10 -10 -10 -5 0 -10 5 -10 10 0 6 5 10 10 10 6 0 10
-4 10 -10z m-44 -39 c-6 -2 -17 -8 -24 -14 -9 -7 -11 -6 -6 7 3 9 10 16 15 16
5 0 9 8 10 18 0 14 2 14 8 -3 5 -12 4 -21 -3 -24z m368 -88 c49 -38 54 -56 17
-61 -25 -4 -81 16 -81 28 0 4 -3 22 -6 39 -9 42 10 41 70 -6z m891 -361 c14
-45 30 -84 35 -87 5 -3 29 0 54 6 31 8 50 8 63 0 15 -8 9 -10 -29 -11 -51 0
-78 -7 -78 -21 0 -5 19 -6 43 -4 23 3 72 7 109 9 74 3 77 -4 13 -38 -31 -17
-41 -18 -69 -8 -40 15 -96 16 -96 1 0 -5 -44 -31 -97 -55 -58 -27 -137 -76
-193 -118 -52 -40 -114 -85 -137 -100 -39 -26 -41 -29 -28 -50 8 -11 26 -52
41 -91 22 -56 27 -87 27 -155 1 -102 -21 -156 -108 -264 -30 -38 -55 -73 -55
-78 0 -4 -6 -8 -13 -8 -7 0 -18 -9 -25 -20 -7 -11 -17 -20 -24 -20 -6 0 -2 10
10 23 12 13 22 27 22 31 0 4 16 23 35 43 49 51 103 135 122 189 26 76 5 222
-47 336 l-13 27 -104 -80 c-132 -102 -164 -116 -282 -124 -146 -9 -202 -49
-271 -190 -33 -67 -43 -102 -60 -218 -11 -76 -31 -172 -46 -213 -32 -94 -49
-201 -34 -219 8 -10 7 -27 -4 -62 -8 -26 -15 -42 -15 -35 -1 7 -9 12 -18 11
-38 -3 -42 0 -36 39 3 20 10 39 15 40 4 2 6 7 3 12 -3 4 8 51 25 104 38 125
67 246 75 321 19 169 45 248 113 338 20 27 56 60 80 74 23 14 42 27 42 30 0 2
-4 1 -10 -2 -5 -3 -10 -4 -10 -2 0 4 104 70 388 246 48 30 134 71 191 92 138
51 254 109 321 159 30 23 61 45 68 49 10 6 6 34 -18 131 -16 69 -30 143 -29
165 1 30 4 20 15 -41 7 -44 25 -117 39 -162z m-605 192 c20 -4 39 -18 34 -25
-3 -5 2 -9 11 -9 12 0 15 -6 10 -21 -5 -15 -4 -19 4 -15 7 5 11 -4 11 -24 0
-23 -12 -46 -45 -83 -25 -29 -45 -56 -45 -60 0 -5 20 -55 44 -111 48 -110 60
-146 52 -146 -13 0 -146 297 -146 324 0 6 9 0 20 -14 19 -24 20 -24 20 -4 0
13 14 31 35 45 51 35 52 49 5 89 -22 19 -40 43 -40 53 0 12 4 16 13 10 6 -4
14 -8 17 -9z m-140 -73 c-1 -13 -4 -12 -15 3 -8 11 -15 27 -15 35 1 13 4 12
15 -3 8 -11 15 -27 15 -35z m60 -127 c0 -14 -6 -31 -12 -39 -7 -7 -37 -39 -66
-72 -103 -112 -137 -143 -162 -150 -14 -3 -30 -12 -37 -19 -7 -7 -22 -10 -34
-7 -22 6 -22 6 4 29 15 13 27 27 27 32 0 42 112 137 218 184 36 16 42 23 42
49 0 18 4 28 10 24 6 -3 10 -17 10 -31z m1027 16 c14 -11 21 -20 16 -20 -15 0
-63 24 -63 33 0 13 21 7 47 -13z m-97 -20 c0 -5 -10 -10 -22 -10 -19 0 -20 2
-8 10 19 13 30 13 30 0z m-159 -284 c7 -55 7 -112 -1 -185 -6 -58 -14 -141
-17 -185 -4 -54 -9 -73 -15 -62 -6 10 -3 68 7 153 16 132 17 322 1 383 l-7 25
11 -25 c6 -14 16 -61 21 -104z m224 -291 c-16 -14 -33 -25 -37 -25 -5 0 -8 -9
-8 -21 0 -11 -4 -17 -10 -14 -18 11 -11 23 33 54 51 36 63 40 22 6z m-1908 -9
c-9 -9 -23 -13 -32 -9 -14 5 -12 8 11 18 35 15 42 11 21 -9z m1784 -249 c-10
-9 -11 -8 -5 6 3 10 9 15 12 12 3 -3 0 -11 -7 -18z m-184 -49 c-3 -8 -6 -5 -6
6 -1 11 2 17 5 13 3 -3 4 -12 1 -19z m-10 -50 c-3 -7 -5 -2 -5 12 0 14 2 19 5
13 2 -7 2 -19 0 -25z m24 -11 c-10 -9 -11 -8 -5 6 3 10 9 15 12 12 3 -3 0 -11
-7 -18z m-74 -178 c52 -19 122 -73 128 -99 3 -14 9 -34 12 -45 4 -16 1 -14
-16 7 -11 14 -21 31 -21 36 0 6 -4 13 -9 16 -8 5 92 -296 128 -388 10 -24 8
-49 -2 -35 -6 8 -81 208 -119 314 -58 165 -54 161 -136 175 -53 9 -131 -3
-199 -31 -62 -25 -94 -21 -43 6 92 48 214 68 277 44z m-578 -65 c-6 -8 -18
-14 -27 -14 -13 0 -12 3 3 20 20 22 43 17 24 -6z m378 -68 c49 -60 119 -183
110 -192 -2 -2 -12 14 -22 36 -10 22 -21 40 -25 40 -3 0 -14 16 -23 35 -9 19
-31 51 -49 72 -51 58 -61 73 -51 73 5 0 32 -29 60 -64z m-442 -166 c-3 -5 -13
-10 -21 -10 -8 0 -12 5 -9 10 3 6 13 10 21 10 8 0 12 -4 9 -10z m695 -39 c0
-6 -4 -13 -10 -16 -5 -3 -10 1 -10 9 0 9 5 16 10 16 6 0 10 -4 10 -9z m-269
-104 c12 -22 12 -22 -10 -3 -11 11 -21 23 -21 28 0 14 19 -1 31 -25z m372 -21
c6 -16 -1 -26 -19 -26 -7 0 -10 8 -7 20 6 23 19 26 26 6z m-1399 -27 c-7 -11
-34 -12 -34 -1 0 14 11 21 26 15 8 -3 11 -9 8 -14z m-49 -9 c-3 -5 -17 -10
-31 -10 -13 0 -24 5 -24 10 0 6 14 10 31 10 17 0 28 -4 24 -10z m1475 -74
c-13 -13 -35 7 -25 24 5 8 11 8 21 -1 10 -8 12 -15 4 -23z m-1420 -6 c-8 -5
-17 -7 -19 -4 -3 3 1 9 9 14 8 5 17 7 19 4 3 -3 -1 -9 -9 -14z m10 -41 c0 -18
-2 -19 -15 -9 -8 7 -15 16 -15 21 0 5 7 9 15 9 9 0 15 -9 15 -21z m165 -19
c39 -12 74 -26 80 -31 14 -13 -11 -11 -48 4 -18 8 -56 20 -84 26 -29 7 -50 17
-47 23 3 5 11 7 18 5 6 -2 43 -14 81 -27z m1337 -152 c-14 -14 -81 -13 -96 2
-7 7 9 10 49 10 45 0 56 -3 47 -12z m-1192 -8 c0 -5 -2 -10 -4 -10 -3 0 -8 5
-11 10 -3 6 -1 10 4 10 6 0 11 -4 11 -10z m181 -6 c11 -14 10 -15 -11 -12 -13
1 -25 9 -28 16 -5 17 23 15 39 -4z m-4028 -187 c-4 -7 0 -6 10 1 23 19 40 5
35 -28 -3 -21 -1 -27 11 -22 10 4 12 1 6 -8 -6 -10 -4 -12 8 -7 10 4 17 1 18
-6 2 -36 8 -52 55 -162 7 -16 15 -47 19 -68 l7 -38 -33 20 c-47 27 -100 35
-156 22 -27 -6 -61 -12 -78 -15 -53 -8 -98 -25 -114 -43 -17 -19 -16 -59 2
-82 17 -20 -20 -44 -57 -37 -16 3 -35 6 -42 6 -8 0 -14 7 -14 16 0 27 -52 113
-71 119 -11 4 -19 10 -19 15 0 4 -10 10 -23 14 -23 5 -47 42 -47 72 0 15 58
45 108 55 4 1 26 14 49 30 23 16 46 29 52 29 5 0 23 11 39 25 17 14 34 25 39
24 15 -4 48 14 106 58 31 24 62 43 67 43 6 0 10 6 11 13 0 6 4 1 10 -11 5 -13
6 -29 2 -35z m4211 -126 c28 -37 32 -51 16 -51 -11 0 -52 75 -87 159 -33 79
-27 77 12 -4 18 -38 44 -85 59 -104z m-757 127 c-3 -8 -6 -5 -6 6 -1 11 2 17
5 13 3 -3 4 -12 1 -19z m1533 -2 c0 -2 -8 -10 -17 -17 -16 -13 -17 -12 -4 4
13 16 21 21 21 13z m70 -30 c0 -8 3 -22 7 -32 4 -11 3 -15 -4 -11 -13 8 -23
57 -12 57 5 0 9 -6 9 -14z m-1679 -56 c50 0 69 -4 69 -13 0 -10 -17 -11 -76
-6 -69 7 -130 2 -194 -16 -22 -7 -20 -4 10 20 30 23 41 26 79 21 24 -3 75 -6
112 -6z m1501 -42 c-7 -7 -12 -8 -12 -2 0 14 12 26 19 19 2 -3 -1 -11 -7 -17z
m59 -2 c-9 -11 -10 -25 -2 -53 6 -21 10 -117 10 -218 l-2 -180 -13 145 c-7 80
-13 176 -12 214 1 45 -3 71 -10 74 -18 6 -14 20 6 25 31 8 35 7 23 -7z m-2311
-11 c0 -8 -9 -15 -20 -15 -11 0 -20 7 -20 15 0 8 9 15 20 15 11 0 20 -7 20
-15z m465 -24 c-3 -5 -24 -24 -48 -41 l-42 -32 45 41 c46 41 56 48 45 32z
m1212 -33 c-3 -8 -6 -5 -6 6 -1 11 2 17 5 13 3 -3 4 -12 1 -19z m563 9 c0 -6
-14 -18 -31 -26 -17 -8 -46 -27 -64 -42 -35 -31 -170 -87 -274 -114 -82 -21
-89 -14 -8 10 88 26 172 62 220 92 62 40 150 93 154 93 2 0 3 -6 3 -13z
m-1979 -102 c-18 -8 -41 -15 -50 -14 -9 0 0 6 19 13 48 18 73 19 31 1z m1529
-95 c0 -5 -2 -10 -4 -10 -3 0 -8 5 -11 10 -3 6 -1 10 4 10 6 0 11 -4 11 -10z
m-4255 -18 c81 -21 74 -36 -11 -22 -32 6 -99 10 -149 11 l-90 1 45 13 c63 18
124 17 205 -3z m-675 -20 c21 -9 17 -10 -20 -4 -25 4 -89 7 -142 7 -54 0 -90
3 -80 7 24 11 212 3 242 -10z m-438 -33 c-37 -12 -60 -24 -56 -30 4 -7 10 -7
17 0 16 16 57 14 57 -4 0 -15 -9 -18 -100 -34 -30 -5 -62 -12 -70 -15 -11 -5
-15 1 -16 21 -1 27 2 29 100 54 118 31 159 36 68 8z m1083 10 c14 -3 18 -46 6
-54 -5 -3 -16 2 -24 10 -9 8 -28 15 -43 15 -27 0 -27 -1 -8 -15 11 -8 -4 -5
-34 8 -29 12 -48 23 -42 25 9 3 8 7 -1 14 -12 8 98 5 146 -3z m2824 8 c-2 -1
-15 -11 -29 -22 l-25 -20 19 23 c11 12 24 22 29 22 6 0 8 -1 6 -3z m76 -15
c-3 -3 -11 0 -18 7 -9 10 -8 11 6 5 10 -3 15 -9 12 -12z m-3875 -11 c-15 -30
-12 -157 5 -190 16 -32 69 -61 113 -61 16 0 49 7 72 15 72 25 107 19 101 -17
-2 -14 24 -9 64 12 l40 20 -21 -21 c-11 -11 -38 -27 -60 -34 -33 -12 -35 -14
-13 -15 26 0 26 0 -15 -43 -22 -24 -60 -65 -83 -91 l-41 -48 -32 32 c-17 18
-29 34 -26 37 2 3 0 18 -6 34 -15 45 10 69 76 70 51 2 51 2 -14 9 -81 8 -112
18 -104 32 5 8 1 9 -10 5 -10 -4 -15 -3 -11 3 3 5 -4 14 -16 20 -28 16 -49 69
-49 127 0 56 17 123 31 123 6 0 6 -7 -1 -19z m281 -13 c11 -18 4 -21 -34 -14
-21 4 -34 12 -34 22 0 12 7 14 31 10 16 -4 33 -12 37 -18z m855 -15 c-10 -10
-19 5 -10 18 6 11 8 11 12 0 2 -7 1 -15 -2 -18z m-30 -10 c-7 -7 -26 7 -26 19
0 6 6 6 15 -2 9 -7 13 -15 11 -17z m-827 -36 c6 -8 8 -17 4 -20 -3 -4 -1 -7 6
-7 7 0 9 -4 6 -10 -3 -5 -36 -9 -73 -9 -54 1 -60 3 -32 8 45 9 60 18 60 37 0
18 14 18 29 1z m3886 -87 c3 -6 -1 -7 -9 -4 -18 7 -21 14 -7 14 6 0 13 -4 16
-10z m-149 -111 c1 -52 4 -179 8 -284 7 -216 -6 -226 -24 -18 -6 70 -17 186
-23 256 -12 114 -11 129 2 137 30 18 36 3 37 -91z m1797 -208 c-8 -12 -11 15
-16 134 l-5 130 12 -130 c6 -71 10 -132 9 -134z m-1103 149 c0 -5 -5 -10 -11
-10 -5 0 -7 5 -4 10 3 6 8 10 11 10 2 0 4 -4 4 -10z m-3627 -90 c-3 -11 -7
-20 -9 -20 -2 0 -4 9 -4 20 0 11 4 20 9 20 5 0 7 -9 4 -20z m3869 -92 c55 -52
36 -39 -75 50 -37 30 -67 56 -67 59 0 8 90 -60 142 -109z m-238 43 c3 -4 -1
-16 -8 -26 -13 -18 -14 -18 -25 2 -8 16 -8 23 2 26 19 8 25 8 31 -2z m-8330
-36 c41 -27 66 -103 66 -197 0 -130 -54 -332 -91 -343 -11 -4 -36 -20 -54 -36
-19 -17 -58 -37 -88 -46 -51 -14 -59 -14 -133 6 -99 27 -214 71 -214 83 0 10
97 171 183 306 39 60 65 92 77 92 12 0 17 6 14 18 -6 19 63 92 111 116 38 20
99 20 129 1z m8327 -126 c4 -49 16 -88 46 -150 23 -46 44 -99 48 -116 l7 -33
56 6 c31 4 94 15 140 25 105 24 148 24 162 2 8 -15 9 -12 5 12 -3 23 -1 21 9
-10 16 -45 21 -88 8 -67 -5 7 -6 -15 -4 -48 5 -74 -6 -86 -88 -95 -30 -3 -74
-8 -97 -11 -29 -3 -43 -1 -43 7 0 8 -5 7 -17 -2 -11 -10 -14 -10 -9 -1 5 8 0
12 -14 12 -11 0 -23 -7 -27 -16 -5 -15 -7 -15 -15 -1 -9 17 -36 13 -51 -7 -6
-7 -7 -4 -3 6 3 10 1 20 -4 23 -6 4 -10 0 -10 -8 0 -10 -7 -13 -18 -11 -15 5
-17 19 -17 117 0 85 -4 120 -17 147 l-17 35 4 -30 c4 -24 0 -20 -18 20 -15 30
-26 44 -29 35 -3 -8 -11 11 -18 43 -12 50 -11 60 1 68 10 6 6 9 -16 9 l-30 0
6 -162 c3 -90 7 -164 7 -166 1 -2 7 0 12 3 6 4 11 -6 11 -22 2 -41 -1 -56 -15
-68 -7 -5 -19 -30 -26 -55 -7 -25 -15 -40 -17 -33 -2 7 0 21 6 31 6 11 8 48 6
83 -3 35 -7 162 -9 282 l-5 218 47 -3 47 -3 6 -66z m-4051 9 c0 -9 3 -9 12 0
7 7 21 12 31 12 16 0 18 -5 13 -26 -4 -16 -3 -23 3 -19 6 3 26 8 44 10 28 4
39 -1 62 -26 23 -27 26 -37 21 -70 -3 -21 -11 -50 -17 -66 -7 -15 -12 -37 -13
-48 -2 -30 -86 -144 -117 -161 -33 -16 -85 -19 -94 -4 -4 6 -12 10 -18 9 -7
-1 -24 1 -39 4 -16 4 -38 9 -50 12 -30 6 -86 57 -88 81 -4 37 1 43 43 54 59
16 96 33 91 42 -3 4 -2 8 3 9 30 3 59 11 68 20 12 13 -18 31 -57 36 -33 3 -94
36 -91 49 1 5 12 12 25 16 20 5 19 6 -9 7 -37 1 -50 16 -33 37 10 11 16 12 26
3 9 -7 14 -8 14 -1 0 18 33 23 50 7 16 -14 18 -14 24 1 4 10 13 14 26 11 11
-3 23 -1 26 4 8 13 44 11 44 -3z m-472 -34 c-4 -3 -12 5 -18 18 -12 22 -12 22
6 6 10 -10 15 -20 12 -24z m5778 -15 c11 -18 -10 -30 -57 -32 -24 -2 -49 -6
-55 -9 -5 -4 -16 -3 -24 3 -21 12 -30 11 -27 -3 1 -8 -24 -19 -63 -29 -87 -23
-90 -23 -90 4 0 22 7 24 108 40 59 10 119 17 134 17 15 0 30 5 33 10 8 13 32
13 41 -1z m-341 -61 c-19 -11 -19 -11 0 -19 16 -6 16 -8 4 -8 -9 -1 -22 6 -29
14 -10 12 -16 13 -27 3 -15 -12 -43 -20 -43 -12 0 10 59 33 85 33 27 0 28 -1
10 -11z m-105 -17 c0 -9 -34 -21 -62 -21 -10 0 -18 5 -18 11 0 6 9 8 20 4 11
-3 20 -3 20 2 0 5 9 9 20 10 11 1 20 -2 20 -6z m395 -1 c-3 -5 -16 -10 -28
-10 -18 0 -19 2 -7 10 20 13 43 13 35 0z m-485 -20 c0 -5 -4 -10 -10 -10 -5 0
-10 5 -10 10 0 6 5 10 10 10 6 0 10 -4 10 -10z m164 -7 c-4 -13 -15 -18 -42
-18 -20 0 -36 -5 -35 -10 1 -6 -7 -11 -17 -11 -10 0 -17 3 -14 7 2 4 1 9 -3
12 -5 2 -3 2 4 1 7 -2 15 1 18 6 4 6 18 10 33 10 15 0 34 5 42 10 19 13 19 13
14 -7z m233 10 c-4 -3 -27 -9 -52 -13 -25 -4 -42 -4 -38 1 13 12 102 25 90 12z
m133 -13 c0 -5 -16 -10 -36 -10 -21 0 -33 4 -29 10 3 6 19 10 36 10 16 0 29
-4 29 -10z m-243 -6 c-3 -3 -12 -4 -19 -1 -8 3 -5 6 6 6 11 1 17 -2 13 -5z
m161 -6 c-6 -18 -28 -21 -28 -4 0 9 7 16 16 16 9 0 14 -5 12 -12z m-48 -8 c0
-11 -64 -30 -101 -30 -48 0 -41 15 13 26 69 15 88 16 88 4z m-374 -12 c4 -7 3
-8 -4 -4 -7 4 -12 2 -12 -3 0 -6 -7 -11 -15 -11 -18 0 -20 16 -2 23 20 9 25 8
33 -5z m-1257 -155 c1 -79 15 -118 39 -108 47 19 211 52 235 47 15 -3 16 -6 5
-20 -11 -13 -11 -15 4 -9 9 3 19 1 22 -6 4 -7 4 -2 2 10 -3 17 0 21 15 18 11
-2 19 0 19 6 0 14 26 11 40 -6 11 -13 15 -13 22 -3 5 8 8 -2 6 -27 -2 -32 -7
-39 -20 -37 -10 2 -18 -3 -18 -9 0 -7 -7 -4 -16 7 -10 13 -17 15 -20 7 -3 -7
-12 -9 -21 -6 -11 4 -14 2 -9 -5 4 -7 3 -12 -2 -12 -6 0 -13 7 -16 16 -3 8 -2
12 4 9 6 -3 10 -1 10 4 0 15 -20 13 -54 -4 -24 -13 -31 -13 -38 -3 -6 10 -8
10 -8 1 0 -7 -7 -13 -15 -13 -8 0 -15 -4 -15 -9 0 -13 -62 -20 -82 -9 -12 6
-18 5 -18 -3 0 -7 -10 -9 -26 -6 l-26 5 6 -57 c4 -31 22 -88 41 -128 19 -40
32 -73 29 -73 -3 0 -27 47 -54 104 -46 98 -77 135 -100 121 -5 -3 -11 -1 -15
5 -3 5 -1 10 4 10 6 0 11 10 11 23 0 12 9 28 20 35 18 11 20 24 21 145 1 100
3 121 10 87 4 -25 8 -73 8 -107z m-202 65 c3 -19 -2 -30 -16 -38 -12 -6 -18
-16 -15 -25 4 -9 -4 -19 -20 -26 -31 -15 -34 -13 -36 26 -3 47 -1 53 22 75 30
28 60 22 65 -12z m1266 22 c11 0 17 -8 17 -24 0 -34 -10 -57 -22 -50 -6 4 -7
-2 -3 -17 14 -45 -15 -5 -36 51 l-20 53 23 -7 c13 -3 31 -6 41 -6z m-506 -217
c-2 -2 -12 -1 -21 3 -13 5 -15 17 -10 78 4 39 10 75 15 81 5 5 10 20 11 35 1
14 4 -24 5 -84 2 -60 2 -110 0 -113z m-8049 160 c65 -41 98 -200 88 -423 -9
-191 -7 -186 -66 -197 l-49 -10 -21 62 c-39 118 -96 190 -207 266 l-71 49 10
37 c5 20 17 47 25 60 8 12 13 29 10 37 -6 15 70 93 113 116 60 32 122 34 168
3z m8705 2 c4 -8 2 -17 -3 -20 -6 -4 -10 3 -10 14 0 25 6 27 13 6z m-1366 -42
c-3 -10 -5 -4 -5 12 0 17 2 24 5 18 2 -7 2 -21 0 -30z m0 -45 c-3 -8 -6 -5 -6
6 -1 11 2 17 5 13 3 -3 4 -12 1 -19z m1171 -48 c0 -32 -1 -33 -8 -10 -4 14 -8
39 -8 55 -1 25 1 27 8 10 5 -11 8 -36 8 -55z m39 48 c-3 -8 -6 -5 -6 6 -1 11
2 17 5 13 3 -3 4 -12 1 -19z m-8901 -90 c-3 -13 -6 -31 -6 -40 0 -22 -9 -22
-34 -3 -18 14 -18 15 5 39 30 32 43 33 35 4z m-46 8 c0 -2 -8 -10 -17 -17 -16
-13 -17 -12 -4 4 13 16 21 21 21 13z m9390 -8 c0 -4 -3 -8 -7 -8 -5 -1 -27 -5
-50 -9 -33 -6 -43 -5 -43 5 0 7 10 14 23 17 38 6 77 4 77 -5z m-1756 -4 c14
-5 13 -9 -4 -34 -11 -15 -20 -33 -20 -40 0 -6 -5 -8 -12 -4 -7 4 -8 3 -4 -5 4
-6 0 -18 -8 -27 -10 -10 -16 -11 -16 -3 0 9 -4 8 -15 -1 -8 -7 -21 -10 -29 -7
-7 3 -26 -1 -41 -9 -45 -23 -67 -19 -63 14 2 20 9 28 27 30 13 2 28 -2 32 -10
7 -10 9 -10 9 0 0 6 3 11 8 10 4 0 18 4 32 10 14 6 18 11 10 12 -8 0 -1 7 17
16 17 9 33 24 36 35 5 20 15 23 41 13z m864 -43 c2 -15 45 -66 104 -127 55
-56 113 -121 130 -143 32 -44 58 -121 34 -102 -7 6 -16 8 -19 4 -4 -3 -7 2 -7
12 0 34 -202 263 -237 268 -25 4 -44 17 -23 17 20 0 -7 27 -34 34 -53 13 -31
69 24 63 18 -1 26 -9 28 -26z m-8643 -57 c-42 -69 -58 -123 -91 -302 -14 -75
-28 -139 -31 -142 -7 -7 -43 43 -43 62 0 27 69 259 94 313 23 50 80 125 96
125 5 0 -7 -25 -25 -56z m128 18 c29 -25 20 -56 -40 -138 -31 -44 -78 -115
-105 -159 -26 -44 -48 -75 -48 -70 2 50 53 251 75 295 48 96 72 111 118 72z
m9335 7 c-2 -6 -8 -10 -13 -10 -5 0 -11 4 -13 10 -2 6 4 11 13 11 9 0 15 -5
13 -11z m-9248 -61 c0 -19 -2 -20 -10 -8 -13 19 -13 30 0 30 6 0 10 -10 10
-22z m75 -28 c24 -17 46 -34 49 -39 3 -4 -9 -35 -26 -67 -18 -33 -42 -88 -55
-124 l-22 -65 0 45 c-1 34 2 41 10 30 11 -15 5 149 -7 218 -4 17 -3 32 1 32 3
0 26 -14 50 -30z m9170 20 c-3 -5 -10 -10 -16 -10 -5 0 -9 5 -9 10 0 6 7 10
16 10 8 0 12 -4 9 -10z m55 0 c0 -5 -7 -10 -15 -10 -8 0 -15 5 -15 10 0 6 7
10 15 10 8 0 15 -4 15 -10z m-9406 -172 c-25 -62 -66 -152 -90 -199 -40 -81
-42 -87 -26 -104 16 -17 15 -17 -13 -10 -38 8 -37 7 -42 51 -5 47 61 186 142
299 32 44 60 86 63 95 6 13 7 13 10 -2 2 -9 -18 -67 -44 -130z m124 -3 l0 -50
-14 70 c-17 94 -17 150 1 80 7 -27 13 -72 13 -100z m9216 100 c-4 -8 -10 -15
-15 -15 -5 0 -9 7 -9 15 0 8 7 15 15 15 9 0 12 -6 9 -15z m61 -5 c-3 -5 -13
-10 -21 -10 -8 0 -14 5 -14 10 0 6 9 10 21 10 11 0 17 -4 14 -10z m-9306 -237
c1 -33 -3 -43 -19 -48 -11 -3 -23 -4 -27 -2 -5 3 -23 -10 -42 -28 -33 -33 -87
-62 -97 -53 -3 3 22 66 54 139 32 74 67 156 77 183 l19 49 17 -99 c10 -54 18
-118 18 -141z m201 176 c32 -45 70 -137 70 -172 0 -20 -5 -22 -48 -22 -31 0
-65 -9 -100 -26 l-52 -26 0 28 c0 74 64 259 89 259 6 0 24 -18 41 -41z m7786
-91 c83 -172 94 -192 88 -169 -4 14 -2 21 4 17 5 -3 12 -15 15 -26 3 -11 1
-18 -4 -14 -5 3 -9 2 -9 -1 0 -12 43 -92 77 -140 l34 -50 -38 41 c-26 28 -68
105 -129 237 -51 109 -89 195 -85 193 4 -3 25 -42 47 -88z m1274 82 c0 -5 -4
-10 -9 -10 -6 0 -13 5 -16 10 -3 6 1 10 9 10 9 0 16 -4 16 -10z m-2170 -80 c0
-5 -5 -10 -11 -10 -6 0 -9 -6 -6 -12 2 -7 9 -12 15 -11 5 1 9 -4 8 -12 -3 -22
-10 -23 -27 -5 -11 11 -13 23 -8 38 8 22 29 31 29 12z m-4140 -51 c0 -6 -4 -7
-10 -4 -5 3 -10 11 -10 16 0 6 5 7 10 4 6 -3 10 -11 10 -16z m275 11 c3 -5 1
-10 -4 -10 -6 0 -11 5 -11 10 0 6 2 10 4 10 3 0 8 -4 11 -10z m-251 -56 c6
-10 15 -22 19 -25 5 -4 7 -17 5 -30 -3 -21 -7 -16 -31 29 -15 30 -22 52 -15
50 6 -2 16 -13 22 -24z m501 -121 c14 -41 27 -84 28 -94 1 -10 5 -19 9 -19 4
0 8 -15 8 -34 0 -19 4 -37 10 -41 5 -3 7 -12 4 -19 -3 -7 1 -20 9 -28 9 -9 13
-25 10 -41 -4 -20 -1 -27 11 -27 9 0 17 -8 18 -17 2 -24 4 -35 11 -53 5 -14
17 -59 23 -87 1 -6 7 -27 13 -45 6 -18 11 -37 10 -42 0 -5 3 -12 8 -15 4 -3
14 -28 21 -56 7 -27 16 -52 20 -55 4 -3 8 -14 10 -25 2 -12 0 -16 -5 -9 -4 6
-16 13 -25 17 -10 3 -18 12 -18 19 0 9 3 8 10 -2 8 -12 10 -11 10 8 0 12 -6
22 -14 22 -8 0 -18 5 -22 12 -4 7 -3 8 4 4 7 -4 12 -1 12 9 0 9 -4 14 -9 11
-5 -3 -15 2 -22 11 -12 15 -12 16 4 10 9 -3 17 -2 17 2 0 5 -7 12 -16 15 -9 4
-14 13 -10 22 3 8 2 12 -4 9 -10 -6 -14 6 -11 38 1 9 -3 17 -9 17 -6 0 -9 4
-5 9 7 12 -33 131 -51 152 -8 8 -14 22 -14 30 0 8 -7 24 -15 36 -9 12 -15 26
-14 30 1 4 -3 21 -9 36 -7 15 -21 71 -32 125 -11 53 -27 119 -35 146 -8 27
-15 54 -15 60 1 22 49 -69 75 -141z m5695 137 c0 -5 -4 -10 -10 -10 -5 0 -10
5 -10 10 0 6 5 10 10 10 6 0 10 -4 10 -10z m-5986 -26 c3 -8 2 -12 -4 -9 -6 3
-10 10 -10 16 0 14 7 11 14 -7z m3916 6 c0 -5 -2 -10 -4 -10 -3 0 -8 5 -11 10
-3 6 -1 10 4 10 6 0 11 -4 11 -10z m-3183 -21 c12 -4 34 -21 48 -38 15 -16 40
-35 56 -42 52 -21 24 -21 -34 1 -59 22 -137 74 -137 91 0 10 16 7 67 -12z
m-683 -5 c3 -8 2 -12 -4 -9 -6 3 -10 10 -10 16 0 14 7 11 14 -7z m-3004 -1 c0
-18 -145 -92 -156 -80 -12 12 10 30 70 58 61 29 86 35 86 22z m6855 -3 c3 -6
-1 -7 -9 -4 -18 7 -21 14 -7 14 6 0 13 -4 16 -10z m-3890 -28 c-3 -3 -11 0
-18 7 -9 10 -8 11 6 5 10 -3 15 -9 12 -12z m-3540 -87 c-9 -63 -28 -98 -22
-41 3 32 1 36 -7 22 -34 -56 -37 -53 -33 20 5 91 12 102 44 72 22 -20 24 -28
18 -73z m3352 43 c-3 -8 -6 -5 -6 6 -1 11 2 17 5 13 3 -3 4 -12 1 -19z m83 18
c0 -3 -4 -8 -10 -11 -5 -3 -10 -1 -10 4 0 6 5 11 10 11 6 0 10 -2 10 -4z m44
-12 c3 -8 2 -12 -4 -9 -6 3 -10 10 -10 16 0 14 7 11 14 -7z m6274 9 c-10 -2
-28 -2 -40 0 -13 2 -5 4 17 4 22 1 32 -1 23 -4z m-5783 -22 c7 -12 -12 -24
-25 -16 -11 7 -4 25 10 25 5 0 11 -4 15 -9z m4551 -93 c37 -53 43 -68 17 -47
-25 21 -83 116 -83 136 1 13 5 9 17 -12 9 -16 31 -51 49 -77z m1259 92 c4 -6
-10 -10 -34 -10 -23 0 -41 5 -41 10 0 6 15 10 34 10 19 0 38 -4 41 -10z m62 4
c-3 -3 -12 -4 -19 -1 -8 3 -5 6 6 6 11 1 17 -2 13 -5z m101 -1 c-15 -2 -42 -2
-60 0 -18 2 -6 4 27 4 33 0 48 -2 33 -4z m-6480 -9 c21 -6 33 -44 12 -44 -5 0
-7 6 -4 14 4 9 -2 13 -20 11 -17 -2 -26 2 -26 11 0 16 5 16 38 8z m6205 -18
c-5 -25 -54 -46 -111 -46 -36 0 -43 8 -35 38 6 23 23 29 99 31 49 1 51 0 47
-23z m-9612 -40 c-18 -22 -29 -12 -23 20 4 23 6 24 20 10 13 -12 13 -18 3 -30z
m3926 30 c-6 -16 22 -46 44 -46 11 -1 11 -3 -2 -13 -9 -7 -14 -18 -11 -26 4
-11 6 -11 13 0 7 11 13 9 29 -11 16 -20 17 -27 6 -35 -13 -11 -11 -35 5 -35 4
0 6 8 2 18 -4 13 -3 14 6 6 7 -6 13 -20 14 -32 0 -11 5 -18 9 -16 5 3 11 -2
15 -11 3 -10 0 -21 -7 -25 -8 -5 -9 -9 -1 -14 6 -4 11 -2 11 3 0 17 17 13 24
-6 4 -9 1 -20 -5 -24 -9 -5 -6 -15 10 -34 11 -15 21 -34 21 -41 0 -8 5 -14 10
-14 6 0 9 -3 8 -7 -4 -12 26 -73 34 -73 5 0 8 -9 8 -19 0 -11 5 -23 10 -26 6
-4 8 -15 5 -26 -4 -10 -2 -19 3 -19 5 0 10 -12 10 -26 0 -15 3 -29 8 -33 5 -3
10 -16 10 -29 2 -32 -23 -10 -31 29 -4 16 -11 29 -16 29 -6 0 -9 6 -8 13 3 18
-17 61 -35 76 -9 7 -16 20 -16 27 0 8 -5 14 -10 14 -6 0 -17 18 -26 40 -9 22
-20 40 -24 40 -11 0 -31 60 -24 71 3 5 -1 9 -10 9 -12 0 -25 30 -28 67 -1 5
-8 13 -16 19 -8 6 -12 16 -8 23 4 6 0 14 -8 17 -9 3 -16 12 -16 20 0 12 -29
82 -48 118 -3 5 0 6 6 2 7 -4 12 -2 12 3 0 6 5 11 11 11 6 0 9 -6 6 -14z
m-4172 -36 c3 -5 1 -10 -4 -10 -6 0 -11 5 -11 10 0 6 2 10 4 10 3 0 8 -4 11
-10z m3682 -32 c-3 -8 -6 -5 -6 6 -1 11 2 17 5 13 3 -3 4 -12 1 -19z m6151 15
c-10 -2 -26 -2 -35 0 -10 3 -2 5 17 5 19 0 27 -2 18 -5z m-68 -11 c0 -9 -62
-34 -69 -27 -2 3 4 12 15 20 20 15 54 20 54 7z m-5890 -32 c0 -5 -4 -10 -10
-10 -5 0 -10 5 -10 10 0 6 5 10 10 10 6 0 10 -4 10 -10z m3764 -2 c-3 -4 -9
-8 -15 -8 -5 0 -9 4 -9 8 0 5 7 9 15 9 8 0 12 -4 9 -9z m-3767 -38 c-6 -22 8
-28 16 -7 2 6 5 -6 5 -28 1 -67 12 -228 18 -255 4 -19 2 -22 -6 -14 -6 6 -11
30 -12 53 0 22 -5 41 -10 41 -6 0 -8 6 -5 13 2 6 0 40 -5 75 -7 47 -6 67 3 78
10 12 9 13 -5 8 -13 -5 -16 0 -16 25 0 17 5 31 11 31 6 0 9 -9 6 -20z m1413
-26 c0 -8 -5 -12 -10 -9 -6 4 -8 11 -5 16 9 14 15 11 15 -7z m-1775 -4 c3 -6
-1 -7 -9 -4 -18 7 -21 14 -7 14 6 0 13 -4 16 -10z m975 -35 c7 -8 18 -15 26
-15 7 0 21 -16 30 -35 9 -19 23 -35 30 -35 8 0 14 -4 14 -10 0 -5 8 -10 18
-10 10 0 28 -13 40 -30 12 -16 34 -33 47 -36 14 -3 25 -9 26 -13 6 -36 2 -66
-8 -66 -7 0 -12 3 -10 6 6 15 -27 39 -46 33 -14 -5 -19 -3 -15 7 6 15 -16 42
-26 32 -6 -6 -96 81 -96 93 0 3 -13 23 -30 44 -16 21 -30 41 -30 44 0 11 18 6
30 -9z m-952 -15 c-7 -11 -15 -15 -17 -9 -2 6 3 15 10 20 20 12 21 11 7 -11z
m-2942 -37 c-10 -10 -19 5 -10 18 6 11 8 11 12 0 2 -7 1 -15 -2 -18z m2961
-65 c-3 -7 -5 -2 -5 12 0 14 2 19 5 13 2 -7 2 -19 0 -25z m1753 28 c0 -3 -4
-8 -10 -11 -5 -3 -10 -1 -10 4 0 6 5 11 10 11 6 0 10 -2 10 -4z m-1743 -108
c-3 -8 -6 -5 -6 6 -1 11 2 17 5 13 3 -3 4 -12 1 -19z m183 -8 c0 -5 0 -12 0
-15 0 -14 -13 -8 -16 8 -1 9 2 17 7 17 5 0 9 -4 9 -10z m1114 -12 c-3 -5 -10
-6 -15 -2 -5 3 -16 0 -24 -6 -8 -7 -20 -10 -27 -7 -8 4 -7 6 5 6 9 1 17 5 17
11 0 5 11 9 24 8 14 -1 22 -6 20 -10z m4104 -27 c22 -11 82 -60 134 -109 52
-49 115 -101 141 -116 44 -26 61 -56 39 -70 -18 -11 -121 62 -211 149 -53 51
-116 103 -141 115 -79 40 -171 26 -320 -51 -90 -47 -170 -106 -186 -138 -19
-38 -34 -48 -34 -23 0 16 -4 20 -16 15 -14 -5 -16 -2 -10 20 5 23 2 29 -35 47
-32 17 -44 19 -55 9 -11 -9 -14 -8 -14 5 0 24 38 20 94 -10 l48 -26 27 25 c14
14 59 46 99 72 187 120 322 146 440 86z m1137 -76 c-4 -42 -9 -74 -12 -71 -3
2 -2 39 2 81 4 42 10 74 12 71 3 -3 2 -39 -2 -81z m-5345 61 c0 -11 -19 -15
-25 -6 -3 5 1 10 9 10 9 0 16 -2 16 -4z m26 -21 c-14 -14 -16 -14 -16 -2 0 9
6 17 13 20 19 7 21 -1 3 -18z m4724 21 c0 -3 -4 -8 -10 -11 -5 -3 -10 -1 -10
4 0 6 5 11 10 11 6 0 10 -2 10 -4z m-5515 -25 c-3 -6 -11 -8 -17 -5 -6 4 -5 9
3 15 16 10 23 4 14 -10z m4913 7 c5 -7 15 -31 21 -53 6 -22 27 -69 47 -105
123 -220 127 -229 121 -305 -5 -75 4 -105 43 -140 12 -11 26 -29 32 -40 5 -11
-7 0 -29 24 -23 26 -45 42 -55 40 -9 -2 -16 -1 -15 2 4 15 -40 51 -102 85 -36
20 -81 46 -100 58 -19 11 -73 37 -120 56 -84 35 -109 61 -66 68 12 2 16 0 8
-5 -6 -5 10 -8 38 -9 48 0 49 0 69 43 11 23 20 47 20 52 0 6 10 27 23 48 17
29 22 55 23 108 1 39 2 73 3 78 2 11 28 8 39 -5z m-4044 -13 c-4 -8 -7 -15 -9
-15 -2 0 -5 7 -9 15 -3 9 0 15 9 15 9 0 12 -6 9 -15z m-1364 1 c0 -2 -7 -7
-16 -10 -8 -3 -12 -2 -9 4 6 10 25 14 25 6z m30 -26 c12 -23 12 -24 -3 -11
-10 7 -17 20 -17 29 0 18 3 16 20 -18z m4167 24 c-3 -3 -12 -4 -19 -1 -8 3 -5
6 6 6 11 1 17 -2 13 -5z m-3710 -20 c-3 -3 3 -15 14 -27 21 -23 24 -37 9 -37
-5 0 -10 7 -10 16 0 8 -4 13 -8 10 -4 -2 -14 -1 -22 5 -10 6 -11 9 -2 9 6 0
11 3 11 8 -2 13 1 22 8 22 3 0 4 -3 0 -6z m3729 -12 c1 -7 0 -8 -3 -2 -2 5 -9
8 -14 4 -5 -3 -9 0 -9 6 0 15 23 7 26 -8z m-4166 -56 c0 -5 -7 -3 -15 4 -8 7
-12 17 -9 22 7 10 24 -9 24 -26z m210 20 c0 -2 -8 -10 -17 -17 -16 -13 -17
-12 -4 4 13 16 21 21 21 13z m224 -21 c-4 -8 1 -26 10 -40 9 -14 12 -25 6 -25
-11 0 -30 41 -30 66 0 8 4 14 10 14 5 0 7 -7 4 -15z m-444 -40 c0 -5 -5 -3
-10 5 -5 8 -10 20 -10 25 0 6 5 3 10 -5 5 -8 10 -19 10 -25z m6547 -67 c-2
-13 -4 -3 -4 22 0 25 2 35 4 23 2 -13 2 -33 0 -45z m-9457 7 c0 -31 -14 -39
-34 -19 -16 16 -13 34 5 34 6 0 7 -5 3 -12 -5 -7 -3 -8 5 -4 7 5 10 15 7 23
-3 8 -1 11 4 8 6 -3 10 -17 10 -30z m2921 12 c-10 -9 -11 -8 -5 6 3 10 9 15
12 12 3 -3 0 -11 -7 -18z m942 10 c3 -8 1 -20 -4 -28 -5 -9 -9 -9 -9 -2 0 6
-3 18 -6 27 -3 9 -2 16 4 16 5 0 12 -6 15 -13z m-483 -7 c0 -5 -4 -10 -10 -10
-5 0 -10 5 -10 10 0 6 5 10 10 10 6 0 10 -4 10 -10z m4030 -15 c0 -8 -4 -15
-10 -15 -5 0 -10 7 -10 15 0 8 5 15 10 15 6 0 10 -7 10 -15z m287 3 c16 -7 35
-19 43 -25 8 -7 29 -24 45 -38 l30 -26 -46 25 c-26 14 -49 22 -53 19 -4 -4 -9
3 -13 15 -3 12 -11 22 -19 22 -7 0 -16 5 -19 10 -8 13 -3 13 32 -2z m-177 -18
c-10 -6 -11 -10 -2 -10 6 0 12 -5 12 -11 0 -5 -5 -7 -10 -4 -6 4 -17 1 -25 -5
-12 -10 -15 -9 -15 8 0 20 12 30 40 31 13 1 13 0 0 -9z m385 -60 c51 -38 100
-70 109 -70 9 0 24 -4 34 -10 9 -5 35 -17 57 -27 22 -9 55 -28 74 -40 19 -13
46 -26 60 -30 34 -8 148 -96 132 -101 -8 -3 1 -18 24 -42 38 -39 39 -60 3 -60
-12 0 -18 -5 -15 -13 8 -22 -182 -3 -393 40 -41 9 -90 18 -108 20 -35 6 -67
43 -36 43 9 0 58 -13 108 -29 99 -32 270 -61 357 -61 l53 0 -21 21 c-18 18
-35 21 -134 25 -63 2 -130 8 -149 13 -32 8 -29 9 30 10 l64 1 -39 40 c-21 22
-34 40 -28 40 7 0 15 -4 18 -10 3 -5 15 -10 26 -10 10 0 28 -9 39 -20 20 -20
100 -29 100 -11 0 14 -116 58 -175 66 -112 15 -114 16 -108 33 3 9 3 14 -2 10
-4 -4 -14 -3 -21 3 -8 6 -21 9 -29 5 -13 -5 -15 0 -10 28 6 28 2 36 -25 59
-29 25 -30 32 -6 28 5 -1 3 6 -5 16 -23 28 -63 62 -74 63 -11 0 -19 40 -8 40
2 0 47 -31 98 -70z m42 34 c47 -27 92 -35 58 -11 -14 11 -15 16 -5 22 8 5 11
4 6 -3 -3 -6 3 -13 14 -17 11 -4 18 -10 15 -15 -3 -5 1 -11 7 -13 8 -3 6 -6
-5 -6 -10 -1 -15 -5 -12 -11 10 -16 -10 -11 -36 9 -13 10 -49 33 -79 50 -30
18 -44 29 -30 26 14 -4 44 -18 67 -31z m-4076 -7 c-10 -9 -11 -8 -5 6 3 10 9
15 12 12 3 -3 0 -11 -7 -18z m3764 -6 c-16 -15 -108 -30 -125 -21 -16 9 2 15
65 23 58 8 69 7 60 -2z m1801 -126 c-8 -55 -14 -86 -15 -70 -1 38 22 205 26
185 2 -8 -3 -60 -11 -115z m-6546 85 c9 15 33 -50 28 -77 -1 -10 1 -24 5 -30
5 -9 2 -13 -8 -13 -13 0 -15 6 -10 30 4 20 3 30 -5 30 -6 0 -8 -4 -5 -10 3 -5
1 -10 -5 -10 -7 0 -9 8 -5 20 3 11 3 20 -2 20 -4 0 -9 12 -9 28 -1 15 1 21 3
13 4 -10 7 -10 13 -1z m565 0 c48 -18 75 -58 75 -111 0 -53 -27 -125 -58 -152
-50 -45 -159 -41 -208 8 -44 44 -28 135 37 209 47 54 95 69 154 46z m3560 -40
c8 -45 -5 -70 -36 -70 -35 0 -35 70 0 97 25 19 29 16 36 -27z m449 -2 c-3 -5
-12 -4 -20 3 -7 6 -11 15 -8 21 3 5 12 4 20 -3 7 -6 11 -15 8 -21z m179 22
c24 0 36 -4 32 -10 -4 -6 -15 -8 -26 -5 -21 7 -25 -5 -7 -23 19 -19 0 -14 -43
10 -43 24 -52 44 -16 34 12 -3 39 -6 60 -6z m-4910 -38 c9 -8 17 -11 17 -6 0
5 11 -3 25 -18 14 -15 22 -34 19 -42 -4 -10 2 -15 18 -18 16 -2 22 -9 20 -22
-2 -12 1 -16 9 -11 9 6 10 0 5 -21 -4 -18 -3 -24 2 -16 7 10 11 10 22 -3 7 -8
9 -15 4 -15 -4 0 -3 -5 4 -12 7 -7 12 -17 12 -22 0 -7 -3 -7 -8 0 -4 7 -15 8
-27 3 -17 -6 -17 -8 -2 -8 9 -1 17 -6 17 -12 0 -6 7 -9 15 -5 13 4 13 2 5 -14
-13 -24 -13 -40 0 -20 6 10 10 11 10 3 0 -7 4 -13 10 -13 5 0 7 8 3 18 -5 14
-3 15 8 4 11 -10 11 -17 -3 -40 -8 -15 -13 -34 -11 -42 4 -13 3 -13 -5 -1 -6
8 -8 20 -6 26 8 20 -29 28 -42 11 -14 -20 -24 -20 -24 0 0 8 -5 12 -10 9 -6
-4 -8 -11 -5 -16 4 -5 1 -9 -4 -9 -6 0 -11 5 -11 10 0 6 -6 10 -14 10 -8 0
-17 6 -19 13 -4 9 -8 9 -15 -2 -9 -12 -13 -12 -26 -2 -9 7 -13 17 -10 22 3 5
2 9 -3 8 -27 -5 -73 2 -68 11 3 5 12 7 20 3 8 -3 15 0 15 7 0 6 -4 8 -10 5 -5
-3 -10 -1 -10 5 0 6 -12 21 -26 33 l-25 22 20 22 c18 19 19 22 3 28 -15 6 -14
8 7 20 25 13 40 51 17 42 -7 -3 -13 1 -13 8 0 7 7 12 16 11 10 -1 17 9 19 25
3 30 28 35 55 11z m5047 8 c-20 -13 -33 -13 -25 0 3 6 14 10 23 10 15 0 15 -2
2 -10z m-90 -20 c0 -5 -4 -10 -10 -10 -5 0 -10 5 -10 10 0 6 5 10 10 10 6 0
10 -4 10 -10z m-214 -53 c8 3 14 0 14 -7 0 -16 -43 -8 -48 10 -3 12 -2 12 8 3
7 -6 19 -9 26 -6z m-397 -60 c-2 -2 -20 -14 -39 -26 l-35 -23 30 26 c17 14 34
26 39 26 5 0 7 -1 5 -3z m2338 -64 c-3 -10 -5 -2 -5 17 0 19 2 27 5 18 2 -10
2 -26 0 -35z m-1887 16 c0 -18 -2 -19 -15 -9 -8 7 -15 16 -15 21 0 5 7 9 15 9
9 0 15 -9 15 -21z m-545 -18 c3 -5 -5 -17 -17 -25 -25 -18 -27 -16 32 -38 25
-9 72 -28 105 -43 92 -40 10 -24 -98 20 -48 19 -95 35 -104 34 -10 0 2 -7 27
-14 26 -8 57 -26 70 -41 l25 -27 -46 27 c-30 17 -61 26 -90 26 -39 1 -42 2
-26 14 9 7 17 15 17 18 0 2 -32 4 -70 4 -39 -1 -70 0 -70 1 0 6 50 28 90 39
54 15 147 18 155 5z m124 -17 c9 -8 -55 -2 -74 6 -13 6 -5 7 25 3 25 -3 47 -7
49 -9z m71 -10 c0 -2 -7 -4 -15 -4 -8 0 -15 4 -15 10 0 5 7 7 15 4 8 -4 15 -8
15 -10z m70 -30 c119 -22 273 -73 266 -89 -8 -21 14 -32 79 -39 129 -16 136
-16 130 4 -5 14 -2 17 14 13 12 -3 17 -11 14 -19 -6 -16 32 -20 41 -5 3 5 20
-4 36 -19 17 -16 41 -31 53 -33 l22 -4 -22 -8 c-13 -4 -23 -11 -23 -15 0 -13
-64 -9 -72 4 -9 14 -14 7 -22 -30 -6 -27 -4 -31 16 -30 20 1 22 -4 25 -59 2
-41 -3 -72 -15 -99 l-18 -40 43 -44 c24 -24 43 -52 43 -62 0 -40 -13 -80 -27
-80 -14 0 -17 6 -27 51 -6 28 -27 42 -49 34 -18 -7 -13 -76 7 -87 21 -12 21
-40 -1 -36 -9 2 -17 13 -18 26 -2 33 -18 44 -67 49 -24 3 -46 8 -50 12 -9 8 2
51 13 51 5 0 9 20 9 45 l0 45 51 0 c38 0 55 5 65 18 21 26 17 85 -6 110 -22
24 -64 29 -76 11 -4 -8 -12 -3 -20 14 -11 20 -24 26 -66 32 -29 3 -67 11 -84
16 -31 9 -31 11 -23 47 13 57 12 59 -36 73 -25 7 -45 17 -45 21 0 4 -8 8 -17
8 -10 0 -26 7 -37 15 -17 13 -17 15 -3 30 14 14 21 13 69 -5 56 -21 89 -26 72
-11 -25 23 -255 78 -372 88 -40 3 -75 9 -77 13 -6 10 110 1 205 -16z m-2478
-35 c21 -11 44 -32 53 -49 20 -38 20 -129 -1 -158 -22 -31 -36 -27 -18 6 17
32 17 46 4 92 -17 58 -34 72 -92 77 -44 4 -59 1 -78 -16 l-25 -20 77 -35 c60
-27 79 -41 84 -60 11 -45 -6 -48 -36 -8 -19 27 -42 43 -72 54 -40 13 -45 13
-45 -1 0 -9 5 -19 11 -23 7 -5 4 -8 -6 -8 -10 0 -22 -8 -27 -19 -18 -34 -91
-34 -153 -1 -27 15 -34 -11 -8 -32 17 -14 19 -18 6 -18 -21 0 -21 -16 0 -24
25 -9 64 -7 64 4 0 6 6 10 13 10 24 -1 -36 -40 -62 -40 -48 0 -69 24 -69 77 0
26 4 56 10 66 5 10 8 21 5 23 -2 2 -39 -7 -81 -22 -43 -14 -80 -24 -82 -21 -2
2 40 21 93 42 54 21 109 46 123 55 39 27 112 63 145 71 42 11 123 0 167 -22z
m2028 16 c0 -3 -15 -11 -32 -19 -61 -26 -115 -73 -139 -123 -16 -33 -25 -43
-27 -30 -6 30 42 92 105 135 51 35 93 52 93 37z m2607 -32 c-3 -10 -5 -4 -5
12 0 17 2 24 5 18 2 -7 2 -21 0 -30z m-6468 -45 c-2 -48 -2 -49 -8 -18 -6 33
-3 70 5 70 2 0 3 -24 3 -52z m3871 43 c0 -17 34 -22 42 -6 5 8 17 15 26 15 34
0 -50 -63 -88 -65 -19 -1 -46 -5 -58 -9 -21 -7 -23 -6 -13 12 21 40 91 80 91
53z m1649 -5 c9 -11 8 -15 -5 -20 -20 -8 -39 7 -30 23 10 15 21 14 35 -3z
m-611 -19 c7 -5 12 -3 12 7 0 21 36 21 44 0 4 -10 -1 -22 -11 -31 -10 -8 -12
-11 -5 -8 10 5 13 0 10 -21 -2 -19 -10 -30 -22 -32 -10 -2 -16 0 -12 6 9 15
-22 42 -48 42 -13 0 -29 7 -36 15 -7 9 -15 13 -18 10 -6 -6 -32 14 -32 24 0 9
101 -2 118 -12z m-5848 -42 c28 -19 69 -40 91 -46 21 -7 39 -17 39 -23 0 -36
33 -328 40 -361 5 -22 10 -50 10 -62 0 -34 -34 -63 -75 -63 -37 0 -95 -24 -95
-39 0 -5 -9 -11 -19 -14 -19 -5 -21 3 -6 37 6 13 4 21 -3 24 -7 2 -12 8 -12
13 0 6 5 7 12 3 7 -5 8 -3 3 6 -5 8 -8 33 -9 57 0 24 -3 43 -6 43 -4 0 -7 15
-7 33 0 17 -3 41 -6 52 -4 16 -16 118 -23 185 0 8 -2 18 -3 23 0 4 -1 10 -2
15 0 4 -5 12 -10 18 -6 8 -4 14 6 18 8 3 15 10 15 16 0 6 -4 8 -10 5 -7 -4 -7
3 0 20 6 15 10 37 10 51 0 13 2 24 4 24 2 0 27 -16 56 -35z m5957 29 c-3 -3
-12 -4 -19 -1 -8 3 -5 6 6 6 11 1 17 -2 13 -5z m-863 -13 c3 -5 -3 -11 -14
-14 -20 -5 -26 3 -13 16 9 10 21 9 27 -2z m-60 -10 c3 -5 -1 -11 -9 -15 -9 -3
-15 0 -15 9 0 16 16 20 24 6z m1543 -28 c-3 -10 -5 -4 -5 12 0 17 2 24 5 18 2
-7 2 -21 0 -30z m-3318 5 c20 -12 62 -46 94 -75 32 -29 65 -53 73 -53 8 0 50
18 94 40 44 22 88 40 98 40 10 0 35 -12 55 -27 49 -38 167 -170 167 -188 0
-12 -15 -15 -70 -15 -62 0 -70 2 -70 19 0 26 -22 41 -49 34 -17 -4 -22 -11
-18 -29 3 -16 -2 -24 -15 -27 -13 -4 -18 0 -18 17 0 25 30 54 49 48 8 -3 11 0
7 6 -7 11 -173 28 -183 18 -4 -3 1 -12 10 -19 9 -6 38 -55 64 -108 l48 -95 23
28 c25 30 44 28 60 -5 9 -19 11 -20 11 -3 1 15 4 16 15 7 11 -9 20 -10 36 -1
11 6 24 8 29 5 5 -3 12 1 14 7 4 10 7 10 15 0 6 -10 20 -11 53 -3 41 8 73 8
174 -3 39 -4 100 -24 80 -26 -5 0 -4 -4 4 -9 12 -7 8 -18 -17 -56 -17 -26 -43
-54 -57 -61 -14 -7 -23 -9 -20 -4 10 17 -5 11 -28 -10 -12 -12 -23 -16 -25
-10 -6 17 -20 11 -27 -10 -3 -11 -13 -20 -21 -20 -8 0 -12 5 -9 11 5 7 -3 9
-24 6 -19 -3 -29 -1 -25 5 3 5 -3 12 -15 15 -11 3 -18 10 -14 16 4 6 1 7 -6 2
-8 -4 -18 1 -27 13 -8 11 -27 23 -43 27 -18 4 -31 14 -35 28 -6 22 -7 21 -30
-7 -13 -16 -28 -26 -34 -22 -18 11 -43 -5 -37 -24 3 -11 0 -17 -10 -17 -10 0
-14 6 -10 14 3 10 -1 13 -13 11 -10 -2 -18 -14 -20 -30 -5 -46 -62 -48 -62 -2
0 38 -54 37 -104 -1 -18 -14 -37 -25 -43 -25 -5 0 -20 -10 -33 -22 -41 -40
-83 -68 -91 -62 -5 3 -19 -4 -31 -15 -27 -26 -68 -27 -95 -3 -55 46 -78 62
-104 67 -19 4 -39 24 -66 64 -31 47 -46 60 -78 69 -42 12 -71 43 -85 91 -7 26
-3 34 45 79 30 27 56 47 59 44 4 -3 6 2 6 12 0 9 -4 14 -10 11 -5 -3 -10 -2
-10 4 0 6 -12 17 -27 24 l-27 15 25 1 c54 3 74 6 80 14 8 11 49 17 49 7 0 -5
17 -4 38 2 35 10 276 6 367 -7 26 -3 7 6 -54 28 -92 31 -95 33 -108 72 -14 41
-9 95 9 95 6 0 27 -10 47 -22z m1421 8 c0 -2 -8 -10 -17 -17 -16 -13 -17 -12
-4 4 13 16 21 21 21 13z m111 -42 c-5 -16 -10 -21 -10 -12 -1 18 10 51 15 45
2 -1 -1 -16 -5 -33z m144 16 c3 -5 1 -10 -4 -10 -6 0 -11 5 -11 10 0 6 2 10 4
10 3 0 8 -4 11 -10z m386 -17 c-8 -15 -10 -15 -11 -2 0 17 10 32 18 25 2 -3
-1 -13 -7 -23z m1159 -48 c51 -78 48 -96 -3 -28 -20 27 -40 53 -45 58 -7 9 -5
35 3 35 1 0 22 -29 45 -65z m93 34 c3 -13 -2 -28 -14 -40 -30 -30 -41 -23 -24
17 8 20 15 38 15 40 0 14 19 0 23 -17z m-1177 -22 c-1 -26 -5 -33 -17 -30 -11
3 -14 13 -11 34 6 41 29 37 28 -4z m-3155 3 c25 0 79 -27 79 -40 0 -18 -23
-22 -32 -6 -16 28 -55 38 -88 21 -25 -13 -29 -13 -34 0 -3 9 5 20 22 29 15 8
29 10 30 5 2 -5 13 -9 23 -9z m3758 -3 c8 -11 6 -18 -9 -32 -11 -10 -20 -13
-20 -7 0 5 -9 8 -20 5 -16 -4 -20 0 -20 21 0 22 4 26 29 26 16 0 34 -6 40 -13z
m196 2 c10 -14 1 -21 -19 -13 -9 3 -13 10 -10 15 7 12 21 11 29 -2z m-1418
-31 c-3 -8 -6 -5 -6 6 -1 11 2 17 5 13 3 -3 4 -12 1 -19z m120 -15 c-3 -3 -11
-2 -17 2 -9 6 -9 10 1 16 14 8 27 -7 16 -18z m403 18 c0 -5 -7 -11 -15 -15
-15 -5 -20 5 -8 17 9 10 23 9 23 -2z m-3190 -21 c0 -13 -7 -20 -20 -20 -25 0
-26 16 -2 29 23 14 22 14 22 -9z m585 9 c11 -17 -1 -21 -15 -4 -8 9 -8 15 -2
15 6 0 14 -5 17 -11z m3353 -31 c4 -42 -10 -100 -23 -105 -6 -2 -10 29 -10 72
0 62 3 75 15 73 9 -2 16 -17 18 -40z m-951 26 c-3 -3 -12 -4 -19 -1 -8 3 -5 6
6 6 11 1 17 -2 13 -5z m-2352 -14 c3 -5 1 -10 -4 -10 -6 0 -11 5 -11 10 0 6 2
10 4 10 3 0 8 -4 11 -10z m2250 0 c-3 -5 -12 -7 -20 -3 -21 7 -19 13 6 13 11
0 18 -4 14 -10z m-46 -3 c-2 -1 -11 -8 -20 -15 -13 -10 -19 -9 -29 3 -11 13
-8 15 20 15 19 0 31 -1 29 -3z m423 -9 c-9 -9 -15 -9 -24 0 -9 9 -7 12 12 12
19 0 21 -3 12 -12z m73 -8 c-27 -12 -35 -12 -35 0 0 6 12 10 28 9 24 0 25 -1
7 -9z m-45 -31 c0 -11 -4 -17 -10 -14 -5 3 -10 13 -10 21 0 8 5 14 10 14 6 0
10 -9 10 -21z m976 1 c0 -11 -4 -20 -8 -20 -10 0 -11 24 -1 33 9 9 9 10 9 -13z
m-421 -19 c-3 -9 2 -26 11 -37 14 -18 15 -17 11 14 -2 20 0 31 7 29 9 -3 10
-66 1 -75 -2 -2 -14 4 -28 13 -23 14 -33 56 -20 78 8 14 24 -4 18 -22z m1515
9 c21 -7 19 -8 -17 -9 -23 -1 -45 4 -48 9 -7 12 29 12 65 0z m-1325 -28 c-3
-3 -11 0 -18 7 -9 10 -8 11 6 5 10 -3 15 -9 12 -12z m735 2 c0 -2 -7 -4 -15
-4 -8 0 -15 4 -15 10 0 5 7 7 15 4 8 -4 15 -8 15 -10z m-3300 -7 c0 -7 -9 -18
-20 -25 -17 -10 -23 -10 -35 1 -10 11 -11 17 -2 26 15 15 57 14 57 -2z m1910
4 c0 -5 -7 -11 -15 -15 -15 -5 -20 5 -8 17 9 10 23 9 23 -2z m1322 -29 c-10
-3 -10 -7 -1 -18 9 -11 9 -14 -1 -14 -14 0 -49 40 -50 57 0 8 10 6 32 -5 18
-8 27 -17 20 -20z m164 29 c5 9 46 10 158 5 215 -10 305 -27 266 -51 -6 -4 -8
-11 -5 -16 10 -15 -42 -10 -55 6 -11 14 -14 13 -24 -1 -10 -13 -27 -15 -106
-10 -59 3 -96 10 -102 18 -6 10 -8 10 -8 0 0 -19 -40 -6 -62 20 -10 11 -18 16
-18 11 0 -5 -13 -8 -30 -5 -22 3 -30 0 -30 -11 0 -9 -12 -17 -32 -20 -37 -5
-58 0 -58 15 0 5 6 8 13 7 6 -1 25 -1 41 0 23 1 26 4 17 14 -14 17 -2 30 15
16 8 -7 14 -6 20 2z m-2099 -23 c-3 -8 -6 -5 -6 6 -1 11 2 17 5 13 3 -3 4 -12
1 -19z m640 5 c-9 -9 -19 -14 -23 -11 -10 10 6 28 24 28 15 0 15 -1 -1 -17z
m648 -15 c5 -4 -1 -8 -13 -8 -12 0 -22 5 -22 10 0 6 -7 10 -15 10 -8 0 -15 4
-15 10 0 10 46 -6 65 -22z m108 8 c21 -12 50 -73 41 -87 -3 -5 -21 -9 -40 -9
-32 0 -34 2 -24 20 6 11 8 20 5 20 -3 0 -1 9 4 19 9 16 5 22 -32 41 l-42 21
35 -7 c19 -3 43 -12 53 -18z m-3527 3 c4 -8 9 -7 14 2 7 10 12 10 23 0 12 -9
16 -9 20 1 3 8 6 9 6 2 1 -7 -10 -19 -24 -28 -14 -9 -23 -20 -21 -25 3 -4 -8
-7 -24 -6 -17 1 -31 4 -33 6 -1 2 -11 15 -22 28 -11 14 -15 22 -10 19 6 -3 19
-2 30 3 28 11 33 11 41 -2z m-160 -74 c-3 -9 -11 -15 -18 -13 -19 7 -32 34
-24 53 6 18 8 18 28 -2 13 -13 18 -28 14 -38z m2838 46 c3 -5 -5 -11 -19 -13
-24 -5 -32 2 -18 15 9 10 31 9 37 -2z m985 0 c22 -14 3 -32 -27 -25 -34 8 -36
10 -27 23 8 13 35 14 54 2z m446 -1 c3 -6 -1 -7 -9 -4 -18 7 -21 14 -7 14 6 0
13 -4 16 -10z m142 4 c-3 -3 -12 -4 -19 -1 -8 3 -5 6 6 6 11 1 17 -2 13 -5z
m-1042 -33 c-3 -12 -10 -21 -14 -21 -12 0 -9 34 3 42 15 10 19 3 11 -21z m-75
9 c0 -5 -4 -10 -10 -10 -5 0 -10 5 -10 10 0 6 5 10 10 10 6 0 10 -4 10 -10z
m-960 -20 c0 -21 -15 -27 -25 -10 -7 12 2 30 16 30 5 0 9 -9 9 -20z m-1340 -9
c0 -5 9 -11 20 -14 11 -3 20 -11 20 -17 0 -9 -3 -10 -13 -1 -8 6 -16 8 -20 5
-3 -3 -10 4 -17 15 -7 14 -7 21 0 21 5 0 10 -4 10 -9z m1075 -34 c16 -16 31
-24 33 -18 8 25 22 8 22 -28 0 -44 -36 -171 -49 -171 -5 0 -21 28 -36 63 -16
34 -37 68 -47 76 -58 41 -32 133 32 113 8 -3 28 -18 45 -35z m748 37 c7 -7 -2
-34 -12 -34 -4 0 -7 9 -7 20 0 20 7 25 19 14z m-3029 -15 c34 -16 39 -35 13
-51 -43 -28 -57 -29 -58 -5 -1 12 -1 25 0 30 0 4 -4 7 -11 7 -6 0 -3 7 8 15
23 18 18 17 48 4z m2870 -4 c-4 -8 -10 -15 -15 -15 -5 0 -9 7 -9 15 0 8 7 15
15 15 9 0 12 -6 9 -15z m-3634 -20 c0 6 5 3 10 -5 5 -8 10 -10 10 -3 0 6 9 9
23 6 18 -4 19 -3 7 6 -18 13 -1 14 19 2 8 -5 11 -16 8 -24 -4 -10 1 -18 12
-22 22 -7 23 -26 3 -45 -13 -12 -15 -11 -10 7 4 14 0 24 -9 27 -24 10 -35 -5
-29 -38 5 -29 5 -30 -10 -11 -8 11 -24 20 -36 20 -12 0 -23 6 -26 14 -3 8 0
11 7 7 6 -4 11 0 11 10 0 13 -3 14 -15 4 -8 -7 -15 -19 -15 -26 0 -8 -4 -14
-10 -14 -5 0 -6 8 -3 18 6 15 5 15 -10 3 -10 -8 -20 -12 -23 -9 -9 9 19 58 29
51 6 -4 7 -1 3 6 -5 7 0 18 10 26 16 11 20 10 31 -4 7 -9 13 -11 13 -6z m3344
10 c3 -9 0 -15 -9 -15 -16 0 -27 14 -18 24 10 10 21 7 27 -9z m-3444 -5 c0 -5
-5 -10 -11 -10 -5 0 -7 5 -4 10 3 6 8 10 11 10 2 0 4 -4 4 -10z m30 -10 c0
-12 -29 -40 -42 -40 -6 0 -4 8 5 18 10 10 17 24 17 31 0 7 5 9 10 6 6 -3 10
-10 10 -15z m213 -8 c-5 -12 -2 -14 11 -9 14 6 17 3 12 -9 -3 -8 -6 -22 -6
-31 0 -10 -6 -13 -17 -8 -15 5 -16 4 -5 -6 6 -7 12 -17 12 -23 0 -11 -29 25
-30 37 0 4 7 7 15 7 8 0 15 5 15 11 0 6 -7 9 -15 6 -10 -5 -14 1 -12 22 1 17
7 27 14 24 6 -3 9 -12 6 -21z m3567 18 c0 -5 -4 -10 -10 -10 -5 0 -10 5 -10
10 0 6 5 10 10 10 6 0 10 -4 10 -10z m-3598 -18 c-7 -2 -10 -8 -6 -13 3 -5 1
-9 -5 -9 -5 0 -9 9 -8 19 1 12 6 17 16 13 10 -4 11 -7 3 -10z m3153 8 c3 -5 1
-10 -4 -10 -6 0 -11 5 -11 10 0 6 2 10 4 10 3 0 8 -4 11 -10z m307 -22 c-9 -9
-12 -7 -12 12 0 19 3 21 12 12 9 -9 9 -15 0 -24z m860 15 c0 -10 2 -51 3 -90
l2 -73 -31 0 c-31 0 -31 0 -32 55 -1 30 -5 70 -8 90 -7 35 -7 35 29 35 26 0
35 -4 37 -17z m-4222 -46 c0 -16 -2 -17 -15 -7 -13 11 -13 15 -3 21 10 7 10 9
1 9 -7 0 -13 8 -13 18 1 15 2 15 15 -2 8 -11 15 -29 15 -39z m56 8 c1 -9 -2
-12 -9 -8 -6 4 -8 0 -4 -10 4 -11 2 -14 -9 -10 -17 6 -19 23 -3 23 7 0 9 9 6
21 -4 16 -3 19 5 11 7 -7 13 -19 14 -27z m3364 -29 c-1 -38 -2 -40 -15 -22
-18 24 -19 36 -2 36 6 0 4 5 -5 11 -24 14 -23 28 2 22 16 -4 20 -14 20 -47z
m203 30 c3 3 11 3 18 -2 9 -5 7 -11 -6 -21 -25 -18 -49 -17 -41 2 3 8 1 15 -5
15 -6 0 -7 5 -4 10 5 8 11 8 19 1 7 -6 16 -8 19 -5z m-3763 -39 c0 -5 -4 -5
-10 -2 -5 3 -10 14 -10 23 0 15 2 15 10 2 5 -8 10 -19 10 -23z m3865 24 c3 -5
1 -12 -5 -16 -5 -3 -10 1 -10 9 0 18 6 21 15 7z m-737 -19 c2 -7 -3 -12 -12
-12 -9 0 -16 7 -16 16 0 17 22 14 28 -4z m-3178 -12 c0 -5 -5 -10 -11 -10 -5
0 -7 5 -4 10 3 6 8 10 11 10 2 0 4 -4 4 -10z m3810 -41 c0 -21 -8 -24 -30 -8
-11 8 -12 12 -2 16 6 2 10 9 7 14 -4 5 1 6 9 3 9 -3 16 -15 16 -25z m50 -13
c0 -2 -7 -6 -15 -10 -8 -3 -15 -1 -15 4 0 6 7 10 15 10 8 0 15 -2 15 -4z m50
-6 c0 -5 -4 -10 -10 -10 -5 0 -10 5 -10 10 0 6 5 10 10 10 6 0 10 -4 10 -10z
m-1943 -74 c-4 -9 -16 -16 -27 -16 -20 0 -20 1 -4 26 18 27 42 19 31 -10z
m1583 19 c0 -8 -7 -15 -15 -15 -16 0 -20 12 -8 23 11 12 23 8 23 -8z m280 5
c0 -5 -4 -10 -10 -10 -5 0 -10 5 -10 10 0 6 5 10 10 10 6 0 10 -4 10 -10z
m573 -69 c-7 -12 -21 14 -19 37 6 47 9 48 15 7 4 -22 6 -42 4 -44z m-278 49
c3 -5 1 -10 -4 -10 -6 0 -11 5 -11 10 0 6 2 10 4 10 3 0 8 -4 11 -10z m70 -11
c4 -11 10 -17 15 -14 5 3 12 -4 15 -16 8 -25 -2 -39 -11 -15 -3 9 -13 16 -21
16 -14 0 -42 26 -43 40 -1 16 40 6 45 -11z m132 5 c-3 -3 -12 -4 -19 -1 -8 3
-5 6 6 6 11 1 17 -2 13 -5z m197 -29 c-4 -9 -19 -15 -35 -15 -40 0 -37 18 4
23 17 2 33 5 34 5 1 1 0 -5 -3 -13z m78 3 l-23 -12 28 -12 c26 -12 27 -12 5
-13 -27 -1 -62 15 -62 29 0 9 24 17 55 18 18 1 18 0 -3 -10z m-1377 -8 c3 -5
1 -10 -4 -10 -6 0 -11 5 -11 10 0 6 2 10 4 10 3 0 8 -4 11 -10z m845 -5 c-10
-12 -10 -15 3 -15 8 0 17 -11 19 -25 5 -25 5 -25 -61 -23 -36 0 -50 3 -31 5
53 6 65 12 52 25 -13 13 2 48 20 48 7 0 6 -5 -2 -15z m230 -18 c0 -5 -4 -5
-10 -2 -5 3 -10 14 -10 23 0 15 2 15 10 2 5 -8 10 -19 10 -23z m645 3 c3 -5
-1 -10 -9 -10 -9 0 -16 5 -16 10 0 6 4 10 9 10 6 0 13 -4 16 -10z m-5602 -85
c-6 -16 16 -18 28 -2 3 4 11 1 18 -7 10 -12 8 -17 -11 -29 -24 -15 -92 -12
-83 3 3 5 1 11 -5 15 -13 8 -13 25 1 25 5 0 7 -4 4 -10 -3 -5 -1 -10 5 -10 6
0 13 7 16 15 4 8 12 15 20 15 8 0 11 -6 7 -15z m62 -45 c3 -5 1 -10 -4 -10 -6
0 -11 5 -11 10 0 6 2 10 4 10 3 0 8 -4 11 -10z m3667 -15 c-4 -14 -71 -10 -85
4 -9 9 -1 11 38 9 28 -2 49 -7 47 -13z m-2790 -4 c7 10 8 4 4 -17 -8 -52 49
-92 154 -108 14 -2 0 -4 -30 -5 -72 -1 -119 22 -143 72 -11 22 -16 45 -12 55
6 13 9 14 12 3 5 -11 7 -11 15 0z m58 -22 c0 -27 -2 -30 -15 -19 -8 7 -15 21
-15 31 0 11 7 19 15 19 10 0 15 -10 15 -31z m2405 6 c55 -8 102 -14 105 -14 2
-1 -1 -6 -7 -12 -7 -7 -28 -7 -69 0 -33 5 -98 13 -146 17 -49 3 -88 10 -88 15
0 13 89 10 205 -6z m622 9 c-3 -3 -12 -4 -19 -1 -8 3 -5 6 6 6 11 1 17 -2 13
-5z m-1687 -19 c0 -13 -4 -14 -20 -5 -11 6 -20 13 -20 15 0 3 9 5 20 5 11 0
20 -7 20 -15z m940 -25 c0 -5 -4 -10 -10 -10 -5 0 -10 5 -10 10 0 6 5 10 10
10 6 0 10 -4 10 -10z m145 -11 c11 -4 35 -10 54 -11 20 -2 37 -9 39 -18 4 -13
3 -13 -11 -2 -13 11 -17 10 -26 -7 -9 -16 -8 -20 7 -24 11 -3 9 -5 -8 -6 -18
-1 -21 -4 -11 -10 23 -15 2 -31 -40 -31 -28 0 -39 4 -39 15 0 8 -7 15 -15 15
-15 0 -31 60 -22 84 6 15 32 13 72 -5z m-1989 4 c-10 -3 -25 -10 -32 -17 -9
-8 0 -14 40 -22 l51 -12 -89 -1 c-81 -1 -88 0 -70 14 10 8 24 15 30 15 6 0 17
7 24 15 7 8 24 14 39 14 19 -1 21 -3 7 -6z m3047 -40 c62 -10 22 -23 -70 -23
-75 0 -102 7 -86 24 8 8 106 8 156 -1z m-2775 -28 c-8 -8 -548 -14 -548 -6 0
5 31 7 73 5 39 -3 126 -1 191 3 110 7 292 6 284 -2z m1155 8 c-7 -2 -21 -2
-30 0 -10 3 -4 5 12 5 17 0 24 -2 18 -5z m-1065 -10 c-10 -2 -28 -2 -40 0 -13
2 -5 4 17 4 22 1 32 -1 23 -4z m1492 -13 c0 -19 -11 -26 -23 -14 -8 8 3 34 14
34 5 0 9 -9 9 -20z m1506 -42 c3 -4 -7 -9 -23 -9 -15 -1 -45 -2 -65 -3 -21 0
-38 2 -38 6 0 14 118 20 126 6z m-5053 -462 c18 -7 73 -28 122 -46 50 -18 146
-60 215 -94 109 -53 136 -71 207 -141 48 -46 89 -96 98 -118 11 -27 12 -36 4
-31 -8 5 -11 2 -7 -7 7 -19 -10 -42 -42 -59 -14 -7 -51 -33 -82 -57 -32 -24
-98 -64 -147 -88 -55 -28 -95 -55 -106 -72 -42 -66 -109 -104 -265 -148 -118
-34 -237 -35 -450 -4 -68 10 -231 53 -255 67 -5 4 -18 8 -29 9 -10 2 -30 10
-45 17 -65 35 -141 41 -281 21 -47 -6 -80 2 -80 20 0 8 -4 15 -9 15 -12 0 -7
30 10 62 23 43 61 88 75 88 8 0 14 7 14 15 0 8 7 15 15 15 8 0 15 4 15 9 0 22
117 30 186 12 36 -10 41 -7 72 33 12 16 22 25 22 20 0 -5 13 18 29 52 28 60
73 105 136 136 39 20 118 41 136 36 31 -7 98 25 109 51 24 59 109 127 230 184
43 20 63 21 103 3z m3479 -793 c18 -9 36 -17 40 -18 3 0 16 -13 28 -28 13 -16
16 -26 9 -25 -7 2 -15 -5 -17 -15 -5 -26 -104 -119 -119 -113 -7 3 -10 -1 -6
-10 3 -9 -2 -14 -16 -14 -12 0 -21 -4 -21 -9 0 -12 -103 -40 -160 -42 -8 -1
-31 -5 -50 -9 -19 -5 -62 -11 -95 -14 -33 -4 -73 -8 -90 -11 -16 -2 -57 -7
-90 -9 -193 -17 -273 -20 -385 -18 -69 2 -179 4 -245 5 -66 1 -123 7 -127 12
-5 6 -8 5 -8 -2 0 -9 -7 -10 -23 -4 -13 5 -30 5 -37 1 -8 -5 -21 -5 -29 0 -8
4 -25 4 -38 -1 -13 -5 -25 -4 -28 2 -4 5 -11 6 -17 3 -6 -4 -62 -8 -124 -9
-62 -2 -117 -6 -124 -10 -6 -4 -17 -4 -25 -1 -8 3 -17 1 -20 -4 -8 -14 -21
-12 -37 3 -7 8 -20 16 -28 20 -11 4 -9 6 5 6 11 1 26 10 33 21 7 11 19 20 28
20 14 0 14 3 4 15 -11 13 -10 14 4 9 9 -3 16 -1 16 5 0 6 7 11 15 11 21 0 76
35 68 44 -4 4 1 4 11 0 14 -5 17 -4 11 5 -6 10 -3 11 12 2 14 -7 23 -7 31 1 6
6 63 11 134 12 119 3 208 21 216 45 2 5 12 7 22 4 12 -3 20 0 20 6 0 7 5 9 10
6 6 -3 10 -2 10 3 0 11 24 23 60 28 78 12 114 16 195 19 219 10 389 30 540 63
22 5 122 10 222 11 157 2 186 0 215 -16z"/>
<path d="M9835 8309 c-21 -17 -41 -32 -43 -34 -4 -3 97 26 106 31 5 3 -10 34
-17 33 -3 0 -24 -14 -46 -30z"/>
<path d="M9510 8128 c-58 -27 -107 -51 -108 -53 -6 -6 9 -45 17 -45 9 0 131
82 182 122 48 39 30 34 -91 -24z"/>
<path d="M9305 8019 c-85 -60 -165 -113 -239 -157 -31 -18 -56 -37 -56 -43 0
-13 79 -10 121 5 20 7 88 53 150 101 63 49 116 90 118 92 6 4 -9 53 -17 52 -4
0 -38 -22 -77 -50z"/>
<path d="M8640 4790 c0 -5 5 -10 11 -10 5 0 7 5 4 10 -3 6 -8 10 -11 10 -2 0
-4 -4 -4 -10z"/>
<path d="M8770 4780 c-13 -8 -12 -10 3 -10 9 0 17 5 17 10 0 12 -1 12 -20 0z"/>
<path d="M8950 3514 c0 -21 -55 -139 -90 -191 l-21 -32 43 -22 c24 -12 80 -46
126 -75 45 -30 85 -54 87 -54 13 0 3 116 -13 157 -26 67 -132 242 -132 217z"/>
<path d="M8616 3248 c-7 -30 1 -37 70 -54 32 -8 103 -33 156 -55 84 -35 103
-48 144 -96 31 -36 50 -51 57 -44 9 9 -10 34 -109 138 -35 36 -60 44 -50 16 5
-15 3 -14 -11 2 -10 11 -29 29 -42 40 -24 20 -24 20 -17 0 5 -14 -4 -8 -28 16
-56 57 -158 79 -170 37z"/>
<path d="M4015 3301 c-21 -9 -45 -35 -62 -66 -22 -39 50 -125 91 -109 16 6 10
44 -8 44 -6 0 -19 12 -29 25 -18 25 -18 25 7 25 13 0 27 6 30 13 5 10 7 10 12
0 7 -15 34 -17 34 -3 0 6 6 10 14 10 8 0 16 5 18 12 2 6 10 8 16 4 13 -8 -2
-48 -16 -44 -4 1 -22 -2 -39 -6 -37 -9 -42 -25 -14 -50 18 -16 21 -16 55 14
38 34 45 64 23 94 -10 14 -17 15 -40 7 -39 -15 -57 -14 -57 3 0 22 15 27 45
16 20 -8 26 -7 23 2 -5 15 -75 21 -103 9z"/>
<path d="M3447 3030 c-3 -12 0 -20 7 -20 6 0 12 9 12 20 0 11 -3 20 -7 20 -4
0 -9 -9 -12 -20z"/>
<path d="M8239 2868 c-7 -61 -7 -88 -1 -92 4 -2 9 20 10 50 1 30 0 54 -3 54
-3 0 -6 -6 -6 -12z"/>
<path d="M8460 2860 c0 -5 5 -10 11 -10 5 0 7 5 4 10 -3 6 -8 10 -11 10 -2 0
-4 -4 -4 -10z"/>
<path d="M8354 2815 c-4 -8 -4 -21 -1 -29 5 -12 11 -12 31 -3 29 14 34 32 10
41 -24 9 -34 7 -40 -9z"/>
<path d="M8370 2500 c0 -5 7 -10 15 -10 8 0 15 5 15 10 0 6 -7 10 -15 10 -8 0
-15 -4 -15 -10z"/>
<path d="M5253 2981 c-64 -20 -77 -31 -35 -31 18 0 32 5 32 10 0 6 10 10 23
10 32 0 67 11 67 21 0 11 -26 8 -87 -10z"/>
<path d="M5163 2944 c-7 -3 -10 -11 -7 -19 3 -7 -3 -16 -13 -19 -10 -3 -24
-15 -31 -27 -30 -48 42 -67 91 -24 36 32 37 72 1 85 -14 6 -26 10 -27 9 -1 0
-7 -3 -14 -5z"/>
<path d="M5235 2870 c-3 -11 -18 -29 -33 -41 l-27 -21 25 7 c29 9 49 33 50 58
0 23 -7 22 -15 -3z"/>
<path d="M8480 2941 c0 -5 7 -12 16 -15 24 -9 28 -7 14 9 -14 17 -30 20 -30 6z"/>
<path d="M6345 2469 c-4 -6 -5 -12 -2 -15 2 -3 7 2 10 11 7 17 1 20 -8 4z"/>
<path d="M6310 2425 c0 -8 5 -15 10 -15 6 0 10 7 10 15 0 8 -4 15 -10 15 -5 0
-10 -7 -10 -15z"/>
<path d="M4230 2540 c0 -5 5 -10 11 -10 5 0 7 5 4 10 -3 6 -8 10 -11 10 -2 0
-4 -4 -4 -10z"/>
<path d="M7070 2021 c0 -5 5 -13 10 -16 6 -3 10 -2 10 4 0 5 -4 13 -10 16 -5
3 -10 2 -10 -4z"/>
<path d="M3148 9654 c-3 -209 -1 -444 4 -524 7 -89 7 -307 3 -565 -4 -231 -9
-682 -10 -1002 -3 -568 -3 -583 16 -583 14 0 19 7 19 30 0 16 12 69 26 117 15
49 31 113 36 143 5 30 11 66 14 80 3 14 6 54 8 91 1 36 6 71 11 79 5 7 10 47
11 87 1 41 8 80 14 88 9 11 9 15 1 15 -6 0 -11 4 -11 9 0 10 38 24 59 21 8 -1
11 4 8 13 -3 9 0 18 8 21 12 4 34 44 49 89 3 10 10 16 15 12 5 -3 12 -1 15 4
7 10 -41 21 -93 21 -81 0 -137 34 -126 75 2 6 6 22 9 36 8 35 53 54 109 45 23
-4 76 -9 117 -12 61 -3 71 -2 53 7 -22 12 -32 39 -14 39 26 0 69 -23 65 -35
-3 -7 7 -25 22 -40 24 -24 26 -32 22 -81 -5 -52 -4 -55 16 -50 12 3 43 6 70 6
27 0 46 3 43 7 -4 3 5 12 20 20 24 12 60 16 118 13 17 -1 60 6 60 10 0 1 12 3
27 5 47 6 66 15 98 45 18 17 26 31 20 35 -6 4 -9 19 -7 33 3 21 10 28 33 30
48 5 59 11 46 24 -30 30 -13 38 83 38 55 0 95 4 95 10 0 5 7 7 15 4 10 -4 15
0 15 14 0 26 17 37 35 22 10 -9 20 -7 40 6 16 11 43 17 70 16 24 -1 46 2 50 8
3 6 15 6 30 0 18 -7 27 -6 32 4 12 20 36 24 52 8 10 -10 16 -11 19 -3 6 19 18
13 32 -16 20 -42 20 -52 -1 -58 -21 -7 -23 -14 -10 -47 14 -38 -6 -129 -35
-156 -28 -27 -28 -55 0 -60 11 -2 24 -9 30 -16 15 -15 20 -76 7 -76 -6 0 -11
-5 -11 -11 0 -5 5 -7 11 -3 8 5 9 2 2 -11 -12 -20 13 -75 33 -75 11 0 36 -48
41 -80 2 -8 5 -28 8 -45 2 -16 9 -48 15 -70 5 -22 12 -60 16 -85 24 -190 63
153 64 564 0 140 -3 177 -12 168 -7 -7 -27 -12 -44 -12 -43 0 -78 42 -70 84 9
44 25 58 63 54 25 -3 34 0 38 13 7 23 60 40 105 34 19 -2 94 -9 165 -15 72 -6
162 -15 200 -20 39 -6 126 -16 195 -24 69 -8 145 -22 169 -30 60 -22 123 -21
152 3 24 19 24 20 22 218 -1 109 -6 243 -12 298 -5 55 -10 220 -11 367 0 264
0 267 23 288 19 19 30 21 77 15 151 -17 217 -24 240 -24 44 -1 51 -28 55 -229
3 -102 10 -235 15 -296 6 -60 13 -186 15 -280 2 -94 7 -226 11 -292 8 -147 8
-147 -100 -128 -69 12 -132 17 -188 15 -25 -1 -68 -34 -68 -53 0 -14 74 -57
110 -63 62 -11 62 -9 88 -225 6 -47 14 -143 18 -215 3 -71 8 -133 10 -137 6
-9 22 -183 34 -365 11 -167 21 -203 55 -203 22 0 22 1 24 246 2 211 5 254 21
307 18 57 19 83 14 318 -5 184 -3 262 5 278 10 18 20 21 81 21 37 0 122 -9
189 -20 66 -11 200 -27 298 -35 98 -8 203 -21 233 -28 43 -11 64 -12 95 -3 27
8 76 10 150 5 153 -10 155 -9 154 119 -2 128 10 351 22 432 14 89 13 124 -5
201 -13 57 -23 147 -55 512 -10 112 -20 122 -132 147 -87 19 -479 86 -674 115
-60 9 -152 23 -202 31 -153 25 -198 3 -135 -66 25 -28 36 -32 132 -44 58 -8
150 -24 205 -35 55 -12 111 -24 125 -26 122 -18 270 -52 270 -61 0 -5 -118 2
-165 10 -45 8 -89 15 -210 31 -113 15 -363 53 -402 61 -28 5 -37 34 -23 82 12
45 6 69 -18 76 -16 5 -678 96 -802 111 -30 4 -147 20 -260 35 -384 54 -404 56
-434 37 -31 -21 -43 -21 -62 -3 -7 8 -37 19 -66 26 -81 17 -534 83 -933 136
-66 9 -185 27 -265 41 -80 14 -173 28 -206 30 l-61 5 -5 -378z m1563 29 c0
-21 2 -49 5 -63 12 -79 16 -249 6 -266 -7 -11 -12 -13 -12 -6 0 8 -5 10 -12 6
-10 -5 -10 -4 -1 6 9 9 9 17 2 26 -6 7 -9 71 -9 156 1 78 2 151 1 161 0 9 4
17 10 17 5 0 9 -17 10 -37z m373 -3 c111 -19 144 -33 116 -50 -29 -19 -121
-16 -273 7 -109 16 -126 25 -113 59 5 14 17 15 84 9 42 -4 126 -15 186 -25z
m-127 -206 c-3 -3 -12 -4 -19 -1 -8 3 -5 6 6 6 11 1 17 -2 13 -5z m-1027 -232
c0 -5 -7 -9 -15 -9 -8 0 -15 4 -15 9 0 4 7 8 15 8 8 0 15 -4 15 -8z m255 -92
c3 -5 1 -10 -4 -10 -6 0 -11 5 -11 10 0 6 2 10 4 10 3 0 8 -4 11 -10z m-533
-57 c9 -10 19 -33 23 -50 6 -29 4 -33 -14 -33 -11 0 -23 5 -26 10 -3 6 -17 10
-29 10 -30 0 -49 23 -41 49 10 32 64 40 87 14z m515 -5 c30 -28 30 -63 -2 -84
-23 -15 -27 -15 -50 0 -34 22 -37 56 -8 89 21 22 32 22 60 -5z m1376 -10 c8
-23 -5 -38 -32 -38 -35 0 -55 14 -48 34 8 19 73 22 80 4z m1410 -156 c4 8 6 7
6 -4 1 -10 6 -18 12 -18 5 0 7 5 4 10 -3 6 -2 10 4 10 5 0 13 -5 17 -11 8 -14
-18 -31 -30 -19 -5 5 -22 6 -39 3 -28 -6 -29 -5 -17 16 9 17 15 20 25 11 10
-8 14 -7 18 2z m74 -18 c-9 -9 -28 6 -21 18 4 6 10 6 17 -1 6 -6 8 -13 4 -17z
m-2277 -289 c0 -14 -4 -25 -10 -25 -11 0 -14 33 -3 43 11 11 13 8 13 -18z
m-537 -5 c32 -6 116 -13 187 -14 126 -2 130 -2 172 -32 49 -34 58 -64 29 -95
-19 -21 -26 -22 -131 -16 -61 4 -119 11 -130 17 -13 7 -34 7 -67 -1 -29 -6
-80 -8 -128 -4 l-80 7 24 -23 24 -23 -34 -28 c-38 -32 -41 -32 -248 -17 -180
13 -188 14 -202 40 -26 49 44 103 105 81 18 -7 50 -12 72 -12 21 0 55 -4 74
-9 19 -6 68 -12 109 -16 73 -6 74 -5 58 13 -21 23 -22 80 -2 110 16 22 68 43
95 37 8 -2 41 -9 73 -15z m524 -112 c-3 -8 -6 -5 -6 6 -1 11 2 17 5 13 3 -3 4
-12 1 -19z m-1450 -32 c3 -3 -2 -12 -10 -21 -26 -25 -89 -2 -71 26 6 11 70 6
81 -5z m1443 -49 c20 -10 26 -21 28 -55 3 -37 0 -43 -22 -52 -22 -8 -74 -1
-176 25 -8 2 -30 4 -48 4 -18 1 -31 5 -27 10 3 5 -4 13 -15 16 -34 11 -18 28
28 30 23 1 52 9 64 18 28 20 132 22 168 4z m-709 -264 c-10 -21 -16 -24 -39
-18 -26 6 -42 21 -42 39 0 4 6 6 14 3 8 -3 22 2 32 12 16 15 21 15 33 4 11
-11 11 -19 2 -40z"/>
<path d="M3986 8172 c-7 -12 12 -38 21 -28 4 5 2 11 -5 13 -6 3 -10 9 -6 14 3
5 3 9 0 9 -3 0 -7 -4 -10 -8z"/>
<path d="M7610 9821 c0 -6 5 -13 10 -16 6 -3 10 1 10 9 0 9 -4 16 -10 16 -5 0
-10 -4 -10 -9z"/>
<path d="M448 9789 c-10 -5 -18 -17 -18 -25 0 -11 -4 -12 -18 -5 -22 12 -49
-7 -44 -32 3 -13 10 -17 24 -14 11 3 32 -2 46 -11 24 -15 25 -15 45 9 10 13
26 23 34 21 12 -3 12 1 3 17 -6 12 -15 21 -20 21 -5 0 -7 7 -4 15 7 18 -21 20
-48 4z"/>
<path d="M623 9792 c-6 -4 -17 -21 -23 -37 -9 -25 -8 -31 7 -42 27 -20 36 -11
40 40 4 46 -1 54 -24 39z"/>
<path d="M27 9693 c-22 -4 -27 -9 -27 -33 0 -23 5 -30 30 -35 28 -6 79 17 80
37 0 8 -42 39 -50 37 -3 -1 -17 -4 -33 -6z"/>
<path d="M285 9671 c-33 -5 -40 -10 -39 -30 0 -20 5 -24 34 -26 19 -1 40 -4
45 -6 14 -4 55 11 55 20 0 10 -39 51 -48 50 -4 -1 -25 -5 -47 -8z"/>
<path d="M4 9566 c-4 -9 -5 -19 -2 -21 7 -8 83 -7 102 0 15 7 17 5 11 -6 -7
-12 -5 -12 6 -1 12 11 12 14 -1 22 -8 5 -29 10 -47 10 -17 0 -38 3 -47 6 -10
4 -18 0 -22 -10z"/>
<path d="M250 9538 c0 -18 20 -38 38 -38 8 0 12 9 10 23 -3 25 -48 39 -48 15z"/>
<path d="M8090 9531 c0 -5 7 -11 14 -14 10 -4 13 -1 9 9 -6 15 -23 19 -23 5z"/>
<path d="M355 9520 c3 -5 8 -10 11 -10 2 0 4 5 4 10 0 6 -5 10 -11 10 -5 0 -7
-4 -4 -10z"/>
<path d="M435 9520 c3 -5 13 -10 21 -10 8 0 14 5 14 10 0 6 -9 10 -21 10 -11
0 -17 -4 -14 -10z"/>
<path d="M16 9491 c-9 -9 -16 -24 -16 -32 0 -16 46 -24 55 -9 3 5 11 8 18 6 7
-1 9 -1 5 1 -5 3 -8 11 -8 18 0 8 -8 19 -19 24 -14 8 -22 6 -35 -8z"/>
<path d="M130 9465 c0 -20 5 -25 25 -25 28 0 26 19 -5 38 -18 11 -20 10 -20
-13z"/>
<path d="M207 9444 c6 -17 33 -19 33 -1 0 7 -9 13 -19 14 -14 1 -18 -3 -14
-13z"/>
<path d="M0 9374 c0 -14 3 -14 15 -4 8 7 15 14 15 16 0 2 -7 4 -15 4 -8 0 -15
-7 -15 -16z"/>
<path d="M70 9370 c-12 -8 -10 -10 10 -11 14 -1 35 0 47 0 11 1 24 -2 27 -7 6
-10 66 -3 66 8 0 17 -125 26 -150 10z"/>
<path d="M540 9055 c0 -8 7 -15 15 -15 8 0 15 7 15 15 0 8 -7 15 -15 15 -8 0
-15 -7 -15 -15z"/>
<path d="M0 8961 l0 -61 139 0 c169 0 191 6 191 54 0 19 -6 38 -12 43 -7 4
-51 8 -98 8 -47 1 -115 5 -152 9 l-68 8 0 -61z"/>
<path d="M0 8734 l0 -72 73 -6 c422 -34 461 -36 468 -24 9 13 23 107 18 113
-2 2 -80 11 -174 20 -93 9 -218 23 -277 29 l-108 13 0 -73z"/>
<path d="M4525 8195 c-3 -8 -7 -22 -10 -31 -3 -8 -9 -12 -15 -9 -13 8 -13 -1
2 -24 9 -15 16 -17 30 -10 10 5 18 14 18 20 0 6 -7 6 -20 -1 -14 -7 -20 -7
-20 0 0 5 6 10 13 10 7 0 14 13 15 30 2 32 -5 40 -13 15z"/>
<path d="M4377 8150 c3 -11 12 -20 19 -20 8 0 14 9 14 20 0 13 -7 20 -19 20
-14 0 -18 -5 -14 -20z"/>
<path d="M4557 8164 c-2 -2 -1 -24 3 -47 5 -23 6 -45 4 -49 -3 -5 -1 -8 4 -8
23 0 30 95 8 103 -8 3 -16 4 -19 1z"/>
<path d="M4425 8150 c3 -5 8 -10 11 -10 2 0 4 5 4 10 0 6 -5 10 -11 10 -5 0
-7 -4 -4 -10z"/>
<path d="M4650 8150 c0 -5 5 -10 10 -10 6 0 10 5 10 10 0 6 -4 10 -10 10 -5 0
-10 -4 -10 -10z"/>
<path d="M4180 8023 c-19 -9 -36 -18 -38 -19 -2 -1 2 -12 8 -24 9 -16 15 -19
23 -11 6 6 18 11 27 11 22 0 36 12 44 38 9 27 -13 29 -64 5z"/>
<path d="M4021 7933 c-1 -13 4 -23 10 -23 5 0 7 -5 4 -11 -4 -6 -14 -8 -22 -5
-10 4 -13 0 -11 -12 4 -21 44 -25 62 -6 8 7 16 11 19 8 3 -3 26 -7 52 -9 44
-4 46 -3 32 13 -16 17 -17 20 -17 47 0 12 -4 13 -19 5 -27 -14 -98 -13 -104 3
-3 6 -6 2 -6 -10z"/>
<path d="M3751 7829 c12 -12 30 -19 44 -17 35 4 18 24 -27 31 -36 5 -36 5 -17
-14z"/>
<path d="M6372 7720 c-12 -12 -22 -23 -22 -26 0 -13 43 -131 52 -141 5 -7 7
-16 4 -22 -3 -5 0 -12 6 -14 10 -4 10 -6 0 -6 -18 -1 11 -31 31 -31 7 0 17 -3
21 -7 8 -8 13 -10 45 -12 11 0 22 -10 26 -20 3 -11 15 -23 25 -26 11 -4 26
-12 33 -20 16 -16 77 -23 96 -11 7 5 16 4 20 -1 3 -5 15 -10 26 -11 50 -3 66
-8 74 -21 5 -8 16 -11 26 -7 16 6 16 4 4 -11 -13 -15 -12 -16 6 -9 38 16 68
20 61 7 -9 -13 4 -14 37 -2 13 5 27 17 31 27 6 15 4 15 -10 3 -16 -13 -16 -12
-5 9 6 12 9 27 6 32 -3 6 1 10 10 10 13 0 15 5 9 18 -4 9 -7 30 -6 45 1 16 -3
25 -9 22 -10 -7 -7 25 6 58 4 10 3 17 -4 17 -6 0 -11 5 -11 11 0 6 7 9 15 5 9
-3 15 0 15 9 0 8 -4 15 -10 15 -5 0 -10 4 -10 10 0 5 7 7 17 3 14 -6 14 -3 -2
24 -11 18 -24 29 -32 26 -7 -3 -13 -1 -13 5 0 5 -10 8 -22 8 -13 -1 -36 4 -52
12 -23 11 -30 11 -37 1 -6 -10 -12 -10 -27 5 -14 12 -22 14 -27 6 -4 -6 -13
-9 -20 -6 -7 2 -18 -1 -24 -7 -8 -8 -11 -7 -11 3 0 11 -3 11 -12 2 -7 -7 -20
-12 -30 -12 -10 0 -18 -4 -18 -10 0 -5 -6 -7 -13 -4 -8 3 -19 -1 -25 -9 -9
-11 -7 -17 13 -27 32 -17 39 -38 14 -45 -10 -4 -19 -10 -19 -14 0 -13 -61 1
-67 15 -3 8 -9 12 -13 9 -20 -12 -20 18 -1 39 25 26 27 41 6 32 -8 -3 -15 0
-15 7 0 7 -9 18 -20 25 -13 8 -20 8 -20 2 0 -7 -6 -7 -19 -1 -10 6 -21 8 -23
5 -3 -2 -11 2 -18 11 -17 21 -42 19 -68 -5z"/>
<path d="M2 7523 l3 -208 60 -8 c33 -4 105 -14 160 -22 55 -8 128 -15 163 -15
61 0 62 0 63 28 0 15 2 45 3 67 2 22 7 104 11 182 6 116 5 144 -6 147 -11 4
-412 36 -449 36 -7 0 -9 -73 -8 -207z"/>
<path d="M7140 7669 c0 -5 5 -7 10 -4 6 3 10 8 10 11 0 2 -4 4 -10 4 -5 0 -10
-5 -10 -11z"/>
<path d="M7340 7582 c0 -12 19 -26 26 -19 2 2 -2 10 -11 17 -9 8 -15 8 -15 2z"/>
<path d="M7380 7561 c0 -5 6 -14 14 -20 12 -10 13 -8 9 8 -5 21 -23 30 -23 12z"/>
<path d="M9848 7363 c7 -3 16 -2 19 1 4 3 -2 6 -13 5 -11 0 -14 -3 -6 -6z"/>
<path d="M0 7240 c0 -13 11 -13 30 0 12 8 11 10 -7 10 -13 0 -23 -4 -23 -10z"/>
<path d="M36 7202 c-9 -26 -23 -29 -29 -4 -3 9 -5 -172 -6 -404 l-1 -421 88
-6 c95 -7 124 3 149 54 17 35 41 297 28 310 -7 7 -5 13 4 18 7 5 10 14 7 20
-4 6 -12 8 -18 5 -11 -7 -28 13 -28 35 0 11 4 9 16 -5 15 -18 15 -18 9 4 -4
13 -2 22 5 22 6 0 9 -4 6 -8 -2 -4 -1 -14 5 -22 6 -10 8 -1 8 30 0 25 -3 39
-6 33 -7 -20 -23 -15 -23 7 0 13 -5 18 -15 14 -10 -4 -15 0 -15 12 0 24 -11
10 -26 -32 -10 -28 -10 -34 0 -31 7 3 17 -8 23 -24 10 -25 9 -29 -5 -30 -11 0
-12 -2 -4 -6 14 -6 16 -33 2 -33 -6 0 -16 12 -22 26 -9 20 -9 27 1 33 17 11 3
19 -31 17 -24 -1 -27 1 -21 19 8 25 8 53 -2 88 -6 21 -4 27 8 27 9 0 19 5 22
10 11 17 14 120 4 120 -17 0 -9 18 11 23 22 6 27 36 9 54 -7 7 -25 9 -40 6
-43 -8 -77 4 -92 34 -14 26 -15 26 -21 5z m39 -102 c3 -5 1 -10 -4 -10 -6 0
-11 5 -11 10 0 6 2 10 4 10 3 0 8 -4 11 -10z m85 -306 c0 -8 -5 -12 -10 -9 -6
4 -8 11 -5 16 9 14 15 11 15 -7z m-5 -34 c3 -5 -1 -10 -10 -10 -9 0 -13 5 -10
10 3 6 8 10 10 10 2 0 7 -4 10 -10z m25 -38 c0 -4 -8 -18 -17 -31 -16 -23 -17
-23 -24 -5 -3 10 -2 25 3 32 11 13 38 17 38 4z m-65 -12 c3 -5 1 -10 -4 -10
-6 0 -11 5 -11 10 0 6 2 10 4 10 3 0 8 -4 11 -10z"/>
<path d="M9441 6971 c-22 -44 -41 -85 -41 -90 0 -6 17 -11 39 -11 31 0 42 5
56 26 16 24 16 27 -1 45 -17 19 -16 19 14 13 l31 -6 -21 43 c-12 24 -21 47
-20 52 1 4 -2 7 -7 7 -4 0 -27 -36 -50 -79z"/>
<path d="M9757 6720 c3 -11 9 -17 15 -14 5 3 4 12 -3 20 -16 19 -18 18 -12 -6z"/>
<path d="M5818 6620 c-29 -7 -17 -14 52 -31 33 -7 120 -13 215 -13 136 -1 160
1 160 14 0 11 -18 17 -75 22 -105 9 -324 14 -352 8z"/>
<path d="M8946 6617 c3 -10 9 -15 12 -12 3 3 0 11 -7 18 -10 9 -11 8 -5 -6z"/>
<path d="M8557 6440 c-3 -8 -11 -55 -18 -105 -6 -49 -16 -98 -21 -109 -6 -10
-14 -65 -19 -121 -10 -118 -1 -181 37 -264 l25 -55 38 60 c21 33 50 70 65 81
31 25 31 29 8 85 -26 60 -34 98 -22 98 5 0 10 -9 10 -20 0 -27 48 -146 65
-160 11 -9 12 -6 8 12 -4 18 -3 20 6 8 9 -13 11 -12 11 6 0 11 5 25 11 31 7 7
14 45 17 86 4 74 4 75 -24 91 -25 14 -25 16 -5 10 16 -4 21 -3 17 5 -4 6 -14
11 -22 11 -8 0 -14 7 -14 15 0 10 -9 15 -27 14 -27 0 -27 -1 -6 -11 16 -8 21
-17 17 -32 -3 -12 2 -50 10 -85 8 -35 11 -60 7 -55 -12 13 -31 74 -31 99 0 28
-25 53 -33 33 -4 -9 -6 -7 -6 4 -1 10 -13 19 -33 23 -56 13 -66 45 -14 45 19
0 38 5 42 11 5 9 -10 10 -57 6 -40 -4 -55 -3 -39 3 14 4 43 8 66 9 24 1 41 6
42 14 16 104 16 103 -6 84 -19 -17 -20 -17 -43 10 -13 16 -31 40 -41 53 -12
20 -17 22 -21 10z m163 -434 c5 -16 6 -25 1 -20 -11 12 -41 104 -40 123 0 14
11 -14 39 -103z"/>
<path d="M8868 6233 c7 -3 16 -2 19 1 4 3 -2 6 -13 5 -11 0 -14 -3 -6 -6z"/>
<path d="M8648 6213 c7 -3 16 -2 19 1 4 3 -2 6 -13 5 -11 0 -14 -3 -6 -6z"/>
<path d="M8833 5960 c2 -85 7 -162 11 -172 4 -9 25 -29 47 -44 22 -15 37 -29
34 -32 -2 -3 -20 7 -39 22 -19 14 -37 26 -40 26 -12 0 -5 -39 9 -54 13 -13 13
-15 -3 -19 -9 -3 5 -3 32 -1 28 2 53 9 57 15 3 6 9 -9 13 -32 5 -30 10 -39 15
-30 7 11 31 3 116 -39 98 -49 114 -54 189 -58 71 -3 87 -1 125 20 57 31 98 82
107 134 5 34 2 43 -18 62 -34 32 -261 201 -267 199 -16 -4 -90 17 -130 37 -26
13 -71 31 -101 41 -30 10 -59 21 -64 26 -15 14 -26 11 -26 -8 0 -11 -11 -4
-35 23 l-36 39 4 -155z m97 -89 c0 -5 -7 -11 -15 -15 -15 -5 -20 5 -8 17 9 10
23 9 23 -2z m425 -211 c9 -16 13 -30 11 -30 -3 0 -12 14 -21 30 -9 17 -13 30
-11 30 3 0 12 -13 21 -30z"/>
<path d="M8650 5868 c-23 -28 -50 -68 -60 -89 l-19 -37 30 -6 c17 -3 40 -1 51
5 14 7 18 7 14 0 -4 -5 2 -15 13 -20 17 -9 22 -5 39 32 21 43 25 60 23 87 -1
11 -7 8 -21 -10 -21 -26 -27 -12 -10 20 11 21 3 70 -11 70 -5 0 -27 -23 -49
-52z"/>
<path d="M8751 5890 c0 -8 4 -22 9 -30 12 -18 12 -2 0 25 -6 13 -9 15 -9 5z"/>
<path d="M8741 5749 c-19 -34 -21 -43 -10 -50 31 -19 46 -10 47 29 2 60 -11
68 -37 21z"/>
<path d="M5230 5599 c0 -13 -61 -39 -97 -40 -21 -1 -23 -3 -7 -6 11 -2 40 1
64 6 33 7 46 7 52 -2 4 -7 8 2 8 21 0 17 -4 32 -10 32 -5 0 -10 -5 -10 -11z"/>
<path d="M4924 5576 c11 -9 27 -16 35 -15 14 0 14 1 1 6 -8 3 -24 10 -35 15
-20 9 -20 9 -1 -6z"/>
<path d="M4998 5553 c12 -2 30 -2 40 0 9 3 -1 5 -23 4 -22 0 -30 -2 -17 -4z"/>
<path d="M10203 4483 c9 -2 23 -2 30 0 6 3 -1 5 -18 5 -16 0 -22 -2 -12 -5z"/>
<path d="M9870 4259 c0 -5 5 -7 10 -4 6 3 10 8 10 11 0 2 -4 4 -10 4 -5 0 -10
-5 -10 -11z"/>
<path d="M10158 4053 c18 -2 45 -2 60 0 15 2 0 4 -33 4 -33 0 -45 -2 -27 -4z"/>
<path d="M10028 4043 c7 -3 16 -2 19 1 4 3 -2 6 -13 5 -11 0 -14 -3 -6 -6z"/>
<path d="M10068 4043 c7 -3 16 -2 19 1 4 3 -2 6 -13 5 -11 0 -14 -3 -6 -6z"/>
<path d="M1933 3612 c0 -12 5 -22 9 -22 11 0 10 12 -2 30 -7 12 -9 10 -7 -8z"/>
<path d="M6050 2106 c0 -2 7 -7 16 -10 8 -3 12 -2 9 4 -6 10 -25 14 -25 6z"/>
</g>
</svg>
