<?xml version="1.0" standalone="no"?>
<!DOCTYPE svg PUBLIC "-//W3C//DTD SVG 20010904//EN"
 "http://www.w3.org/TR/2001/REC-SVG-20010904/DTD/svg10.dtd">
<svg version="1.0" xmlns="http://www.w3.org/2000/svg"
 width="1024.000000pt" height="1024.000000pt" viewBox="0 0 1024.000000 1024.000000"
 preserveAspectRatio="xMidYMid meet">

<g transform="translate(0.000000,1024.000000) scale(0.100000,-0.100000)"
fill="#000000" stroke="none">
<path d="M1 8953 c0 -709 3 -1282 6 -1276 3 9 10 10 23 3 9 -5 27 -7 39 -5 12
2 19 0 16 -5 -5 -9 47 -30 76 -30 9 0 20 -6 22 -12 4 -10 6 -9 6 1 1 11 4 11
16 1 8 -7 22 -10 30 -6 8 3 15 1 15 -4 0 -6 4 -9 8 -8 16 5 112 -47 112 -60 0
-7 11 -18 25 -24 14 -6 28 -22 31 -35 4 -12 10 -20 15 -17 5 3 9 -2 9 -11 0
-10 5 -13 12 -9 7 5 9 2 6 -7 -3 -8 3 -23 13 -33 11 -11 19 -15 19 -10 0 6 -5
15 -11 21 -8 8 -7 13 2 18 7 5 10 4 5 -3 -3 -6 3 -17 14 -25 11 -7 17 -17 12
-22 -4 -4 1 -5 11 -2 20 7 22 -3 5 -22 -11 -10 -8 -12 12 -10 14 2 31 -1 39
-5 8 -5 28 -9 44 -8 18 0 36 -6 44 -16 12 -16 13 -15 6 2 -6 18 -5 18 19 2 21
-13 27 -14 31 -4 4 10 6 9 6 -2 1 -13 2 -13 12 0 8 11 12 12 16 3 7 -18 34
-16 27 1 -4 11 0 13 18 9 13 -4 26 -11 30 -17 5 -7 8 -4 8 7 0 9 5 17 10 17 6
0 10 -5 10 -12 0 -6 3 -8 6 -5 4 4 1 13 -6 22 -11 13 -10 14 4 9 9 -3 16 -1
16 6 0 7 6 5 16 -4 8 -9 20 -14 25 -11 11 7 12 16 1 13 -4 -2 -8 0 -9 5 -2 4
0 6 3 5 3 -2 10 5 15 15 6 9 14 15 20 12 5 -4 9 -1 9 5 0 7 7 9 16 6 21 -8 34
1 28 19 -4 8 -11 12 -16 9 -6 -4 -5 -9 2 -14 8 -5 3 -7 -14 -7 -20 2 -23 4
-13 12 8 6 12 15 10 22 -3 8 3 11 16 8 12 -2 21 1 21 8 0 8 3 8 9 -1 6 -10 10
-8 15 10 5 19 8 20 16 8 8 -12 10 -11 10 8 0 12 5 22 11 22 5 0 7 -4 4 -10 -3
-5 -2 -10 4 -10 5 0 12 4 15 9 3 4 34 14 68 21 35 6 69 17 76 23 10 8 15 8 21
-1 4 -7 12 -8 21 -2 20 13 33 12 25 0 -3 -5 -1 -10 4 -10 6 0 11 4 11 10 0 12
204 4 229 -10 11 -5 30 -10 43 -9 13 0 39 -3 58 -7 53 -12 117 -8 134 7 8 8
31 25 50 39 20 14 36 30 36 36 0 5 9 20 20 32 17 18 56 101 65 137 1 6 5 18
10 28 4 10 5 21 2 24 -4 3 -2 13 2 22 5 9 12 39 15 66 4 28 11 77 17 110 5 33
12 83 14 110 3 28 8 78 13 112 6 41 5 66 -2 73 -7 7 -7 10 1 10 19 0 5 196
-24 340 -4 19 -7 40 -8 45 0 6 -3 15 -6 20 -4 6 -9 28 -13 50 -11 69 -29 140
-38 150 -4 5 -8 19 -8 32 0 13 -5 23 -11 23 -5 0 -8 4 -4 10 3 5 -1 25 -9 45
-8 19 -12 35 -9 35 3 0 1 6 -5 13 -9 11 -24 82 -35 172 -2 17 -1 58 3 93 6 48
14 68 31 83 30 26 31 40 4 56 -17 11 -54 18 -56 11 0 -2 -2 -23 -5 -48 -3 -32
-12 -52 -30 -67 -31 -28 -37 -28 -99 2 -32 16 -53 21 -59 15 -6 -6 -20 -10
-33 -10 -16 0 -21 -4 -17 -15 8 -20 -34 -20 -64 1 -26 18 -30 74 -7 114 8 14
14 22 15 18 0 -4 14 -3 30 2 19 5 28 5 25 -1 -7 -11 2 -11 30 0 16 6 9 12 -40
30 -93 35 -281 81 -332 81 -73 0 -120 18 -132 51 -5 16 -16 29 -24 29 -24 0
-100 57 -104 78 -1 12 6 26 20 35 12 8 36 27 52 42 53 47 113 69 192 69 109 0
175 -42 318 -205 44 -50 84 -73 135 -76 25 -2 58 -5 74 -6 16 -1 31 -8 34 -15
2 -7 8 -10 13 -6 5 3 9 0 9 -6 0 -6 4 -9 9 -5 5 3 16 -4 24 -15 7 -11 17 -17
20 -13 4 3 7 -4 7 -16 0 -17 4 -21 15 -17 9 3 15 0 15 -10 0 -21 22 -13 35 13
7 13 18 19 33 16 13 -1 21 1 18 6 -6 9 -2 11 119 39 80 18 154 21 188 7 10 -4
17 -3 17 4 0 7 8 8 24 1 13 -5 33 -9 43 -8 37 1 195 -12 203 -17 5 -3 10 1 13
7 3 10 7 10 20 -1 10 -7 17 -10 17 -5 0 5 5 2 10 -6 5 -8 10 -10 10 -5 0 6 9
11 20 11 11 0 20 -4 20 -9 0 -5 14 -7 30 -5 17 3 30 0 30 -6 0 -6 5 -5 12 2
14 14 32 16 23 2 -3 -6 1 -7 10 -4 8 4 23 0 32 -7 14 -12 16 -12 8 1 -8 13 -7
13 8 1 14 -11 17 -11 17 0 0 10 3 10 12 1 7 -7 17 -8 29 -1 15 8 18 6 13 -8
-5 -16 -4 -16 10 1 10 12 16 15 16 7 0 -8 6 -11 15 -7 8 3 15 0 15 -6 0 -7 5
-6 15 2 8 7 15 8 15 3 0 -5 18 -9 40 -9 22 1 40 4 40 9 0 4 5 7 11 7 6 0 8 -7
5 -16 -5 -12 -3 -14 6 -7 7 5 28 10 45 12 28 2 32 0 27 -16 -4 -11 -3 -14 3
-6 5 6 22 14 38 17 17 3 42 8 57 11 14 4 29 1 33 -5 3 -5 11 -8 16 -5 5 4 9 1
9 -6 0 -7 9 -2 20 11 11 13 20 18 20 12 0 -7 5 -12 11 -12 6 0 8 7 5 16 -6 15
-4 15 11 3 10 -7 24 -20 32 -29 12 -13 13 -13 8 1 -3 9 0 16 8 16 7 0 11 -6 8
-14 -3 -7 -1 -13 4 -13 18 0 22 13 12 34 -9 18 -8 19 3 4 15 -18 66 -27 86
-15 6 5 12 4 12 0 0 -5 11 -10 26 -11 14 -1 23 2 19 8 -9 14 8 13 23 -2 8 -8
15 -8 27 2 13 11 14 10 8 -6 -6 -17 -5 -18 11 -5 15 13 19 13 27 0 7 -11 9
-10 10 6 0 11 3 14 6 7 2 -6 9 -10 14 -6 5 3 9 0 9 -6 0 -6 5 -8 13 -3 19 12
39 13 59 2 13 -7 18 -6 18 3 0 10 2 10 8 1 5 -8 22 -11 45 -8 25 3 37 1 38 -8
0 -6 4 -3 9 8 8 18 9 18 9 2 1 -14 5 -16 20 -7 28 14 36 12 21 -5 -15 -18 1
-20 19 -2 10 10 15 8 26 -7 14 -18 15 -18 24 5 5 13 10 17 10 9 1 -17 61 -25
61 -8 0 5 5 6 10 3 6 -4 8 -10 6 -14 -3 -4 4 -8 15 -8 10 -1 19 3 19 9 0 7 4
7 13 1 20 -17 67 -25 67 -12 0 8 4 8 13 2 17 -14 70 -26 63 -15 -3 5 6 7 19 4
14 -2 25 -9 25 -14 0 -7 4 -7 13 0 6 5 21 6 32 2 11 -4 26 -5 33 -3 6 3 12 -1
12 -8 0 -11 3 -11 10 1 9 13 11 13 20 0 8 -12 10 -10 11 10 1 19 2 21 6 6 4
-15 7 -16 14 -5 7 12 9 12 9 0 0 -11 3 -11 15 -1 12 10 15 10 15 -2 0 -9 8
-14 23 -12 12 1 22 3 22 4 0 7 36 6 40 -1 3 -5 15 -3 25 3 15 10 22 10 31 1
12 -12 42 -6 34 7 -3 4 12 4 32 -1 21 -4 39 -6 42 -4 2 3 10 -3 18 -13 14 -16
14 -16 9 1 -4 12 -2 16 6 11 19 -12 68 -12 68 0 0 6 5 4 10 -4 8 -12 10 -12
10 -1 0 10 3 11 13 3 19 -16 119 -26 127 -12 5 8 12 7 24 -5 9 -9 16 -12 16
-6 0 6 5 11 11 11 5 0 8 -4 4 -9 -3 -6 4 -9 15 -8 11 1 20 6 20 12 0 5 5 3 10
-5 9 -13 11 -13 20 0 9 13 10 13 10 0 0 -10 10 -15 30 -15 17 -1 30 3 30 8 0
5 6 7 14 4 7 -3 19 0 26 6 10 9 12 9 8 -3 -4 -11 2 -15 18 -15 13 0 24 3 24 6
0 7 60 3 97 -6 12 -3 24 -1 28 5 4 7 140 7 140 0 0 -1 16 -4 35 -5 47 -5 68
-10 76 -18 4 -4 18 -4 32 0 15 3 27 1 33 -8 8 -12 10 -12 18 0 8 12 18 12 70
-1 34 -8 61 -11 61 -6 0 13 17 9 33 -7 8 -8 17 -12 20 -9 3 3 32 8 64 10 32 2
52 0 46 -4 -7 -5 13 -8 46 -8 48 0 58 3 54 16 -3 11 -2 11 6 -2 10 -15 15 -15
46 -2 32 13 36 13 41 -1 5 -12 10 -13 20 -4 8 6 20 9 28 6 7 -3 18 -1 24 5 7
7 20 7 42 -1 18 -6 37 -8 43 -4 6 3 7 1 3 -5 -8 -13 6 -17 18 -5 16 17 82 19
101 3 6 -5 15 -7 19 -3 4 4 11 1 16 -7 7 -11 12 -11 23 -2 7 7 17 9 20 5 4 -3
12 -2 19 4 14 10 37 9 81 -2 15 -4 27 -3 27 2 0 6 22 6 53 2 46 -6 54 -4 69
15 10 11 18 15 18 9 0 -15 30 -18 30 -3 0 6 5 10 11 10 5 0 7 -5 3 -11 -3 -6
8 -3 26 6 18 9 29 11 25 5 -4 -6 7 -4 25 5 17 9 38 14 46 11 8 -3 14 -2 14 2
0 4 15 7 33 8 53 0 124 12 145 23 11 6 22 7 26 3 4 -3 11 0 17 8 7 12 11 12
17 2 7 -10 14 -8 33 6 28 22 87 33 93 18 2 -6 5 -4 5 5 1 20 28 33 35 16 2 -7
5 -5 5 5 1 11 7 15 20 11 10 -3 22 0 25 6 4 5 13 8 21 4 11 -4 13 -1 9 12 -6
14 -3 16 16 10 17 -6 21 -4 14 6 -6 11 -5 12 7 3 14 -12 47 -13 64 -2 6 3 31
9 58 13 26 4 47 11 47 15 0 4 13 7 30 8 16 0 35 4 42 8 7 5 21 9 31 9 10 1 23
8 28 16 6 9 9 10 9 2 0 -9 7 -10 25 -3 18 7 25 6 25 -2 0 -7 7 -3 15 8 10 13
14 14 15 5 0 -10 3 -11 13 -2 8 6 17 8 20 5 3 -4 20 -1 37 4 19 7 28 7 25 1
-7 -10 36 -6 55 6 5 3 10 1 10 -6 0 -10 3 -10 12 -1 7 7 24 12 38 12 14 0 35
7 46 15 12 8 24 11 28 8 3 -3 6 -1 6 5 0 7 3 11 7 11 5 -1 11 0 16 1 4 1 10 3
15 4 29 7 52 19 52 27 0 5 11 9 25 9 15 0 25 6 25 14 0 8 19 18 45 25 25 6 45
15 45 19 0 4 16 8 36 10 19 1 43 6 53 11 18 10 84 22 139 24 17 1 32 4 32 7 0
3 10 6 23 6 46 3 67 9 67 17 0 4 5 5 11 2 6 -4 17 1 24 11 8 11 15 16 15 12 0
-15 40 32 40 47 0 9 7 18 15 21 8 4 15 12 15 20 0 8 5 14 10 14 6 0 10 7 10
16 0 18 134 151 162 160 10 3 18 10 18 15 0 5 -1771 9 -4625 9 l-4625 0 1
-1287z m353 972 c29 -14 32 -19 28 -51 -3 -28 -1 -35 9 -32 8 3 15 14 17 26 4
23 13 22 78 -11 40 -20 43 -20 68 -4 46 31 106 13 106 -31 0 -11 5 -24 10 -27
6 -3 10 -22 10 -41 0 -45 -47 -78 -100 -69 -72 12 -98 27 -176 103 -53 52 -84
65 -121 51 -35 -13 -64 14 -66 61 -2 28 2 35 23 41 31 10 72 4 114 -16z m4136
-415 c0 -5 -2 -10 -4 -10 -3 0 -8 5 -11 10 -3 6 -1 10 4 10 6 0 11 -4 11 -10z
m-3035 -550 c3 -5 18 -10 32 -10 22 0 24 -2 13 -15 -7 -9 -10 -18 -6 -22 3 -4
12 2 20 12 13 18 14 17 21 -15 6 -28 4 -37 -14 -51 -27 -22 -73 -11 -101 23
-24 28 -24 33 -4 63 17 27 29 31 39 15z"/>
<path d="M9627 10223 c3 -10 11 -22 17 -28 31 -27 77 -97 95 -144 23 -56 49
-101 60 -101 4 0 23 32 41 71 36 73 107 151 155 169 14 5 25 14 25 20 0 6 5 8
10 5 6 -3 10 1 10 9 0 14 -26 16 -210 16 -195 0 -209 -1 -203 -17z"/>
<path d="M10216 10218 c14 -48 23 -54 24 -15 0 27 -4 37 -16 37 -11 0 -14 -6
-8 -22z"/>
<path d="M9310 9852 c-22 -7 -111 -75 -139 -106 -17 -18 -27 -44 -33 -87 -11
-80 -18 -88 -68 -79 -43 8 -44 7 -74 -52 -44 -88 -173 -89 -227 -2 -34 56 -46
64 -91 59 -40 -4 -115 -27 -151 -46 -9 -5 -42 -19 -72 -30 -71 -26 -215 -161
-215 -201 0 -39 -34 -74 -84 -87 -25 -6 -68 -25 -96 -43 l-51 -32 2 -95 c3
-95 1 -109 -20 -164 -25 -65 -8 -158 54 -289 48 -104 81 -209 99 -320 9 -53
24 -121 32 -150 23 -79 78 -170 118 -197 l36 -24 71 37 c39 20 83 45 97 55
107 73 130 83 365 161 132 44 178 84 164 142 -14 58 -18 159 -8 191 13 37 52
77 73 73 15 -2 105 -97 133 -139 8 -13 47 -46 85 -72 86 -60 151 -70 217 -36
61 30 62 51 9 205 -44 127 -82 262 -91 319 -4 25 -25 73 -85 187 -37 71 -40
78 -40 99 0 11 -4 23 -10 26 -17 10 -11 25 9 25 10 0 22 -7 25 -16 3 -8 11
-12 17 -8 7 4 9 3 5 -4 -3 -6 2 -26 12 -44 29 -52 61 -145 54 -154 -4 -4 -2
-4 4 -1 7 4 15 -3 19 -16 4 -16 8 -18 12 -8 3 8 17 24 30 36 26 21 31 60 19
130 -2 17 -5 33 -5 38 -1 4 -6 6 -12 5 -18 -4 -26 203 -9 220 1 1 3 5 5 10 14
51 19 62 28 62 6 0 8 3 4 6 -3 3 12 33 34 67 51 79 54 91 41 195 -11 80 -14
89 -44 115 -18 15 -49 32 -68 37 -36 10 -153 11 -180 2z m-185 -1142 c-3 -5 0
-7 8 -4 10 3 18 -5 25 -25 9 -27 8 -32 -9 -41 -16 -9 -21 -7 -29 15 -13 34
-13 65 1 65 5 0 7 -4 4 -10z"/>
<path d="M2787 9291 c-10 -4 -19 -11 -19 -16 0 -6 -4 -9 -9 -7 -5 1 -9 -4 -10
-10 0 -7 -4 -4 -9 7 -8 18 -9 18 -9 -5 -1 -18 -4 -21 -10 -12 -12 19 -61 -28
-61 -57 0 -22 -17 -104 -27 -131 -4 -8 -5 -19 -4 -24 1 -5 -3 -12 -9 -16 -6
-4 -13 -18 -15 -31 -2 -13 -6 -40 -9 -59 -9 -51 -16 -122 -22 -227 -6 -89 -6
-93 14 -93 29 0 62 -46 62 -86 0 -42 -33 -81 -85 -98 -38 -13 -40 -17 -43 -58
-3 -56 -19 -178 -32 -248 -9 -49 -12 -236 -6 -374 1 -26 -1 -72 -5 -102 -8
-63 2 -120 28 -145 10 -11 39 -20 68 -24 82 -8 157 -23 203 -39 48 -17 207
-42 392 -61 69 -7 136 -15 150 -18 88 -20 301 -35 338 -25 18 5 58 7 88 3 47
-5 61 -2 98 20 23 13 52 35 63 47 35 38 83 138 83 173 0 19 5 37 10 40 6 4 10
18 9 33 -1 15 2 47 6 72 29 187 38 655 14 702 -6 10 -5 19 1 23 5 3 10 11 10
16 0 6 -4 7 -10 4 -8 -5 -12 7 -9 31 0 3 -11 15 -25 28 -14 12 -26 26 -26 32
0 6 -10 16 -23 21 -13 6 -24 17 -25 25 -3 43 -10 69 -25 92 -10 14 -15 26 -12
26 4 0 0 7 -8 15 -9 8 -17 19 -19 23 -1 5 -26 25 -54 44 -49 34 -104 47 -104
24 0 -6 -4 -4 -9 4 -6 8 -7 18 -5 22 3 5 -2 15 -10 24 -9 8 -16 24 -16 33 0
10 -6 24 -14 30 -7 6 -16 28 -20 49 -3 20 -15 56 -26 79 -22 50 -49 64 -165
88 -44 9 -89 21 -100 25 -28 11 -106 32 -130 35 -11 2 -49 11 -85 20 -36 10
-74 19 -85 21 -19 2 -60 11 -160 34 -47 11 -64 11 -88 1z m138 -361 c-3 -5
-10 -10 -16 -10 -5 0 -9 5 -9 10 0 6 7 10 16 10 8 0 12 -4 9 -10z m-52 -155
c-42 -179 -65 -259 -85 -295 -20 -34 -31 -90 -17 -90 3 0 4 -12 1 -26 -3 -19
-7 -22 -13 -12 -5 7 -9 9 -10 3 -1 -5 -3 -19 -4 -30 -4 -31 -26 -108 -37 -129
-8 -15 -12 -16 -19 -5 -7 12 -9 12 -9 0 0 -11 -3 -11 -15 -1 -8 7 -12 16 -9
21 3 5 -2 12 -10 15 -27 10 -12 114 17 114 5 0 7 7 3 15 -3 8 -2 15 2 15 14 0
31 77 23 106 -4 16 -6 35 -3 43 3 8 -3 20 -14 28 -16 12 -16 13 -1 13 15 0 16
2 5 14 -7 7 -18 12 -24 9 -7 -2 -15 1 -20 8 -5 8 -3 10 6 4 10 -6 11 -2 6 18
-3 14 -1 29 4 32 6 4 8 14 5 24 -3 9 2 26 11 37 12 15 15 16 10 2 -3 -9 0 -19
7 -22 9 -3 8 -7 -3 -15 -8 -5 -11 -13 -8 -17 4 -3 16 9 27 27 18 30 19 34 5
39 -14 5 -14 7 0 20 10 7 14 20 11 28 -3 8 0 21 6 28 9 11 9 14 0 14 -6 0 -14
-7 -17 -15 -5 -11 -10 -13 -19 -5 -9 8 -14 6 -19 -6 -11 -27 -7 -37 9 -24 12
10 15 10 15 -4 0 -9 -2 -16 -4 -16 -2 0 -11 -3 -20 -6 -12 -4 -16 0 -16 16 0
30 19 62 32 54 5 -4 13 -2 17 4 9 16 57 20 54 5 -1 -6 4 -14 13 -17 11 -4 12
-1 6 12 -5 9 -7 23 -6 30 1 6 2 17 3 23 0 5 6 7 11 4 6 -3 10 -1 10 6 0 7 3 9
7 6 3 -4 12 1 20 11 12 14 14 14 10 1 -3 -9 1 -16 9 -16 7 0 17 10 20 21 4 12
12 24 18 28 22 15 22 -48 -1 -147z m-203 61 c0 -3 -4 -8 -10 -11 -5 -3 -10 -1
-10 4 0 6 5 11 10 11 6 0 10 -2 10 -4z m-22 -131 c-3 -3 -9 2 -12 12 -6 14 -5
15 5 6 7 -7 10 -15 7 -18z m515 -480 c40 -39 45 -127 18 -295 -18 -108 -29
-147 -48 -166 -16 -16 -18 -15 -25 11 -4 16 -13 32 -19 36 -7 4 -18 42 -25 86
-24 148 -15 229 36 305 27 41 41 46 63 23z m-290 -139 c2 -42 7 -79 10 -82 3
-4 -1 -20 -10 -38 l-16 -31 -9 24 c-4 13 -9 67 -10 120 -3 156 26 162 35 7z
m442 -187 c4 -11 4 -41 1 -67 -3 -26 -6 -69 -7 -97 -2 -81 -10 -115 -27 -115
-8 0 -13 3 -10 6 3 3 -6 17 -20 31 -18 19 -22 27 -12 33 7 4 13 19 13 34 0 14
4 26 9 26 6 0 8 15 4 38 -7 45 -8 91 0 115 7 24 41 22 49 -4z"/>
<path d="M2650 8629 c0 -5 5 -7 10 -4 6 3 10 8 10 11 0 2 -4 4 -10 4 -5 0 -10
-5 -10 -11z"/>
<path d="M2692 8620 c0 -14 2 -19 5 -12 2 6 2 18 0 25 -3 6 -5 1 -5 -13z"/>
<path d="M7355 9199 c-16 -5 -51 -17 -77 -25 -49 -16 -50 -17 -108 -27 -42 -8
-274 -46 -316 -52 -25 -3 -51 -8 -164 -29 -14 -3 -45 -11 -70 -18 -44 -13 -45
-15 -48 -58 -6 -79 18 -201 74 -374 51 -157 55 -176 60 -290 4 -109 12 -194
20 -221 2 -5 8 -28 13 -50 8 -37 38 -100 75 -157 23 -36 45 -131 33 -143 -6
-6 -28 -9 -49 -6 -22 2 -45 -2 -51 -8 -6 -6 -10 -44 -9 -92 2 -96 27 -164 66
-179 40 -15 110 -17 124 -3 7 6 21 10 32 8 11 -2 20 1 20 7 0 6 13 8 31 6 18
-3 33 0 35 7 3 6 17 10 34 7 25 -3 30 -1 30 16 0 20 43 38 83 34 9 -1 17 2 17
7 0 5 19 12 43 16 23 4 85 23 137 42 115 42 235 71 327 79 67 6 123 24 142 48
19 23 22 79 7 155 -9 42 -18 92 -20 111 -2 20 -18 87 -34 150 -17 63 -38 151
-46 195 -8 44 -31 127 -51 185 -52 154 -103 342 -119 445 -8 50 -24 110 -35
135 -11 25 -21 55 -21 68 0 21 -4 22 -77 21 -43 0 -91 -5 -108 -10z m-255
-1673 c0 -3 -4 -8 -10 -11 -5 -3 -10 -1 -10 4 0 6 5 11 10 11 6 0 10 -2 10 -4z"/>
<path d="M4842 8928 c-28 -7 -38 -19 -59 -65 -25 -53 -26 -62 -20 -172 4 -64
9 -127 12 -141 17 -79 26 -227 23 -385 -2 -156 0 -186 16 -223 18 -43 19 -43
37 -23 11 11 19 26 19 34 0 7 10 27 23 44 l23 31 17 -21 c9 -12 17 -25 17 -30
0 -23 77 -61 117 -57 51 6 62 -1 110 -72 59 -88 74 -124 70 -163 -6 -46 -22
-69 -64 -90 -21 -10 -46 -22 -55 -26 -10 -5 -26 -9 -37 -9 -29 0 -51 -11 -51
-25 0 -7 -11 -20 -24 -31 -14 -10 -23 -21 -20 -26 3 -4 -5 -8 -16 -8 -15 0
-20 -5 -17 -14 8 -19 -15 -66 -31 -66 -7 0 -10 -4 -7 -10 3 -5 -4 -10 -15 -10
-12 0 -34 -8 -48 -18 -15 -10 -52 -29 -82 -42 -30 -12 -82 -41 -115 -63 -76
-52 -198 -155 -207 -176 -3 -9 -26 -40 -51 -68 -86 -100 -184 -238 -214 -303
-50 -106 -63 -137 -63 -151 0 -7 -4 -26 -10 -43 -33 -107 -49 -170 -44 -177 7
-11 -50 -180 -77 -229 -11 -19 -33 -53 -49 -75 -33 -46 -106 -188 -115 -225
l-6 -25 21 25 22 25 -7 -25 c-4 -14 -9 -63 -10 -110 -2 -50 -12 -116 -25 -160
-30 -101 -39 -148 -40 -194 0 -43 9 -41 25 5 9 25 10 20 10 -34 0 -48 6 -77
26 -118 87 -177 96 -204 75 -225 -9 -9 -14 -20 -11 -25 3 -4 -2 -20 -11 -34
-9 -14 -13 -25 -9 -25 4 0 1 -7 -6 -16 -49 -59 -83 -158 -80 -229 1 -11 1 -67
1 -124 0 -57 4 -118 10 -135 5 -17 28 -86 50 -153 22 -68 40 -131 40 -140 1
-14 4 -12 14 7 l14 25 4 -30 c4 -30 -35 -126 -54 -133 -14 -6 -50 -82 -38 -82
5 0 10 5 10 12 0 9 3 9 13 -1 10 -10 8 -16 -10 -31 -13 -10 -23 -23 -23 -29 0
-5 -5 -13 -12 -17 -7 -5 -8 -2 -3 7 5 8 4 11 0 6 -5 -4 -10 -15 -11 -25 -1 -9
-10 -48 -18 -87 -19 -83 -18 -78 -6 -70 6 4 10 -5 10 -19 0 -14 4 -26 10 -26
5 0 17 -14 26 -32 9 -17 25 -40 35 -51 19 -21 49 -110 49 -147 0 -12 6 -36 14
-53 8 -18 16 -54 19 -80 4 -41 11 -55 48 -91 55 -53 82 -100 76 -131 -2 -14 0
-26 5 -27 19 -7 -19 -73 -63 -112 -128 -112 -122 -105 -127 -160 -4 -58 10
-106 33 -106 8 0 15 -4 15 -10 0 -5 7 -10 16 -10 10 0 14 5 10 15 -8 22 37
117 63 133 11 7 21 18 21 25 0 8 11 24 25 37 21 20 25 21 25 7 0 -16 2 -16 25
-1 35 23 41 12 20 -32 -13 -28 -14 -38 -5 -44 10 -6 10 -15 1 -40 -16 -47 -15
-48 34 -45 l45 3 -6 -39 c-5 -32 -4 -39 10 -39 9 0 16 -5 16 -12 0 -6 6 -19
14 -27 8 -9 16 -29 18 -46 2 -24 0 -29 -14 -27 -13 2 -18 -4 -18 -23 0 -15 6
-25 15 -25 39 0 103 -126 83 -164 -6 -12 -7 -18 -3 -14 4 4 18 -5 30 -20 21
-24 22 -29 9 -49 -8 -12 -14 -29 -14 -38 0 -9 -7 -18 -15 -22 -18 -6 -45 -54
-45 -78 0 -9 9 -15 25 -15 19 0 25 -5 25 -21 0 -22 7 -22 68 -4 20 7 22 4 22
-26 0 -26 3 -30 10 -19 12 19 13 4 1 -19 -6 -10 -12 -35 -15 -57 -2 -21 -7
-51 -11 -66 -4 -15 -2 -41 3 -58 9 -24 8 -30 -3 -30 -20 0 -50 35 -87 100 -17
30 -43 71 -58 90 -15 19 -38 55 -50 80 -13 25 -37 61 -55 80 -18 19 -44 48
-57 64 -25 30 -47 36 -191 52 -67 8 -76 18 -81 97 -2 28 -9 79 -15 112 -12 68
-14 161 -3 220 4 22 3 63 -3 92 l-10 52 -35 -29 c-25 -21 -46 -30 -72 -30 -70
0 -81 -51 -48 -225 17 -90 9 -125 -28 -125 -15 0 -45 7 -67 15 -22 8 -57 14
-77 15 -33 0 -38 4 -44 28 -5 24 -32 112 -108 360 -14 46 -26 92 -26 104 0 11
-11 46 -25 77 -13 31 -31 82 -40 113 -23 83 -47 98 -149 98 -44 0 -152 5 -239
11 -170 13 -189 10 -217 -34 -7 -12 -14 -44 -16 -72 -1 -27 -5 -71 -9 -97 -6
-37 -3 -61 14 -105 11 -32 25 -76 30 -98 8 -31 9 -22 4 41 -4 57 -2 84 6 89 7
4 38 8 70 8 l58 2 -4 36 c-5 32 -2 39 21 54 24 16 28 16 50 1 36 -23 42 -53
17 -87 -20 -26 -20 -32 -7 -62 7 -18 25 -52 40 -76 17 -26 37 -88 56 -169 l29
-127 -21 -18 c-12 -10 -37 -17 -62 -17 -45 0 -86 -22 -86 -47 0 -12 9 -14 47
-10 26 2 61 -1 77 -8 17 -7 37 -10 43 -8 7 3 34 -3 61 -11 55 -19 75 -53 65
-114 -7 -40 -20 -54 -72 -77 -81 -36 -160 -6 -272 104 -70 69 -79 82 -79 114
0 20 -3 37 -7 37 -18 -1 -45 -55 -58 -118 -18 -87 -41 -107 -176 -157 -117
-42 -179 -72 -256 -121 l-53 -34 0 -55 0 -55 36 0 c21 0 74 17 123 39 47 21
106 43 131 49 85 21 117 39 123 69 9 45 46 86 73 80 21 -4 23 -1 18 20 -5 19
1 30 27 54 40 36 76 37 112 4 24 -23 27 -33 27 -90 0 -69 -1 -70 -57 -65 -26
2 -29 -14 -12 -73 10 -38 51 -88 81 -99 15 -6 19 -25 18 -98 0 -14 0 -59 -1
-100 -1 -156 32 -317 78 -378 22 -30 24 -60 2 -47 -5 4 -9 0 -9 -7 0 -10 -2
-10 -9 1 -5 7 -13 11 -18 8 -5 -3 -16 3 -23 14 -8 10 -20 19 -27 19 -7 0 -10
7 -6 17 4 11 3 14 -5 9 -7 -4 -12 -2 -12 4 0 6 -8 14 -17 17 -9 4 -26 17 -38
29 -20 22 -75 41 -75 26 0 -4 9 -18 20 -30 12 -12 18 -22 14 -22 -4 0 9 -17
29 -37 65 -67 87 -94 103 -125 9 -17 20 -36 25 -42 71 -88 76 -102 43 -109
-15 -3 -28 1 -33 10 -4 8 -11 15 -14 14 -14 -1 -43 14 -61 31 -11 10 -25 18
-32 18 -7 0 -16 9 -19 20 -3 11 -11 20 -17 20 -6 0 -8 3 -5 6 4 4 -3 20 -14
35 -11 16 -17 29 -12 29 4 1 -5 8 -22 17 -16 9 -42 16 -57 14 -16 -1 -28 1
-28 6 0 5 -9 9 -21 10 -31 3 -54 24 -37 34 10 7 9 9 -4 9 -10 0 -18 5 -18 11
0 5 -3 8 -8 6 -9 -6 -33 19 -25 27 4 3 -3 6 -15 6 -12 0 -22 4 -22 10 0 5 -13
8 -30 6 -22 -2 -30 1 -31 13 0 11 -2 12 -6 3 -4 -10 -8 -10 -19 -1 -12 10 -13
9 -7 -6 5 -14 3 -17 -9 -12 -11 4 -18 -1 -21 -15 -3 -11 -10 -17 -15 -14 -5 3
-7 -6 -4 -19 2 -14 8 -25 13 -25 11 0 10 -48 -1 -75 -5 -11 -9 -15 -10 -10 0
6 -7 1 -15 -9 -8 -11 -15 -15 -15 -9 0 7 -9 11 -20 10 -11 -1 -20 -6 -20 -12
0 -5 -5 -3 -10 5 -5 8 -10 11 -10 5 1 -5 6 -18 14 -27 10 -13 15 -15 24 -6 7
7 12 9 12 6 0 -10 -31 -38 -42 -38 -5 0 -7 7 -4 16 4 9 2 13 -5 8 -6 -4 -15 0
-20 7 -7 11 -9 11 -9 1 0 -8 -10 -5 -30 9 -16 12 -26 27 -23 33 4 6 -1 5 -10
-3 -14 -11 -18 -11 -23 3 -4 10 -13 15 -20 12 -8 -3 -14 -1 -14 4 0 5 -14 7
-31 3 -27 -5 -30 -3 -27 15 1 12 1 20 -2 19 -4 -1 -25 15 -49 35 -37 31 -47
35 -68 27 -16 -6 -22 -6 -18 1 4 6 -5 10 -19 10 -14 0 -26 3 -26 8 0 4 -37 8
-83 9 -45 1 -103 5 -129 8 l-47 7 -70 -70 c-38 -39 -73 -67 -77 -64 -4 4 -5 2
-1 -3 9 -17 -8 -36 -25 -30 -9 4 -18 15 -21 26 -4 13 -10 17 -23 12 -12 -4
-15 -3 -10 5 5 8 0 12 -13 13 -27 2 -28 2 -85 28 -31 15 -44 26 -37 31 10 5 9
9 -3 13 -8 3 -16 1 -19 -6 -2 -7 -18 -4 -47 11 -24 11 -47 19 -52 16 -5 -3
-18 4 -29 17 -17 19 -23 19 -21 -2 1 -4 -8 -5 -18 -2 -11 3 -20 9 -20 14 0 5
-6 6 -14 3 -7 -3 -16 2 -19 10 -4 9 -12 16 -19 16 -9 0 -8 -3 2 -10 25 -16
-11 -13 -53 5 -20 8 -56 16 -81 17 -25 0 -46 6 -46 12 0 6 -5 4 -10 -4 -6 -9
-10 -10 -10 -3 0 7 -9 10 -21 8 -12 -2 -30 0 -39 5 -13 7 -20 6 -23 -3 -4 -9
-6 -8 -6 2 -1 11 -4 11 -18 0 -9 -8 -14 -9 -10 -3 4 7 0 14 -7 17 -8 3 -17 1
-19 -6 -3 -9 -7 -9 -17 0 -7 6 -19 9 -26 6 -20 -7 -43 21 -61 74 -23 69 -29
75 -77 68 -35 -6 -45 -3 -69 19 -34 31 -79 34 -107 6 -25 -25 -25 -32 0 -55
11 -10 20 -24 20 -30 0 -7 24 -22 53 -34 93 -39 116 -71 119 -163 1 -65 -10
-76 -59 -53 -21 10 -40 21 -43 25 -19 26 -233 117 -317 135 l-33 7 0 -706 0
-706 630 0 c598 0 630 1 621 18 -5 9 -28 42 -50 72 -43 56 -47 77 -15 72 10
-2 111 -32 224 -68 279 -86 320 -94 508 -93 160 0 171 7 54 28 -122 23 -594
174 -618 199 -15 14 -15 17 0 28 15 10 13 13 -15 23 -18 6 -41 11 -52 11 -16
0 -17 -3 -7 -15 10 -12 9 -15 -6 -15 -11 0 -26 5 -34 10 -12 8 -12 10 5 10 20
1 20 1 1 15 -19 14 -18 15 10 16 21 0 24 2 11 7 -11 5 11 14 68 26 47 10 88
22 90 27 3 4 14 5 25 2 12 -3 20 0 20 7 0 7 7 10 15 6 9 -3 15 0 15 9 0 17 49
44 68 38 6 -3 12 0 12 6 0 6 16 8 38 6 20 -2 40 -4 44 -4 4 -1 5 -9 2 -18 -5
-14 -4 -15 4 -4 6 8 8 20 5 28 -3 7 0 13 6 13 6 0 11 -5 11 -11 0 -5 4 -8 9
-4 5 3 12 1 16 -5 3 -5 12 -10 18 -10 7 0 6 4 -3 11 -12 9 -11 9 5 4 29 -11
74 -7 225 20 74 13 182 31 240 39 58 9 150 24 205 32 l100 16 165 -41 c91 -22
255 -56 365 -76 545 -97 657 -118 745 -140 177 -46 331 -75 391 -75 51 0 59 3
59 19 0 10 -7 24 -15 31 -8 7 -15 18 -15 25 0 6 -9 20 -20 30 -11 10 -20 23
-20 29 0 6 -16 26 -35 45 -19 19 -35 40 -35 48 0 10 -6 12 -20 8 -12 -4 -20
-2 -20 5 0 17 -26 40 -44 40 -9 0 -16 7 -16 15 0 16 -38 38 -82 49 -16 3 -28
11 -28 16 0 6 -6 10 -12 10 -7 0 -37 11 -65 25 -41 18 -51 28 -46 41 5 13 2
15 -15 10 -11 -4 -23 -3 -26 2 -3 6 -18 13 -32 16 -15 4 -33 14 -41 22 -8 8
-19 12 -24 9 -5 -4 -14 5 -21 19 -6 14 -17 26 -25 26 -8 0 -19 5 -26 10 -7 6
-22 19 -35 29 -13 11 -23 22 -23 25 4 30 -15 38 -21 9 -3 -15 -4 -15 -19 0 -9
9 -20 13 -23 9 -4 -3 -9 4 -13 16 -3 12 -10 19 -15 16 -5 -3 -4 3 3 14 10 17
10 24 -4 46 -23 34 -31 33 -42 -6 -8 -26 -16 -34 -38 -36 -18 -2 -29 2 -34 14
-7 18 24 84 40 84 5 0 2 12 -8 26 -11 18 -14 29 -7 36 15 15 66 -5 71 -27 2
-10 14 -27 27 -38 13 -10 24 -23 24 -28 0 -25 72 -84 145 -119 83 -39 178 -62
328 -80 48 -6 113 -20 143 -31 53 -20 133 -72 164 -108 8 -9 37 -32 65 -51 50
-35 77 -55 100 -77 8 -7 18 -13 24 -13 6 0 11 -7 11 -16 0 -8 5 -12 10 -9 10
6 40 -17 40 -30 0 -11 27 -34 33 -28 4 3 11 -6 18 -20 6 -14 21 -28 32 -31 18
-4 18 -7 7 -21 -12 -15 -12 -18 3 -27 10 -5 14 -14 11 -20 -5 -8 -1 -9 10 -5
15 6 17 3 12 -17 -4 -16 -1 -28 8 -33 15 -9 61 -93 58 -106 -1 -5 2 -5 9 -2 6
4 19 -2 29 -13 10 -11 25 -22 32 -24 7 -3 12 -17 10 -32 -2 -23 1 -26 18 -21
11 4 29 0 42 -9 16 -12 47 -16 112 -16 l89 0 -26 20 c-14 11 -29 20 -34 20
-31 0 -190 213 -223 300 -14 37 -24 50 -83 107 -26 25 -35 42 -31 55 3 12 0
18 -9 18 -25 0 -27 28 -4 42 12 8 27 13 32 13 15 -2 48 -15 65 -25 8 -5 36
-20 61 -33 25 -14 56 -35 70 -48 13 -13 38 -34 54 -46 l30 -22 -27 -10 c-27
-10 -39 -31 -18 -31 6 0 10 -8 10 -18 0 -10 6 -26 13 -37 7 -11 26 -60 42
-110 27 -85 68 -166 87 -173 4 -2 6 -8 2 -13 -3 -5 53 -9 134 -9 128 0 140 1
136 18 -6 23 24 66 77 111 40 33 67 73 38 55 -9 -5 -10 1 -5 20 3 14 3 26 -1
26 -13 0 -32 50 -26 66 3 7 -2 17 -11 20 -21 8 -20 43 2 60 15 12 13 13 -20
14 -31 0 -36 3 -31 16 5 14 1 16 -20 12 -28 -5 -32 -1 -18 20 6 11 21 11 77 1
78 -13 132 -36 148 -62 8 -13 8 -20 -2 -26 -11 -6 -10 -12 5 -26 10 -10 16
-29 15 -42 -2 -14 3 -25 12 -29 9 -3 16 -12 16 -19 0 -8 18 -24 40 -36 45 -26
80 -74 80 -111 0 -22 41 -58 67 -58 15 0 45 59 39 78 -2 9 -7 27 -11 40 -6 20
-4 22 22 18 34 -6 73 -53 94 -115 l16 -46 577 -3 577 -2 59 31 c33 17 60 34
60 38 0 3 10 11 22 16 26 12 40 42 14 32 -9 -4 -16 -2 -16 3 0 6 25 21 56 35
32 14 62 31 68 39 6 7 23 16 39 20 15 4 27 13 27 22 0 11 6 14 16 10 8 -3 28
1 43 9 23 11 35 12 60 2 17 -6 31 -18 31 -25 0 -8 9 -16 20 -19 11 -3 20 -10
20 -15 0 -6 9 -8 19 -5 11 3 22 -1 25 -8 6 -16 94 -10 211 14 74 15 130 21
233 27 80 5 92 4 92 -10 0 -9 13 -30 29 -45 l30 -29 -32 -26 -31 -26 21 -19
c13 -13 43 -22 86 -26 42 -5 64 -11 60 -18 -4 -6 4 -7 22 -3 24 6 27 5 17 -7
-10 -11 -2 -14 49 -16 57 -2 119 14 119 31 0 16 46 7 63 -12 23 -27 45 -25 59
5 6 14 15 25 20 25 5 0 6 5 2 12 -4 6 -3 9 2 5 17 -10 47 21 39 40 -5 10 -9
31 -10 46 -2 24 0 27 19 21 11 -4 23 -11 24 -15 2 -5 22 -9 45 -9 73 0 87 -8
83 -44 -3 -17 -6 -38 -8 -46 -2 -11 7 -14 37 -15 35 0 40 -3 39 -22 l-1 -23
664 0 663 0 0 1808 0 1809 -30 -5 c-67 -10 -119 26 -115 80 3 37 24 88 37 88
16 0 7 66 -16 115 -13 28 -36 62 -53 76 -35 29 -48 74 -63 219 -7 57 -16 112
-21 122 -13 24 -42 38 -78 38 -18 0 -47 13 -76 35 -49 38 -69 39 -98 7 -28
-32 -57 -154 -69 -286 -6 -72 -11 -132 -12 -132 0 -1 -12 -5 -25 -9 -15 -4
-21 -3 -17 3 3 5 -1 13 -10 16 -9 3 -12 2 -9 -5 4 -6 -2 -8 -17 -4 -21 5 -27
1 -41 -32 -17 -38 -20 -123 -4 -123 5 0 7 -10 5 -22 -4 -33 20 -60 44 -47 10
5 18 19 18 30 0 11 4 18 9 15 5 -3 11 7 14 22 3 15 8 36 10 47 3 11 6 23 6 28
1 4 5 7 11 7 5 0 7 -7 4 -15 -4 -8 -1 -15 6 -15 26 0 63 -58 65 -105 1 -16 -5
-47 -12 -69 -7 -21 -13 -49 -13 -61 0 -13 -5 -25 -11 -27 -6 -2 5 -20 24 -39
32 -32 41 -36 86 -34 28 1 49 -1 47 -4 -2 -3 25 -6 60 -6 45 0 65 -4 69 -14 3
-9 0 -11 -10 -7 -12 4 -13 2 -6 -13 10 -19 -2 -41 -23 -41 -6 0 -31 -14 -55
-30 -46 -31 -67 -38 -55 -18 4 7 3 8 -4 4 -7 -4 -12 -13 -12 -19 0 -7 -13 -14
-30 -15 -16 -1 -30 3 -30 8 0 6 -5 8 -10 5 -6 -4 -10 -12 -9 -18 4 -32 -1 -40
-16 -27 -14 12 -14 15 0 30 17 19 20 46 5 55 -5 3 -10 14 -10 23 0 9 -15 29
-33 43 -51 41 -105 33 -367 -57 -58 -20 -112 -42 -121 -50 -8 -8 -21 -14 -27
-14 -7 0 -12 -5 -12 -12 0 -6 -3 -8 -7 -5 -3 4 -12 -1 -19 -10 -13 -19 -8 -79
9 -100 6 -9 5 -18 -3 -28 -10 -12 -10 -15 1 -15 11 0 11 -2 1 -8 -7 -5 -10
-16 -6 -25 4 -11 1 -17 -7 -17 -9 0 -10 -3 -4 -8 6 -4 11 -13 13 -21 3 -12 0
-12 -13 -1 -13 11 -15 9 -13 -11 4 -29 19 -48 34 -42 7 2 15 0 19 -6 3 -6 15
-11 26 -11 10 0 19 -4 19 -10 0 -5 -5 -10 -11 -10 -5 0 -8 -4 -5 -9 8 -12 -92
-97 -108 -93 -6 2 -8 1 -4 -3 8 -9 -9 -27 -40 -44 -12 -7 -20 -16 -17 -21 3
-6 -1 -7 -9 -4 -10 4 -16 1 -16 -9 0 -9 -11 -24 -25 -35 -14 -11 -25 -23 -25
-27 0 -12 -80 -89 -95 -91 -20 -3 33 74 79 113 20 16 36 34 36 38 0 4 13 20
29 36 55 52 16 90 -54 53 -16 -9 -63 -34 -104 -55 -40 -21 -78 -42 -85 -47 -6
-5 -38 -24 -71 -42 -64 -35 -150 -103 -202 -160 -21 -23 -35 -32 -41 -25 -10
10 -43 177 -57 280 -8 60 -50 284 -71 375 -8 36 -35 103 -58 150 -24 47 -63
137 -86 200 -24 63 -61 153 -82 200 -22 47 -62 141 -90 210 -27 69 -57 136
-66 150 -9 14 -25 41 -35 60 -10 19 -41 56 -68 81 -27 25 -49 51 -49 57 0 7
-9 12 -20 12 -11 0 -20 3 -20 8 -1 4 -25 22 -54 41 -52 34 -87 71 -66 71 5 0
10 -4 10 -10 0 -5 5 -10 10 -10 15 0 12 31 -6 51 -31 34 0 45 66 24 22 -7 25
1 10 25 -5 9 -5 19 2 27 15 19 38 16 39 -4 1 -12 4 -9 8 7 5 16 2 33 -7 48
-13 20 -13 22 2 16 11 -4 16 -1 16 10 0 28 1 31 16 39 19 11 18 31 -1 23 -16
-6 -21 9 -5 19 5 3 7 12 4 19 -3 8 4 21 16 29 15 11 18 16 8 20 -10 3 -8 9 7
21 15 12 16 16 5 16 -12 1 -12 3 3 14 9 7 17 17 17 21 0 4 -8 4 -17 0 -15 -5
-16 -4 -5 6 6 7 12 22 12 34 0 12 6 27 13 34 10 11 10 13 0 7 -9 -5 -13 0 -13
13 0 12 5 21 10 21 6 0 10 9 10 20 0 11 4 20 9 20 5 0 14 12 19 28 6 15 11 21
11 15 1 -7 5 -13 11 -13 5 0 9 3 9 8 -1 4 -1 14 0 22 1 13 2 13 11 0 8 -13 10
-13 10 1 0 17 76 53 91 43 5 -3 6 2 3 10 -4 12 1 14 28 11 24 -3 29 -2 18 5
-16 10 -15 10 33 14 6 1 16 7 20 14 5 7 12 10 18 7 5 -4 9 -1 9 4 0 6 5 11 12
11 6 0 19 7 29 16 9 8 23 16 31 18 14 2 51 30 77 59 8 9 21 17 27 17 7 0 10 8
7 20 -4 14 0 20 11 20 12 0 16 10 16 38 0 21 5 43 12 50 9 9 8 12 -5 12 -22 0
-22 9 1 27 16 13 15 14 -5 8 -20 -5 -23 -2 -24 22 -1 15 -1 31 0 36 0 4 -4 7
-9 7 -6 0 -10 9 -10 20 0 11 -4 20 -9 20 -5 0 -15 16 -22 35 -7 19 -17 35 -21
35 -4 0 -8 6 -8 14 0 7 -7 19 -15 26 -9 7 -13 15 -10 18 2 3 -9 29 -26 59 -17
29 -28 53 -25 53 8 0 -150 268 -165 280 -12 9 -77 195 -93 264 -9 38 -25 89
-36 114 -11 25 -27 72 -36 104 -17 69 -53 107 -99 108 -35 0 -94 -30 -220
-111 -49 -32 -125 -79 -168 -104 -44 -26 -94 -62 -113 -82 l-34 -35 5 -127 c3
-97 9 -138 24 -172 22 -50 87 -122 105 -116 6 2 26 -11 44 -29 26 -27 32 -41
32 -77 0 -24 -3 -47 -7 -50 -4 -4 -8 -29 -9 -56 -1 -26 -9 -62 -18 -80 -9 -17
-14 -31 -10 -31 4 0 1 -7 -6 -15 -6 -8 -9 -19 -5 -25 3 -5 2 -10 -4 -10 -5 0
-12 -9 -16 -19 -4 -15 9 -35 55 -81 33 -34 60 -59 60 -56 0 3 14 -6 30 -21 35
-30 39 -62 10 -70 -11 -3 -20 -10 -20 -15 0 -5 -4 -7 -9 -4 -5 3 -14 0 -20 -8
-7 -8 -23 -17 -37 -20 -13 -4 -33 -14 -43 -24 -10 -9 -27 -24 -39 -32 -12 -8
-22 -20 -22 -27 0 -12 -35 -36 -55 -38 -18 -2 -46 16 -40 25 3 6 -1 7 -9 4 -9
-3 -16 -13 -16 -22 0 -11 -9 -6 -30 16 -33 37 -38 57 -15 66 9 3 15 18 15 35
0 17 5 41 12 55 10 24 12 24 24 8 10 -14 11 -9 4 27 -4 24 -15 48 -24 53 -9 5
-16 18 -16 30 0 11 -9 36 -21 55 -20 33 -20 63 1 63 5 0 10 -11 10 -24 0 -13
7 -27 16 -30 8 -3 13 -9 11 -13 -2 -5 2 -21 9 -38 10 -23 13 -25 13 -10 1 30
-27 105 -49 133 -22 27 -26 52 -10 52 5 0 9 6 7 13 -1 6 4 11 11 9 7 -1 12 5
10 15 -2 14 6 19 38 23 58 8 91 32 96 72 3 18 2 42 -2 53 -9 23 -45 66 -51 61
-9 -8 -134 15 -142 27 -6 8 -7 5 -4 -8 2 -11 -2 -26 -10 -33 -7 -7 -11 -17 -8
-22 3 -6 -1 -7 -10 -4 -11 4 -18 0 -21 -12 -4 -14 -14 -19 -40 -19 -19 0 -38
5 -42 11 -4 6 -14 11 -22 12 -50 3 -69 16 -156 103 -41 40 -79 88 -85 106 -6
18 -15 33 -21 33 -6 0 -8 12 -5 28 3 15 2 43 -3 62 -5 19 -17 71 -26 115 -10
44 -33 113 -52 154 -19 41 -35 80 -36 88 -1 7 -6 16 -11 20 -4 4 -5 2 0 -6 5
-9 4 -12 -3 -7 -7 4 -12 12 -12 18 0 5 -9 21 -20 35 -11 14 -20 32 -20 39 0 8
-21 41 -46 74 -25 34 -44 64 -41 67 4 3 -7 25 -23 49 -30 43 -42 74 -15 38 8
-10 15 -15 15 -11 0 5 -9 20 -19 34 -11 13 -23 45 -27 70 -4 25 -10 40 -14 33
-5 -8 -9 -7 -13 4 -4 11 5 27 26 47 17 17 33 35 33 40 1 5 2 14 3 20 0 6 7 9
15 6 10 -4 12 0 9 14 -3 10 2 31 12 45 9 14 14 32 11 40 -3 8 -1 14 4 14 6 0
10 5 10 11 0 5 -6 7 -12 3 -9 -6 -9 -3 0 9 8 9 11 21 8 26 -4 5 -2 12 4 16 5
3 10 11 10 16 0 6 -4 7 -10 4 -5 -3 -10 -2 -10 4 0 5 8 12 18 14 15 4 15 5 0
6 -11 1 -15 7 -11 21 3 11 1 20 -4 20 -4 0 -8 23 -8 50 0 28 -3 50 -6 50 -4 0
-6 11 -5 25 2 14 -1 22 -7 18 -6 -4 -8 4 -5 21 3 14 1 29 -4 32 -4 3 -6 9 -3
14 3 5 1 11 -5 15 -5 3 -10 19 -10 36 0 16 -4 29 -9 29 -6 0 -10 10 -10 23 -1
49 -3 57 -12 62 -5 4 -7 11 -4 16 4 5 2 9 -4 9 -5 0 -8 11 -7 25 2 13 -1 22
-5 19 -5 -3 -9 5 -9 17 0 25 -38 110 -54 121 -6 4 -7 10 -4 13 9 10 -35 53
-48 48 -6 -2 -16 3 -23 10 -9 12 -21 13 -54 5 -23 -5 -43 -13 -45 -18 -8 -22
-31 21 -42 76 -19 99 -25 169 -36 449 -5 139 -8 155 -35 212 -16 34 -29 73
-29 87 0 15 -7 27 -17 30 -51 14 -144 18 -300 11 l-173 -7 0 -28 c0 -54 -63
-77 -127 -45 -30 15 -49 43 -55 80 -3 19 -12 20 -198 21 -107 1 -210 -3 -228
-8z m68 -2266 c0 -5 11 -15 25 -22 15 -8 25 -22 25 -34 0 -12 7 -31 15 -42 8
-12 12 -24 8 -27 -3 -4 0 -13 7 -22 7 -8 10 -30 8 -50 -2 -22 1 -36 9 -39 7
-3 10 -12 7 -19 -3 -8 2 -21 10 -30 8 -8 12 -17 9 -21 -4 -3 1 -6 10 -6 18 0
40 -33 30 -44 -3 -3 -1 -6 7 -6 10 0 10 -3 -1 -16 -12 -15 -114 -84 -124 -84
-3 0 -13 -7 -22 -15 -10 -8 -26 -21 -37 -28 -14 -11 -18 -24 -16 -58 5 -79 2
-273 -6 -339 -4 -36 -7 -90 -7 -120 2 -82 -16 -219 -33 -252 -13 -25 -13 -28
1 -28 8 0 15 -6 15 -14 0 -20 100 -50 155 -47 27 1 25 -1 -16 -18 -58 -24
-238 -32 -263 -12 -11 10 -16 32 -17 75 0 33 -3 79 -7 100 l-7 40 -40 -64
c-22 -34 -55 -78 -72 -97 -18 -19 -33 -39 -33 -44 0 -13 -14 -11 -29 4 -11 10
-12 9 -6 -3 4 -8 -8 3 -28 25 -65 74 -82 184 -41 270 25 53 80 103 120 111 22
4 31 9 24 14 -8 5 0 10 21 15 19 4 39 12 46 17 7 5 17 7 23 3 5 -3 10 -2 10 4
0 5 8 12 18 15 32 10 74 57 69 77 -3 11 -1 17 4 13 18 -11 9 69 -12 103 -16
25 -26 32 -40 28 -11 -4 -19 -2 -19 5 0 15 33 26 38 12 2 -7 8 -12 14 -12 6 0
7 7 4 16 -4 9 -1 23 5 30 9 11 9 14 0 14 -7 0 -10 4 -7 9 7 11 -32 47 -41 38
-3 -4 -17 0 -29 8 -24 16 -78 23 -174 24 l-55 1 1 178 c0 97 5 191 10 207 12
34 68 66 118 67 17 0 46 11 64 25 17 13 32 21 32 17 0 -3 7 -1 15 6 12 10 15
10 15 0 0 -9 4 -9 17 1 11 10 14 10 9 2 -4 -7 -5 -13 -1 -13 9 0 50 24 57 34
4 6 23 11 42 11 20 1 39 5 43 8 9 10 23 9 23 -1z m243 -576 c-12 -21 -70 -66
-76 -60 -10 11 14 50 41 66 29 18 47 14 35 -6z m22 -66 c-10 -11 -13 -20 -7
-20 6 0 14 5 17 10 12 19 35 10 35 -13 0 -12 7 -33 16 -45 12 -17 12 -22 2
-22 -7 0 -29 -3 -48 -5 -50 -8 -64 4 -49 41 7 16 11 33 10 38 -1 4 6 14 16 22
26 19 29 17 8 -6z m66 -27 c-8 -15 -10 -15 -11 -2 0 17 10 32 18 25 2 -3 -1
-13 -7 -23z m-661 -67 c0 -3 -4 -8 -10 -11 -5 -3 -10 -1 -10 4 0 6 5 11 10 11
6 0 10 -2 10 -4z m77 -22 c-3 -3 -12 -4 -19 -1 -8 3 -5 6 6 6 11 1 17 -2 13
-5z m609 -15 c3 -5 2 -10 -3 -10 -4 -1 -17 -3 -28 -5 -11 -1 -37 -6 -57 -10
-27 -5 -38 -3 -38 5 0 9 -10 10 -32 6 -19 -4 -29 -4 -25 1 24 25 169 35 183
13z m-695 -16 c7 -16 15 -31 17 -35 5 -11 -40 -10 -57 1 -12 8 -13 14 -3 35
15 33 25 33 43 -1z m964 -57 c-2 -12 -7 -61 -10 -111 -3 -49 -9 -106 -13 -125
-5 -19 -7 -49 -5 -66 2 -17 -2 -44 -8 -60 -19 -46 -18 -51 7 -75 39 -37 33
-120 -21 -267 -8 -22 -42 4 -50 40 -16 68 -16 78 0 84 8 3 15 13 15 21 0 8 4
12 9 8 15 -9 25 63 12 91 -8 18 -8 24 1 24 7 0 1 9 -12 19 -14 11 -54 43 -90
71 -36 29 -94 69 -130 90 -110 65 -105 59 -105 144 0 42 5 78 10 80 6 1 2 12
-8 23 -23 26 -14 33 31 22 20 -5 60 -9 87 -9 37 0 46 -3 35 -10 -25 -17 43 -2
96 21 76 32 116 38 136 21 10 -9 16 -24 13 -36z m1475 -16 c0 -5 -2 -10 -4
-10 -3 0 -8 5 -11 10 -3 6 -1 10 4 10 6 0 11 -4 11 -10z m-2364 -15 c-22 -17
-66 -20 -66 -6 0 5 12 12 28 14 54 8 58 7 38 -8z m3104 -26 c0 -5 -4 -9 -10
-9 -5 0 -10 7 -10 16 0 8 5 12 10 9 6 -3 10 -10 10 -16z m-690 -42 c0 -5 -4
-5 -10 -2 -5 3 -10 14 -10 23 0 15 2 15 10 2 5 -8 10 -19 10 -23z m676 -63
c-3 -8 0 -14 7 -14 8 0 6 -4 -3 -10 -13 -8 -12 -10 3 -10 21 0 21 1 2 -38 -18
-34 -51 -50 -69 -32 -8 8 -6 9 9 4 18 -6 17 -4 -4 19 -22 25 -21 32 3 28 5 -1
4 5 -4 14 -11 13 -8 19 16 40 28 24 50 24 40 -1z m-659 -36 c-3 -7 -5 -2 -5
12 0 14 2 19 5 13 2 -7 2 -19 0 -25z m-933 -4 c6 -16 0 -34 -12 -34 -4 0 -7
11 -7 25 0 28 10 33 19 9z m975 -109 c14 4 20 -1 25 -26 11 -55 7 -87 -19
-146 -25 -56 -26 -56 -41 -35 -11 16 -13 33 -9 60 10 57 16 113 17 157 0 30 2
33 5 12 3 -21 9 -27 22 -22z m-1849 -277 c-1 -28 -2 -30 -11 -15 -6 10 -8 25
-5 33 9 24 16 16 16 -18z m-55 3 c7 -23 -2 -48 -21 -55 -19 -7 -33 24 -23 52
10 27 35 29 44 3z m1915 -22 c0 -12 -27 -11 -35 1 -11 17 5 32 21 19 8 -6 14
-15 14 -20z m-2510 4 c14 -9 36 -30 50 -47 42 -51 78 -86 89 -86 14 0 14 40 1
75 l-10 26 30 -21 c16 -11 43 -47 60 -78 44 -83 92 -112 185 -112 38 -1 90 -5
115 -11 53 -11 88 -17 130 -23 30 -4 60 -26 60 -43 0 -5 -7 -18 -15 -29 -15
-19 -15 -19 -10 1 3 11 -1 7 -8 -8 -22 -47 -39 -69 -99 -130 -45 -46 -61 -57
-77 -52 -14 4 -32 -1 -52 -16 -41 -29 -91 -21 -136 23 -19 18 -62 80 -95 138
-34 58 -78 125 -98 150 -48 58 -170 238 -170 251 0 14 23 11 50 -8z m526 -1
c17 -26 0 -60 -33 -67 -15 -3 -41 -10 -58 -15 -16 -4 -60 -9 -96 -9 -77 -1
-103 14 -114 68 -7 32 -6 33 21 27 42 -8 117 -10 134 -3 15 6 59 12 110 15 15
1 30 -5 36 -16z m14 -106 c0 -16 -24 -38 -33 -30 -3 3 -21 -9 -39 -27 -66 -66
-136 -78 -183 -32 -31 32 -57 78 -48 86 6 6 147 -1 171 -8 6 -3 12 0 12 6 0 7
10 9 24 5 14 -3 28 -2 31 4 10 16 65 12 65 -4z m-490 -199 c0 -24 -3 -28 -10
-17 -13 20 -13 63 0 55 6 -3 10 -21 10 -38z m2630 -27 c0 -5 9 -10 21 -10 11
0 18 -4 14 -9 -3 -6 2 -14 10 -19 14 -7 14 -10 2 -21 -12 -10 -19 -6 -38 21
-13 18 -28 36 -34 40 -6 5 -3 8 8 8 9 0 17 -4 17 -10z m-2731 -230 c15 -28 6
-20 -29 25 -21 29 -22 29 -16 5 l7 -25 -15 25 c-8 14 -12 38 -9 56 3 18 0 34
-6 38 -6 4 -11 19 -11 34 0 19 10 3 33 -53 19 -44 39 -91 46 -105z m2751 149
c0 -6 -4 -7 -10 -4 -5 3 -10 11 -10 16 0 6 5 7 10 4 6 -3 10 -11 10 -16z m110
-3 c0 -8 11 -23 25 -33 21 -16 24 -22 16 -48 -5 -16 -10 -28 -11 -25 -7 22 -7
40 1 40 5 0 9 4 9 9 0 4 -11 6 -25 3 -18 -3 -30 2 -44 19 -18 22 -19 25 -4 37
22 16 33 15 33 -2z m2 -91 c0 -5 -5 -11 -10 -13 -5 -1 -9 4 -9 13 0 9 4 14 9
13 5 -2 10 -8 10 -13z m133 -115 c3 -6 18 -7 33 -3 24 6 26 5 13 -10 -7 -9
-17 -15 -21 -12 -5 3 -12 1 -15 -5 -9 -14 -35 6 -35 26 0 16 16 19 25 4z
m-3698 -132 c-3 -8 -6 -5 -6 6 -1 11 2 17 5 13 3 -3 4 -12 1 -19z m35 -142 c0
-22 5 -47 11 -53 5 -7 7 -29 5 -48 -2 -19 -1 -35 3 -35 11 0 19 -29 13 -45
-11 -28 -21 -15 -33 43 -7 31 -16 69 -21 84 -4 16 -4 30 0 33 9 6 6 57 -5 75
-3 5 -3 15 1 22 10 16 24 -25 26 -76z m3622 -41 c4 -13 2 -14 -14 -5 -23 13
-26 20 -6 20 8 0 16 -7 20 -15z m-50 -11 c9 -3 16 -10 16 -16 0 -5 -4 -6 -10
-3 -5 3 -10 1 -10 -4 0 -6 7 -11 16 -11 12 0 14 -3 6 -13 -9 -10 -5 -13 16
-12 15 0 28 6 28 13 1 6 2 17 3 22 1 6 9 5 21 -2 16 -10 18 -15 7 -23 -7 -5
-16 -17 -19 -26 -10 -27 -116 -111 -129 -103 -7 4 -9 3 -5 -4 3 -6 -25 -41
-63 -79 -70 -69 -187 -232 -210 -294 -7 -19 -18 -45 -24 -59 -6 -14 -11 -27
-12 -30 -5 -20 -29 -127 -30 -135 0 -5 -4 -23 -7 -40 -15 -65 -30 -192 -29
-250 0 -22 1 -60 2 -85 1 -50 -9 -174 -18 -205 -3 -11 -11 -23 -17 -27 -8 -6
-7 -11 3 -17 11 -7 10 -11 -4 -19 -12 -6 -16 -17 -13 -30 4 -13 0 -23 -8 -26
-8 -3 -14 -13 -14 -23 0 -15 2 -16 11 -3 8 12 9 10 4 -8 -4 -13 -8 -34 -10
-45 -2 -12 -7 -35 -13 -52 -5 -16 -7 -36 -4 -44 2 -7 -2 -17 -9 -22 -9 -5 -10
-9 -2 -9 8 0 11 -31 10 -104 -1 -57 1 -102 6 -99 4 2 7 0 7 -6 0 -5 -4 -12 -9
-15 -5 -3 -7 -15 -4 -26 3 -11 0 -20 -6 -20 -6 0 -11 -4 -11 -10 0 -5 6 -10
13 -10 16 0 15 -52 -2 -58 -8 -3 -4 -10 10 -22 11 -11 18 -24 14 -30 -3 -6 1
-33 10 -61 30 -89 44 -268 23 -290 -7 -8 -13 -30 -14 -49 -3 -84 -15 -142 -34
-162 -11 -12 -20 -25 -20 -30 0 -4 -4 -8 -10 -8 -5 0 -10 9 -10 19 0 11 -9 26
-21 34 -13 9 -16 17 -10 22 6 3 11 19 11 35 0 15 5 30 11 32 16 5 21 58 6 58
-8 0 -8 3 1 12 7 7 12 31 12 54 0 24 5 46 10 49 7 4 6 13 -1 26 -7 15 -7 24 1
33 6 8 7 23 2 37 -4 13 -7 49 -7 79 1 30 -4 66 -12 80 -7 15 -9 26 -3 28 6 2
6 10 0 22 -5 10 -7 26 -4 34 3 9 2 16 -4 16 -11 0 -9 76 2 87 9 9 7 35 -1 30
-7 -4 -9 57 -3 73 1 3 3 73 5 155 2 83 7 164 10 180 3 17 7 45 9 63 2 19 6 36
9 38 3 3 1 20 -3 39 -4 20 -3 38 2 43 16 16 17 112 1 112 -16 0 -17 68 -3 155
6 33 13 92 16 130 4 39 10 80 15 91 4 12 6 30 5 40 -2 11 0 24 5 30 5 6 11 33
14 60 7 58 24 125 35 139 4 6 11 25 15 44 5 25 10 30 16 20 6 -9 7 -4 3 15 -5
20 -4 27 4 22 8 -4 10 -2 6 7 -3 8 -1 18 5 21 6 4 15 24 21 44 5 20 23 51 38
67 16 17 35 41 41 54 9 16 19 21 32 18 17 -4 18 -3 8 9 -12 15 -7 18 25 14 16
-1 18 3 12 30 -5 28 -4 32 13 27 13 -3 29 7 52 32 18 20 30 28 26 19 -3 -10
-2 -18 3 -18 6 0 10 11 10 25 0 14 -6 25 -12 25 -14 0 24 25 54 36 10 3 15 10
12 15 -4 7 7 15 43 28 1 1 8 -2 17 -5z m133 -68 c0 -8 -6 -12 -15 -9 -11 5
-11 7 0 14 7 5 13 9 14 9 0 0 1 -6 1 -14z m13 -46 c-8 -5 -19 -10 -25 -10 -5
0 -3 5 5 10 8 5 20 10 25 10 6 0 3 -5 -5 -10z m-340 -14 c0 -3 -4 -8 -10 -11
-5 -3 -10 -1 -10 4 0 6 5 11 10 11 6 0 10 -2 10 -4z m280 -21 c-7 -9 -15 -13
-19 -10 -3 3 1 10 9 15 21 14 24 12 10 -5z m-37 -12 c-4 -10 -18 -33 -31 -50
-13 -18 -21 -33 -18 -33 4 0 4 -6 -1 -12 -4 -7 -8 -15 -9 -18 0 -3 -5 -16 -11
-30 -29 -70 -26 -76 16 -30 30 33 40 53 38 74 -1 16 4 31 11 34 6 2 12 10 12
18 0 8 5 14 10 14 6 0 10 -5 10 -11 0 -5 5 -7 10 -4 6 3 10 1 10 -5 0 -6 5 -8
12 -4 7 4 8 3 4 -4 -4 -7 -18 -12 -31 -12 -13 0 -26 -4 -29 -9 -4 -5 3 -7 14
-4 12 3 20 0 20 -7 0 -7 6 -10 14 -7 19 7 10 -25 -15 -51 -18 -21 -18 -21 16
-15 28 4 35 2 35 -11 0 -16 -9 -20 -47 -17 -11 1 -24 -2 -27 -7 -3 -5 7 -9 22
-8 23 1 26 -3 24 -21 -2 -13 2 -23 7 -23 6 0 11 11 11 25 0 40 17 29 18 -12 1
-20 -4 -41 -11 -45 -9 -6 -8 -10 3 -18 10 -6 11 -10 3 -10 -12 0 -53 -73 -53
-95 0 -7 -9 -20 -20 -30 -10 -9 -18 -20 -17 -24 2 -7 -43 -103 -52 -111 -4 -3
-24 -41 -46 -85 -22 -44 -43 -82 -46 -85 -3 -3 -9 -16 -12 -30 l-6 -25 19 23
c10 12 25 20 32 17 9 -4 19 4 26 20 6 14 18 25 26 25 9 0 13 6 10 14 -3 8 4
16 17 19 15 4 20 11 15 23 -4 12 -2 15 9 10 9 -3 15 0 15 9 0 8 5 15 11 15 6
0 8 7 5 15 -3 9 1 18 9 21 8 4 15 12 15 19 0 7 10 24 21 39 12 15 19 30 15 33
-3 4 1 15 10 25 13 13 21 15 30 7 9 -8 11 -5 7 10 -3 12 -10 18 -16 14 -6 -3
-7 -1 -3 5 4 6 13 9 21 5 8 -3 15 0 15 6 0 6 7 11 15 11 18 0 18 -5 4 -32 -16
-30 -4 -32 25 -3 14 14 26 24 26 22 0 -10 -32 -67 -41 -72 -5 -4 -6 -11 -3
-17 4 -6 2 -13 -3 -17 -5 -3 -22 -32 -38 -64 -58 -114 -196 -333 -224 -357
-13 -10 -45 -65 -43 -72 1 -5 -3 -8 -9 -8 -6 0 -8 -7 -5 -16 3 -8 2 -13 -3
-10 -9 6 -23 -18 -26 -46 -1 -10 -10 -27 -20 -38 -10 -11 -14 -20 -9 -20 16 0
29 14 73 72 24 32 47 55 52 52 5 -3 9 1 9 8 0 7 12 22 26 33 14 11 30 29 35
41 6 16 15 22 33 20 14 -2 23 1 20 6 -3 5 -13 7 -21 4 -9 -4 -13 -1 -11 6 3 7
14 14 26 16 12 2 22 12 24 25 2 12 9 21 16 20 7 -2 12 8 12 23 0 18 4 25 14
21 8 -3 16 2 19 14 3 11 14 19 26 19 23 0 24 -1 15 -24 -3 -9 -12 -16 -20 -16
-11 0 -10 -4 4 -18 17 -19 38 -19 27 -1 -4 5 1 12 9 15 9 3 16 12 16 20 0 8 5
14 11 14 6 0 8 -9 4 -21 -5 -15 -4 -19 5 -14 6 4 10 18 7 32 -4 21 -2 23 9 11
14 -14 9 -58 -7 -58 -5 0 -9 -11 -9 -25 0 -14 -4 -25 -10 -25 -5 0 -10 -9 -10
-19 0 -11 -5 -23 -10 -26 -6 -3 -7 -17 -4 -31 4 -14 2 -24 -5 -24 -6 0 -11 -8
-11 -19 0 -10 -7 -24 -15 -31 -8 -7 -15 -20 -15 -30 0 -10 -21 -38 -46 -63
-25 -25 -46 -56 -47 -69 -2 -33 -30 -60 -52 -52 -13 5 -16 4 -11 -4 4 -7 2
-12 -3 -12 -6 0 -11 -5 -11 -10 0 -7 6 -7 19 0 14 7 22 7 27 -2 4 -6 2 -14 -4
-16 -7 -2 -12 -10 -12 -18 0 -9 6 -11 17 -7 17 7 17 6 0 -20 -9 -15 -15 -27
-12 -27 15 0 105 121 105 142 0 5 7 8 14 5 10 -4 13 -1 10 7 -3 8 0 17 5 21 6
3 9 11 6 16 -4 5 -1 9 4 9 6 0 11 -6 12 -12 1 -7 4 -2 8 12 4 14 13 24 20 22
6 -1 14 5 17 13 4 8 10 15 16 15 13 0 38 26 38 39 0 6 5 11 11 11 6 0 9 -6 7
-12 -3 -7 4 -20 15 -29 20 -16 20 -16 -5 -65 -62 -121 -90 -170 -103 -180 -8
-6 -15 -14 -15 -18 0 -7 -68 -103 -92 -130 -10 -11 -18 -23 -18 -28 0 -4 -7
-8 -17 -8 -9 0 -14 -3 -10 -6 7 -7 -35 -66 -75 -105 -16 -14 -28 -31 -28 -37
0 -6 -6 -12 -12 -15 -7 -2 -10 -8 -6 -12 4 -4 18 5 32 20 14 15 30 24 35 20
10 -6 16 8 12 28 -1 5 4 7 11 4 7 -2 12 -14 10 -26 -2 -20 -1 -21 14 -7 16 16
39 12 29 -5 -4 -5 -1 -9 4 -9 6 0 11 7 11 15 0 8 5 15 11 15 6 0 8 7 5 16 -5
14 -1 16 23 11 24 -5 28 -3 24 12 -3 13 2 20 21 25 14 3 26 11 26 17 0 7 6 6
17 -2 14 -12 16 -12 11 1 -6 18 18 44 32 35 5 -3 10 0 10 7 0 19 34 38 50 28
11 -7 10 -12 -4 -25 -9 -10 -14 -20 -11 -23 8 -8 55 39 55 55 0 8 5 11 11 7 8
-4 8 -9 0 -17 -6 -6 -11 -21 -11 -34 0 -13 -4 -22 -9 -20 -5 1 -29 -18 -54
-43 -85 -86 -183 -164 -196 -156 -10 6 -47 -44 -43 -58 2 -5 -4 -6 -13 -3 -8
4 -15 2 -15 -4 0 -14 -50 -59 -66 -59 -8 0 -14 -4 -14 -9 0 -13 63 -3 72 12 6
9 8 8 8 -4 0 -12 7 -15 25 -11 15 2 25 0 25 -7 0 -6 -12 -12 -27 -12 -16 -1
-21 -3 -12 -6 10 -2 17 -15 17 -31 2 -62 3 -65 14 -54 7 7 16 5 31 -8 11 -11
25 -16 31 -12 7 4 4 8 -6 10 -21 4 -23 13 -7 29 7 7 3 9 -17 5 -24 -4 -26 -2
-21 17 3 12 0 21 -6 21 -7 0 -4 5 5 11 9 5 15 16 12 23 -8 20 26 36 64 31 17
-2 34 0 37 5 3 5 12 7 20 3 8 -3 15 0 15 6 0 14 27 14 35 0 10 -16 0 -22 -47
-26 -43 -4 -79 -23 -44 -23 11 0 15 -5 10 -12 -6 -10 -4 -10 7 -1 18 17 32 16
26 -2 -4 -8 -2 -17 4 -21 6 -3 6 -10 1 -17 -19 -24 -10 -47 19 -47 24 0 45 21
41 41 -1 4 8 9 18 12 22 6 25 2 10 -16 -6 -7 -16 -19 -23 -28 -7 -9 -29 -20
-49 -23 -30 -6 -38 -4 -38 9 0 8 -5 15 -11 15 -6 0 -9 -6 -6 -14 4 -10 -4 -15
-29 -18 -19 -2 -40 -1 -46 3 -7 5 -17 4 -23 -1 -14 -12 -55 -9 -55 5 0 5 -4 4
-9 -3 -12 -20 -75 -25 -289 -26 -153 -1 -194 2 -201 13 -9 13 -5 120 4 129 3
3 0 10 -5 17 -24 29 -5 277 31 391 5 16 11 51 14 77 4 38 2 45 -10 41 -19 -8
-15 6 56 162 11 25 18 53 16 62 -2 12 -8 6 -19 -18 -9 -19 -23 -44 -33 -55 -9
-11 -13 -14 -10 -6 4 7 9 47 10 90 2 60 9 87 30 128 15 29 29 66 31 82 2 16
48 119 103 228 87 175 120 266 88 246 -6 -3 -7 -1 -3 6 4 6 12 9 17 6 5 -4 9
3 9 14 0 12 8 29 18 39 9 9 17 22 17 27 1 21 27 85 35 85 5 0 7 7 4 15 -4 8
-10 12 -15 9 -5 -3 -7 -10 -4 -15 4 -5 3 -9 -2 -9 -9 0 -43 -57 -43 -72 0 -6
-8 -18 -18 -27 -19 -17 -72 -132 -72 -156 0 -7 -5 -15 -11 -17 -5 -2 -11 -20
-12 -41 -1 -20 -6 -37 -10 -37 -5 0 -5 -4 -2 -10 3 -5 2 -10 -2 -10 -5 0 -17
-22 -27 -50 -10 -27 -22 -50 -28 -50 -5 0 -8 -6 -6 -12 3 -7 -4 -35 -15 -63
-10 -27 -30 -85 -43 -128 -45 -142 -58 -63 -24 139 12 66 29 148 39 184 76
264 77 266 185 443 36 60 66 113 66 118 0 4 9 13 20 19 16 9 19 8 13 -6 -4
-12 -3 -15 5 -10 7 4 12 13 12 20 0 21 41 68 55 62 8 -2 16 2 19 10 3 8 8 14
10 14 3 0 2 -8 -1 -17z m2114 -162 c0 -11 -5 -18 -9 -15 -4 3 -5 11 -1 19 7
21 12 19 10 -4z m-5681 -178 c-2 -27 -14 -74 -26 -107 -13 -37 -19 -69 -15
-87 4 -16 3 -29 -2 -29 -11 0 -33 49 -33 73 0 10 -5 27 -10 38 -8 14 -5 30 11
65 17 39 62 94 76 94 2 0 2 -21 -1 -47z m1854 12 c0 -8 -2 -15 -4 -15 -2 0 -6
7 -10 15 -3 8 -1 15 4 15 6 0 10 -7 10 -15z m1923 -36 c-6 -6 -9 -17 -7 -24 6
-15 -12 -29 -26 -20 -12 7 17 55 33 55 8 0 8 -3 0 -11z m-1952 -25 c21 -25 20
-49 -2 -63 -12 -7 -18 -8 -14 -2 4 7 -5 11 -24 11 -24 0 -31 4 -31 20 0 14 -5
18 -17 13 -16 -6 -16 -5 -5 10 12 14 31 21 68 26 6 0 18 -6 25 -15z m39 6 c0
-5 -5 -10 -11 -10 -5 0 -7 5 -4 10 3 6 8 10 11 10 2 0 4 -4 4 -10z m1874 -366
c9 -3 14 -10 11 -15 -7 -10 -35 0 -35 12 0 11 3 11 24 3z m78 -16 c-7 -7 -12
-8 -12 -2 0 14 12 26 19 19 2 -3 -1 -11 -7 -17z m1927 -50 c-4 -34 0 -41 18
-27 15 13 15 12 5 -8 -17 -30 -83 -83 -105 -83 -13 0 -17 -5 -14 -14 4 -10 1
-13 -9 -9 -7 3 -14 0 -14 -6 0 -6 -6 -11 -14 -11 -8 0 -17 -7 -20 -16 -6 -15
-4 -15 11 -3 16 13 17 12 4 -3 -7 -10 -19 -18 -25 -18 -6 0 -34 -24 -63 -54
-35 -36 -54 -49 -57 -40 -3 8 -2 14 3 14 4 0 14 18 21 40 7 22 17 40 22 40 4
0 8 7 8 16 0 8 5 12 10 9 6 -3 13 1 16 9 3 9 10 16 16 16 5 0 6 -5 2 -12 -4
-7 -3 -8 4 -4 7 4 12 15 12 24 0 15 2 15 10 2 6 -9 10 -10 10 -3 0 16 116 133
132 133 9 0 9 3 -2 10 -13 8 -12 10 3 10 10 0 17 -6 16 -12z m-3862 -118 c-6
-22 8 -28 16 -7 3 6 10 -1 16 -17 9 -23 9 -31 -1 -38 -10 -6 -10 -8 0 -8 6 0
12 -7 12 -15 0 -8 4 -15 8 -15 14 0 31 -104 18 -112 -8 -6 -7 -8 2 -8 6 0 12
-4 12 -8 0 -18 -65 2 -83 25 -11 13 -22 22 -25 19 -3 -3 -12 3 -20 15 -8 11
-12 23 -8 26 3 3 -1 12 -9 20 -13 12 -18 40 -14 69 0 4 -5 10 -11 14 -9 6 -9
13 0 30 l12 23 15 -32 c9 -17 18 -29 20 -27 3 3 1 11 -3 18 -12 18 -14 38 -4
38 4 0 11 -11 14 -25 4 -14 11 -25 17 -25 8 0 7 5 -1 15 -9 10 -9 15 -1 15 6
0 11 7 11 15 0 8 3 15 6 15 4 0 4 -9 1 -20z m1903 -40 c0 -5 -5 -10 -11 -10
-5 0 -7 5 -4 10 3 6 8 10 11 10 2 0 4 -4 4 -10z m-4538 -73 c37 -59 -49 -131
-95 -79 -19 21 -30 63 -19 79 21 32 94 32 114 0z m4637 -18 c-11 -7 -11 -9 -1
-9 7 0 10 -4 7 -10 -3 -5 -13 -10 -21 -10 -13 0 -12 5 3 30 10 17 19 26 22 19
2 -6 -3 -15 -10 -20z m-1868 -101 c12 -25 13 -41 6 -65 -13 -43 -23 -42 -31 5
-14 89 -2 119 25 60z m-422 -67 c12 -38 21 -75 21 -83 0 -7 19 -38 43 -68 76
-98 108 -157 162 -300 29 -76 43 -122 66 -215 12 -49 26 -95 31 -101 4 -6 6
-18 2 -27 -10 -27 15 -28 60 -2 25 15 48 37 54 53 21 56 22 64 10 59 -7 -2
-12 -10 -11 -16 5 -22 -5 -10 -26 29 -12 22 -21 49 -21 58 0 10 -4 22 -9 28
-12 13 -33 103 -26 115 4 5 3 15 -2 21 -4 7 -6 25 -4 41 2 18 -6 38 -23 58
-29 34 -31 42 -16 70 12 21 1 26 -18 7 -9 -9 -12 -7 -12 9 0 12 -5 25 -10 28
-6 4 -8 11 -4 16 3 6 0 9 -8 7 -8 -2 -34 19 -57 46 -32 37 -39 51 -31 61 8 10
8 20 0 36 -10 17 -9 23 1 30 16 10 35 -5 55 -44 9 -16 31 -35 49 -43 30 -12
40 -12 77 1 23 8 44 12 47 10 2 -3 16 15 32 38 37 56 55 77 64 77 5 0 5 -3 2
-7 -4 -3 -2 -12 4 -20 6 -7 7 -13 2 -13 -5 0 -9 -8 -10 -17 -2 -38 -30 -122
-46 -138 -9 -9 -17 -23 -17 -31 0 -9 -12 -36 -26 -62 -22 -39 -23 -43 -5 -22
12 14 26 35 31 48 11 26 32 30 24 5 -5 -15 -4 -16 5 -3 17 24 34 -1 22 -33 -7
-18 -7 -27 1 -29 8 -3 8 -18 -1 -55 -16 -64 -31 -157 -34 -206 -2 -29 2 -37
16 -37 10 0 17 -8 17 -20 0 -11 3 -20 7 -20 12 0 43 33 43 45 0 7 10 17 23 23
12 6 17 11 10 11 -16 1 7 61 25 61 7 0 16 8 19 18 4 9 13 22 20 27 7 6 19 28
27 50 8 22 15 33 16 25 1 -9 6 -4 12 10 10 24 10 24 18 5 4 -11 4 -30 -1 -41
-4 -12 -5 -24 -2 -27 3 -3 -1 -15 -9 -26 -8 -12 -18 -18 -22 -13 -5 4 -6 0 -5
-8 3 -13 -44 -106 -61 -120 -42 -36 -58 -96 -23 -83 11 4 14 2 9 -5 -10 -17
61 -12 75 5 6 7 17 13 23 13 6 0 27 15 48 34 51 47 98 79 98 67 0 -5 -5 -13
-11 -16 -6 -4 -8 -14 -4 -22 3 -9 -2 -24 -11 -35 -10 -10 -14 -21 -11 -25 4
-3 -1 -12 -11 -20 -9 -8 -11 -11 -3 -7 11 5 13 3 8 -10 -9 -24 3 -42 15 -25 7
10 8 3 4 -21 l-6 -34 26 34 c15 19 24 27 21 18 -8 -22 -3 -23 22 -2 11 10 17
24 13 32 -3 10 -1 13 7 8 13 -9 44 12 36 24 -3 4 4 10 15 13 13 3 20 0 20 -9
0 -8 -4 -14 -10 -14 -5 0 -10 -9 -10 -19 0 -11 -4 -23 -10 -26 -15 -9 -12 -25
4 -25 19 0 10 -58 -12 -84 -11 -13 -12 -17 -3 -11 11 6 13 3 7 -16 -11 -36
-13 -162 -2 -177 5 -7 10 -34 11 -60 1 -26 5 -55 9 -64 5 -11 1 -24 -13 -39
-26 -29 -27 -49 -1 -49 28 0 25 -14 -7 -36 -34 -21 -139 -26 -159 -7 -19 19
-26 16 -18 -9 6 -20 5 -21 -10 -9 -9 7 -16 18 -16 23 0 6 -9 23 -21 39 -12 17
-19 38 -16 49 3 12 -2 20 -14 23 -10 3 -22 13 -26 24 -4 10 -20 37 -35 59 -15
23 -28 45 -28 48 0 4 -4 12 -10 19 -21 25 -83 124 -107 170 -14 26 -28 46 -30
43 -8 -7 16 -72 55 -150 19 -39 38 -84 43 -101 10 -39 64 -170 89 -216 11 -20
20 -43 20 -50 0 -7 6 -20 14 -28 8 -9 18 -29 22 -45 7 -28 6 -29 -22 -22 -16
4 -29 8 -29 9 -1 1 -11 23 -24 48 -12 25 -23 53 -25 62 -1 10 -8 23 -15 30 -9
9 -14 9 -22 -3 -8 -12 -12 -12 -16 -2 -3 7 -11 18 -18 25 -9 9 -9 14 1 25 12
11 10 18 -8 43 -19 26 -21 33 -9 50 10 18 10 24 -5 40 -11 13 -20 16 -24 9 -4
-6 -21 -12 -38 -12 -37 -1 -40 -8 -12 -33 11 -10 20 -25 20 -33 0 -9 3 -13 6
-9 3 3 16 -6 29 -21 23 -27 23 -27 4 -45 -20 -19 -26 -32 -9 -22 6 3 10 -1 10
-9 0 -19 -13 -20 -41 -6 -21 12 -26 55 -6 64 6 3 4 4 -7 3 -26 -3 -78 64 -85
110 -5 29 -11 38 -26 38 -13 0 -19 -6 -18 -18 0 -11 -7 -27 -18 -38 -19 -19
-19 -19 -19 0 0 11 -3 26 -6 35 -3 9 4 25 19 40 16 16 21 29 15 38 -7 11 -11
10 -21 -3 -10 -12 -19 -14 -47 -6 -22 7 -29 12 -18 14 25 6 30 31 8 43 -25 13
-30 13 -30 -5 0 -9 -9 -15 -23 -15 -13 0 -26 -3 -30 -6 -11 -11 5 -34 24 -34
12 0 16 -5 13 -15 -4 -9 1 -18 12 -22 46 -16 37 -53 -12 -53 -35 0 -47 16 -16
23 9 2 -5 3 -33 1 -34 -1 -51 -7 -53 -17 -4 -18 29 -32 39 -16 9 16 39 4 39
-15 0 -20 -71 -40 -81 -24 -4 7 -5 16 -3 20 3 5 -2 11 -10 14 -9 3 -16 13 -16
21 0 8 4 12 9 9 15 -10 20 22 5 34 -8 7 -14 8 -14 3 0 -5 -9 -9 -20 -10 -19
-2 -34 24 -35 57 0 8 -5 15 -12 15 -13 0 -74 111 -65 119 3 3 1 6 -4 6 -6 0
-18 20 -28 45 -11 25 -23 45 -28 45 -4 0 -8 8 -8 18 0 10 -6 26 -13 37 -7 11
-14 38 -16 60 -2 22 -6 45 -11 50 -10 13 -8 145 2 139 4 -3 8 0 8 7 0 9 3 9
14 -1 8 -6 12 -18 9 -26 -4 -10 2 -14 21 -14 19 0 26 5 26 20 0 12 -7 20 -17
20 -15 0 -16 2 -3 10 12 8 13 12 2 19 -15 9 -7 97 9 107 5 3 5 13 -1 24 -6 10
-6 21 -1 24 4 3 6 17 3 31 -5 28 0 30 29 15 10 -6 19 -20 19 -30 0 -11 4 -20
9 -20 10 0 14 -10 25 -62 4 -16 13 -28 21 -28 8 0 12 -6 9 -13 -3 -8 2 -20 11
-27 8 -7 15 -19 15 -26 0 -15 43 -29 59 -19 13 8 14 16 2 34 -8 12 -12 13 -25
1 -9 -7 -19 -10 -23 -6 -3 3 -1 6 5 6 7 0 12 7 12 15 0 8 5 15 10 15 7 0 7 7
0 21 -7 11 -9 27 -6 36 3 8 -1 22 -10 30 -11 11 -14 26 -9 49 4 24 1 35 -10
42 -12 6 -15 19 -12 50 2 23 0 45 -6 51 -5 5 -10 46 -11 90 0 45 -5 81 -9 81
-4 0 -3 9 3 20 6 11 12 20 14 20 2 0 13 -31 25 -69z m144 -67 c5 -30 -3 -36
-26 -19 -13 9 -16 20 -11 39 5 20 9 24 19 16 7 -6 15 -22 18 -36z m-2598 -88
c28 -42 34 -80 19 -115 -10 -24 -19 -31 -30 -27 -9 3 -22 6 -30 6 -17 0 -40
36 -47 77 -5 23 -1 38 14 57 25 32 54 33 74 2z m3963 -69 c-15 -45 -19 -46
-14 -6 3 19 5 38 5 42 1 5 5 6 10 2 6 -3 6 -18 -1 -38z m-1015 -1 c4 -10 1
-13 -8 -9 -8 3 -12 9 -9 14 7 12 11 11 17 -5z m1807 -28 c0 -4 -7 -8 -15 -8
-8 0 -18 0 -22 -1 -4 0 -9 4 -11 10 -2 6 7 10 22 9 14 -1 26 -6 26 -10z m912
-53 c-9 -19 -23 -35 -29 -35 -7 0 -13 -11 -13 -25 0 -14 -5 -25 -11 -25 -5 0
-8 -4 -5 -9 4 -5 3 -11 -1 -13 -5 -1 -19 -25 -33 -51 -29 -55 -78 -111 -103
-115 -39 -7 -8 50 111 205 23 30 42 60 42 66 0 6 3 7 7 4 3 -4 12 2 20 13 23
33 34 23 15 -15z m-2595 -157 c-3 -8 -6 -5 -6 6 -1 11 2 17 5 13 3 -3 4 -12 1
-19z m-2717 -108 c0 -34 -4 -50 -13 -50 -36 0 -52 70 -19 89 29 17 32 13 32
-39z m968 25 c-13 -28 -19 -30 -36 -13 -21 21 -13 38 18 38 28 0 29 -1 18 -25z
m3635 -20 c-3 -9 -8 -14 -10 -11 -3 3 -2 9 2 15 9 16 15 13 8 -4z m-248 -8 c8
-9 10 -19 5 -27 -5 -9 -3 -18 6 -24 9 -8 11 -15 4 -26 -8 -12 -11 -11 -16 8
-5 16 -12 21 -23 18 -13 -5 -12 -3 2 8 12 9 14 16 8 21 -11 6 -15 35 -5 35 3
0 11 -6 19 -13z m50 -27 c-3 -5 -12 -10 -18 -10 -7 0 -6 4 3 10 19 12 23 12
15 0z m135 -4 c0 -3 -4 -8 -10 -11 -5 -3 -10 -1 -10 4 0 6 5 11 10 11 6 0 10
-2 10 -4z m-1225 -47 c-4 -11 -2 -19 5 -19 8 0 10 -8 6 -22 -4 -13 -9 -52 -10
-86 -2 -35 -7 -67 -12 -70 -12 -9 -12 -35 1 -44 5 -4 3 -14 -6 -25 -9 -10 -16
-31 -17 -47 -1 -16 -7 -34 -12 -41 -6 -7 -7 -20 -4 -29 4 -11 -2 -29 -15 -47
-12 -16 -19 -34 -15 -40 8 -13 -29 -49 -51 -49 -8 0 -15 -4 -15 -10 0 -5 -8
-10 -17 -10 -11 0 -14 3 -7 8 21 14 11 52 -17 64 -15 7 -25 16 -23 20 8 12 44
9 44 -4 0 -6 3 -8 6 -5 4 4 2 13 -4 20 -7 8 -9 17 -5 20 3 4 -2 7 -12 7 -17 0
-17 1 0 20 10 11 15 20 10 20 -4 0 -2 6 4 14 15 17 11 39 -9 48 -12 5 -10 8 7
13 24 8 40 38 24 43 -18 6 -12 33 7 30 12 -2 17 4 17 20 0 13 7 27 15 32 8 5
11 10 5 10 -5 0 -1 7 10 16 11 8 25 29 31 47 7 19 18 31 27 31 9 -1 13 4 10
12 -3 8 -9 14 -14 14 -4 0 -6 7 -3 15 4 8 10 12 16 9 5 -3 9 0 7 7 -3 27 1 40
11 34 6 -4 8 -15 5 -26z m1305 21 c0 -10 -2 -11 -35 -15 -11 -1 -29 -5 -40 -8
-11 -4 -27 -2 -35 3 -17 11 -19 10 48 16 19 1 36 5 39 8 10 9 23 7 23 -4z
m-3650 -10 c0 -5 -4 -10 -10 -10 -5 0 -10 5 -10 10 0 6 5 10 10 10 6 0 10 -4
10 -10z m3500 -14 c0 -3 -4 -8 -10 -11 -5 -3 -10 -1 -10 4 0 6 5 11 10 11 6 0
10 -2 10 -4z m-30 -26 c0 -5 -12 -10 -26 -10 -14 0 -23 4 -19 10 3 6 15 10 26
10 10 0 19 -4 19 -10z m-4398 -14 c32 -24 50 -96 25 -96 -22 0 -47 35 -54 74
-6 38 1 44 29 22z m4308 3 c0 -8 6 -7 18 2 15 12 14 11 -2 -8 -14 -17 -21 -19
-31 -10 -14 13 -11 27 6 27 5 0 9 -5 9 -11z m-58 -31 c-7 -7 -12 -8 -12 -2 0
14 12 26 19 19 2 -3 -1 -11 -7 -17z m128 3 c15 -30 12 -33 -10 -11 -22 22 -25
30 -10 30 5 0 14 -9 20 -19z m-126 -36 c-6 -16 -24 -21 -24 -7 0 11 11 22 21
22 5 0 6 -7 3 -15z m196 -16 c0 -5 -10 -8 -22 -8 -18 1 -19 2 -5 6 9 2 14 9
11 15 -4 7 -2 8 4 4 7 -4 12 -11 12 -17z m63 14 c-7 -2 -19 -2 -25 0 -7 3 -2
5 12 5 14 0 19 -2 13 -5z m-167 -25 c5 -8 2 -9 -9 -5 -10 4 -17 1 -17 -5 0 -6
-3 -9 -6 -5 -7 7 4 27 16 27 5 0 12 -5 16 -12z m54 8 c0 -2 -9 -6 -20 -9 -11
-3 -18 -1 -14 4 5 9 34 13 34 5z m-596 -91 c13 -13 14 -54 2 -73 -4 -7 -2 -12
4 -12 6 0 8 -5 3 -12 -4 -7 -8 -25 -9 -40 -1 -15 -9 -34 -18 -43 -17 -18 -22
-30 -7 -21 5 3 12 -1 15 -10 3 -8 2 -12 -4 -9 -6 3 -10 3 -11 -2 0 -4 -2 -26
-4 -48 -8 -76 -16 -106 -27 -99 -7 5 -9 0 -6 -14 4 -12 2 -25 -4 -28 -5 -3 -7
-12 -4 -20 3 -8 0 -14 -5 -14 -6 0 -9 -9 -6 -20 4 -17 2 -20 -15 -14 -13 4
-18 2 -14 -4 3 -6 -4 -18 -16 -26 -18 -13 -19 -16 -5 -16 9 0 17 5 17 12 0 6
2 9 5 7 9 -9 -7 -49 -18 -42 -6 4 -8 -4 -4 -23 3 -16 4 -23 1 -16 -8 17 -25
15 -18 -3 4 -8 1 -15 -5 -15 -6 0 -11 5 -11 11 0 5 -5 7 -10 4 -6 -4 -10 -3
-9 2 3 12 -13 47 -25 55 -7 5 -3 8 9 8 11 0 15 4 10 8 -11 7 -16 43 -17 132
-1 83 10 223 19 229 5 3 9 20 10 36 7 93 9 111 17 123 10 17 142 14 160 -3z
m-3685 -31 c5 -5 21 -45 37 -89 15 -44 35 -100 45 -123 11 -24 17 -48 13 -53
-8 -14 -84 -11 -88 4 -2 6 -9 29 -15 49 -7 21 -14 59 -16 85 -2 27 -7 69 -10
95 -5 38 -3 46 10 44 8 -1 19 -6 24 -12z m-623 -29 c-5 -14 -9 -15 -21 -5 -12
10 -13 16 -4 27 15 18 34 1 25 -22z m3614 -65 c0 -5 -2 -10 -4 -10 -3 0 -8 5
-11 10 -3 6 -1 10 4 10 6 0 11 -4 11 -10z m3593 -11 c7 0 2 -4 -11 -10 -13 -5
-21 -13 -17 -18 11 -19 -17 -23 -36 -5 -22 20 -26 10 -5 -12 19 -18 42 -18 50
1 3 8 10 15 16 15 6 0 8 -4 5 -10 -3 -5 2 -10 11 -10 36 0 6 -9 -75 -23 -80
-14 -85 -14 -105 4 -17 17 -18 19 -3 19 9 0 17 5 17 11 0 5 -6 7 -12 4 -7 -4
-4 1 6 9 11 9 34 16 50 17 17 0 40 4 51 9 11 5 26 7 33 4 8 -2 19 -4 25 -5z
m-7013 -99 c0 -15 -33 -20 -47 -8 -13 10 -13 14 3 25 17 12 44 2 44 -17z
m6822 -2 c-7 -7 -12 -8 -12 -2 0 14 12 26 19 19 2 -3 -1 -11 -7 -17z m169 -11
c4 -5 17 -7 29 -4 18 5 19 3 9 -9 -7 -8 -18 -13 -26 -10 -7 3 -13 -1 -13 -10
0 -12 -46 -30 -65 -25 -10 3 -38 -30 -31 -37 4 -3 10 -2 14 3 7 11 20 15 67
22 17 2 37 6 45 9 11 4 12 2 4 -6 -6 -6 -20 -13 -30 -15 -11 -1 -18 -8 -16
-15 2 -7 -3 -10 -12 -7 -8 3 -16 -2 -19 -14 -3 -10 -1 -17 4 -13 18 10 9 -15
-10 -28 -10 -7 -21 -23 -25 -35 -4 -13 -15 -24 -24 -24 -15 -1 -15 -2 1 -6 9
-2 17 -9 17 -14 0 -6 6 -7 13 -3 9 5 9 3 -1 -7 -11 -12 -14 -12 -22 1 -8 12
-10 10 -10 -8 0 -18 5 -22 23 -19 12 2 16 2 10 0 -7 -3 -13 -11 -13 -19 0 -8
-7 -14 -15 -14 -8 0 -15 -4 -15 -9 0 -4 11 -6 25 -3 19 3 25 0 25 -12 0 -10
-4 -14 -10 -11 -5 3 -10 -1 -10 -10 0 -9 5 -13 10 -10 6 4 10 -5 10 -19 0 -14
-4 -26 -10 -26 -5 0 -10 -4 -10 -10 0 -23 21 -8 26 19 4 17 12 32 19 35 10 3
13 -8 11 -45 -2 -35 1 -49 9 -45 6 2 12 -3 12 -11 0 -9 -7 -13 -19 -10 -10 3
-16 1 -12 -4 3 -5 12 -9 20 -9 18 0 18 -24 -1 -40 -8 -7 -15 -18 -15 -24 0 -6
5 -3 11 7 9 15 12 15 25 3 18 -19 18 -36 -2 -36 -8 0 -12 -5 -9 -11 4 -5 12
-8 18 -6 18 6 49 -61 38 -81 -6 -10 -11 -12 -11 -4 0 6 -4 12 -10 12 -10 0 -8
-65 3 -76 10 -10 -16 -30 -45 -36 -15 -3 -29 0 -31 5 -2 6 -6 4 -10 -5 -4 -13
-1 -16 19 -12 25 4 29 -6 16 -36 -8 -17 -33 -20 -45 -5 -5 6 -7 4 -4 -5 3 -10
15 -14 36 -14 24 2 31 -2 31 -16 0 -20 -30 -37 -30 -17 0 7 -5 4 -11 -6 -6 -9
-15 -14 -21 -11 -8 5 -9 1 -5 -10 4 -10 7 -22 7 -28 0 -6 7 -7 16 -4 11 4 15
2 11 -8 -3 -8 -1 -17 6 -20 7 -4 -2 -4 -20 -1 -25 3 -33 0 -38 -15 -4 -12 -13
-17 -26 -15 -16 3 -24 -4 -35 -32 -15 -35 -11 -60 6 -33 5 8 12 11 17 7 12
-12 -19 -27 -43 -21 -14 4 -23 0 -28 -11 -3 -9 -10 -13 -16 -10 -5 3 -10 3
-10 -2 0 -4 -18 -9 -41 -10 -29 -1 -39 2 -35 12 3 8 -4 12 -20 11 -13 0 -24
-7 -24 -14 0 -10 -5 -10 -21 -1 -15 8 -19 8 -15 0 12 -19 -6 -36 -19 -18 -6 8
-16 13 -22 9 -14 -10 -27 -52 -15 -52 5 0 13 10 16 23 6 20 9 17 25 -22 11
-27 20 -39 23 -30 3 8 9 11 13 7 4 -4 5 -14 1 -23 -4 -12 -10 -13 -25 -6 -21
12 -31 5 -31 -20 0 -10 -4 -20 -9 -23 -4 -3 -5 11 -1 32 6 34 4 37 -17 38 -13
1 -23 -2 -23 -8 0 -5 5 -6 11 -2 7 4 10 1 7 -7 -3 -8 -10 -14 -17 -14 -6 0
-16 -7 -21 -15 -7 -12 -12 -12 -22 -2 -9 9 -9 12 5 12 9 0 17 3 18 8 0 4 2 15
4 26 5 25 -4 46 -21 46 -8 0 -14 5 -14 10 0 6 -4 10 -9 10 -5 0 -4 -11 2 -25
7 -14 15 -25 20 -25 4 0 7 -4 7 -10 0 -19 -19 -10 -26 12 l-7 22 -20 -25 -20
-24 6 23 c7 30 -1 52 -19 52 -8 0 -14 7 -14 15 0 18 -17 20 -22 4 -3 -8 -10
-6 -21 5 -9 9 -14 23 -10 32 3 8 2 14 -3 13 -26 -4 -25 4 1 15 26 11 31 11 36
-3 3 -9 -1 -21 -10 -28 -9 -6 -13 -15 -9 -19 4 -4 14 -1 23 6 8 7 15 8 15 2 0
-15 32 -24 43 -13 5 5 7 17 3 27 -6 16 -7 16 -20 -1 -13 -18 -14 -18 -24 2 -6
11 -9 23 -6 26 3 3 -1 15 -8 27 -10 18 -10 24 0 27 6 3 12 12 12 21 0 13 -3
12 -15 -4 -12 -15 -16 -16 -24 -5 -7 10 -12 8 -26 -10 l-17 -24 7 34 c5 22 4
31 -3 27 -6 -3 -14 -1 -18 5 -4 8 -3 9 5 5 19 -12 25 24 6 38 -10 7 -15 19
-12 27 4 9 6 7 6 -6 1 -18 4 -17 26 9 21 24 25 26 25 11 0 -15 2 -17 13 -6 10
10 8 15 -7 26 -10 8 -23 12 -29 8 -5 -3 -1 7 9 22 18 28 18 28 -4 16 -19 -10
-21 -9 -15 6 5 13 3 15 -11 10 -24 -9 -58 13 -45 29 6 7 17 10 25 7 8 -3 14 0
14 6 0 6 5 11 11 11 5 0 7 -5 3 -12 -4 -6 -3 -8 4 -5 5 4 8 16 5 26 -3 14 0
19 13 18 11 -1 20 6 21 18 3 18 3 19 -7 2 -8 -13 -16 -15 -28 -8 -10 6 -23 6
-34 0 -12 -6 -18 -6 -18 1 0 5 7 10 15 10 9 0 18 7 21 15 4 8 10 13 14 10 4
-3 10 4 13 16 4 16 2 19 -14 14 -10 -4 -20 -3 -20 2 -6 37 -4 71 5 88 5 11 9
23 8 28 -1 4 1 7 5 7 5 0 8 11 8 25 0 14 -6 25 -12 25 -18 0 -16 13 5 31 9 9
25 26 35 38 18 22 18 23 0 38 -10 8 -13 12 -6 9 6 -4 14 2 18 13 3 10 15 21
25 24 11 3 20 10 20 17 0 6 -5 8 -12 4 -7 -4 -8 -3 -4 5 4 6 11 9 16 6 5 -3
20 11 34 32 15 21 26 33 26 26 0 -15 33 -11 46 6 6 8 25 14 42 14 36 0 49 21
27 43 -22 22 -19 27 15 22 21 -3 30 0 30 10 0 7 6 12 12 10 7 -3 19 2 27 9 7
8 26 17 42 20 18 3 28 11 27 20 -4 17 96 56 129 50 12 -2 20 -1 18 4 -13 20
83 16 96 -4z m54 -36 c-3 -6 -11 -11 -17 -11 -6 0 -6 6 2 15 14 17 26 13 15
-4z m-4498 -39 c-20 -22 -22 -58 -4 -65 8 -4 8 -6 1 -6 -7 -1 -22 7 -35 18
-22 18 -22 18 -3 38 16 17 35 29 53 32 2 1 -3 -7 -12 -17z m813 -6 c0 -3 -4
-8 -10 -11 -5 -3 -10 -1 -10 4 0 6 5 11 10 11 6 0 10 -2 10 -4z m-651 -19 c-9
-7 -18 -19 -21 -27 -3 -10 -6 -8 -10 8 -4 12 -2 20 3 16 5 -3 9 0 9 5 0 6 8
11 18 11 15 -1 15 -2 1 -13z m-234 -7 c3 -5 2 -10 -4 -10 -5 0 -13 5 -16 10
-3 6 -2 10 4 10 5 0 13 -4 16 -10z m4542 4 c-3 -3 -12 -4 -19 -1 -8 3 -5 6 6
6 11 1 17 -2 13 -5z m3 -28 c0 -3 -4 -8 -10 -11 -5 -3 -10 -1 -10 4 0 6 5 11
10 11 6 0 10 -2 10 -4z m-4270 -13 c0 -15 -16 -33 -30 -33 -21 0 -34 15 -26
29 5 7 56 11 56 4z m3830 2 c0 -2 -9 -9 -20 -15 -16 -9 -18 -8 -14 5 5 13 34
22 34 10z m-2879 -48 c-8 -8 -11 -7 -11 4 0 20 13 34 18 19 3 -7 -1 -17 -7
-23z m3279 23 c0 -5 -7 -10 -16 -10 -8 0 -12 5 -9 10 3 6 10 10 16 10 5 0 9
-4 9 -10z m-3190 -10 c0 -5 -4 -10 -10 -10 -5 0 -10 5 -10 10 0 6 5 10 10 10
6 0 10 -4 10 -10z m-10 -20 c12 -8 11 -10 -7 -10 -13 0 -23 5 -23 10 0 13 11
13 30 0z m-1022 -35 c-2 -6 -9 -9 -15 -9 -7 1 -11 -2 -8 -6 8 -13 -27 -22 -39
-10 -12 12 0 26 29 33 27 6 37 4 33 -8z m432 5 c0 -5 -2 -10 -4 -10 -3 0 -8 5
-11 10 -3 6 -1 10 4 10 6 0 11 -4 11 -10z m-40 -31 c0 -5 -4 -9 -10 -9 -5 0
-10 7 -10 16 0 8 5 12 10 9 6 -3 10 -10 10 -16z m121 -12 c-12 -12 -31 0 -31
19 0 12 3 12 20 2 11 -7 16 -16 11 -21z m469 2 c0 -5 -7 -9 -15 -9 -8 0 -15 7
-15 15 0 9 6 12 15 9 8 -4 15 -10 15 -15z m-3819 -16 c34 -20 37 -39 9 -48
-19 -6 -19 -8 -5 -35 28 -55 14 -92 -28 -72 -12 6 -30 13 -39 16 -32 10 -16
96 17 96 11 0 13 8 9 30 -7 35 -3 36 37 13z m7039 2 c0 -2 -9 -9 -20 -15 -12
-6 -20 -7 -20 -1 0 5 8 12 18 14 9 3 18 5 20 6 1 0 2 -1 2 -4z m-4185 -15 c-3
-5 1 -10 9 -10 18 0 21 -16 6 -25 -5 -3 -10 -1 -10 5 0 6 -5 8 -11 4 -6 -3
-15 0 -20 7 -5 8 -3 17 4 21 17 11 29 10 22 -2z m-2422 -29 c46 -39 58 -111
17 -111 -33 0 -60 32 -64 75 -5 67 2 73 47 36z m2727 -42 c0 -6 -4 -7 -10 -4
-5 3 -10 11 -10 16 0 6 5 7 10 4 6 -3 10 -11 10 -16z m-2938 -84 c10 -11 17
-24 18 -29 0 -13 -49 34 -63 59 -10 19 -9 19 9 5 10 -8 27 -24 36 -35z m2798
-4 c0 -5 -7 -11 -15 -15 -9 -3 -15 0 -15 9 0 8 7 15 15 15 8 0 15 -4 15 -9z
m4083 -24 c-3 -5 -10 -4 -15 1 -6 6 -7 16 -3 22 6 9 9 9 16 -1 4 -7 5 -17 2
-22z m-708 -7 c-3 -5 -11 -10 -16 -10 -6 0 -7 5 -4 10 3 6 11 10 16 10 6 0 7
-4 4 -10z m692 -42 c-3 -8 -6 -5 -6 6 -1 11 2 17 5 13 3 -3 4 -12 1 -19z
m-4027 -67 c0 -20 -26 -36 -35 -21 -5 7 20 40 31 40 2 0 4 -9 4 -19z m-4000
-31 c12 -7 10 -9 -8 -7 -12 0 -22 5 -22 9 0 11 12 10 30 -2z m7330 -11 c0 -5
-4 -9 -10 -9 -5 0 -10 7 -10 16 0 8 5 12 10 9 6 -3 10 -10 10 -16z m-6256 -22
c24 -24 29 -55 9 -59 -13 -2 -21 6 -29 27 -15 43 -5 58 20 32z m-272 -119 c-8
-8 -9 -4 -5 13 4 13 8 18 11 10 2 -7 -1 -18 -6 -23z m6523 -28 c-3 -5 -1 -10
4 -10 6 0 11 -5 11 -11 0 -8 -5 -8 -15 1 -13 11 -12 30 1 30 3 0 2 -4 -1 -10z
m708 -9 c-3 -13 -10 -18 -20 -14 -14 5 -13 8 3 20 23 17 23 17 17 -6z m-7759
-36 c-4 -8 -11 -12 -16 -9 -6 4 -5 10 3 15 19 12 19 11 13 -6z m58 -57 c33
-36 51 -74 42 -89 -3 -6 2 -21 11 -35 9 -13 13 -30 9 -36 -4 -7 -3 -8 4 -4 22
13 12 -10 -13 -34 -30 -29 -32 -44 -4 -37 31 8 6 -17 -37 -38 -42 -20 -68 -7
-40 20 9 9 16 22 16 28 0 8 -3 8 -9 -1 -7 -11 -10 -10 -15 3 -3 9 -3 22 1 27
3 7 1 8 -5 4 -16 -10 -15 0 4 29 10 15 12 25 5 25 -6 0 -11 -4 -11 -10 0 -15
-38 -12 -43 3 -2 6 1 22 6 35 8 17 8 25 -1 31 -15 9 -8 76 9 97 18 22 39 17
71 -18z m667 -129 c1 18 71 6 88 -16 6 -8 16 -12 21 -9 5 3 21 -3 35 -14 14
-11 30 -20 36 -20 6 0 34 -11 63 -25 28 -14 55 -25 60 -25 4 0 17 -8 27 -17
15 -12 18 -21 10 -35 -5 -10 -6 -19 -2 -19 4 -1 13 -2 18 -4 6 -1 17 -3 26 -3
28 -3 47 -83 24 -102 -21 -17 -46 3 -27 22 7 7 12 18 12 26 0 12 -3 12 -16 1
-14 -11 -19 -10 -35 10 -19 23 -19 23 -19 2 0 -14 -6 -21 -20 -21 -11 0 -20 5
-20 10 0 6 -9 10 -19 10 -11 0 -27 7 -35 16 -9 8 -20 13 -25 10 -5 -3 -14 1
-21 9 -6 7 -18 11 -25 9 -8 -3 -19 3 -26 14 -7 11 -18 18 -24 16 -7 -3 -18 2
-25 11 -8 10 -9 15 -1 15 16 0 14 16 -5 35 -10 10 -19 12 -23 7 -4 -7 -13 -5
-24 3 -18 13 -18 14 0 24 17 10 17 10 -2 12 -11 1 -27 1 -37 0 -24 -3 -32 18
-17 46 12 22 14 23 20 6 5 -10 8 -12 8 -4z m6690 -90 c-8 -5 -10 -9 -5 -9 5 0
3 -7 -4 -15 -9 -10 -9 -15 -1 -15 6 0 11 -4 11 -10 0 -5 -7 -10 -15 -10 -8 0
-15 5 -15 12 0 6 -3 9 -6 5 -3 -3 -12 -1 -18 6 -17 15 3 40 21 25 8 -6 13 -3
18 12 3 11 11 17 17 14 6 -4 5 -10 -3 -15z m141 -14 c0 -7 -8 -19 -17 -26 -9
-8 -14 -9 -10 -3 4 7 0 17 -8 24 -8 7 -13 16 -10 20 8 12 45 0 45 -15z m-70 0
c0 -8 -2 -15 -4 -15 -2 0 -6 7 -10 15 -3 8 -1 15 4 15 6 0 10 -7 10 -15z
m-370 -15 c-8 -5 -17 -7 -19 -4 -3 3 1 9 9 14 8 5 17 7 19 4 3 -3 -1 -9 -9
-14z m60 4 c0 -2 -7 -4 -15 -4 -8 0 -15 4 -15 10 0 5 7 7 15 4 8 -4 15 -8 15
-10z m-5043 -26 c-3 -8 -6 -5 -6 6 -1 11 2 17 5 13 3 -3 4 -12 1 -19z m5378 2
c-3 -5 -11 -10 -16 -10 -6 0 -7 5 -4 10 3 6 11 10 16 10 6 0 7 -4 4 -10z
m-4947 -49 c3 -8 -1 -12 -9 -9 -7 2 -15 10 -17 17 -3 8 1 12 9 9 7 -2 15 -10
17 -17z m69 -27 c-3 -3 -12 -4 -19 -1 -8 3 -5 6 6 6 11 1 17 -2 13 -5z m-3517
-19 c-7 -9 -15 -13 -17 -11 -7 7 7 26 19 26 6 0 6 -6 -2 -15z m143 2 c-3 -5
-11 -6 -19 -3 -8 3 -14 0 -14 -6 0 -6 -3 -9 -6 -5 -10 10 3 23 25 23 11 0 17
-4 14 -9z m-58 -27 c-3 -5 -11 -10 -16 -10 -6 0 -7 5 -4 10 3 6 11 10 16 10 6
0 7 -4 4 -10z m1975 -30 c0 -5 -2 -10 -4 -10 -3 0 -8 5 -11 10 -3 6 -1 10 4
10 6 0 11 -4 11 -10z m60 -30 c0 -5 -5 -10 -11 -10 -5 0 -7 5 -4 10 3 6 8 10
11 10 2 0 4 -4 4 -10z m-2443 -76 c-3 -3 -12 -4 -19 -1 -8 3 -5 6 6 6 11 1 17
-2 13 -5z m4853 -43 c0 -5 -9 -11 -20 -14 -20 -5 -26 3 -13 16 9 10 33 8 33
-2z m26 -26 c-3 -9 0 -15 9 -15 8 0 15 -5 15 -11 0 -5 5 -7 10 -4 6 4 8 10 6
14 -9 14 29 8 44 -7 13 -13 13 -15 0 -10 -8 3 -20 -2 -26 -11 -10 -13 -15 -13
-27 -2 -9 7 -21 10 -27 6 -6 -4 -17 -4 -25 -1 -12 4 -13 10 -3 31 12 26 34 36
24 10z m2183 -4 c8 -5 9 -11 3 -15 -6 -3 -13 -2 -17 4 -4 6 -11 7 -17 4 -7 -4
-8 -2 -4 4 8 14 16 15 35 3z m-2064 -58 c-13 -13 -35 -18 -35 -8 0 3 8 14 17
25 12 13 19 16 24 8 4 -6 1 -17 -6 -25z m2069 11 c9 -25 7 -34 -9 -34 -9 0
-12 6 -9 15 5 12 2 14 -12 8 -17 -6 -17 -5 -5 10 17 21 27 22 35 1z m281 -14
c3 -5 1 -10 -4 -10 -6 0 -11 5 -11 10 0 6 2 10 4 10 3 0 8 -4 11 -10z"/>
<path d="M7410 4770 c0 -5 5 -10 11 -10 5 0 7 5 4 10 -3 6 -8 10 -11 10 -2 0
-4 -4 -4 -10z"/>
<path d="M7385 4160 c-3 -5 3 -10 15 -10 12 0 18 5 15 10 -3 6 -10 10 -15 10
-5 0 -12 -4 -15 -10z"/>
<path d="M7536 3974 c-4 -9 -4 -19 -1 -22 2 -3 7 3 11 12 4 9 4 19 1 22 -2 3
-7 -3 -11 -12z"/>
<path d="M7490 3890 c0 -5 5 -10 11 -10 5 0 7 5 4 10 -3 6 -8 10 -11 10 -2 0
-4 -4 -4 -10z"/>
<path d="M7507 3856 c-3 -8 0 -17 8 -20 14 -5 28 17 18 28 -10 10 -21 7 -26
-8z"/>
<path d="M7490 3820 c0 -5 5 -10 10 -10 6 0 10 5 10 10 0 6 -4 10 -10 10 -5 0
-10 -4 -10 -10z"/>
<path d="M7470 3775 c-11 -13 -10 -14 4 -9 9 3 16 10 16 15 0 13 -6 11 -20 -6z"/>
<path d="M7455 3740 c3 -5 8 -10 11 -10 2 0 4 5 4 10 0 6 -5 10 -11 10 -5 0
-7 -4 -4 -10z"/>
<path d="M7395 3660 c-3 -5 -1 -10 4 -10 6 0 11 5 11 10 0 6 -2 10 -4 10 -3 0
-8 -4 -11 -10z"/>
<path d="M7355 3610 c-3 -5 -1 -10 4 -10 6 0 11 5 11 10 0 6 -2 10 -4 10 -3 0
-8 -4 -11 -10z"/>
<path d="M7473 2794 c7 -8 -17 -34 -32 -34 -6 0 -11 -5 -11 -11 0 -5 5 -7 10
-4 6 3 10 -1 10 -10 0 -9 5 -13 10 -10 6 4 7 11 4 17 -4 6 1 8 14 4 11 -4 22
-3 25 1 7 13 -11 53 -24 53 -7 0 -10 -3 -6 -6z"/>
<path d="M7482 2671 c-6 -17 -9 -31 -6 -31 7 0 25 52 20 57 -2 2 -8 -10 -14
-26z"/>
<path d="M7435 2610 c3 -5 8 -10 11 -10 2 0 4 5 4 10 0 6 -5 10 -11 10 -5 0
-7 -4 -4 -10z"/>
<path d="M7372 2528 c-7 -7 -12 -18 -12 -25 0 -7 -5 -13 -11 -13 -12 0 -38
-29 -39 -43 0 -14 66 47 81 76 11 19 -1 23 -19 5z"/>
<path d="M7740 2530 c0 -5 5 -10 11 -10 5 0 7 5 4 10 -3 6 -8 10 -11 10 -2 0
-4 -4 -4 -10z"/>
<path d="M7613 2175 c0 -11 4 -12 14 -4 7 6 13 13 13 15 0 2 -6 4 -13 4 -8 0
-14 -7 -14 -15z"/>
<path d="M7657 2137 c-4 -11 -5 -23 -1 -28 8 -14 31 -11 37 5 4 10 1 13 -8 10
-8 -3 -15 2 -17 13 -3 17 -4 17 -11 0z"/>
<path d="M7516 2107 c-7 -27 1 -35 18 -16 12 12 12 16 1 26 -10 9 -14 7 -19
-10z"/>
<path d="M5866 3045 c4 -8 10 -15 15 -15 4 0 6 7 3 15 -4 8 -10 15 -15 15 -4
0 -6 -7 -3 -15z"/>
<path d="M5881 2649 c-7 -12 -10 -23 -8 -26 3 -3 11 5 17 17 15 28 8 35 -9 9z"/>
<path d="M5572 2338 c2 -13 11 -24 20 -26 14 -3 15 0 5 22 -15 32 -30 34 -25
4z"/>
<path d="M6137 2333 c-4 -3 -7 -11 -7 -17 0 -6 5 -5 12 2 6 6 9 14 7 17 -3 3
-9 2 -12 -2z"/>
<path d="M6097 2231 c-4 -17 -3 -21 5 -13 5 5 8 16 6 23 -3 8 -7 3 -11 -10z"/>
<path d="M5687 1957 c-13 -20 -13 -23 2 -25 57 -7 75 -6 78 6 3 7 1 12 -4 11
-23 -4 -35 2 -29 16 9 25 -30 18 -47 -8z"/>
<path d="M5976 1855 c-8 -22 -3 -28 19 -23 14 3 14 5 2 22 -13 18 -14 18 -21
1z"/>
<path d="M6180 1464 c0 -8 5 -12 10 -9 6 3 10 10 10 16 0 5 -4 9 -10 9 -5 0
-10 -7 -10 -16z"/>
<path d="M7135 1450 c3 -5 8 -10 11 -10 2 0 4 5 4 10 0 6 -5 10 -11 10 -5 0
-7 -4 -4 -10z"/>
<path d="M10145 1860 c-3 -6 1 -7 9 -4 18 7 21 14 7 14 -6 0 -13 -4 -16 -10z"/>
<path d="M10050 1836 c0 -2 7 -6 15 -10 8 -3 15 -1 15 4 0 6 -7 10 -15 10 -8
0 -15 -2 -15 -4z"/>
<path d="M10085 1820 c-8 -13 -1 -24 14 -19 6 3 7 10 2 18 -6 10 -10 10 -16 1z"/>
<path d="M10050 1810 c0 -5 5 -10 10 -10 6 0 10 5 10 10 0 6 -4 10 -10 10 -5
0 -10 -4 -10 -10z"/>
<path d="M10110 1745 c-7 -9 -10 -18 -7 -22 4 -3 9 2 13 11 3 9 11 13 17 9 6
-3 7 -1 3 5 -9 15 -11 15 -26 -3z"/>
<path d="M10040 1719 c0 -6 5 -7 11 -3 8 4 9 -1 5 -17 -7 -23 -7 -23 8 -5 21
26 20 31 -4 33 -11 1 -20 -3 -20 -8z"/>
<path d="M9986 1705 c4 -8 10 -12 15 -9 11 6 2 24 -11 24 -5 0 -7 -7 -4 -15z"/>
<path d="M9976 1653 c-6 -14 -5 -15 5 -6 7 7 10 15 7 18 -3 3 -9 -2 -12 -12z"/>
<path d="M10006 1657 c3 -10 9 -15 12 -12 3 3 0 11 -7 18 -10 9 -11 8 -5 -6z"/>
<path d="M10005 1620 c3 -5 8 -10 11 -10 2 0 4 5 4 10 0 6 -5 10 -11 10 -5 0
-7 -4 -4 -10z"/>
<path d="M9920 1610 c-9 -6 -10 -10 -3 -10 6 0 15 5 18 10 8 12 4 12 -15 0z"/>
<path d="M10070 1559 c0 -5 5 -7 10 -4 6 3 10 8 10 11 0 2 -4 4 -10 4 -5 0
-10 -5 -10 -11z"/>
<path d="M10090 1310 c0 -5 5 -10 11 -10 5 0 7 5 4 10 -3 6 -8 10 -11 10 -2 0
-4 -4 -4 -10z"/>
<path d="M9536 1275 c4 -8 8 -15 10 -15 2 0 4 7 4 15 0 8 -4 15 -10 15 -5 0
-7 -7 -4 -15z"/>
<path d="M9507 1219 c7 -7 15 -10 18 -7 3 3 -2 9 -12 12 -14 6 -15 5 -6 -5z"/>
<path d="M9500 1190 c0 -5 5 -10 10 -10 6 0 10 5 10 10 0 6 -4 10 -10 10 -5 0
-10 -4 -10 -10z"/>
<path d="M9490 1160 c0 -5 7 -10 16 -10 8 0 12 5 9 10 -3 6 -10 10 -16 10 -5
0 -9 -4 -9 -10z"/>
<path d="M10190 1130 c0 -5 5 -10 11 -10 5 0 7 5 4 10 -3 6 -8 10 -11 10 -2 0
-4 -4 -4 -10z"/>
<path d="M10165 1010 c4 -6 11 -8 16 -5 14 9 11 15 -7 15 -8 0 -12 -5 -9 -10z"/>
<path d="M9466 995 c4 -8 11 -15 16 -15 6 0 5 6 -2 15 -7 8 -14 15 -16 15 -2
0 -1 -7 2 -15z"/>
<path d="M9517 830 c-3 -11 -3 -20 -1 -20 2 0 8 9 14 20 6 11 7 20 2 20 -6 0
-12 -9 -15 -20z"/>
<path d="M10059 841 c-1 -3 0 -14 1 -24 1 -11 -7 -21 -19 -24 -22 -6 -19 -23
5 -23 8 0 14 8 14 18 0 13 2 14 9 3 7 -10 10 -10 16 -1 4 7 2 16 -6 20 -10 7
-10 12 -1 23 9 11 8 14 -3 14 -8 0 -16 -3 -16 -6z"/>
<path d="M9610 778 c-22 -24 -27 -48 -9 -48 6 0 8 7 5 16 -3 8 -2 12 4 9 6 -3
10 -16 10 -28 0 -21 1 -21 14 3 11 21 11 27 0 36 -10 8 -11 13 -2 22 7 7 9 12
5 12 -3 0 -15 -10 -27 -22z"/>
<path d="M9663 749 c-2 -23 3 -25 10 -4 4 8 3 16 -1 19 -4 3 -9 -4 -9 -15z"/>
<path d="M9840 719 c0 -5 5 -7 10 -4 6 3 10 8 10 11 0 2 -4 4 -10 4 -5 0 -10
-5 -10 -11z"/>
<path d="M9815 711 c-3 -5 -1 -12 5 -16 5 -3 10 1 10 9 0 18 -6 21 -15 7z"/>
<path d="M9735 660 c-3 -5 -1 -10 4 -10 6 0 11 5 11 10 0 6 -2 10 -4 10 -3 0
-8 -4 -11 -10z"/>
<path d="M9711 634 c0 -11 3 -14 6 -6 3 7 2 16 -1 19 -3 4 -6 -2 -5 -13z"/>
<path d="M2480 665 c0 -8 3 -15 6 -15 3 0 12 7 20 15 14 13 13 15 -5 15 -12 0
-21 -6 -21 -15z"/>
<path d="M3165 700 c-3 -5 -1 -10 4 -10 6 0 11 5 11 10 0 6 -2 10 -4 10 -3 0
-8 -4 -11 -10z"/>
<path d="M9146 7821 c-3 -4 -20 -11 -38 -14 -46 -7 -302 -134 -318 -157 -3 -4
-32 -22 -65 -39 -79 -41 -126 -69 -205 -119 -36 -23 -108 -64 -160 -92 -111
-58 -155 -96 -192 -169 -33 -63 -34 -88 -8 -240 34 -202 44 -229 143 -411 35
-64 51 -109 66 -185 31 -153 54 -208 113 -267 79 -78 156 -73 277 19 24 18 50
33 57 33 7 0 14 4 16 8 2 4 30 26 63 49 41 28 75 43 108 47 45 6 61 11 132 41
40 17 235 113 260 128 11 7 52 29 90 51 103 57 135 84 155 130 31 71 16 125
-196 731 -14 39 -36 110 -50 159 -33 116 -74 195 -132 256 -38 39 -55 50 -80
50 -17 0 -33 -4 -36 -9z"/>
<path d="M10129 7305 c-24 -19 -48 -35 -54 -35 -5 -1 -23 -11 -38 -24 -31 -25
-48 -80 -36 -113 4 -11 10 -36 13 -56 18 -111 57 -147 160 -147 l66 0 0 193
c0 137 -3 196 -12 205 -21 21 -54 13 -99 -23z"/>
<path d="M0 5630 c0 -826 4 -1350 10 -1350 5 0 12 5 15 10 4 6 11 8 16 5 5 -4
12 1 15 9 3 9 12 16 20 16 8 0 22 4 32 9 38 19 82 28 107 23 17 -3 30 0 36 9
6 10 9 10 9 2 0 -7 6 -10 14 -7 7 3 20 -1 27 -8 8 -7 26 -13 42 -13 15 1 27
-3 27 -8 0 -5 7 -7 15 -3 8 3 15 1 15 -3 0 -5 9 -7 20 -4 15 4 19 2 14 -10 -4
-13 -1 -15 17 -12 12 3 25 8 28 13 8 13 41 11 41 -2 0 -6 5 -4 11 4 9 12 10
11 6 -7 -3 -12 -2 -22 2 -21 23 3 41 -4 41 -16 0 -8 4 -17 8 -20 5 -3 6 9 4
26 -4 28 -3 29 16 19 25 -13 43 -14 22 -1 -12 7 -12 12 -2 22 8 8 12 8 12 1 0
-6 9 -9 22 -5 17 4 20 2 15 -11 -3 -9 0 -18 9 -21 9 -4 18 3 24 19 5 14 12 25
16 25 3 0 3 -8 -1 -17 -5 -14 -3 -15 5 -7 15 15 -5 58 -23 48 -8 -5 -8 -2 1 7
7 8 20 14 29 14 9 0 18 7 20 15 4 13 3 13 -6 0 -9 -13 -11 -12 -11 6 0 12 6
21 15 21 8 0 15 -7 15 -14 0 -8 5 -11 10 -8 6 4 8 11 5 16 -3 5 1 6 9 3 12 -4
16 0 17 17 l1 24 7 -25 c6 -22 8 -23 14 -7 4 10 7 27 7 38 0 10 5 19 11 19 7
0 8 -12 4 -32 -5 -25 -4 -29 4 -18 13 18 14 60 3 60 -5 0 -9 13 -9 30 0 16 4
27 9 24 4 -3 8 -1 8 5 0 5 -9 12 -19 16 -13 4 -17 12 -13 27 5 20 5 20 18 -3
l13 -24 1 23 c0 15 4 21 12 16 7 -5 9 -2 5 9 -3 8 0 21 8 27 8 6 11 19 8 27
-4 11 -2 14 5 9 7 -4 12 -3 12 3 0 5 -6 12 -12 14 -10 4 -10 6 0 6 6 1 12 10
12 20 0 11 -6 22 -12 24 -8 4 -9 6 -2 6 6 1 17 -6 24 -14 7 -8 17 -15 22 -15
5 0 2 7 -6 16 -9 8 -16 23 -16 32 0 15 -2 15 -10 2 -6 -9 -10 -10 -10 -3 0 6
7 18 15 27 8 8 15 25 16 38 0 21 1 21 8 4 9 -25 21 -8 17 25 -3 22 1 24 36 24
21 0 38 3 38 8 0 5 8 1 18 -9 16 -16 17 -16 20 -1 2 9 7 18 10 18 28 5 52 5
52 0 0 -4 9 -7 20 -8 11 -1 18 2 15 8 -7 10 8 12 18 2 12 -11 57 -9 57 2 0 6
9 11 19 11 11 0 17 -4 15 -8 -3 -4 0 -8 5 -8 6 0 11 8 11 18 0 14 2 15 10 2 5
-8 10 -10 10 -4 0 6 6 11 13 12 43 3 86 11 110 21 16 6 33 11 38 11 6 0 7 5 4
10 -3 6 -2 10 4 10 6 0 32 22 58 50 71 74 90 142 98 350 3 91 8 181 11 200 8
67 4 447 -5 496 -17 90 -50 144 -90 147 -12 1 -21 4 -21 8 0 4 -10 9 -21 12
-15 4 -20 11 -16 21 4 9 2 16 -4 16 -6 0 -9 7 -6 15 4 8 2 17 -2 19 -5 3 -6
17 -3 31 8 44 -16 83 -66 105 -25 12 -58 32 -72 46 -28 29 -126 72 -153 68 -9
-1 -15 1 -12 5 2 5 -22 19 -53 31 -39 16 -58 29 -59 41 -1 10 2 21 8 24 5 4 9
15 9 26 0 10 5 19 10 19 6 0 10 6 10 14 0 14 -90 76 -109 76 -5 0 -11 3 -13 8
-2 4 -41 25 -87 48 -82 39 -87 40 -180 38 -53 -1 -114 -4 -136 -6 -70 -7 -312
40 -447 87 -21 7 -40 10 -43 5 -3 -4 -22 -4 -42 1 -21 5 -41 9 -45 9 -4 0 -8
-607 -8 -1350z m910 -914 c0 -3 -4 -8 -10 -11 -5 -3 -10 -1 -10 4 0 6 5 11 10
11 6 0 10 -2 10 -4z m-45 -56 c3 -5 1 -10 -4 -10 -6 0 -11 5 -11 10 0 6 2 10
4 10 3 0 8 -4 11 -10z m-45 -159 c0 -21 -19 -41 -39 -40 -10 0 -6 4 8 10 18 7
22 15 19 34 -3 13 -1 22 3 19 5 -3 9 -13 9 -23z m30 5 c0 -3 -4 -8 -10 -11 -5
-3 -10 -1 -10 4 0 6 5 11 10 11 6 0 10 -2 10 -4z m-141 -117 c6 9 11 10 15 2
4 -6 3 -11 -3 -11 -5 0 -16 -7 -24 -14 -13 -13 -14 -12 -14 11 0 18 2 21 8 12
8 -12 10 -12 18 0z m-39 -33 c0 -8 7 -16 15 -20 8 -3 15 -16 14 -28 l0 -23 -9
22 c-6 14 -15 21 -24 17 -8 -3 -17 -1 -21 5 -4 7 1 8 12 4 15 -5 16 -3 6 8
-16 16 -17 29 -3 29 6 0 10 -6 10 -14z m-225 -16 c-3 -5 -10 -10 -16 -10 -5 0
-9 5 -9 10 0 6 7 10 16 10 8 0 12 -4 9 -10z m145 -11 c0 -11 -27 -12 -34 -1
-2 4 4 9 15 9 10 1 19 -2 19 -8z m-120 -3 c0 -3 -4 -8 -10 -11 -5 -3 -10 -1
-10 4 0 6 5 11 10 11 6 0 10 -2 10 -4z"/>
<path d="M10195 6492 c-72 -4 -84 -11 -106 -54 -18 -35 -20 -52 -15 -106 4
-36 18 -88 31 -117 14 -29 25 -63 25 -76 0 -49 -13 -98 -30 -116 -9 -10 -17
-26 -17 -36 0 -23 82 -111 96 -103 7 5 11 -3 11 -22 0 -31 18 -46 39 -33 8 5
11 93 9 337 l-3 329 -40 -3z"/>
<path d="M2031 6243 c1 -5 0 -12 -1 -18 -7 -32 -19 -136 -26 -240 -3 -49 -7
-108 -9 -130 -1 -22 -6 -170 -10 -330 -7 -296 -18 -413 -56 -570 -16 -68 -19
-107 -15 -160 7 -83 23 -186 25 -165 1 13 2 13 11 0 10 -15 12 -10 12 20 0 3
11 15 24 28 13 12 24 18 24 12 0 -6 10 -8 27 -4 15 4 33 7 40 7 7 0 13 4 13 8
0 4 19 5 43 3 33 -3 38 -2 22 6 -17 9 -15 10 12 6 20 -4 35 -1 40 8 4 7 16 16
26 19 10 4 16 11 13 16 -5 8 26 22 40 18 3 -1 10 6 15 16 6 9 17 17 24 17 8 0
15 5 15 10 0 6 8 10 19 10 10 0 40 17 67 38 27 21 56 37 65 35 10 -3 25 -29
37 -66 12 -34 21 -58 22 -54 0 9 20 -6 56 -42 22 -22 22 -24 7 -50 -9 -14 -32
-45 -50 -68 -35 -44 -39 -69 -13 -90 8 -7 11 -13 5 -13 -17 0 48 -32 75 -36
39 -6 96 -11 200 -19 52 -4 125 -13 163 -21 58 -12 162 -18 219 -12 10 1 23
14 30 30 7 15 17 28 22 28 4 0 3 7 -4 15 -6 8 -10 20 -7 27 2 7 -4 30 -15 50
-21 42 -31 101 -16 92 6 -4 7 2 3 15 -4 14 -2 23 8 26 17 7 16 2 25 155 7 119
20 170 43 170 6 0 13 -9 16 -20 3 -11 9 -20 14 -20 4 0 6 -51 3 -112 -3 -62
-4 -133 -3 -158 5 -96 -1 -152 -16 -162 -5 -4 -8 -23 -7 -43 3 -24 -1 -35 -10
-35 -7 0 -4 -6 7 -12 11 -6 25 -19 32 -27 8 -11 12 -12 13 -3 0 6 10 12 23 12
22 0 67 46 67 69 0 5 6 16 13 23 24 26 55 189 57 299 1 107 -26 259 -56 318
-7 14 -11 29 -7 33 3 5 -1 9 -8 7 -27 -3 -40 1 -33 12 4 7 -1 10 -12 7 -11 -2
-27 3 -36 12 -21 17 -24 34 -5 25 6 -4 3 1 -8 10 -11 9 -19 21 -17 27 1 5 -7
19 -19 29 -12 10 -17 19 -11 19 6 0 14 -4 17 -10 3 -5 11 -10 17 -10 6 0 4 8
-6 19 -9 10 -14 25 -10 35 3 9 1 16 -5 16 -6 0 -11 -4 -11 -10 0 -5 -5 -10
-10 -10 -13 0 -9 32 5 42 6 5 5 8 -2 8 -7 0 -13 9 -13 20 0 12 -7 20 -17 21
-11 0 -13 3 -5 6 14 6 17 73 2 73 -5 0 -10 7 -10 15 0 8 -7 15 -16 15 -14 0
-14 -1 0 -16 9 -8 16 -23 16 -32 -1 -15 -3 -14 -15 2 -13 17 -15 17 -15 4 0
-9 -6 -20 -12 -24 -7 -4 -10 -4 -6 1 4 4 3 14 -3 22 -7 8 -8 13 -1 13 5 0 9
11 8 25 0 14 -4 25 -7 25 -3 0 -4 11 -1 25 2 14 -6 52 -18 85 -86 229 -424
206 -495 -33 -20 -68 -19 -100 5 -150 11 -23 23 -58 26 -77 5 -32 2 -37 -28
-54 -51 -30 -74 -68 -56 -92 11 -15 16 -102 7 -144 -4 -19 -10 -51 -13 -71 -3
-19 -20 -57 -37 -83 l-30 -48 -25 23 c-19 18 -24 32 -24 71 0 50 -8 58 -34 33
-11 -11 -21 -13 -40 -5 -18 6 -26 6 -26 -1 0 -6 -4 -8 -9 -4 -5 3 -15 -1 -23
-8 -7 -7 -28 -23 -45 -35 -26 -19 -36 -21 -53 -12 -11 6 -26 8 -32 4 -7 -4 -8
-3 -4 4 4 8 0 12 -11 12 -10 0 -26 7 -36 14 -10 8 -27 12 -37 9 -12 -3 -20 0
-20 7 0 7 -8 10 -19 7 -14 -3 -18 -1 -14 9 5 13 -8 19 -30 15 -5 -1 -6 3 -2 9
3 5 1 10 -6 10 -7 0 -9 3 -6 6 3 4 -3 18 -13 32 -22 28 -26 47 -8 36 7 -4 2 7
-11 25 -19 27 -21 36 -12 59 5 15 11 43 13 62 1 19 6 41 11 48 5 6 7 12 3 12
-4 0 1 14 9 31 9 17 14 33 11 37 -3 3 -1 11 5 19 6 7 9 22 6 33 -3 13 -1 18 6
13 6 -4 8 0 5 9 -4 8 2 56 13 107 20 100 31 212 30 304 -1 57 -1 72 0 105 3
46 -6 132 -14 132 -4 0 -5 5 -2 10 3 6 1 10 -4 10 -6 0 -11 7 -11 16 0 9 5 12
12 8 7 -4 8 -3 4 4 -8 13 -87 17 -85 5z m1239 -787 c0 -3 -4 -8 -10 -11 -5 -3
-10 -1 -10 4 0 6 5 11 10 11 6 0 10 -2 10 -4z m-25 -154 c-8 -8 -25 10 -19 20
4 6 9 5 15 -3 4 -7 6 -15 4 -17z m-429 -178 c-6 -45 -40 -89 -60 -77 -13 9 0
83 20 104 32 35 47 25 40 -27z m76 -233 c4 0 6 -7 4 -13 -3 -7 -7 -25 -10 -40
-5 -23 -12 -28 -36 -28 -30 0 -31 2 -35 55 -2 31 14 36 77 26z m-144 -61 c-2
-27 -8 -36 -24 -38 -17 -2 -21 2 -21 28 0 16 5 30 10 30 5 0 7 9 4 19 -4 17
-2 18 14 8 15 -9 19 -21 17 -47z"/>
<path d="M8350 5441 c0 -6 4 -13 10 -16 6 -3 7 1 4 9 -7 18 -14 21 -14 7z"/>
<path d="M7151 5264 c0 -11 3 -14 6 -6 3 7 2 16 -1 19 -3 4 -6 -2 -5 -13z"/>
<path d="M2551 5241 c-8 -5 -11 -16 -8 -26 9 -21 26 -10 24 15 -1 11 -1 20 -2
20 0 0 -6 -4 -14 -9z"/>
<path d="M10218 5099 c-9 -5 -20 -23 -23 -41 -4 -17 -23 -45 -42 -63 -37 -34
-65 -102 -85 -211 -10 -56 -9 -66 10 -102 11 -22 18 -42 15 -45 -3 -3 -2 -11
2 -17 6 -9 10 -9 16 1 6 9 9 -1 7 -28 -3 -56 44 -147 86 -167 l31 -15 3 174
c1 96 1 253 0 349 -3 160 -4 174 -20 165z"/>
<path d="M9148 4949 c-36 -14 -41 -33 -23 -86 11 -33 12 -49 4 -65 -15 -29
-22 -223 -9 -262 16 -48 45 -58 108 -37 50 17 101 59 103 84 0 7 2 20 4 29 2
9 -1 34 -6 55 -9 35 -16 65 -24 103 -2 8 -4 16 -5 18 -2 1 -3 5 -4 10 -8 31
-19 52 -30 52 -6 0 -27 25 -45 55 -18 30 -36 55 -40 54 -3 0 -18 -5 -33 -10z"/>
<path d="M1005 4860 c3 -5 8 -10 11 -10 2 0 4 5 4 10 0 6 -5 10 -11 10 -5 0
-7 -4 -4 -10z"/>
<path d="M940 4780 c0 -5 5 -10 11 -10 6 0 8 -7 5 -16 -3 -9 -2 -12 5 -9 6 4
8 13 5 20 -3 8 0 16 7 19 7 2 2 5 -10 5 -13 1 -23 -3 -23 -9z"/>
<path d="M9792 4758 c-26 -26 -8 -88 25 -88 18 0 27 47 14 76 -12 27 -21 30
-39 12z"/>
<path d="M914 4595 c-10 -8 -14 -15 -8 -15 6 0 17 7 24 15 16 19 9 19 -16 0z"/>
<path d="M0 3471 l0 -588 40 -41 c21 -23 47 -42 56 -42 24 0 60 33 56 52 -5
27 32 39 117 37 81 -2 106 6 106 31 0 18 -31 44 -62 54 -46 15 -78 86 -55 123
4 7 30 11 65 10 46 -1 60 3 72 18 28 37 0 93 -56 114 -16 6 -42 16 -59 22 -57
22 -25 99 42 99 21 0 45 -16 93 -60 66 -61 89 -70 137 -51 33 13 146 118 163
152 19 35 19 100 1 142 -18 42 -102 122 -148 141 -35 15 -38 15 -65 -8 -15
-13 -44 -31 -63 -41 -57 -29 -185 -142 -209 -185 -24 -43 -46 -51 -56 -21 -6
20 3 48 45 136 36 74 47 168 29 230 -9 32 -19 45 -31 45 -10 0 -18 5 -18 11 0
5 -4 8 -9 4 -14 -8 -49 42 -61 87 -14 49 -56 96 -97 107 l-33 10 0 -588z"/>
<path d="M415 3840 c-12 -19 46 -82 62 -66 9 9 -36 76 -51 76 -3 0 -8 -4 -11
-10z"/>
<path d="M250 3811 c0 -6 4 -13 10 -16 6 -3 7 1 4 9 -7 18 -14 21 -14 7z"/>
<path d="M8846 3072 c-4 -7 -20 -12 -36 -12 -15 0 -31 -6 -33 -12 -4 -10 -6
-9 -6 1 -1 10 -6 10 -26 -3 -14 -9 -30 -14 -35 -11 -6 3 -10 -3 -10 -14 0 -24
23 -27 59 -7 14 8 31 12 38 9 7 -3 13 0 13 7 0 7 6 10 14 7 17 -7 40 17 34 35
-3 9 -6 9 -12 0z"/>
<path d="M8866 3043 c-6 -14 -5 -15 5 -6 7 7 10 15 7 18 -3 3 -9 -2 -12 -12z"/>
<path d="M8681 2994 c0 -11 3 -14 6 -6 3 7 2 16 -1 19 -3 4 -6 -2 -5 -13z"/>
<path d="M1850 2965 c7 -9 15 -13 17 -11 7 7 -7 26 -19 26 -6 0 -6 -6 2 -15z"/>
<path d="M1730 2940 c-14 -10 -22 -22 -18 -25 7 -8 57 25 58 38 0 12 -14 8
-40 -13z"/>
<path d="M1865 2916 c-16 -18 -56 -54 -88 -81 l-57 -50 -4 -71 c-2 -39 -9 -80
-15 -92 -15 -28 -14 -61 3 -78 20 -19 24 -18 76 16 25 16 57 30 71 30 32 0
115 59 152 107 35 48 35 87 -2 144 -39 57 -51 71 -81 90 -24 15 -26 15 -55
-15z"/>
<path d="M2671 2684 c0 -11 3 -14 6 -6 3 7 2 16 -1 19 -3 4 -6 -2 -5 -13z"/>
<path d="M2713 2482 c0 -53 3 -62 19 -62 22 0 22 10 -1 75 l-18 50 0 -63z"/>
<path d="M462 2410 c-12 -5 -25 -16 -28 -24 -7 -19 22 -63 47 -71 24 -8 49
-55 49 -94 0 -42 20 -82 39 -79 22 4 22 57 0 105 -10 21 -20 63 -24 93 -9 78
-26 92 -83 70z"/>
<path d="M2228 1363 c6 -2 9 -10 6 -15 -4 -7 -2 -8 5 -4 13 9 5 26 -12 25 -9
0 -8 -2 1 -6z"/>
<path d="M2187 1349 c7 -7 15 -10 18 -7 3 3 -2 9 -12 12 -14 6 -15 5 -6 -5z"/>
<path d="M1530 411 c0 -5 6 -11 13 -14 8 -3 14 1 14 9 0 8 -6 14 -14 14 -7 0
-13 -4 -13 -9z"/>
<path d="M1418 273 c6 -3 12 -14 12 -26 0 -44 5 -46 195 -88 55 -12 105 -23
111 -26 13 -5 37 44 25 51 -18 12 -135 35 -144 29 -6 -4 -7 -1 -2 6 5 9 0 12
-17 9 -14 -1 -31 2 -39 9 -8 6 -28 14 -44 17 l-30 6 28 -11 c39 -15 36 -41 -4
-37 -38 4 -62 33 -39 48 12 8 12 10 -5 10 -11 0 -29 2 -40 4 -11 2 -14 1 -7
-1z"/>
<path d="M7377 229 c7 -7 15 -10 18 -7 3 3 -2 9 -12 12 -14 6 -15 5 -6 -5z"/>
<path d="M7410 219 c0 -5 5 -7 10 -4 6 3 10 8 10 11 0 2 -4 4 -10 4 -5 0 -10
-5 -10 -11z"/>
<path d="M8108 183 c7 -3 16 -2 19 1 4 3 -2 6 -13 5 -11 0 -14 -3 -6 -6z"/>
<path d="M4260 154 c-65 -21 -349 -97 -465 -125 l-100 -24 260 -3 c269 -3 271
-3 453 44 22 6 13 29 -31 77 -48 51 -51 52 -117 31z"/>
<path d="M1876 135 c13 -10 14 -14 5 -15 -24 0 9 -30 34 -30 19 0 43 27 33 35
-15 12 -51 25 -69 25 -22 0 -22 0 -3 -15z"/>
<path d="M1983 78 c2 -25 8 -34 27 -40 14 -4 46 -13 73 -21 44 -13 47 -13 47
4 0 10 -4 20 -10 24 -5 3 -7 12 -4 19 4 10 -11 19 -49 30 -79 23 -86 22 -84
-16z"/>
</g>
</svg>
